G75*
%MOIN*%
%OFA0B0*%
%FSLAX25Y25*%
%IPPOS*%
%LPD*%
%AMOC8*
5,1,8,0,0,1.08239X$1,22.5*
%
%ADD10C,0.00000*%
%ADD11C,0.10039*%
%ADD12OC8,0.12000*%
%ADD13C,0.07400*%
%ADD14OC8,0.07400*%
%ADD15C,0.08850*%
%ADD16C,0.10050*%
%ADD17OC8,0.05600*%
%ADD18C,0.05600*%
%ADD19C,0.06400*%
%ADD20C,0.01600*%
%ADD21R,0.03962X0.03962*%
%ADD22C,0.01000*%
D10*
X0006800Y0006896D02*
X0006800Y0405396D01*
X0646800Y0405396D01*
X0646800Y0006896D01*
X0006800Y0006896D01*
X0144800Y0031896D02*
X0144802Y0032068D01*
X0144808Y0032239D01*
X0144819Y0032411D01*
X0144834Y0032582D01*
X0144853Y0032753D01*
X0144876Y0032923D01*
X0144903Y0033093D01*
X0144935Y0033262D01*
X0144970Y0033430D01*
X0145010Y0033597D01*
X0145054Y0033763D01*
X0145101Y0033928D01*
X0145153Y0034092D01*
X0145209Y0034254D01*
X0145269Y0034415D01*
X0145333Y0034575D01*
X0145401Y0034733D01*
X0145472Y0034889D01*
X0145547Y0035043D01*
X0145627Y0035196D01*
X0145709Y0035346D01*
X0145796Y0035495D01*
X0145886Y0035641D01*
X0145980Y0035785D01*
X0146077Y0035927D01*
X0146178Y0036066D01*
X0146282Y0036203D01*
X0146389Y0036337D01*
X0146500Y0036468D01*
X0146613Y0036597D01*
X0146730Y0036723D01*
X0146850Y0036846D01*
X0146973Y0036966D01*
X0147099Y0037083D01*
X0147228Y0037196D01*
X0147359Y0037307D01*
X0147493Y0037414D01*
X0147630Y0037518D01*
X0147769Y0037619D01*
X0147911Y0037716D01*
X0148055Y0037810D01*
X0148201Y0037900D01*
X0148350Y0037987D01*
X0148500Y0038069D01*
X0148653Y0038149D01*
X0148807Y0038224D01*
X0148963Y0038295D01*
X0149121Y0038363D01*
X0149281Y0038427D01*
X0149442Y0038487D01*
X0149604Y0038543D01*
X0149768Y0038595D01*
X0149933Y0038642D01*
X0150099Y0038686D01*
X0150266Y0038726D01*
X0150434Y0038761D01*
X0150603Y0038793D01*
X0150773Y0038820D01*
X0150943Y0038843D01*
X0151114Y0038862D01*
X0151285Y0038877D01*
X0151457Y0038888D01*
X0151628Y0038894D01*
X0151800Y0038896D01*
X0151972Y0038894D01*
X0152143Y0038888D01*
X0152315Y0038877D01*
X0152486Y0038862D01*
X0152657Y0038843D01*
X0152827Y0038820D01*
X0152997Y0038793D01*
X0153166Y0038761D01*
X0153334Y0038726D01*
X0153501Y0038686D01*
X0153667Y0038642D01*
X0153832Y0038595D01*
X0153996Y0038543D01*
X0154158Y0038487D01*
X0154319Y0038427D01*
X0154479Y0038363D01*
X0154637Y0038295D01*
X0154793Y0038224D01*
X0154947Y0038149D01*
X0155100Y0038069D01*
X0155250Y0037987D01*
X0155399Y0037900D01*
X0155545Y0037810D01*
X0155689Y0037716D01*
X0155831Y0037619D01*
X0155970Y0037518D01*
X0156107Y0037414D01*
X0156241Y0037307D01*
X0156372Y0037196D01*
X0156501Y0037083D01*
X0156627Y0036966D01*
X0156750Y0036846D01*
X0156870Y0036723D01*
X0156987Y0036597D01*
X0157100Y0036468D01*
X0157211Y0036337D01*
X0157318Y0036203D01*
X0157422Y0036066D01*
X0157523Y0035927D01*
X0157620Y0035785D01*
X0157714Y0035641D01*
X0157804Y0035495D01*
X0157891Y0035346D01*
X0157973Y0035196D01*
X0158053Y0035043D01*
X0158128Y0034889D01*
X0158199Y0034733D01*
X0158267Y0034575D01*
X0158331Y0034415D01*
X0158391Y0034254D01*
X0158447Y0034092D01*
X0158499Y0033928D01*
X0158546Y0033763D01*
X0158590Y0033597D01*
X0158630Y0033430D01*
X0158665Y0033262D01*
X0158697Y0033093D01*
X0158724Y0032923D01*
X0158747Y0032753D01*
X0158766Y0032582D01*
X0158781Y0032411D01*
X0158792Y0032239D01*
X0158798Y0032068D01*
X0158800Y0031896D01*
X0158798Y0031724D01*
X0158792Y0031553D01*
X0158781Y0031381D01*
X0158766Y0031210D01*
X0158747Y0031039D01*
X0158724Y0030869D01*
X0158697Y0030699D01*
X0158665Y0030530D01*
X0158630Y0030362D01*
X0158590Y0030195D01*
X0158546Y0030029D01*
X0158499Y0029864D01*
X0158447Y0029700D01*
X0158391Y0029538D01*
X0158331Y0029377D01*
X0158267Y0029217D01*
X0158199Y0029059D01*
X0158128Y0028903D01*
X0158053Y0028749D01*
X0157973Y0028596D01*
X0157891Y0028446D01*
X0157804Y0028297D01*
X0157714Y0028151D01*
X0157620Y0028007D01*
X0157523Y0027865D01*
X0157422Y0027726D01*
X0157318Y0027589D01*
X0157211Y0027455D01*
X0157100Y0027324D01*
X0156987Y0027195D01*
X0156870Y0027069D01*
X0156750Y0026946D01*
X0156627Y0026826D01*
X0156501Y0026709D01*
X0156372Y0026596D01*
X0156241Y0026485D01*
X0156107Y0026378D01*
X0155970Y0026274D01*
X0155831Y0026173D01*
X0155689Y0026076D01*
X0155545Y0025982D01*
X0155399Y0025892D01*
X0155250Y0025805D01*
X0155100Y0025723D01*
X0154947Y0025643D01*
X0154793Y0025568D01*
X0154637Y0025497D01*
X0154479Y0025429D01*
X0154319Y0025365D01*
X0154158Y0025305D01*
X0153996Y0025249D01*
X0153832Y0025197D01*
X0153667Y0025150D01*
X0153501Y0025106D01*
X0153334Y0025066D01*
X0153166Y0025031D01*
X0152997Y0024999D01*
X0152827Y0024972D01*
X0152657Y0024949D01*
X0152486Y0024930D01*
X0152315Y0024915D01*
X0152143Y0024904D01*
X0151972Y0024898D01*
X0151800Y0024896D01*
X0151628Y0024898D01*
X0151457Y0024904D01*
X0151285Y0024915D01*
X0151114Y0024930D01*
X0150943Y0024949D01*
X0150773Y0024972D01*
X0150603Y0024999D01*
X0150434Y0025031D01*
X0150266Y0025066D01*
X0150099Y0025106D01*
X0149933Y0025150D01*
X0149768Y0025197D01*
X0149604Y0025249D01*
X0149442Y0025305D01*
X0149281Y0025365D01*
X0149121Y0025429D01*
X0148963Y0025497D01*
X0148807Y0025568D01*
X0148653Y0025643D01*
X0148500Y0025723D01*
X0148350Y0025805D01*
X0148201Y0025892D01*
X0148055Y0025982D01*
X0147911Y0026076D01*
X0147769Y0026173D01*
X0147630Y0026274D01*
X0147493Y0026378D01*
X0147359Y0026485D01*
X0147228Y0026596D01*
X0147099Y0026709D01*
X0146973Y0026826D01*
X0146850Y0026946D01*
X0146730Y0027069D01*
X0146613Y0027195D01*
X0146500Y0027324D01*
X0146389Y0027455D01*
X0146282Y0027589D01*
X0146178Y0027726D01*
X0146077Y0027865D01*
X0145980Y0028007D01*
X0145886Y0028151D01*
X0145796Y0028297D01*
X0145709Y0028446D01*
X0145627Y0028596D01*
X0145547Y0028749D01*
X0145472Y0028903D01*
X0145401Y0029059D01*
X0145333Y0029217D01*
X0145269Y0029377D01*
X0145209Y0029538D01*
X0145153Y0029700D01*
X0145101Y0029864D01*
X0145054Y0030029D01*
X0145010Y0030195D01*
X0144970Y0030362D01*
X0144935Y0030530D01*
X0144903Y0030699D01*
X0144876Y0030869D01*
X0144853Y0031039D01*
X0144834Y0031210D01*
X0144819Y0031381D01*
X0144808Y0031553D01*
X0144802Y0031724D01*
X0144800Y0031896D01*
X0195989Y0061739D02*
X0195991Y0061870D01*
X0195997Y0062002D01*
X0196007Y0062133D01*
X0196021Y0062264D01*
X0196039Y0062394D01*
X0196061Y0062523D01*
X0196086Y0062652D01*
X0196116Y0062780D01*
X0196150Y0062907D01*
X0196187Y0063034D01*
X0196228Y0063158D01*
X0196273Y0063282D01*
X0196322Y0063404D01*
X0196374Y0063525D01*
X0196430Y0063643D01*
X0196490Y0063761D01*
X0196553Y0063876D01*
X0196620Y0063989D01*
X0196690Y0064101D01*
X0196763Y0064210D01*
X0196839Y0064316D01*
X0196919Y0064421D01*
X0197002Y0064523D01*
X0197088Y0064622D01*
X0197177Y0064719D01*
X0197269Y0064813D01*
X0197364Y0064904D01*
X0197461Y0064993D01*
X0197561Y0065078D01*
X0197664Y0065160D01*
X0197769Y0065239D01*
X0197876Y0065315D01*
X0197986Y0065387D01*
X0198098Y0065456D01*
X0198212Y0065522D01*
X0198327Y0065584D01*
X0198445Y0065643D01*
X0198564Y0065698D01*
X0198685Y0065750D01*
X0198808Y0065797D01*
X0198932Y0065841D01*
X0199057Y0065882D01*
X0199183Y0065918D01*
X0199311Y0065951D01*
X0199439Y0065979D01*
X0199568Y0066004D01*
X0199698Y0066025D01*
X0199828Y0066042D01*
X0199959Y0066055D01*
X0200090Y0066064D01*
X0200221Y0066069D01*
X0200353Y0066070D01*
X0200484Y0066067D01*
X0200616Y0066060D01*
X0200747Y0066049D01*
X0200877Y0066034D01*
X0201007Y0066015D01*
X0201137Y0065992D01*
X0201265Y0065966D01*
X0201393Y0065935D01*
X0201520Y0065900D01*
X0201646Y0065862D01*
X0201770Y0065820D01*
X0201894Y0065774D01*
X0202015Y0065724D01*
X0202135Y0065671D01*
X0202254Y0065614D01*
X0202371Y0065554D01*
X0202485Y0065490D01*
X0202598Y0065422D01*
X0202709Y0065351D01*
X0202818Y0065277D01*
X0202924Y0065200D01*
X0203028Y0065119D01*
X0203129Y0065036D01*
X0203228Y0064949D01*
X0203324Y0064859D01*
X0203417Y0064766D01*
X0203508Y0064671D01*
X0203595Y0064573D01*
X0203680Y0064472D01*
X0203761Y0064369D01*
X0203839Y0064263D01*
X0203914Y0064155D01*
X0203986Y0064045D01*
X0204054Y0063933D01*
X0204119Y0063819D01*
X0204180Y0063702D01*
X0204238Y0063584D01*
X0204292Y0063464D01*
X0204343Y0063343D01*
X0204390Y0063220D01*
X0204433Y0063096D01*
X0204472Y0062971D01*
X0204508Y0062844D01*
X0204539Y0062716D01*
X0204567Y0062588D01*
X0204591Y0062459D01*
X0204611Y0062329D01*
X0204627Y0062198D01*
X0204639Y0062067D01*
X0204647Y0061936D01*
X0204651Y0061805D01*
X0204651Y0061673D01*
X0204647Y0061542D01*
X0204639Y0061411D01*
X0204627Y0061280D01*
X0204611Y0061149D01*
X0204591Y0061019D01*
X0204567Y0060890D01*
X0204539Y0060762D01*
X0204508Y0060634D01*
X0204472Y0060507D01*
X0204433Y0060382D01*
X0204390Y0060258D01*
X0204343Y0060135D01*
X0204292Y0060014D01*
X0204238Y0059894D01*
X0204180Y0059776D01*
X0204119Y0059659D01*
X0204054Y0059545D01*
X0203986Y0059433D01*
X0203914Y0059323D01*
X0203839Y0059215D01*
X0203761Y0059109D01*
X0203680Y0059006D01*
X0203595Y0058905D01*
X0203508Y0058807D01*
X0203417Y0058712D01*
X0203324Y0058619D01*
X0203228Y0058529D01*
X0203129Y0058442D01*
X0203028Y0058359D01*
X0202924Y0058278D01*
X0202818Y0058201D01*
X0202709Y0058127D01*
X0202598Y0058056D01*
X0202486Y0057988D01*
X0202371Y0057924D01*
X0202254Y0057864D01*
X0202135Y0057807D01*
X0202015Y0057754D01*
X0201894Y0057704D01*
X0201770Y0057658D01*
X0201646Y0057616D01*
X0201520Y0057578D01*
X0201393Y0057543D01*
X0201265Y0057512D01*
X0201137Y0057486D01*
X0201007Y0057463D01*
X0200877Y0057444D01*
X0200747Y0057429D01*
X0200616Y0057418D01*
X0200484Y0057411D01*
X0200353Y0057408D01*
X0200221Y0057409D01*
X0200090Y0057414D01*
X0199959Y0057423D01*
X0199828Y0057436D01*
X0199698Y0057453D01*
X0199568Y0057474D01*
X0199439Y0057499D01*
X0199311Y0057527D01*
X0199183Y0057560D01*
X0199057Y0057596D01*
X0198932Y0057637D01*
X0198808Y0057681D01*
X0198685Y0057728D01*
X0198564Y0057780D01*
X0198445Y0057835D01*
X0198327Y0057894D01*
X0198212Y0057956D01*
X0198098Y0058022D01*
X0197986Y0058091D01*
X0197876Y0058163D01*
X0197769Y0058239D01*
X0197664Y0058318D01*
X0197561Y0058400D01*
X0197461Y0058485D01*
X0197364Y0058574D01*
X0197269Y0058665D01*
X0197177Y0058759D01*
X0197088Y0058856D01*
X0197002Y0058955D01*
X0196919Y0059057D01*
X0196839Y0059162D01*
X0196763Y0059268D01*
X0196690Y0059377D01*
X0196620Y0059489D01*
X0196553Y0059602D01*
X0196490Y0059717D01*
X0196430Y0059835D01*
X0196374Y0059953D01*
X0196322Y0060074D01*
X0196273Y0060196D01*
X0196228Y0060320D01*
X0196187Y0060444D01*
X0196150Y0060571D01*
X0196116Y0060698D01*
X0196086Y0060826D01*
X0196061Y0060955D01*
X0196039Y0061084D01*
X0196021Y0061214D01*
X0196007Y0061345D01*
X0195997Y0061476D01*
X0195991Y0061608D01*
X0195989Y0061739D01*
X0494800Y0031896D02*
X0494802Y0032068D01*
X0494808Y0032239D01*
X0494819Y0032411D01*
X0494834Y0032582D01*
X0494853Y0032753D01*
X0494876Y0032923D01*
X0494903Y0033093D01*
X0494935Y0033262D01*
X0494970Y0033430D01*
X0495010Y0033597D01*
X0495054Y0033763D01*
X0495101Y0033928D01*
X0495153Y0034092D01*
X0495209Y0034254D01*
X0495269Y0034415D01*
X0495333Y0034575D01*
X0495401Y0034733D01*
X0495472Y0034889D01*
X0495547Y0035043D01*
X0495627Y0035196D01*
X0495709Y0035346D01*
X0495796Y0035495D01*
X0495886Y0035641D01*
X0495980Y0035785D01*
X0496077Y0035927D01*
X0496178Y0036066D01*
X0496282Y0036203D01*
X0496389Y0036337D01*
X0496500Y0036468D01*
X0496613Y0036597D01*
X0496730Y0036723D01*
X0496850Y0036846D01*
X0496973Y0036966D01*
X0497099Y0037083D01*
X0497228Y0037196D01*
X0497359Y0037307D01*
X0497493Y0037414D01*
X0497630Y0037518D01*
X0497769Y0037619D01*
X0497911Y0037716D01*
X0498055Y0037810D01*
X0498201Y0037900D01*
X0498350Y0037987D01*
X0498500Y0038069D01*
X0498653Y0038149D01*
X0498807Y0038224D01*
X0498963Y0038295D01*
X0499121Y0038363D01*
X0499281Y0038427D01*
X0499442Y0038487D01*
X0499604Y0038543D01*
X0499768Y0038595D01*
X0499933Y0038642D01*
X0500099Y0038686D01*
X0500266Y0038726D01*
X0500434Y0038761D01*
X0500603Y0038793D01*
X0500773Y0038820D01*
X0500943Y0038843D01*
X0501114Y0038862D01*
X0501285Y0038877D01*
X0501457Y0038888D01*
X0501628Y0038894D01*
X0501800Y0038896D01*
X0501972Y0038894D01*
X0502143Y0038888D01*
X0502315Y0038877D01*
X0502486Y0038862D01*
X0502657Y0038843D01*
X0502827Y0038820D01*
X0502997Y0038793D01*
X0503166Y0038761D01*
X0503334Y0038726D01*
X0503501Y0038686D01*
X0503667Y0038642D01*
X0503832Y0038595D01*
X0503996Y0038543D01*
X0504158Y0038487D01*
X0504319Y0038427D01*
X0504479Y0038363D01*
X0504637Y0038295D01*
X0504793Y0038224D01*
X0504947Y0038149D01*
X0505100Y0038069D01*
X0505250Y0037987D01*
X0505399Y0037900D01*
X0505545Y0037810D01*
X0505689Y0037716D01*
X0505831Y0037619D01*
X0505970Y0037518D01*
X0506107Y0037414D01*
X0506241Y0037307D01*
X0506372Y0037196D01*
X0506501Y0037083D01*
X0506627Y0036966D01*
X0506750Y0036846D01*
X0506870Y0036723D01*
X0506987Y0036597D01*
X0507100Y0036468D01*
X0507211Y0036337D01*
X0507318Y0036203D01*
X0507422Y0036066D01*
X0507523Y0035927D01*
X0507620Y0035785D01*
X0507714Y0035641D01*
X0507804Y0035495D01*
X0507891Y0035346D01*
X0507973Y0035196D01*
X0508053Y0035043D01*
X0508128Y0034889D01*
X0508199Y0034733D01*
X0508267Y0034575D01*
X0508331Y0034415D01*
X0508391Y0034254D01*
X0508447Y0034092D01*
X0508499Y0033928D01*
X0508546Y0033763D01*
X0508590Y0033597D01*
X0508630Y0033430D01*
X0508665Y0033262D01*
X0508697Y0033093D01*
X0508724Y0032923D01*
X0508747Y0032753D01*
X0508766Y0032582D01*
X0508781Y0032411D01*
X0508792Y0032239D01*
X0508798Y0032068D01*
X0508800Y0031896D01*
X0508798Y0031724D01*
X0508792Y0031553D01*
X0508781Y0031381D01*
X0508766Y0031210D01*
X0508747Y0031039D01*
X0508724Y0030869D01*
X0508697Y0030699D01*
X0508665Y0030530D01*
X0508630Y0030362D01*
X0508590Y0030195D01*
X0508546Y0030029D01*
X0508499Y0029864D01*
X0508447Y0029700D01*
X0508391Y0029538D01*
X0508331Y0029377D01*
X0508267Y0029217D01*
X0508199Y0029059D01*
X0508128Y0028903D01*
X0508053Y0028749D01*
X0507973Y0028596D01*
X0507891Y0028446D01*
X0507804Y0028297D01*
X0507714Y0028151D01*
X0507620Y0028007D01*
X0507523Y0027865D01*
X0507422Y0027726D01*
X0507318Y0027589D01*
X0507211Y0027455D01*
X0507100Y0027324D01*
X0506987Y0027195D01*
X0506870Y0027069D01*
X0506750Y0026946D01*
X0506627Y0026826D01*
X0506501Y0026709D01*
X0506372Y0026596D01*
X0506241Y0026485D01*
X0506107Y0026378D01*
X0505970Y0026274D01*
X0505831Y0026173D01*
X0505689Y0026076D01*
X0505545Y0025982D01*
X0505399Y0025892D01*
X0505250Y0025805D01*
X0505100Y0025723D01*
X0504947Y0025643D01*
X0504793Y0025568D01*
X0504637Y0025497D01*
X0504479Y0025429D01*
X0504319Y0025365D01*
X0504158Y0025305D01*
X0503996Y0025249D01*
X0503832Y0025197D01*
X0503667Y0025150D01*
X0503501Y0025106D01*
X0503334Y0025066D01*
X0503166Y0025031D01*
X0502997Y0024999D01*
X0502827Y0024972D01*
X0502657Y0024949D01*
X0502486Y0024930D01*
X0502315Y0024915D01*
X0502143Y0024904D01*
X0501972Y0024898D01*
X0501800Y0024896D01*
X0501628Y0024898D01*
X0501457Y0024904D01*
X0501285Y0024915D01*
X0501114Y0024930D01*
X0500943Y0024949D01*
X0500773Y0024972D01*
X0500603Y0024999D01*
X0500434Y0025031D01*
X0500266Y0025066D01*
X0500099Y0025106D01*
X0499933Y0025150D01*
X0499768Y0025197D01*
X0499604Y0025249D01*
X0499442Y0025305D01*
X0499281Y0025365D01*
X0499121Y0025429D01*
X0498963Y0025497D01*
X0498807Y0025568D01*
X0498653Y0025643D01*
X0498500Y0025723D01*
X0498350Y0025805D01*
X0498201Y0025892D01*
X0498055Y0025982D01*
X0497911Y0026076D01*
X0497769Y0026173D01*
X0497630Y0026274D01*
X0497493Y0026378D01*
X0497359Y0026485D01*
X0497228Y0026596D01*
X0497099Y0026709D01*
X0496973Y0026826D01*
X0496850Y0026946D01*
X0496730Y0027069D01*
X0496613Y0027195D01*
X0496500Y0027324D01*
X0496389Y0027455D01*
X0496282Y0027589D01*
X0496178Y0027726D01*
X0496077Y0027865D01*
X0495980Y0028007D01*
X0495886Y0028151D01*
X0495796Y0028297D01*
X0495709Y0028446D01*
X0495627Y0028596D01*
X0495547Y0028749D01*
X0495472Y0028903D01*
X0495401Y0029059D01*
X0495333Y0029217D01*
X0495269Y0029377D01*
X0495209Y0029538D01*
X0495153Y0029700D01*
X0495101Y0029864D01*
X0495054Y0030029D01*
X0495010Y0030195D01*
X0494970Y0030362D01*
X0494935Y0030530D01*
X0494903Y0030699D01*
X0494876Y0030869D01*
X0494853Y0031039D01*
X0494834Y0031210D01*
X0494819Y0031381D01*
X0494808Y0031553D01*
X0494802Y0031724D01*
X0494800Y0031896D01*
X0031028Y0336148D02*
X0031030Y0336279D01*
X0031036Y0336411D01*
X0031046Y0336542D01*
X0031060Y0336673D01*
X0031078Y0336803D01*
X0031100Y0336932D01*
X0031125Y0337061D01*
X0031155Y0337189D01*
X0031189Y0337316D01*
X0031226Y0337443D01*
X0031267Y0337567D01*
X0031312Y0337691D01*
X0031361Y0337813D01*
X0031413Y0337934D01*
X0031469Y0338052D01*
X0031529Y0338170D01*
X0031592Y0338285D01*
X0031659Y0338398D01*
X0031729Y0338510D01*
X0031802Y0338619D01*
X0031878Y0338725D01*
X0031958Y0338830D01*
X0032041Y0338932D01*
X0032127Y0339031D01*
X0032216Y0339128D01*
X0032308Y0339222D01*
X0032403Y0339313D01*
X0032500Y0339402D01*
X0032600Y0339487D01*
X0032703Y0339569D01*
X0032808Y0339648D01*
X0032915Y0339724D01*
X0033025Y0339796D01*
X0033137Y0339865D01*
X0033251Y0339931D01*
X0033366Y0339993D01*
X0033484Y0340052D01*
X0033603Y0340107D01*
X0033724Y0340159D01*
X0033847Y0340206D01*
X0033971Y0340250D01*
X0034096Y0340291D01*
X0034222Y0340327D01*
X0034350Y0340360D01*
X0034478Y0340388D01*
X0034607Y0340413D01*
X0034737Y0340434D01*
X0034867Y0340451D01*
X0034998Y0340464D01*
X0035129Y0340473D01*
X0035260Y0340478D01*
X0035392Y0340479D01*
X0035523Y0340476D01*
X0035655Y0340469D01*
X0035786Y0340458D01*
X0035916Y0340443D01*
X0036046Y0340424D01*
X0036176Y0340401D01*
X0036304Y0340375D01*
X0036432Y0340344D01*
X0036559Y0340309D01*
X0036685Y0340271D01*
X0036809Y0340229D01*
X0036933Y0340183D01*
X0037054Y0340133D01*
X0037174Y0340080D01*
X0037293Y0340023D01*
X0037410Y0339963D01*
X0037524Y0339899D01*
X0037637Y0339831D01*
X0037748Y0339760D01*
X0037857Y0339686D01*
X0037963Y0339609D01*
X0038067Y0339528D01*
X0038168Y0339445D01*
X0038267Y0339358D01*
X0038363Y0339268D01*
X0038456Y0339175D01*
X0038547Y0339080D01*
X0038634Y0338982D01*
X0038719Y0338881D01*
X0038800Y0338778D01*
X0038878Y0338672D01*
X0038953Y0338564D01*
X0039025Y0338454D01*
X0039093Y0338342D01*
X0039158Y0338228D01*
X0039219Y0338111D01*
X0039277Y0337993D01*
X0039331Y0337873D01*
X0039382Y0337752D01*
X0039429Y0337629D01*
X0039472Y0337505D01*
X0039511Y0337380D01*
X0039547Y0337253D01*
X0039578Y0337125D01*
X0039606Y0336997D01*
X0039630Y0336868D01*
X0039650Y0336738D01*
X0039666Y0336607D01*
X0039678Y0336476D01*
X0039686Y0336345D01*
X0039690Y0336214D01*
X0039690Y0336082D01*
X0039686Y0335951D01*
X0039678Y0335820D01*
X0039666Y0335689D01*
X0039650Y0335558D01*
X0039630Y0335428D01*
X0039606Y0335299D01*
X0039578Y0335171D01*
X0039547Y0335043D01*
X0039511Y0334916D01*
X0039472Y0334791D01*
X0039429Y0334667D01*
X0039382Y0334544D01*
X0039331Y0334423D01*
X0039277Y0334303D01*
X0039219Y0334185D01*
X0039158Y0334068D01*
X0039093Y0333954D01*
X0039025Y0333842D01*
X0038953Y0333732D01*
X0038878Y0333624D01*
X0038800Y0333518D01*
X0038719Y0333415D01*
X0038634Y0333314D01*
X0038547Y0333216D01*
X0038456Y0333121D01*
X0038363Y0333028D01*
X0038267Y0332938D01*
X0038168Y0332851D01*
X0038067Y0332768D01*
X0037963Y0332687D01*
X0037857Y0332610D01*
X0037748Y0332536D01*
X0037637Y0332465D01*
X0037525Y0332397D01*
X0037410Y0332333D01*
X0037293Y0332273D01*
X0037174Y0332216D01*
X0037054Y0332163D01*
X0036933Y0332113D01*
X0036809Y0332067D01*
X0036685Y0332025D01*
X0036559Y0331987D01*
X0036432Y0331952D01*
X0036304Y0331921D01*
X0036176Y0331895D01*
X0036046Y0331872D01*
X0035916Y0331853D01*
X0035786Y0331838D01*
X0035655Y0331827D01*
X0035523Y0331820D01*
X0035392Y0331817D01*
X0035260Y0331818D01*
X0035129Y0331823D01*
X0034998Y0331832D01*
X0034867Y0331845D01*
X0034737Y0331862D01*
X0034607Y0331883D01*
X0034478Y0331908D01*
X0034350Y0331936D01*
X0034222Y0331969D01*
X0034096Y0332005D01*
X0033971Y0332046D01*
X0033847Y0332090D01*
X0033724Y0332137D01*
X0033603Y0332189D01*
X0033484Y0332244D01*
X0033366Y0332303D01*
X0033251Y0332365D01*
X0033137Y0332431D01*
X0033025Y0332500D01*
X0032915Y0332572D01*
X0032808Y0332648D01*
X0032703Y0332727D01*
X0032600Y0332809D01*
X0032500Y0332894D01*
X0032403Y0332983D01*
X0032308Y0333074D01*
X0032216Y0333168D01*
X0032127Y0333265D01*
X0032041Y0333364D01*
X0031958Y0333466D01*
X0031878Y0333571D01*
X0031802Y0333677D01*
X0031729Y0333786D01*
X0031659Y0333898D01*
X0031592Y0334011D01*
X0031529Y0334126D01*
X0031469Y0334244D01*
X0031413Y0334362D01*
X0031361Y0334483D01*
X0031312Y0334605D01*
X0031267Y0334729D01*
X0031226Y0334853D01*
X0031189Y0334980D01*
X0031155Y0335107D01*
X0031125Y0335235D01*
X0031100Y0335364D01*
X0031078Y0335493D01*
X0031060Y0335623D01*
X0031046Y0335754D01*
X0031036Y0335885D01*
X0031030Y0336017D01*
X0031028Y0336148D01*
X0144800Y0381896D02*
X0144802Y0382068D01*
X0144808Y0382239D01*
X0144819Y0382411D01*
X0144834Y0382582D01*
X0144853Y0382753D01*
X0144876Y0382923D01*
X0144903Y0383093D01*
X0144935Y0383262D01*
X0144970Y0383430D01*
X0145010Y0383597D01*
X0145054Y0383763D01*
X0145101Y0383928D01*
X0145153Y0384092D01*
X0145209Y0384254D01*
X0145269Y0384415D01*
X0145333Y0384575D01*
X0145401Y0384733D01*
X0145472Y0384889D01*
X0145547Y0385043D01*
X0145627Y0385196D01*
X0145709Y0385346D01*
X0145796Y0385495D01*
X0145886Y0385641D01*
X0145980Y0385785D01*
X0146077Y0385927D01*
X0146178Y0386066D01*
X0146282Y0386203D01*
X0146389Y0386337D01*
X0146500Y0386468D01*
X0146613Y0386597D01*
X0146730Y0386723D01*
X0146850Y0386846D01*
X0146973Y0386966D01*
X0147099Y0387083D01*
X0147228Y0387196D01*
X0147359Y0387307D01*
X0147493Y0387414D01*
X0147630Y0387518D01*
X0147769Y0387619D01*
X0147911Y0387716D01*
X0148055Y0387810D01*
X0148201Y0387900D01*
X0148350Y0387987D01*
X0148500Y0388069D01*
X0148653Y0388149D01*
X0148807Y0388224D01*
X0148963Y0388295D01*
X0149121Y0388363D01*
X0149281Y0388427D01*
X0149442Y0388487D01*
X0149604Y0388543D01*
X0149768Y0388595D01*
X0149933Y0388642D01*
X0150099Y0388686D01*
X0150266Y0388726D01*
X0150434Y0388761D01*
X0150603Y0388793D01*
X0150773Y0388820D01*
X0150943Y0388843D01*
X0151114Y0388862D01*
X0151285Y0388877D01*
X0151457Y0388888D01*
X0151628Y0388894D01*
X0151800Y0388896D01*
X0151972Y0388894D01*
X0152143Y0388888D01*
X0152315Y0388877D01*
X0152486Y0388862D01*
X0152657Y0388843D01*
X0152827Y0388820D01*
X0152997Y0388793D01*
X0153166Y0388761D01*
X0153334Y0388726D01*
X0153501Y0388686D01*
X0153667Y0388642D01*
X0153832Y0388595D01*
X0153996Y0388543D01*
X0154158Y0388487D01*
X0154319Y0388427D01*
X0154479Y0388363D01*
X0154637Y0388295D01*
X0154793Y0388224D01*
X0154947Y0388149D01*
X0155100Y0388069D01*
X0155250Y0387987D01*
X0155399Y0387900D01*
X0155545Y0387810D01*
X0155689Y0387716D01*
X0155831Y0387619D01*
X0155970Y0387518D01*
X0156107Y0387414D01*
X0156241Y0387307D01*
X0156372Y0387196D01*
X0156501Y0387083D01*
X0156627Y0386966D01*
X0156750Y0386846D01*
X0156870Y0386723D01*
X0156987Y0386597D01*
X0157100Y0386468D01*
X0157211Y0386337D01*
X0157318Y0386203D01*
X0157422Y0386066D01*
X0157523Y0385927D01*
X0157620Y0385785D01*
X0157714Y0385641D01*
X0157804Y0385495D01*
X0157891Y0385346D01*
X0157973Y0385196D01*
X0158053Y0385043D01*
X0158128Y0384889D01*
X0158199Y0384733D01*
X0158267Y0384575D01*
X0158331Y0384415D01*
X0158391Y0384254D01*
X0158447Y0384092D01*
X0158499Y0383928D01*
X0158546Y0383763D01*
X0158590Y0383597D01*
X0158630Y0383430D01*
X0158665Y0383262D01*
X0158697Y0383093D01*
X0158724Y0382923D01*
X0158747Y0382753D01*
X0158766Y0382582D01*
X0158781Y0382411D01*
X0158792Y0382239D01*
X0158798Y0382068D01*
X0158800Y0381896D01*
X0158798Y0381724D01*
X0158792Y0381553D01*
X0158781Y0381381D01*
X0158766Y0381210D01*
X0158747Y0381039D01*
X0158724Y0380869D01*
X0158697Y0380699D01*
X0158665Y0380530D01*
X0158630Y0380362D01*
X0158590Y0380195D01*
X0158546Y0380029D01*
X0158499Y0379864D01*
X0158447Y0379700D01*
X0158391Y0379538D01*
X0158331Y0379377D01*
X0158267Y0379217D01*
X0158199Y0379059D01*
X0158128Y0378903D01*
X0158053Y0378749D01*
X0157973Y0378596D01*
X0157891Y0378446D01*
X0157804Y0378297D01*
X0157714Y0378151D01*
X0157620Y0378007D01*
X0157523Y0377865D01*
X0157422Y0377726D01*
X0157318Y0377589D01*
X0157211Y0377455D01*
X0157100Y0377324D01*
X0156987Y0377195D01*
X0156870Y0377069D01*
X0156750Y0376946D01*
X0156627Y0376826D01*
X0156501Y0376709D01*
X0156372Y0376596D01*
X0156241Y0376485D01*
X0156107Y0376378D01*
X0155970Y0376274D01*
X0155831Y0376173D01*
X0155689Y0376076D01*
X0155545Y0375982D01*
X0155399Y0375892D01*
X0155250Y0375805D01*
X0155100Y0375723D01*
X0154947Y0375643D01*
X0154793Y0375568D01*
X0154637Y0375497D01*
X0154479Y0375429D01*
X0154319Y0375365D01*
X0154158Y0375305D01*
X0153996Y0375249D01*
X0153832Y0375197D01*
X0153667Y0375150D01*
X0153501Y0375106D01*
X0153334Y0375066D01*
X0153166Y0375031D01*
X0152997Y0374999D01*
X0152827Y0374972D01*
X0152657Y0374949D01*
X0152486Y0374930D01*
X0152315Y0374915D01*
X0152143Y0374904D01*
X0151972Y0374898D01*
X0151800Y0374896D01*
X0151628Y0374898D01*
X0151457Y0374904D01*
X0151285Y0374915D01*
X0151114Y0374930D01*
X0150943Y0374949D01*
X0150773Y0374972D01*
X0150603Y0374999D01*
X0150434Y0375031D01*
X0150266Y0375066D01*
X0150099Y0375106D01*
X0149933Y0375150D01*
X0149768Y0375197D01*
X0149604Y0375249D01*
X0149442Y0375305D01*
X0149281Y0375365D01*
X0149121Y0375429D01*
X0148963Y0375497D01*
X0148807Y0375568D01*
X0148653Y0375643D01*
X0148500Y0375723D01*
X0148350Y0375805D01*
X0148201Y0375892D01*
X0148055Y0375982D01*
X0147911Y0376076D01*
X0147769Y0376173D01*
X0147630Y0376274D01*
X0147493Y0376378D01*
X0147359Y0376485D01*
X0147228Y0376596D01*
X0147099Y0376709D01*
X0146973Y0376826D01*
X0146850Y0376946D01*
X0146730Y0377069D01*
X0146613Y0377195D01*
X0146500Y0377324D01*
X0146389Y0377455D01*
X0146282Y0377589D01*
X0146178Y0377726D01*
X0146077Y0377865D01*
X0145980Y0378007D01*
X0145886Y0378151D01*
X0145796Y0378297D01*
X0145709Y0378446D01*
X0145627Y0378596D01*
X0145547Y0378749D01*
X0145472Y0378903D01*
X0145401Y0379059D01*
X0145333Y0379217D01*
X0145269Y0379377D01*
X0145209Y0379538D01*
X0145153Y0379700D01*
X0145101Y0379864D01*
X0145054Y0380029D01*
X0145010Y0380195D01*
X0144970Y0380362D01*
X0144935Y0380530D01*
X0144903Y0380699D01*
X0144876Y0380869D01*
X0144853Y0381039D01*
X0144834Y0381210D01*
X0144819Y0381381D01*
X0144808Y0381553D01*
X0144802Y0381724D01*
X0144800Y0381896D01*
X0494800Y0381896D02*
X0494802Y0382068D01*
X0494808Y0382239D01*
X0494819Y0382411D01*
X0494834Y0382582D01*
X0494853Y0382753D01*
X0494876Y0382923D01*
X0494903Y0383093D01*
X0494935Y0383262D01*
X0494970Y0383430D01*
X0495010Y0383597D01*
X0495054Y0383763D01*
X0495101Y0383928D01*
X0495153Y0384092D01*
X0495209Y0384254D01*
X0495269Y0384415D01*
X0495333Y0384575D01*
X0495401Y0384733D01*
X0495472Y0384889D01*
X0495547Y0385043D01*
X0495627Y0385196D01*
X0495709Y0385346D01*
X0495796Y0385495D01*
X0495886Y0385641D01*
X0495980Y0385785D01*
X0496077Y0385927D01*
X0496178Y0386066D01*
X0496282Y0386203D01*
X0496389Y0386337D01*
X0496500Y0386468D01*
X0496613Y0386597D01*
X0496730Y0386723D01*
X0496850Y0386846D01*
X0496973Y0386966D01*
X0497099Y0387083D01*
X0497228Y0387196D01*
X0497359Y0387307D01*
X0497493Y0387414D01*
X0497630Y0387518D01*
X0497769Y0387619D01*
X0497911Y0387716D01*
X0498055Y0387810D01*
X0498201Y0387900D01*
X0498350Y0387987D01*
X0498500Y0388069D01*
X0498653Y0388149D01*
X0498807Y0388224D01*
X0498963Y0388295D01*
X0499121Y0388363D01*
X0499281Y0388427D01*
X0499442Y0388487D01*
X0499604Y0388543D01*
X0499768Y0388595D01*
X0499933Y0388642D01*
X0500099Y0388686D01*
X0500266Y0388726D01*
X0500434Y0388761D01*
X0500603Y0388793D01*
X0500773Y0388820D01*
X0500943Y0388843D01*
X0501114Y0388862D01*
X0501285Y0388877D01*
X0501457Y0388888D01*
X0501628Y0388894D01*
X0501800Y0388896D01*
X0501972Y0388894D01*
X0502143Y0388888D01*
X0502315Y0388877D01*
X0502486Y0388862D01*
X0502657Y0388843D01*
X0502827Y0388820D01*
X0502997Y0388793D01*
X0503166Y0388761D01*
X0503334Y0388726D01*
X0503501Y0388686D01*
X0503667Y0388642D01*
X0503832Y0388595D01*
X0503996Y0388543D01*
X0504158Y0388487D01*
X0504319Y0388427D01*
X0504479Y0388363D01*
X0504637Y0388295D01*
X0504793Y0388224D01*
X0504947Y0388149D01*
X0505100Y0388069D01*
X0505250Y0387987D01*
X0505399Y0387900D01*
X0505545Y0387810D01*
X0505689Y0387716D01*
X0505831Y0387619D01*
X0505970Y0387518D01*
X0506107Y0387414D01*
X0506241Y0387307D01*
X0506372Y0387196D01*
X0506501Y0387083D01*
X0506627Y0386966D01*
X0506750Y0386846D01*
X0506870Y0386723D01*
X0506987Y0386597D01*
X0507100Y0386468D01*
X0507211Y0386337D01*
X0507318Y0386203D01*
X0507422Y0386066D01*
X0507523Y0385927D01*
X0507620Y0385785D01*
X0507714Y0385641D01*
X0507804Y0385495D01*
X0507891Y0385346D01*
X0507973Y0385196D01*
X0508053Y0385043D01*
X0508128Y0384889D01*
X0508199Y0384733D01*
X0508267Y0384575D01*
X0508331Y0384415D01*
X0508391Y0384254D01*
X0508447Y0384092D01*
X0508499Y0383928D01*
X0508546Y0383763D01*
X0508590Y0383597D01*
X0508630Y0383430D01*
X0508665Y0383262D01*
X0508697Y0383093D01*
X0508724Y0382923D01*
X0508747Y0382753D01*
X0508766Y0382582D01*
X0508781Y0382411D01*
X0508792Y0382239D01*
X0508798Y0382068D01*
X0508800Y0381896D01*
X0508798Y0381724D01*
X0508792Y0381553D01*
X0508781Y0381381D01*
X0508766Y0381210D01*
X0508747Y0381039D01*
X0508724Y0380869D01*
X0508697Y0380699D01*
X0508665Y0380530D01*
X0508630Y0380362D01*
X0508590Y0380195D01*
X0508546Y0380029D01*
X0508499Y0379864D01*
X0508447Y0379700D01*
X0508391Y0379538D01*
X0508331Y0379377D01*
X0508267Y0379217D01*
X0508199Y0379059D01*
X0508128Y0378903D01*
X0508053Y0378749D01*
X0507973Y0378596D01*
X0507891Y0378446D01*
X0507804Y0378297D01*
X0507714Y0378151D01*
X0507620Y0378007D01*
X0507523Y0377865D01*
X0507422Y0377726D01*
X0507318Y0377589D01*
X0507211Y0377455D01*
X0507100Y0377324D01*
X0506987Y0377195D01*
X0506870Y0377069D01*
X0506750Y0376946D01*
X0506627Y0376826D01*
X0506501Y0376709D01*
X0506372Y0376596D01*
X0506241Y0376485D01*
X0506107Y0376378D01*
X0505970Y0376274D01*
X0505831Y0376173D01*
X0505689Y0376076D01*
X0505545Y0375982D01*
X0505399Y0375892D01*
X0505250Y0375805D01*
X0505100Y0375723D01*
X0504947Y0375643D01*
X0504793Y0375568D01*
X0504637Y0375497D01*
X0504479Y0375429D01*
X0504319Y0375365D01*
X0504158Y0375305D01*
X0503996Y0375249D01*
X0503832Y0375197D01*
X0503667Y0375150D01*
X0503501Y0375106D01*
X0503334Y0375066D01*
X0503166Y0375031D01*
X0502997Y0374999D01*
X0502827Y0374972D01*
X0502657Y0374949D01*
X0502486Y0374930D01*
X0502315Y0374915D01*
X0502143Y0374904D01*
X0501972Y0374898D01*
X0501800Y0374896D01*
X0501628Y0374898D01*
X0501457Y0374904D01*
X0501285Y0374915D01*
X0501114Y0374930D01*
X0500943Y0374949D01*
X0500773Y0374972D01*
X0500603Y0374999D01*
X0500434Y0375031D01*
X0500266Y0375066D01*
X0500099Y0375106D01*
X0499933Y0375150D01*
X0499768Y0375197D01*
X0499604Y0375249D01*
X0499442Y0375305D01*
X0499281Y0375365D01*
X0499121Y0375429D01*
X0498963Y0375497D01*
X0498807Y0375568D01*
X0498653Y0375643D01*
X0498500Y0375723D01*
X0498350Y0375805D01*
X0498201Y0375892D01*
X0498055Y0375982D01*
X0497911Y0376076D01*
X0497769Y0376173D01*
X0497630Y0376274D01*
X0497493Y0376378D01*
X0497359Y0376485D01*
X0497228Y0376596D01*
X0497099Y0376709D01*
X0496973Y0376826D01*
X0496850Y0376946D01*
X0496730Y0377069D01*
X0496613Y0377195D01*
X0496500Y0377324D01*
X0496389Y0377455D01*
X0496282Y0377589D01*
X0496178Y0377726D01*
X0496077Y0377865D01*
X0495980Y0378007D01*
X0495886Y0378151D01*
X0495796Y0378297D01*
X0495709Y0378446D01*
X0495627Y0378596D01*
X0495547Y0378749D01*
X0495472Y0378903D01*
X0495401Y0379059D01*
X0495333Y0379217D01*
X0495269Y0379377D01*
X0495209Y0379538D01*
X0495153Y0379700D01*
X0495101Y0379864D01*
X0495054Y0380029D01*
X0495010Y0380195D01*
X0494970Y0380362D01*
X0494935Y0380530D01*
X0494903Y0380699D01*
X0494876Y0380869D01*
X0494853Y0381039D01*
X0494834Y0381210D01*
X0494819Y0381381D01*
X0494808Y0381553D01*
X0494802Y0381724D01*
X0494800Y0381896D01*
X0549363Y0373243D02*
X0549365Y0373396D01*
X0549371Y0373550D01*
X0549381Y0373703D01*
X0549395Y0373855D01*
X0549413Y0374008D01*
X0549435Y0374159D01*
X0549460Y0374310D01*
X0549490Y0374461D01*
X0549524Y0374611D01*
X0549561Y0374759D01*
X0549602Y0374907D01*
X0549647Y0375053D01*
X0549696Y0375199D01*
X0549749Y0375343D01*
X0549805Y0375485D01*
X0549865Y0375626D01*
X0549929Y0375766D01*
X0549996Y0375904D01*
X0550067Y0376040D01*
X0550142Y0376174D01*
X0550219Y0376306D01*
X0550301Y0376436D01*
X0550385Y0376564D01*
X0550473Y0376690D01*
X0550564Y0376813D01*
X0550658Y0376934D01*
X0550756Y0377052D01*
X0550856Y0377168D01*
X0550960Y0377281D01*
X0551066Y0377392D01*
X0551175Y0377500D01*
X0551287Y0377605D01*
X0551401Y0377706D01*
X0551519Y0377805D01*
X0551638Y0377901D01*
X0551760Y0377994D01*
X0551885Y0378083D01*
X0552012Y0378170D01*
X0552141Y0378252D01*
X0552272Y0378332D01*
X0552405Y0378408D01*
X0552540Y0378481D01*
X0552677Y0378550D01*
X0552816Y0378615D01*
X0552956Y0378677D01*
X0553098Y0378735D01*
X0553241Y0378790D01*
X0553386Y0378841D01*
X0553532Y0378888D01*
X0553679Y0378931D01*
X0553827Y0378970D01*
X0553976Y0379006D01*
X0554126Y0379037D01*
X0554277Y0379065D01*
X0554428Y0379089D01*
X0554581Y0379109D01*
X0554733Y0379125D01*
X0554886Y0379137D01*
X0555039Y0379145D01*
X0555192Y0379149D01*
X0555346Y0379149D01*
X0555499Y0379145D01*
X0555652Y0379137D01*
X0555805Y0379125D01*
X0555957Y0379109D01*
X0556110Y0379089D01*
X0556261Y0379065D01*
X0556412Y0379037D01*
X0556562Y0379006D01*
X0556711Y0378970D01*
X0556859Y0378931D01*
X0557006Y0378888D01*
X0557152Y0378841D01*
X0557297Y0378790D01*
X0557440Y0378735D01*
X0557582Y0378677D01*
X0557722Y0378615D01*
X0557861Y0378550D01*
X0557998Y0378481D01*
X0558133Y0378408D01*
X0558266Y0378332D01*
X0558397Y0378252D01*
X0558526Y0378170D01*
X0558653Y0378083D01*
X0558778Y0377994D01*
X0558900Y0377901D01*
X0559019Y0377805D01*
X0559137Y0377706D01*
X0559251Y0377605D01*
X0559363Y0377500D01*
X0559472Y0377392D01*
X0559578Y0377281D01*
X0559682Y0377168D01*
X0559782Y0377052D01*
X0559880Y0376934D01*
X0559974Y0376813D01*
X0560065Y0376690D01*
X0560153Y0376564D01*
X0560237Y0376436D01*
X0560319Y0376306D01*
X0560396Y0376174D01*
X0560471Y0376040D01*
X0560542Y0375904D01*
X0560609Y0375766D01*
X0560673Y0375626D01*
X0560733Y0375485D01*
X0560789Y0375343D01*
X0560842Y0375199D01*
X0560891Y0375053D01*
X0560936Y0374907D01*
X0560977Y0374759D01*
X0561014Y0374611D01*
X0561048Y0374461D01*
X0561078Y0374310D01*
X0561103Y0374159D01*
X0561125Y0374008D01*
X0561143Y0373855D01*
X0561157Y0373703D01*
X0561167Y0373550D01*
X0561173Y0373396D01*
X0561175Y0373243D01*
X0561173Y0373090D01*
X0561167Y0372936D01*
X0561157Y0372783D01*
X0561143Y0372631D01*
X0561125Y0372478D01*
X0561103Y0372327D01*
X0561078Y0372176D01*
X0561048Y0372025D01*
X0561014Y0371875D01*
X0560977Y0371727D01*
X0560936Y0371579D01*
X0560891Y0371433D01*
X0560842Y0371287D01*
X0560789Y0371143D01*
X0560733Y0371001D01*
X0560673Y0370860D01*
X0560609Y0370720D01*
X0560542Y0370582D01*
X0560471Y0370446D01*
X0560396Y0370312D01*
X0560319Y0370180D01*
X0560237Y0370050D01*
X0560153Y0369922D01*
X0560065Y0369796D01*
X0559974Y0369673D01*
X0559880Y0369552D01*
X0559782Y0369434D01*
X0559682Y0369318D01*
X0559578Y0369205D01*
X0559472Y0369094D01*
X0559363Y0368986D01*
X0559251Y0368881D01*
X0559137Y0368780D01*
X0559019Y0368681D01*
X0558900Y0368585D01*
X0558778Y0368492D01*
X0558653Y0368403D01*
X0558526Y0368316D01*
X0558397Y0368234D01*
X0558266Y0368154D01*
X0558133Y0368078D01*
X0557998Y0368005D01*
X0557861Y0367936D01*
X0557722Y0367871D01*
X0557582Y0367809D01*
X0557440Y0367751D01*
X0557297Y0367696D01*
X0557152Y0367645D01*
X0557006Y0367598D01*
X0556859Y0367555D01*
X0556711Y0367516D01*
X0556562Y0367480D01*
X0556412Y0367449D01*
X0556261Y0367421D01*
X0556110Y0367397D01*
X0555957Y0367377D01*
X0555805Y0367361D01*
X0555652Y0367349D01*
X0555499Y0367341D01*
X0555346Y0367337D01*
X0555192Y0367337D01*
X0555039Y0367341D01*
X0554886Y0367349D01*
X0554733Y0367361D01*
X0554581Y0367377D01*
X0554428Y0367397D01*
X0554277Y0367421D01*
X0554126Y0367449D01*
X0553976Y0367480D01*
X0553827Y0367516D01*
X0553679Y0367555D01*
X0553532Y0367598D01*
X0553386Y0367645D01*
X0553241Y0367696D01*
X0553098Y0367751D01*
X0552956Y0367809D01*
X0552816Y0367871D01*
X0552677Y0367936D01*
X0552540Y0368005D01*
X0552405Y0368078D01*
X0552272Y0368154D01*
X0552141Y0368234D01*
X0552012Y0368316D01*
X0551885Y0368403D01*
X0551760Y0368492D01*
X0551638Y0368585D01*
X0551519Y0368681D01*
X0551401Y0368780D01*
X0551287Y0368881D01*
X0551175Y0368986D01*
X0551066Y0369094D01*
X0550960Y0369205D01*
X0550856Y0369318D01*
X0550756Y0369434D01*
X0550658Y0369552D01*
X0550564Y0369673D01*
X0550473Y0369796D01*
X0550385Y0369922D01*
X0550301Y0370050D01*
X0550219Y0370180D01*
X0550142Y0370312D01*
X0550067Y0370446D01*
X0549996Y0370582D01*
X0549929Y0370720D01*
X0549865Y0370860D01*
X0549805Y0371001D01*
X0549749Y0371143D01*
X0549696Y0371287D01*
X0549647Y0371433D01*
X0549602Y0371579D01*
X0549561Y0371727D01*
X0549524Y0371875D01*
X0549490Y0372025D01*
X0549460Y0372176D01*
X0549435Y0372327D01*
X0549413Y0372478D01*
X0549395Y0372631D01*
X0549381Y0372783D01*
X0549371Y0372936D01*
X0549365Y0373090D01*
X0549363Y0373243D01*
D11*
X0613505Y0042916D02*
X0613505Y0032876D01*
X0629095Y0032876D02*
X0629095Y0042916D01*
D12*
X0629800Y0066896D03*
X0581050Y0065146D03*
X0581300Y0080896D03*
X0540550Y0075396D03*
X0630300Y0150896D03*
X0629800Y0173896D03*
X0629800Y0200896D03*
X0621800Y0312396D03*
X0602800Y0312896D03*
X0583300Y0312896D03*
X0562300Y0312896D03*
X0632300Y0375396D03*
X0340800Y0357396D03*
X0288800Y0351896D03*
X0271800Y0351896D03*
X0225800Y0317896D03*
X0275800Y0311396D03*
X0292300Y0311396D03*
X0142300Y0361896D03*
X0347550Y0077896D03*
X0250300Y0072896D03*
X0232800Y0072896D03*
X0252800Y0051396D03*
X0189800Y0030396D03*
D13*
X0259300Y0100396D03*
X0269300Y0100396D03*
X0279300Y0100396D03*
X0289300Y0100396D03*
X0299300Y0100396D03*
X0309300Y0100396D03*
X0319300Y0100396D03*
X0329300Y0100396D03*
X0349300Y0100396D03*
X0359300Y0100396D03*
X0369300Y0100396D03*
X0379300Y0100396D03*
X0389300Y0100396D03*
X0399300Y0100396D03*
X0409300Y0100396D03*
X0419300Y0100396D03*
X0439300Y0100396D03*
X0449300Y0100396D03*
X0459300Y0100396D03*
X0469300Y0100396D03*
X0479300Y0100396D03*
X0489300Y0100396D03*
X0499300Y0100396D03*
X0509300Y0100396D03*
X0249300Y0120396D03*
X0239300Y0120396D03*
X0239300Y0290396D03*
X0249300Y0290396D03*
X0279300Y0290396D03*
X0289300Y0290396D03*
X0299300Y0290396D03*
X0309300Y0290396D03*
X0319300Y0290396D03*
X0329300Y0290396D03*
X0339300Y0290396D03*
X0349300Y0290396D03*
X0369300Y0290396D03*
X0379300Y0290396D03*
X0389300Y0290396D03*
X0399300Y0290396D03*
X0409300Y0290396D03*
X0419300Y0290396D03*
X0429300Y0290396D03*
X0439300Y0290396D03*
X0455300Y0290396D03*
X0465300Y0290396D03*
X0475300Y0290396D03*
X0485300Y0290396D03*
X0495300Y0290396D03*
X0505300Y0290396D03*
X0515300Y0290396D03*
X0525300Y0290396D03*
X0535300Y0290396D03*
X0545300Y0290396D03*
D14*
X0369300Y0210396D03*
X0369300Y0200396D03*
X0369300Y0190396D03*
X0359300Y0190396D03*
X0359300Y0200396D03*
X0359300Y0210396D03*
X0249300Y0210396D03*
X0249300Y0200396D03*
X0249300Y0190396D03*
X0239300Y0190396D03*
X0239300Y0200396D03*
X0239300Y0210396D03*
X0239300Y0220396D03*
X0249300Y0220396D03*
X0249300Y0230396D03*
X0239300Y0230396D03*
X0239300Y0240396D03*
X0249300Y0240396D03*
X0249300Y0250396D03*
X0239300Y0250396D03*
X0239300Y0260396D03*
X0249300Y0260396D03*
X0249300Y0270396D03*
X0239300Y0270396D03*
X0239300Y0280396D03*
X0249300Y0280396D03*
X0200713Y0210361D03*
X0200713Y0200361D03*
X0200713Y0190361D03*
X0200713Y0180361D03*
X0200713Y0170361D03*
X0200713Y0160361D03*
X0200713Y0143943D03*
X0200713Y0133943D03*
X0200713Y0123943D03*
X0200713Y0113943D03*
X0200713Y0103943D03*
X0200713Y0093943D03*
X0200713Y0083943D03*
X0200713Y0073943D03*
X0239300Y0130396D03*
X0249300Y0130396D03*
X0249300Y0140396D03*
X0239300Y0140396D03*
X0239300Y0150396D03*
X0249300Y0150396D03*
X0249300Y0160396D03*
X0239300Y0160396D03*
X0239300Y0170396D03*
X0249300Y0170396D03*
X0249300Y0180396D03*
X0239300Y0180396D03*
D15*
X0607300Y0344896D03*
D16*
X0597300Y0334896D03*
X0617300Y0334896D03*
X0617300Y0354896D03*
X0597300Y0354896D03*
D17*
X0320800Y0340396D03*
X0320800Y0330396D03*
X0319800Y0318396D03*
X0319800Y0308396D03*
X0248300Y0308396D03*
X0248300Y0318396D03*
X0248300Y0329896D03*
X0248300Y0339896D03*
D18*
X0201300Y0392096D02*
X0201300Y0397696D01*
X0191300Y0397696D02*
X0191300Y0392096D01*
X0383300Y0386696D02*
X0383300Y0381096D01*
X0393300Y0381096D02*
X0393300Y0386696D01*
D19*
X0296800Y0387696D02*
X0296800Y0394096D01*
X0286800Y0394096D02*
X0286800Y0387696D01*
X0276800Y0387696D02*
X0276800Y0394096D01*
X0266800Y0394096D02*
X0266800Y0387696D01*
X0256800Y0387696D02*
X0256800Y0394096D01*
X0256800Y0376096D02*
X0256800Y0369696D01*
X0266800Y0369696D02*
X0266800Y0376096D01*
X0276800Y0376096D02*
X0276800Y0369696D01*
X0286800Y0369696D02*
X0286800Y0376096D01*
X0296800Y0376096D02*
X0296800Y0369696D01*
D20*
X0302000Y0369758D02*
X0511202Y0369758D01*
X0512000Y0370556D02*
X0501640Y0360196D01*
X0498781Y0360196D01*
X0498781Y0360206D01*
X0497610Y0361377D01*
X0491990Y0361377D01*
X0490819Y0360206D01*
X0490819Y0354587D01*
X0491990Y0353415D01*
X0497610Y0353415D01*
X0498781Y0354587D01*
X0498781Y0354596D01*
X0503357Y0354596D01*
X0504386Y0355022D01*
X0516386Y0367022D01*
X0517174Y0367810D01*
X0517600Y0368839D01*
X0517600Y0384905D01*
X0517781Y0385087D01*
X0517781Y0390706D01*
X0516610Y0391877D01*
X0510990Y0391877D01*
X0509819Y0390706D01*
X0509819Y0386055D01*
X0509430Y0386994D01*
X0506898Y0389526D01*
X0503590Y0390896D01*
X0500010Y0390896D01*
X0496702Y0389526D01*
X0494170Y0386994D01*
X0492800Y0383686D01*
X0492800Y0380106D01*
X0494170Y0376798D01*
X0496702Y0374266D01*
X0500010Y0372896D01*
X0503590Y0372896D01*
X0506898Y0374266D01*
X0509430Y0376798D01*
X0510800Y0380106D01*
X0510800Y0383686D01*
X0510504Y0384402D01*
X0510990Y0383915D01*
X0512000Y0383915D01*
X0512000Y0370556D01*
X0512000Y0371357D02*
X0374551Y0371357D01*
X0374781Y0371587D02*
X0374781Y0371896D01*
X0397297Y0371896D01*
X0398216Y0372277D01*
X0398854Y0372915D01*
X0402110Y0372915D01*
X0403091Y0373896D01*
X0408300Y0373896D01*
X0408300Y0403396D01*
X0644800Y0403396D01*
X0644800Y0008896D01*
X0008800Y0008896D01*
X0008800Y0403396D01*
X0370300Y0403396D01*
X0370300Y0378377D01*
X0367990Y0378377D01*
X0366819Y0377206D01*
X0366819Y0371587D01*
X0367990Y0370415D01*
X0373610Y0370415D01*
X0374781Y0371587D01*
X0367049Y0371357D02*
X0302000Y0371357D01*
X0302000Y0372955D02*
X0366819Y0372955D01*
X0366819Y0374554D02*
X0302000Y0374554D01*
X0302000Y0376152D02*
X0366819Y0376152D01*
X0367364Y0377751D02*
X0301743Y0377751D01*
X0302000Y0377130D02*
X0301208Y0379042D01*
X0299746Y0380504D01*
X0297834Y0381296D01*
X0295766Y0381296D01*
X0293854Y0380504D01*
X0292392Y0379042D01*
X0291800Y0377613D01*
X0291208Y0379042D01*
X0289746Y0380504D01*
X0289600Y0380565D01*
X0289600Y0383227D01*
X0289746Y0383288D01*
X0291208Y0384750D01*
X0291800Y0386179D01*
X0292392Y0384750D01*
X0293854Y0383288D01*
X0295766Y0382496D01*
X0297834Y0382496D01*
X0299746Y0383288D01*
X0301208Y0384750D01*
X0302000Y0386662D01*
X0302000Y0395130D01*
X0301208Y0397042D01*
X0299746Y0398504D01*
X0297834Y0399296D01*
X0295766Y0399296D01*
X0293854Y0398504D01*
X0292392Y0397042D01*
X0291800Y0395613D01*
X0291208Y0397042D01*
X0289746Y0398504D01*
X0287834Y0399296D01*
X0285766Y0399296D01*
X0283854Y0398504D01*
X0282392Y0397042D01*
X0281800Y0395613D01*
X0281208Y0397042D01*
X0279746Y0398504D01*
X0277834Y0399296D01*
X0275766Y0399296D01*
X0273854Y0398504D01*
X0272392Y0397042D01*
X0271668Y0395294D01*
X0271434Y0396015D01*
X0271076Y0396717D01*
X0270614Y0397353D01*
X0270057Y0397910D01*
X0269421Y0398372D01*
X0268719Y0398730D01*
X0267971Y0398973D01*
X0267194Y0399096D01*
X0267000Y0399096D01*
X0267000Y0391096D01*
X0266600Y0391096D01*
X0266600Y0399096D01*
X0266406Y0399096D01*
X0265629Y0398973D01*
X0264881Y0398730D01*
X0264179Y0398372D01*
X0263543Y0397910D01*
X0262986Y0397353D01*
X0262524Y0396717D01*
X0262166Y0396015D01*
X0261932Y0395294D01*
X0261208Y0397042D01*
X0259746Y0398504D01*
X0257834Y0399296D01*
X0255766Y0399296D01*
X0253854Y0398504D01*
X0252392Y0397042D01*
X0251600Y0395130D01*
X0251600Y0386662D01*
X0252392Y0384750D01*
X0253854Y0383288D01*
X0254000Y0383227D01*
X0254000Y0380565D01*
X0253854Y0380504D01*
X0252392Y0379042D01*
X0251600Y0377130D01*
X0251600Y0368662D01*
X0252392Y0366750D01*
X0253854Y0365288D01*
X0254000Y0365227D01*
X0254000Y0349556D01*
X0249140Y0344696D01*
X0246312Y0344696D01*
X0243500Y0341884D01*
X0243500Y0337908D01*
X0246312Y0335096D01*
X0250288Y0335096D01*
X0253100Y0337908D01*
X0253100Y0339096D01*
X0275819Y0339096D01*
X0275819Y0339087D01*
X0276990Y0337915D01*
X0282610Y0337915D01*
X0282965Y0338271D01*
X0288000Y0333236D01*
X0288000Y0329839D01*
X0288426Y0328810D01*
X0289214Y0328022D01*
X0290243Y0327596D01*
X0316812Y0327596D01*
X0318812Y0325596D01*
X0322788Y0325596D01*
X0325600Y0328408D01*
X0325600Y0332384D01*
X0322788Y0335196D01*
X0318812Y0335196D01*
X0316812Y0333196D01*
X0293600Y0333196D01*
X0293600Y0334953D01*
X0293174Y0335982D01*
X0292386Y0336770D01*
X0285674Y0343482D01*
X0285674Y0343482D01*
X0284886Y0344270D01*
X0283857Y0344696D01*
X0283781Y0344696D01*
X0283781Y0344706D01*
X0282610Y0345877D01*
X0277095Y0345877D01*
X0279800Y0348582D01*
X0279800Y0355210D01*
X0279328Y0355682D01*
X0279600Y0356339D01*
X0279600Y0365227D01*
X0279746Y0365288D01*
X0281208Y0366750D01*
X0281800Y0368179D01*
X0282392Y0366750D01*
X0283854Y0365288D01*
X0284000Y0365227D01*
X0284000Y0358410D01*
X0280800Y0355210D01*
X0280800Y0348582D01*
X0285486Y0343896D01*
X0292114Y0343896D01*
X0296800Y0348582D01*
X0296800Y0355210D01*
X0292114Y0359896D01*
X0289600Y0359896D01*
X0289600Y0365227D01*
X0289746Y0365288D01*
X0291208Y0366750D01*
X0291800Y0368179D01*
X0292392Y0366750D01*
X0293854Y0365288D01*
X0295766Y0364496D01*
X0297834Y0364496D01*
X0299746Y0365288D01*
X0301208Y0366750D01*
X0302000Y0368662D01*
X0302000Y0377130D01*
X0300901Y0379349D02*
X0370300Y0379349D01*
X0370300Y0380948D02*
X0298675Y0380948D01*
X0297955Y0382546D02*
X0370300Y0382546D01*
X0370300Y0384145D02*
X0300603Y0384145D01*
X0301620Y0385743D02*
X0370300Y0385743D01*
X0370300Y0387342D02*
X0302000Y0387342D01*
X0302000Y0388940D02*
X0370300Y0388940D01*
X0370300Y0390539D02*
X0302000Y0390539D01*
X0302000Y0392137D02*
X0370300Y0392137D01*
X0370300Y0393736D02*
X0302000Y0393736D01*
X0301916Y0395334D02*
X0370300Y0395334D01*
X0370300Y0396933D02*
X0301253Y0396933D01*
X0299681Y0398531D02*
X0370300Y0398531D01*
X0370300Y0400130D02*
X0205218Y0400130D01*
X0205234Y0400107D02*
X0204809Y0400693D01*
X0204297Y0401205D01*
X0203711Y0401630D01*
X0203066Y0401959D01*
X0202377Y0402183D01*
X0201662Y0402296D01*
X0201300Y0402296D01*
X0201300Y0394896D01*
X0201300Y0387496D01*
X0201662Y0387496D01*
X0202377Y0387609D01*
X0203066Y0387833D01*
X0203711Y0388162D01*
X0204297Y0388587D01*
X0204809Y0389099D01*
X0205234Y0389685D01*
X0205563Y0390330D01*
X0205787Y0391019D01*
X0205900Y0391734D01*
X0205900Y0394896D01*
X0201300Y0394896D01*
X0201300Y0394896D01*
X0201300Y0387496D01*
X0200938Y0387496D01*
X0200223Y0387609D01*
X0199534Y0387833D01*
X0198889Y0388162D01*
X0198303Y0388587D01*
X0197791Y0389099D01*
X0197366Y0389685D01*
X0197037Y0390330D01*
X0196813Y0391019D01*
X0196700Y0391734D01*
X0196700Y0394896D01*
X0201300Y0394896D01*
X0201300Y0394896D01*
X0201300Y0394896D01*
X0205900Y0394896D01*
X0205900Y0398058D01*
X0205787Y0398773D01*
X0205563Y0399462D01*
X0205234Y0400107D01*
X0205825Y0398531D02*
X0253919Y0398531D01*
X0252347Y0396933D02*
X0205900Y0396933D01*
X0205900Y0395334D02*
X0251684Y0395334D01*
X0251600Y0393736D02*
X0205900Y0393736D01*
X0205900Y0392137D02*
X0251600Y0392137D01*
X0251600Y0390539D02*
X0205631Y0390539D01*
X0204650Y0388940D02*
X0251600Y0388940D01*
X0251600Y0387342D02*
X0198145Y0387342D01*
X0198281Y0387206D02*
X0197110Y0388377D01*
X0194369Y0388377D01*
X0195369Y0389377D01*
X0196100Y0391141D01*
X0196100Y0398651D01*
X0195369Y0400415D01*
X0194019Y0401765D01*
X0192255Y0402496D01*
X0190345Y0402496D01*
X0188581Y0401765D01*
X0187231Y0400415D01*
X0186500Y0398651D01*
X0186500Y0394056D01*
X0180926Y0388482D01*
X0180500Y0387453D01*
X0180500Y0376377D01*
X0180490Y0376377D01*
X0179319Y0375206D01*
X0179319Y0369587D01*
X0180490Y0368415D01*
X0186110Y0368415D01*
X0187281Y0369587D01*
X0187281Y0375206D01*
X0186110Y0376377D01*
X0186100Y0376377D01*
X0186100Y0385736D01*
X0188486Y0388122D01*
X0188581Y0388027D01*
X0190345Y0387296D01*
X0190409Y0387296D01*
X0190319Y0387206D01*
X0190319Y0381587D01*
X0191490Y0380415D01*
X0194473Y0380415D01*
X0195243Y0380096D01*
X0221819Y0380096D01*
X0221819Y0380087D01*
X0222990Y0378915D01*
X0228610Y0378915D01*
X0229781Y0380087D01*
X0229781Y0385706D01*
X0228610Y0386877D01*
X0222990Y0386877D01*
X0221819Y0385706D01*
X0221819Y0385696D01*
X0198281Y0385696D01*
X0198281Y0387206D01*
X0198281Y0385743D02*
X0221857Y0385743D01*
X0225800Y0382896D02*
X0195800Y0382896D01*
X0194300Y0384396D01*
X0190319Y0384145D02*
X0186100Y0384145D01*
X0186107Y0385743D02*
X0190319Y0385743D01*
X0190235Y0387342D02*
X0187705Y0387342D01*
X0183300Y0386896D02*
X0191300Y0394896D01*
X0196100Y0395334D02*
X0196700Y0395334D01*
X0196700Y0394896D02*
X0201300Y0394896D01*
X0201300Y0394896D01*
X0201300Y0402296D01*
X0200938Y0402296D01*
X0200223Y0402183D01*
X0199534Y0401959D01*
X0198889Y0401630D01*
X0198303Y0401205D01*
X0197791Y0400693D01*
X0197366Y0400107D01*
X0197037Y0399462D01*
X0196813Y0398773D01*
X0196700Y0398058D01*
X0196700Y0394896D01*
X0196700Y0393736D02*
X0196100Y0393736D01*
X0196100Y0392137D02*
X0196700Y0392137D01*
X0196969Y0390539D02*
X0195850Y0390539D01*
X0194932Y0388940D02*
X0197950Y0388940D01*
X0201300Y0388940D02*
X0201300Y0388940D01*
X0201300Y0390539D02*
X0201300Y0390539D01*
X0201300Y0392137D02*
X0201300Y0392137D01*
X0201300Y0393736D02*
X0201300Y0393736D01*
X0201300Y0395334D02*
X0201300Y0395334D01*
X0201300Y0396933D02*
X0201300Y0396933D01*
X0201300Y0398531D02*
X0201300Y0398531D01*
X0201300Y0400130D02*
X0201300Y0400130D01*
X0201300Y0401728D02*
X0201300Y0401728D01*
X0199081Y0401728D02*
X0194056Y0401728D01*
X0195487Y0400130D02*
X0197382Y0400130D01*
X0196775Y0398531D02*
X0196100Y0398531D01*
X0196100Y0396933D02*
X0196700Y0396933D01*
X0203519Y0401728D02*
X0370300Y0401728D01*
X0370300Y0403327D02*
X0008800Y0403327D01*
X0008800Y0401728D02*
X0188544Y0401728D01*
X0187113Y0400130D02*
X0008800Y0400130D01*
X0008800Y0398531D02*
X0186500Y0398531D01*
X0186500Y0396933D02*
X0008800Y0396933D01*
X0008800Y0395334D02*
X0186500Y0395334D01*
X0186180Y0393736D02*
X0008800Y0393736D01*
X0008800Y0392137D02*
X0184581Y0392137D01*
X0182983Y0390539D02*
X0154453Y0390539D01*
X0153590Y0390896D02*
X0150010Y0390896D01*
X0146702Y0389526D01*
X0144170Y0386994D01*
X0142800Y0383686D01*
X0142800Y0380106D01*
X0144170Y0376798D01*
X0146702Y0374266D01*
X0150010Y0372896D01*
X0153590Y0372896D01*
X0156898Y0374266D01*
X0159430Y0376798D01*
X0160800Y0380106D01*
X0160800Y0383686D01*
X0159430Y0386994D01*
X0156898Y0389526D01*
X0153590Y0390896D01*
X0157484Y0388940D02*
X0181384Y0388940D01*
X0180500Y0387342D02*
X0159082Y0387342D01*
X0159948Y0385743D02*
X0180500Y0385743D01*
X0180500Y0384145D02*
X0160610Y0384145D01*
X0160800Y0382546D02*
X0180500Y0382546D01*
X0180500Y0380948D02*
X0160800Y0380948D01*
X0160487Y0379349D02*
X0180500Y0379349D01*
X0180500Y0377751D02*
X0159824Y0377751D01*
X0158784Y0376152D02*
X0180265Y0376152D01*
X0179319Y0374554D02*
X0157186Y0374554D01*
X0153733Y0372955D02*
X0179319Y0372955D01*
X0179319Y0371357D02*
X0008800Y0371357D01*
X0008800Y0372955D02*
X0149867Y0372955D01*
X0146414Y0374554D02*
X0008800Y0374554D01*
X0008800Y0376152D02*
X0144816Y0376152D01*
X0143776Y0377751D02*
X0008800Y0377751D01*
X0008800Y0379349D02*
X0143113Y0379349D01*
X0142800Y0380948D02*
X0008800Y0380948D01*
X0008800Y0382546D02*
X0142800Y0382546D01*
X0142990Y0384145D02*
X0008800Y0384145D01*
X0008800Y0385743D02*
X0143652Y0385743D01*
X0144518Y0387342D02*
X0008800Y0387342D01*
X0008800Y0388940D02*
X0146116Y0388940D01*
X0149147Y0390539D02*
X0008800Y0390539D01*
X0008800Y0369758D02*
X0138848Y0369758D01*
X0138986Y0369896D02*
X0134300Y0365210D01*
X0134300Y0358582D01*
X0138986Y0353896D01*
X0145614Y0353896D01*
X0150300Y0358582D01*
X0150300Y0365210D01*
X0145614Y0369896D01*
X0138986Y0369896D01*
X0137250Y0368160D02*
X0008800Y0368160D01*
X0008800Y0366561D02*
X0135651Y0366561D01*
X0134300Y0364963D02*
X0008800Y0364963D01*
X0008800Y0363364D02*
X0134300Y0363364D01*
X0134300Y0361766D02*
X0008800Y0361766D01*
X0008800Y0360167D02*
X0134300Y0360167D01*
X0134314Y0358569D02*
X0008800Y0358569D01*
X0008800Y0356970D02*
X0135912Y0356970D01*
X0137511Y0355372D02*
X0008800Y0355372D01*
X0008800Y0353773D02*
X0254000Y0353773D01*
X0254000Y0352175D02*
X0008800Y0352175D01*
X0008800Y0350576D02*
X0254000Y0350576D01*
X0253422Y0348977D02*
X0008800Y0348977D01*
X0008800Y0347379D02*
X0251823Y0347379D01*
X0250225Y0345780D02*
X0008800Y0345780D01*
X0008800Y0344182D02*
X0245798Y0344182D01*
X0244199Y0342583D02*
X0008800Y0342583D01*
X0008800Y0340985D02*
X0031243Y0340985D01*
X0031773Y0341515D02*
X0029992Y0339734D01*
X0029028Y0337407D01*
X0029028Y0334889D01*
X0029992Y0332562D01*
X0031773Y0330781D01*
X0034100Y0329817D01*
X0036618Y0329817D01*
X0038945Y0330781D01*
X0040726Y0332562D01*
X0041690Y0334889D01*
X0041690Y0337407D01*
X0040726Y0339734D01*
X0038945Y0341515D01*
X0036618Y0342479D01*
X0034100Y0342479D01*
X0031773Y0341515D01*
X0029848Y0339386D02*
X0008800Y0339386D01*
X0008800Y0337788D02*
X0029186Y0337788D01*
X0029028Y0336189D02*
X0008800Y0336189D01*
X0008800Y0334591D02*
X0029152Y0334591D01*
X0029814Y0332992D02*
X0008800Y0332992D01*
X0008800Y0331394D02*
X0031160Y0331394D01*
X0039558Y0331394D02*
X0243500Y0331394D01*
X0243500Y0331884D02*
X0243500Y0327908D01*
X0246312Y0325096D01*
X0250288Y0325096D01*
X0253100Y0327908D01*
X0253100Y0331884D01*
X0250288Y0334696D01*
X0246312Y0334696D01*
X0243500Y0331884D01*
X0244608Y0332992D02*
X0040904Y0332992D01*
X0041566Y0334591D02*
X0246207Y0334591D01*
X0245218Y0336189D02*
X0041690Y0336189D01*
X0041532Y0337788D02*
X0243620Y0337788D01*
X0243500Y0339386D02*
X0040870Y0339386D01*
X0039475Y0340985D02*
X0243500Y0340985D01*
X0248300Y0339896D02*
X0250300Y0341896D01*
X0256800Y0348396D01*
X0256800Y0372896D01*
X0256800Y0390896D01*
X0261932Y0386498D02*
X0261208Y0384750D01*
X0259746Y0383288D01*
X0259600Y0383227D01*
X0259600Y0380565D01*
X0259746Y0380504D01*
X0261208Y0379042D01*
X0261932Y0377294D01*
X0262166Y0378015D01*
X0262524Y0378717D01*
X0262986Y0379353D01*
X0263543Y0379910D01*
X0264179Y0380372D01*
X0264881Y0380730D01*
X0265629Y0380973D01*
X0266406Y0381096D01*
X0266600Y0381096D01*
X0266600Y0373096D01*
X0267000Y0373096D01*
X0267000Y0381096D01*
X0267194Y0381096D01*
X0267971Y0380973D01*
X0268719Y0380730D01*
X0269421Y0380372D01*
X0270057Y0379910D01*
X0270614Y0379353D01*
X0271076Y0378717D01*
X0271434Y0378015D01*
X0271668Y0377294D01*
X0272392Y0379042D01*
X0273854Y0380504D01*
X0274000Y0380565D01*
X0274000Y0383227D01*
X0273854Y0383288D01*
X0272392Y0384750D01*
X0271668Y0386498D01*
X0271434Y0385777D01*
X0271076Y0385075D01*
X0270614Y0384439D01*
X0270057Y0383882D01*
X0269421Y0383420D01*
X0268719Y0383062D01*
X0267971Y0382819D01*
X0267194Y0382696D01*
X0267000Y0382696D01*
X0267000Y0390696D01*
X0266600Y0390696D01*
X0266600Y0382696D01*
X0266406Y0382696D01*
X0265629Y0382819D01*
X0264881Y0383062D01*
X0264179Y0383420D01*
X0263543Y0383882D01*
X0262986Y0384439D01*
X0262524Y0385075D01*
X0262166Y0385777D01*
X0261932Y0386498D01*
X0262183Y0385743D02*
X0261620Y0385743D01*
X0260603Y0384145D02*
X0263280Y0384145D01*
X0266600Y0384145D02*
X0267000Y0384145D01*
X0267000Y0385743D02*
X0266600Y0385743D01*
X0266600Y0387342D02*
X0267000Y0387342D01*
X0267000Y0388940D02*
X0266600Y0388940D01*
X0266600Y0390539D02*
X0267000Y0390539D01*
X0267000Y0392137D02*
X0266600Y0392137D01*
X0266600Y0393736D02*
X0267000Y0393736D01*
X0267000Y0395334D02*
X0266600Y0395334D01*
X0266600Y0396933D02*
X0267000Y0396933D01*
X0267000Y0398531D02*
X0266600Y0398531D01*
X0264491Y0398531D02*
X0259681Y0398531D01*
X0261253Y0396933D02*
X0262681Y0396933D01*
X0261945Y0395334D02*
X0261916Y0395334D01*
X0269109Y0398531D02*
X0273919Y0398531D01*
X0272347Y0396933D02*
X0270919Y0396933D01*
X0271655Y0395334D02*
X0271684Y0395334D01*
X0276800Y0390896D02*
X0276800Y0372896D01*
X0276800Y0356896D01*
X0271800Y0351896D01*
X0279800Y0352175D02*
X0280800Y0352175D01*
X0280800Y0353773D02*
X0279800Y0353773D01*
X0279638Y0355372D02*
X0280962Y0355372D01*
X0279600Y0356970D02*
X0282560Y0356970D01*
X0284000Y0358569D02*
X0279600Y0358569D01*
X0279600Y0360167D02*
X0284000Y0360167D01*
X0284000Y0361766D02*
X0279600Y0361766D01*
X0279600Y0363364D02*
X0284000Y0363364D01*
X0284000Y0364963D02*
X0279600Y0364963D01*
X0281019Y0366561D02*
X0282581Y0366561D01*
X0281808Y0368160D02*
X0281792Y0368160D01*
X0286800Y0372896D02*
X0286800Y0390896D01*
X0291620Y0385743D02*
X0291980Y0385743D01*
X0292997Y0384145D02*
X0290603Y0384145D01*
X0289600Y0382546D02*
X0295645Y0382546D01*
X0294925Y0380948D02*
X0289600Y0380948D01*
X0290901Y0379349D02*
X0292699Y0379349D01*
X0291857Y0377751D02*
X0291743Y0377751D01*
X0286800Y0372896D02*
X0286800Y0353896D01*
X0288800Y0351896D01*
X0296800Y0352175D02*
X0334708Y0352175D01*
X0333109Y0353773D02*
X0296800Y0353773D01*
X0296638Y0355372D02*
X0332800Y0355372D01*
X0332800Y0354082D02*
X0337486Y0349396D01*
X0344114Y0349396D01*
X0348800Y0354082D01*
X0348800Y0360710D01*
X0344114Y0365396D01*
X0337486Y0365396D01*
X0332800Y0360710D01*
X0332800Y0354082D01*
X0332800Y0356970D02*
X0295040Y0356970D01*
X0293441Y0358569D02*
X0332800Y0358569D01*
X0332800Y0360167D02*
X0289600Y0360167D01*
X0289600Y0361766D02*
X0333856Y0361766D01*
X0335454Y0363364D02*
X0289600Y0363364D01*
X0289600Y0364963D02*
X0294639Y0364963D01*
X0292581Y0366561D02*
X0291019Y0366561D01*
X0291792Y0368160D02*
X0291808Y0368160D01*
X0298961Y0364963D02*
X0337053Y0364963D01*
X0344547Y0364963D02*
X0506407Y0364963D01*
X0508005Y0366561D02*
X0301019Y0366561D01*
X0301792Y0368160D02*
X0509604Y0368160D01*
X0514800Y0369396D02*
X0514800Y0386896D01*
X0513800Y0387896D01*
X0517781Y0387342D02*
X0644800Y0387342D01*
X0644800Y0388940D02*
X0517781Y0388940D01*
X0517781Y0390539D02*
X0644800Y0390539D01*
X0644800Y0392137D02*
X0408300Y0392137D01*
X0408300Y0390539D02*
X0499147Y0390539D01*
X0496116Y0388940D02*
X0408300Y0388940D01*
X0408300Y0387342D02*
X0494518Y0387342D01*
X0493652Y0385743D02*
X0408300Y0385743D01*
X0408300Y0384145D02*
X0492990Y0384145D01*
X0492800Y0382546D02*
X0408300Y0382546D01*
X0408300Y0380948D02*
X0492800Y0380948D01*
X0493113Y0379349D02*
X0408300Y0379349D01*
X0408300Y0377751D02*
X0493776Y0377751D01*
X0494816Y0376152D02*
X0408300Y0376152D01*
X0408300Y0374554D02*
X0496414Y0374554D01*
X0499867Y0372955D02*
X0402150Y0372955D01*
X0408300Y0393736D02*
X0644800Y0393736D01*
X0644800Y0395334D02*
X0408300Y0395334D01*
X0408300Y0396933D02*
X0644800Y0396933D01*
X0644800Y0398531D02*
X0408300Y0398531D01*
X0408300Y0400130D02*
X0644800Y0400130D01*
X0644800Y0401728D02*
X0408300Y0401728D01*
X0408300Y0403327D02*
X0644800Y0403327D01*
X0644800Y0385743D02*
X0517781Y0385743D01*
X0517600Y0384145D02*
X0644800Y0384145D01*
X0644800Y0382546D02*
X0636181Y0382546D01*
X0635531Y0383196D02*
X0633075Y0383196D01*
X0633075Y0376171D01*
X0640100Y0376171D01*
X0640100Y0378627D01*
X0635531Y0383196D01*
X0633075Y0382546D02*
X0631525Y0382546D01*
X0631525Y0383196D02*
X0629069Y0383196D01*
X0624500Y0378627D01*
X0624500Y0376171D01*
X0631525Y0376171D01*
X0631525Y0374621D01*
X0633075Y0374621D01*
X0633075Y0367596D01*
X0635531Y0367596D01*
X0640100Y0372165D01*
X0640100Y0374621D01*
X0633075Y0374621D01*
X0633075Y0376171D01*
X0631525Y0376171D01*
X0631525Y0383196D01*
X0631525Y0380948D02*
X0633075Y0380948D01*
X0633075Y0379349D02*
X0631525Y0379349D01*
X0631525Y0377751D02*
X0633075Y0377751D01*
X0633075Y0376152D02*
X0644800Y0376152D01*
X0644800Y0374554D02*
X0640100Y0374554D01*
X0640100Y0372955D02*
X0644800Y0372955D01*
X0644800Y0371357D02*
X0639291Y0371357D01*
X0637693Y0369758D02*
X0644800Y0369758D01*
X0644800Y0368160D02*
X0636094Y0368160D01*
X0633075Y0368160D02*
X0631525Y0368160D01*
X0631525Y0367596D02*
X0631525Y0374621D01*
X0624500Y0374621D01*
X0624500Y0372165D01*
X0629069Y0367596D01*
X0631525Y0367596D01*
X0631525Y0369758D02*
X0633075Y0369758D01*
X0633075Y0371357D02*
X0631525Y0371357D01*
X0631525Y0372955D02*
X0633075Y0372955D01*
X0633075Y0374554D02*
X0631525Y0374554D01*
X0631525Y0376152D02*
X0562620Y0376152D01*
X0563174Y0374815D02*
X0561970Y0377721D01*
X0559747Y0379944D01*
X0556841Y0381148D01*
X0553696Y0381148D01*
X0550790Y0379944D01*
X0548567Y0377721D01*
X0547363Y0374815D01*
X0547363Y0371670D01*
X0548567Y0368764D01*
X0550790Y0366541D01*
X0553696Y0365337D01*
X0556841Y0365337D01*
X0559747Y0366541D01*
X0561970Y0368764D01*
X0563174Y0371670D01*
X0563174Y0374815D01*
X0563174Y0374554D02*
X0624500Y0374554D01*
X0624500Y0372955D02*
X0563174Y0372955D01*
X0563044Y0371357D02*
X0625309Y0371357D01*
X0626907Y0369758D02*
X0562382Y0369758D01*
X0561366Y0368160D02*
X0628506Y0368160D01*
X0624500Y0377751D02*
X0561940Y0377751D01*
X0560342Y0379349D02*
X0625222Y0379349D01*
X0626821Y0380948D02*
X0557325Y0380948D01*
X0553212Y0380948D02*
X0517600Y0380948D01*
X0517600Y0382546D02*
X0628419Y0382546D01*
X0637779Y0380948D02*
X0644800Y0380948D01*
X0644800Y0379349D02*
X0639378Y0379349D01*
X0640100Y0377751D02*
X0644800Y0377751D01*
X0644800Y0366561D02*
X0559767Y0366561D01*
X0550770Y0366561D02*
X0515925Y0366561D01*
X0517319Y0368160D02*
X0549171Y0368160D01*
X0548155Y0369758D02*
X0517600Y0369758D01*
X0517600Y0371357D02*
X0547493Y0371357D01*
X0547363Y0372955D02*
X0517600Y0372955D01*
X0517600Y0374554D02*
X0547363Y0374554D01*
X0547917Y0376152D02*
X0517600Y0376152D01*
X0517600Y0377751D02*
X0548597Y0377751D01*
X0550195Y0379349D02*
X0517600Y0379349D01*
X0512000Y0379349D02*
X0510487Y0379349D01*
X0510800Y0380948D02*
X0512000Y0380948D01*
X0512000Y0382546D02*
X0510800Y0382546D01*
X0510761Y0384145D02*
X0510610Y0384145D01*
X0509819Y0387342D02*
X0509082Y0387342D01*
X0509819Y0388940D02*
X0507484Y0388940D01*
X0509819Y0390539D02*
X0504453Y0390539D01*
X0509824Y0377751D02*
X0512000Y0377751D01*
X0512000Y0376152D02*
X0508784Y0376152D01*
X0507186Y0374554D02*
X0512000Y0374554D01*
X0512000Y0372955D02*
X0503733Y0372955D01*
X0514800Y0369396D02*
X0502800Y0357396D01*
X0494800Y0357396D01*
X0490819Y0356970D02*
X0348800Y0356970D01*
X0348800Y0355372D02*
X0490819Y0355372D01*
X0491632Y0353773D02*
X0348491Y0353773D01*
X0346892Y0352175D02*
X0591040Y0352175D01*
X0591166Y0351871D02*
X0591613Y0351096D01*
X0592158Y0350386D01*
X0592790Y0349754D01*
X0593500Y0349209D01*
X0594275Y0348762D01*
X0595101Y0348419D01*
X0595966Y0348188D01*
X0596500Y0348117D01*
X0596500Y0354096D01*
X0598100Y0354096D01*
X0598100Y0348117D01*
X0598634Y0348188D01*
X0599499Y0348419D01*
X0600325Y0348762D01*
X0601100Y0349209D01*
X0601810Y0349754D01*
X0602442Y0350386D01*
X0602987Y0351096D01*
X0603434Y0351871D01*
X0603777Y0352698D01*
X0604008Y0353562D01*
X0604079Y0354096D01*
X0598100Y0354096D01*
X0598100Y0355696D01*
X0604079Y0355696D01*
X0604008Y0356230D01*
X0603777Y0357095D01*
X0603434Y0357921D01*
X0602987Y0358696D01*
X0602442Y0359406D01*
X0601810Y0360038D01*
X0601100Y0360583D01*
X0600325Y0361030D01*
X0599499Y0361373D01*
X0598634Y0361604D01*
X0598100Y0361675D01*
X0598100Y0355696D01*
X0596500Y0355696D01*
X0596500Y0354096D01*
X0590521Y0354096D01*
X0590592Y0353562D01*
X0590823Y0352698D01*
X0591166Y0351871D01*
X0592012Y0350576D02*
X0345294Y0350576D01*
X0336306Y0350576D02*
X0296800Y0350576D01*
X0296800Y0348977D02*
X0593901Y0348977D01*
X0596500Y0348977D02*
X0598100Y0348977D01*
X0598100Y0350576D02*
X0596500Y0350576D01*
X0596500Y0352175D02*
X0598100Y0352175D01*
X0598100Y0353773D02*
X0596500Y0353773D01*
X0596500Y0355372D02*
X0504735Y0355372D01*
X0506334Y0356970D02*
X0590790Y0356970D01*
X0590823Y0357095D02*
X0590592Y0356230D01*
X0590521Y0355696D01*
X0596500Y0355696D01*
X0596500Y0361675D01*
X0595966Y0361604D01*
X0595101Y0361373D01*
X0594275Y0361030D01*
X0593500Y0360583D01*
X0592790Y0360038D01*
X0592158Y0359406D01*
X0591613Y0358696D01*
X0591166Y0357921D01*
X0590823Y0357095D01*
X0591539Y0358569D02*
X0507932Y0358569D01*
X0509531Y0360167D02*
X0592958Y0360167D01*
X0596500Y0360167D02*
X0598100Y0360167D01*
X0598100Y0358569D02*
X0596500Y0358569D01*
X0596500Y0356970D02*
X0598100Y0356970D01*
X0598100Y0355372D02*
X0616500Y0355372D01*
X0616500Y0355696D02*
X0616500Y0354096D01*
X0618100Y0354096D01*
X0618100Y0348117D01*
X0618634Y0348188D01*
X0619499Y0348419D01*
X0620325Y0348762D01*
X0621100Y0349209D01*
X0621810Y0349754D01*
X0622442Y0350386D01*
X0622987Y0351096D01*
X0623434Y0351871D01*
X0623777Y0352698D01*
X0624008Y0353562D01*
X0624079Y0354096D01*
X0618100Y0354096D01*
X0618100Y0355696D01*
X0624079Y0355696D01*
X0624008Y0356230D01*
X0623777Y0357095D01*
X0623434Y0357921D01*
X0622987Y0358696D01*
X0622442Y0359406D01*
X0621810Y0360038D01*
X0621100Y0360583D01*
X0620325Y0361030D01*
X0619499Y0361373D01*
X0618634Y0361604D01*
X0618100Y0361675D01*
X0618100Y0355696D01*
X0616500Y0355696D01*
X0610521Y0355696D01*
X0610592Y0356230D01*
X0610823Y0357095D01*
X0611166Y0357921D01*
X0611613Y0358696D01*
X0612158Y0359406D01*
X0612790Y0360038D01*
X0613500Y0360583D01*
X0614275Y0361030D01*
X0615101Y0361373D01*
X0615966Y0361604D01*
X0616500Y0361675D01*
X0616500Y0355696D01*
X0616500Y0356970D02*
X0618100Y0356970D01*
X0618100Y0355372D02*
X0644800Y0355372D01*
X0644800Y0356970D02*
X0623810Y0356970D01*
X0623061Y0358569D02*
X0644800Y0358569D01*
X0644800Y0360167D02*
X0621642Y0360167D01*
X0618100Y0360167D02*
X0616500Y0360167D01*
X0616500Y0358569D02*
X0618100Y0358569D01*
X0616500Y0354096D02*
X0610521Y0354096D01*
X0610592Y0353562D01*
X0610823Y0352698D01*
X0611166Y0351871D01*
X0611613Y0351096D01*
X0612158Y0350386D01*
X0612790Y0349754D01*
X0613500Y0349209D01*
X0614275Y0348762D01*
X0615101Y0348419D01*
X0615966Y0348188D01*
X0616500Y0348117D01*
X0616500Y0354096D01*
X0616500Y0353773D02*
X0618100Y0353773D01*
X0618100Y0352175D02*
X0616500Y0352175D01*
X0616500Y0350576D02*
X0618100Y0350576D01*
X0618100Y0348977D02*
X0616500Y0348977D01*
X0613901Y0348977D02*
X0612305Y0348977D01*
X0612747Y0348536D02*
X0610939Y0350343D01*
X0608578Y0351321D01*
X0606022Y0351321D01*
X0603661Y0350343D01*
X0601853Y0348536D01*
X0600875Y0346174D01*
X0600875Y0343618D01*
X0601853Y0341257D01*
X0603661Y0339449D01*
X0606022Y0338471D01*
X0608578Y0338471D01*
X0610939Y0339449D01*
X0612747Y0341257D01*
X0613725Y0343618D01*
X0613725Y0346174D01*
X0612747Y0348536D01*
X0613226Y0347379D02*
X0644800Y0347379D01*
X0644800Y0348977D02*
X0620699Y0348977D01*
X0622588Y0350576D02*
X0644800Y0350576D01*
X0644800Y0352175D02*
X0623560Y0352175D01*
X0624036Y0353773D02*
X0644800Y0353773D01*
X0644800Y0345780D02*
X0613725Y0345780D01*
X0613725Y0344182D02*
X0644800Y0344182D01*
X0644800Y0342583D02*
X0613296Y0342583D01*
X0612475Y0340985D02*
X0614196Y0340985D01*
X0614275Y0341030D02*
X0613500Y0340583D01*
X0612790Y0340038D01*
X0612158Y0339406D01*
X0611613Y0338696D01*
X0611166Y0337921D01*
X0610823Y0337095D01*
X0610592Y0336230D01*
X0610521Y0335696D01*
X0616500Y0335696D01*
X0616500Y0334096D01*
X0618100Y0334096D01*
X0618100Y0328117D01*
X0618634Y0328188D01*
X0619499Y0328419D01*
X0620325Y0328762D01*
X0621100Y0329209D01*
X0621810Y0329754D01*
X0622442Y0330386D01*
X0622987Y0331096D01*
X0623434Y0331871D01*
X0623777Y0332698D01*
X0624008Y0333562D01*
X0624079Y0334096D01*
X0618100Y0334096D01*
X0618100Y0335696D01*
X0624079Y0335696D01*
X0624008Y0336230D01*
X0623777Y0337095D01*
X0623434Y0337921D01*
X0622987Y0338696D01*
X0622442Y0339406D01*
X0621810Y0340038D01*
X0621100Y0340583D01*
X0620325Y0341030D01*
X0619499Y0341373D01*
X0618634Y0341604D01*
X0618100Y0341675D01*
X0618100Y0335696D01*
X0616500Y0335696D01*
X0616500Y0341675D01*
X0615966Y0341604D01*
X0615101Y0341373D01*
X0614275Y0341030D01*
X0616500Y0340985D02*
X0618100Y0340985D01*
X0618100Y0339386D02*
X0616500Y0339386D01*
X0616500Y0337788D02*
X0618100Y0337788D01*
X0618100Y0336189D02*
X0616500Y0336189D01*
X0616500Y0334591D02*
X0598100Y0334591D01*
X0598100Y0334096D02*
X0598100Y0335696D01*
X0604079Y0335696D01*
X0604008Y0336230D01*
X0603777Y0337095D01*
X0603434Y0337921D01*
X0602987Y0338696D01*
X0602442Y0339406D01*
X0601810Y0340038D01*
X0601100Y0340583D01*
X0600325Y0341030D01*
X0599499Y0341373D01*
X0598634Y0341604D01*
X0598100Y0341675D01*
X0598100Y0335696D01*
X0596500Y0335696D01*
X0596500Y0334096D01*
X0598100Y0334096D01*
X0598100Y0328117D01*
X0598634Y0328188D01*
X0599499Y0328419D01*
X0600325Y0328762D01*
X0601100Y0329209D01*
X0601810Y0329754D01*
X0602442Y0330386D01*
X0602987Y0331096D01*
X0603434Y0331871D01*
X0603777Y0332698D01*
X0604008Y0333562D01*
X0604079Y0334096D01*
X0598100Y0334096D01*
X0598100Y0332992D02*
X0596500Y0332992D01*
X0596500Y0334096D02*
X0596500Y0328117D01*
X0595966Y0328188D01*
X0595101Y0328419D01*
X0594275Y0328762D01*
X0593500Y0329209D01*
X0592790Y0329754D01*
X0592158Y0330386D01*
X0591613Y0331096D01*
X0591166Y0331871D01*
X0590823Y0332698D01*
X0590592Y0333562D01*
X0590521Y0334096D01*
X0596500Y0334096D01*
X0596500Y0334591D02*
X0495565Y0334591D01*
X0493966Y0336189D02*
X0590586Y0336189D01*
X0590592Y0336230D02*
X0590521Y0335696D01*
X0596500Y0335696D01*
X0596500Y0341675D01*
X0595966Y0341604D01*
X0595101Y0341373D01*
X0594275Y0341030D01*
X0593500Y0340583D01*
X0592790Y0340038D01*
X0592158Y0339406D01*
X0591613Y0338696D01*
X0591166Y0337921D01*
X0590823Y0337095D01*
X0590592Y0336230D01*
X0591111Y0337788D02*
X0492368Y0337788D01*
X0490769Y0339386D02*
X0592143Y0339386D01*
X0594196Y0340985D02*
X0489171Y0340985D01*
X0487572Y0342583D02*
X0601304Y0342583D01*
X0600875Y0344182D02*
X0485974Y0344182D01*
X0485281Y0344875D02*
X0485281Y0347706D01*
X0484110Y0348877D01*
X0478490Y0348877D01*
X0477319Y0347706D01*
X0477319Y0342087D01*
X0478490Y0340915D01*
X0481321Y0340915D01*
X0499214Y0323022D01*
X0500243Y0322596D01*
X0524819Y0322596D01*
X0524819Y0322587D01*
X0525990Y0321415D01*
X0526000Y0321415D01*
X0526000Y0319339D01*
X0526426Y0318310D01*
X0554000Y0290736D01*
X0554000Y0258377D01*
X0553990Y0258377D01*
X0552819Y0257206D01*
X0552819Y0251587D01*
X0553990Y0250415D01*
X0554000Y0250415D01*
X0554000Y0112656D01*
X0529886Y0136770D01*
X0528857Y0137196D01*
X0342281Y0137196D01*
X0342281Y0137206D01*
X0341110Y0138377D01*
X0335490Y0138377D01*
X0334319Y0137206D01*
X0334319Y0131587D01*
X0335209Y0130696D01*
X0314460Y0130696D01*
X0306781Y0138375D01*
X0306781Y0141206D01*
X0305610Y0142377D01*
X0299990Y0142377D01*
X0298819Y0141206D01*
X0298819Y0135587D01*
X0299990Y0134415D01*
X0302821Y0134415D01*
X0311714Y0125522D01*
X0312743Y0125096D01*
X0442640Y0125096D01*
X0464363Y0103373D01*
X0464181Y0102932D01*
X0464004Y0103279D01*
X0463495Y0103979D01*
X0462883Y0104591D01*
X0462183Y0105100D01*
X0461411Y0105493D01*
X0460588Y0105761D01*
X0459733Y0105896D01*
X0459500Y0105896D01*
X0459500Y0100596D01*
X0459100Y0100596D01*
X0459100Y0100196D01*
X0459500Y0100196D01*
X0459500Y0094896D01*
X0459733Y0094896D01*
X0460588Y0095031D01*
X0461411Y0095299D01*
X0462183Y0095692D01*
X0462883Y0096201D01*
X0463495Y0096813D01*
X0464004Y0097513D01*
X0464181Y0097860D01*
X0464468Y0097167D01*
X0466071Y0095564D01*
X0466500Y0095386D01*
X0466500Y0085987D01*
X0465610Y0086877D01*
X0459990Y0086877D01*
X0458819Y0085706D01*
X0458819Y0085696D01*
X0450391Y0085696D01*
X0451281Y0086587D01*
X0451281Y0092206D01*
X0450110Y0093377D01*
X0444490Y0093377D01*
X0443319Y0092206D01*
X0443319Y0092196D01*
X0430460Y0092196D01*
X0429600Y0093056D01*
X0429600Y0103453D01*
X0429174Y0104482D01*
X0428386Y0105270D01*
X0423674Y0109982D01*
X0422886Y0110770D01*
X0421857Y0111196D01*
X0386960Y0111196D01*
X0380281Y0117875D01*
X0380281Y0120706D01*
X0379110Y0121877D01*
X0373490Y0121877D01*
X0372319Y0120706D01*
X0372319Y0115087D01*
X0373490Y0113915D01*
X0376321Y0113915D01*
X0384214Y0106022D01*
X0385243Y0105596D01*
X0386959Y0105596D01*
X0386071Y0105228D01*
X0384468Y0103625D01*
X0384300Y0103220D01*
X0384132Y0103625D01*
X0382529Y0105228D01*
X0380434Y0106096D01*
X0378166Y0106096D01*
X0376071Y0105228D01*
X0374468Y0103625D01*
X0374300Y0103220D01*
X0374132Y0103625D01*
X0372529Y0105228D01*
X0370434Y0106096D01*
X0368166Y0106096D01*
X0366071Y0105228D01*
X0364468Y0103625D01*
X0364300Y0103220D01*
X0364132Y0103625D01*
X0362529Y0105228D01*
X0360434Y0106096D01*
X0358166Y0106096D01*
X0356071Y0105228D01*
X0354468Y0103625D01*
X0354300Y0103220D01*
X0354132Y0103625D01*
X0352529Y0105228D01*
X0350434Y0106096D01*
X0348166Y0106096D01*
X0346071Y0105228D01*
X0344468Y0103625D01*
X0343600Y0101530D01*
X0343600Y0099262D01*
X0344468Y0097167D01*
X0346071Y0095564D01*
X0348166Y0094696D01*
X0350434Y0094696D01*
X0352529Y0095564D01*
X0354132Y0097167D01*
X0354300Y0097572D01*
X0354468Y0097167D01*
X0356071Y0095564D01*
X0358166Y0094696D01*
X0360434Y0094696D01*
X0362529Y0095564D01*
X0364132Y0097167D01*
X0364300Y0097572D01*
X0364468Y0097167D01*
X0366071Y0095564D01*
X0368166Y0094696D01*
X0370434Y0094696D01*
X0372529Y0095564D01*
X0374132Y0097167D01*
X0374300Y0097572D01*
X0374468Y0097167D01*
X0376071Y0095564D01*
X0378166Y0094696D01*
X0380434Y0094696D01*
X0382529Y0095564D01*
X0384132Y0097167D01*
X0384300Y0097572D01*
X0384468Y0097167D01*
X0386071Y0095564D01*
X0388166Y0094696D01*
X0390434Y0094696D01*
X0392529Y0095564D01*
X0394132Y0097167D01*
X0394300Y0097572D01*
X0394468Y0097167D01*
X0396071Y0095564D01*
X0398166Y0094696D01*
X0400434Y0094696D01*
X0402529Y0095564D01*
X0404132Y0097167D01*
X0404300Y0097572D01*
X0404468Y0097167D01*
X0406071Y0095564D01*
X0408166Y0094696D01*
X0410434Y0094696D01*
X0412529Y0095564D01*
X0414132Y0097167D01*
X0414300Y0097572D01*
X0414468Y0097167D01*
X0416071Y0095564D01*
X0416500Y0095386D01*
X0416500Y0091839D01*
X0416926Y0090810D01*
X0426426Y0081310D01*
X0427214Y0080522D01*
X0428243Y0080096D01*
X0458819Y0080096D01*
X0458819Y0080087D01*
X0459709Y0079196D01*
X0419960Y0079196D01*
X0412281Y0086875D01*
X0412281Y0089706D01*
X0411110Y0090877D01*
X0405490Y0090877D01*
X0404319Y0089706D01*
X0404319Y0084087D01*
X0405490Y0082915D01*
X0408321Y0082915D01*
X0416540Y0074696D01*
X0355550Y0074696D01*
X0355550Y0081210D01*
X0350864Y0085896D01*
X0344236Y0085896D01*
X0339550Y0081210D01*
X0339550Y0074582D01*
X0344236Y0069896D01*
X0350864Y0069896D01*
X0351227Y0070259D01*
X0351964Y0069522D01*
X0352993Y0069096D01*
X0496819Y0069096D01*
X0496819Y0064587D01*
X0497990Y0063415D01*
X0503610Y0063415D01*
X0504781Y0064587D01*
X0504781Y0070206D01*
X0503610Y0071377D01*
X0502779Y0071377D01*
X0499886Y0074270D01*
X0498857Y0074696D01*
X0469560Y0074696D01*
X0469674Y0074810D01*
X0471674Y0076810D01*
X0472100Y0077839D01*
X0472100Y0095386D01*
X0472529Y0095564D01*
X0474132Y0097167D01*
X0474300Y0097572D01*
X0474468Y0097167D01*
X0476071Y0095564D01*
X0478166Y0094696D01*
X0480434Y0094696D01*
X0482529Y0095564D01*
X0484132Y0097167D01*
X0484300Y0097572D01*
X0484468Y0097167D01*
X0486071Y0095564D01*
X0488166Y0094696D01*
X0490434Y0094696D01*
X0492529Y0095564D01*
X0494132Y0097167D01*
X0494300Y0097572D01*
X0494468Y0097167D01*
X0496071Y0095564D01*
X0498166Y0094696D01*
X0500434Y0094696D01*
X0502529Y0095564D01*
X0504132Y0097167D01*
X0504300Y0097572D01*
X0504468Y0097167D01*
X0506071Y0095564D01*
X0508166Y0094696D01*
X0510434Y0094696D01*
X0512529Y0095564D01*
X0514132Y0097167D01*
X0515000Y0099262D01*
X0515000Y0101530D01*
X0514132Y0103625D01*
X0512529Y0105228D01*
X0510434Y0106096D01*
X0508166Y0106096D01*
X0506071Y0105228D01*
X0504468Y0103625D01*
X0504300Y0103220D01*
X0504132Y0103625D01*
X0502529Y0105228D01*
X0500434Y0106096D01*
X0498166Y0106096D01*
X0496071Y0105228D01*
X0494468Y0103625D01*
X0494300Y0103220D01*
X0494132Y0103625D01*
X0492529Y0105228D01*
X0490434Y0106096D01*
X0488166Y0106096D01*
X0486071Y0105228D01*
X0484468Y0103625D01*
X0484300Y0103220D01*
X0484132Y0103625D01*
X0482529Y0105228D01*
X0480434Y0106096D01*
X0478166Y0106096D01*
X0476071Y0105228D01*
X0474468Y0103625D01*
X0474300Y0103220D01*
X0474132Y0103625D01*
X0472529Y0105228D01*
X0470434Y0106096D01*
X0469560Y0106096D01*
X0445386Y0130270D01*
X0444357Y0130696D01*
X0341391Y0130696D01*
X0342281Y0131587D01*
X0342281Y0131596D01*
X0526640Y0131596D01*
X0554426Y0103810D01*
X0555214Y0103022D01*
X0573663Y0084573D01*
X0573300Y0084210D01*
X0573300Y0082356D01*
X0509140Y0018196D01*
X0480781Y0018196D01*
X0480781Y0018206D01*
X0479610Y0019377D01*
X0473990Y0019377D01*
X0472819Y0018206D01*
X0472819Y0018196D01*
X0331460Y0018196D01*
X0330600Y0019056D01*
X0330600Y0021915D01*
X0330610Y0021915D01*
X0331781Y0023087D01*
X0331781Y0028706D01*
X0330610Y0029877D01*
X0324990Y0029877D01*
X0323819Y0028706D01*
X0323819Y0023087D01*
X0324990Y0021915D01*
X0325000Y0021915D01*
X0325000Y0018196D01*
X0228460Y0018196D01*
X0221600Y0025056D01*
X0221600Y0028415D01*
X0221610Y0028415D01*
X0222781Y0029587D01*
X0222781Y0035206D01*
X0221610Y0036377D01*
X0221600Y0036377D01*
X0221600Y0051415D01*
X0221610Y0051415D01*
X0222781Y0052587D01*
X0222781Y0058206D01*
X0221610Y0059377D01*
X0215990Y0059377D01*
X0214819Y0058206D01*
X0214819Y0052587D01*
X0215990Y0051415D01*
X0216000Y0051415D01*
X0216000Y0036377D01*
X0215990Y0036377D01*
X0214819Y0035206D01*
X0214819Y0029587D01*
X0215990Y0028415D01*
X0216000Y0028415D01*
X0216000Y0023339D01*
X0216426Y0022310D01*
X0217214Y0021522D01*
X0225714Y0013022D01*
X0226743Y0012596D01*
X0472819Y0012596D01*
X0472819Y0012587D01*
X0473990Y0011415D01*
X0479610Y0011415D01*
X0480781Y0012587D01*
X0480781Y0012596D01*
X0510857Y0012596D01*
X0511886Y0013022D01*
X0512674Y0013810D01*
X0574873Y0076009D01*
X0577736Y0073146D01*
X0573050Y0068460D01*
X0573050Y0061832D01*
X0577736Y0057146D01*
X0584364Y0057146D01*
X0589050Y0061832D01*
X0589050Y0068460D01*
X0584614Y0072896D01*
X0589300Y0077582D01*
X0589300Y0084210D01*
X0584614Y0088896D01*
X0577986Y0088896D01*
X0577623Y0088533D01*
X0559600Y0106556D01*
X0559600Y0250415D01*
X0559610Y0250415D01*
X0560781Y0251587D01*
X0560781Y0257206D01*
X0559610Y0258377D01*
X0559600Y0258377D01*
X0559600Y0292453D01*
X0559174Y0293482D01*
X0531600Y0321056D01*
X0531600Y0321415D01*
X0531610Y0321415D01*
X0532781Y0322587D01*
X0532781Y0328206D01*
X0531610Y0329377D01*
X0525990Y0329377D01*
X0524819Y0328206D01*
X0524819Y0328196D01*
X0501960Y0328196D01*
X0485281Y0344875D01*
X0485281Y0345780D02*
X0600875Y0345780D01*
X0601374Y0347379D02*
X0485281Y0347379D01*
X0481300Y0344896D02*
X0500800Y0325396D01*
X0528800Y0325396D01*
X0528800Y0319896D01*
X0556800Y0291896D01*
X0556800Y0254396D01*
X0556800Y0252396D01*
X0556800Y0105896D01*
X0528300Y0134396D01*
X0338300Y0134396D01*
X0527800Y0134396D01*
X0556800Y0105396D01*
X0556800Y0105896D01*
X0556800Y0105396D02*
X0581300Y0080896D01*
X0575800Y0080896D01*
X0510300Y0015396D01*
X0476800Y0015396D01*
X0330300Y0015396D01*
X0327800Y0017896D01*
X0327800Y0025896D01*
X0331781Y0026078D02*
X0357158Y0026078D01*
X0358757Y0024480D02*
X0331781Y0024480D01*
X0331576Y0022881D02*
X0411524Y0022881D01*
X0411319Y0023087D02*
X0412490Y0021915D01*
X0418110Y0021915D01*
X0419281Y0023087D01*
X0419281Y0028417D01*
X0420386Y0029522D01*
X0421174Y0030310D01*
X0421600Y0031339D01*
X0421600Y0061953D01*
X0421174Y0062982D01*
X0420781Y0063375D01*
X0420781Y0066206D01*
X0419610Y0067377D01*
X0413990Y0067377D01*
X0412819Y0066206D01*
X0412819Y0060587D01*
X0413990Y0059415D01*
X0416000Y0059415D01*
X0416000Y0033056D01*
X0412926Y0029982D01*
X0412883Y0029877D01*
X0412490Y0029877D01*
X0411319Y0028706D01*
X0411319Y0028696D01*
X0362460Y0028696D01*
X0347386Y0043770D01*
X0346357Y0044196D01*
X0312243Y0044196D01*
X0311214Y0043770D01*
X0310426Y0042982D01*
X0295640Y0028196D01*
X0279781Y0028196D01*
X0279781Y0028206D01*
X0278610Y0029377D01*
X0272990Y0029377D01*
X0271819Y0028206D01*
X0271819Y0022587D01*
X0272990Y0021415D01*
X0278610Y0021415D01*
X0279781Y0022587D01*
X0279781Y0022596D01*
X0297357Y0022596D01*
X0298386Y0023022D01*
X0313960Y0038596D01*
X0344640Y0038596D01*
X0358926Y0024310D01*
X0359714Y0023522D01*
X0360743Y0023096D01*
X0411319Y0023096D01*
X0411319Y0023087D01*
X0415300Y0025896D02*
X0415300Y0028396D01*
X0418800Y0031896D01*
X0418800Y0061396D01*
X0417550Y0062646D01*
X0416800Y0063396D01*
X0412819Y0062844D02*
X0294708Y0062844D01*
X0296306Y0064442D02*
X0412819Y0064442D01*
X0412819Y0066041D02*
X0297905Y0066041D01*
X0299503Y0067639D02*
X0496819Y0067639D01*
X0496819Y0066041D02*
X0420781Y0066041D01*
X0420781Y0064442D02*
X0496963Y0064442D01*
X0500800Y0067396D02*
X0500800Y0069396D01*
X0498300Y0071896D01*
X0353550Y0071896D01*
X0347550Y0077896D01*
X0341697Y0072435D02*
X0304299Y0072435D01*
X0305897Y0074034D02*
X0340099Y0074034D01*
X0339550Y0075632D02*
X0307496Y0075632D01*
X0309094Y0077231D02*
X0339550Y0077231D01*
X0339550Y0078829D02*
X0310693Y0078829D01*
X0312291Y0080428D02*
X0339550Y0080428D01*
X0340366Y0082026D02*
X0313890Y0082026D01*
X0315488Y0083625D02*
X0341965Y0083625D01*
X0343563Y0085223D02*
X0317087Y0085223D01*
X0318685Y0086822D02*
X0404319Y0086822D01*
X0404319Y0088420D02*
X0320284Y0088420D01*
X0320460Y0088596D02*
X0333857Y0088596D01*
X0334886Y0089022D01*
X0335674Y0089810D01*
X0338174Y0092310D01*
X0338600Y0093339D01*
X0338600Y0115415D01*
X0338610Y0115415D01*
X0339781Y0116587D01*
X0339781Y0122206D01*
X0338610Y0123377D01*
X0332990Y0123377D01*
X0331819Y0122206D01*
X0331819Y0116587D01*
X0332990Y0115415D01*
X0333000Y0115415D01*
X0333000Y0104757D01*
X0332529Y0105228D01*
X0330434Y0106096D01*
X0328166Y0106096D01*
X0326071Y0105228D01*
X0324468Y0103625D01*
X0324300Y0103220D01*
X0324132Y0103625D01*
X0322529Y0105228D01*
X0320434Y0106096D01*
X0318166Y0106096D01*
X0316071Y0105228D01*
X0314468Y0103625D01*
X0314300Y0103220D01*
X0314132Y0103625D01*
X0312529Y0105228D01*
X0310434Y0106096D01*
X0308166Y0106096D01*
X0306071Y0105228D01*
X0304468Y0103625D01*
X0304300Y0103220D01*
X0304132Y0103625D01*
X0302529Y0105228D01*
X0300434Y0106096D01*
X0298166Y0106096D01*
X0296071Y0105228D01*
X0294468Y0103625D01*
X0294300Y0103220D01*
X0294132Y0103625D01*
X0292529Y0105228D01*
X0290434Y0106096D01*
X0288166Y0106096D01*
X0286071Y0105228D01*
X0284468Y0103625D01*
X0284300Y0103220D01*
X0284132Y0103625D01*
X0282529Y0105228D01*
X0280434Y0106096D01*
X0278166Y0106096D01*
X0276071Y0105228D01*
X0274468Y0103625D01*
X0274300Y0103220D01*
X0274132Y0103625D01*
X0272529Y0105228D01*
X0270434Y0106096D01*
X0268166Y0106096D01*
X0266071Y0105228D01*
X0264468Y0103625D01*
X0264300Y0103220D01*
X0264132Y0103625D01*
X0262529Y0105228D01*
X0260434Y0106096D01*
X0258166Y0106096D01*
X0256071Y0105228D01*
X0254468Y0103625D01*
X0254290Y0103196D01*
X0232960Y0103196D01*
X0229281Y0106875D01*
X0229281Y0109706D01*
X0228110Y0110877D01*
X0222490Y0110877D01*
X0221319Y0109706D01*
X0221319Y0104087D01*
X0222490Y0102915D01*
X0225321Y0102915D01*
X0230214Y0098022D01*
X0231243Y0097596D01*
X0254290Y0097596D01*
X0254468Y0097167D01*
X0256071Y0095564D01*
X0258166Y0094696D01*
X0260434Y0094696D01*
X0262529Y0095564D01*
X0264132Y0097167D01*
X0264300Y0097572D01*
X0264468Y0097167D01*
X0265040Y0096595D01*
X0263140Y0094696D01*
X0228960Y0094696D01*
X0220281Y0103375D01*
X0220281Y0106206D01*
X0219110Y0107377D01*
X0213490Y0107377D01*
X0212319Y0106206D01*
X0212319Y0100587D01*
X0213490Y0099415D01*
X0216321Y0099415D01*
X0226214Y0089522D01*
X0227243Y0089096D01*
X0264857Y0089096D01*
X0265886Y0089522D01*
X0266674Y0090310D01*
X0271502Y0095139D01*
X0272529Y0095564D01*
X0274132Y0097167D01*
X0274300Y0097572D01*
X0274468Y0097167D01*
X0276071Y0095564D01*
X0278166Y0094696D01*
X0280434Y0094696D01*
X0282529Y0095564D01*
X0284132Y0097167D01*
X0284300Y0097572D01*
X0284468Y0097167D01*
X0286071Y0095564D01*
X0288166Y0094696D01*
X0290434Y0094696D01*
X0292529Y0095564D01*
X0294132Y0097167D01*
X0294300Y0097572D01*
X0294468Y0097167D01*
X0296071Y0095564D01*
X0298166Y0094696D01*
X0300434Y0094696D01*
X0302529Y0095564D01*
X0304132Y0097167D01*
X0304300Y0097572D01*
X0304468Y0097167D01*
X0306071Y0095564D01*
X0308166Y0094696D01*
X0310434Y0094696D01*
X0312529Y0095564D01*
X0314132Y0097167D01*
X0314300Y0097572D01*
X0314468Y0097167D01*
X0316071Y0095564D01*
X0318166Y0094696D01*
X0320434Y0094696D01*
X0322529Y0095564D01*
X0324132Y0097167D01*
X0324300Y0097572D01*
X0324468Y0097167D01*
X0326071Y0095564D01*
X0328166Y0094696D01*
X0330434Y0094696D01*
X0332529Y0095564D01*
X0333000Y0096035D01*
X0333000Y0095056D01*
X0332140Y0094196D01*
X0318743Y0094196D01*
X0317714Y0093770D01*
X0280140Y0056196D01*
X0271243Y0056196D01*
X0270214Y0055770D01*
X0250321Y0035877D01*
X0247490Y0035877D01*
X0246319Y0034706D01*
X0246319Y0029087D01*
X0247490Y0027915D01*
X0253110Y0027915D01*
X0254281Y0029087D01*
X0254281Y0031917D01*
X0272960Y0050596D01*
X0281857Y0050596D01*
X0282886Y0051022D01*
X0283674Y0051810D01*
X0320460Y0088596D01*
X0319300Y0091396D02*
X0281300Y0053396D01*
X0271800Y0053396D01*
X0250300Y0031896D01*
X0246319Y0032472D02*
X0222781Y0032472D01*
X0222781Y0030874D02*
X0246319Y0030874D01*
X0246319Y0029275D02*
X0222470Y0029275D01*
X0221600Y0027677D02*
X0271819Y0027677D01*
X0271819Y0026078D02*
X0221600Y0026078D01*
X0222176Y0024480D02*
X0271819Y0024480D01*
X0271819Y0022881D02*
X0223775Y0022881D01*
X0225373Y0021283D02*
X0325000Y0021283D01*
X0325000Y0019684D02*
X0226972Y0019684D01*
X0227300Y0015396D02*
X0218800Y0023896D01*
X0218800Y0032396D01*
X0218800Y0055396D01*
X0222781Y0054851D02*
X0244942Y0054851D01*
X0244800Y0054710D02*
X0244800Y0048082D01*
X0249486Y0043396D01*
X0256114Y0043396D01*
X0260800Y0048082D01*
X0260800Y0054710D01*
X0256114Y0059396D01*
X0249486Y0059396D01*
X0244800Y0054710D01*
X0244800Y0053253D02*
X0222781Y0053253D01*
X0221849Y0051654D02*
X0244800Y0051654D01*
X0244800Y0050056D02*
X0221600Y0050056D01*
X0221600Y0048457D02*
X0244800Y0048457D01*
X0246024Y0046859D02*
X0221600Y0046859D01*
X0221600Y0045260D02*
X0247622Y0045260D01*
X0249221Y0043662D02*
X0221600Y0043662D01*
X0221600Y0042063D02*
X0256507Y0042063D01*
X0256379Y0043662D02*
X0258106Y0043662D01*
X0257978Y0045260D02*
X0259704Y0045260D01*
X0259576Y0046859D02*
X0261303Y0046859D01*
X0260800Y0048457D02*
X0262902Y0048457D01*
X0264500Y0050056D02*
X0260800Y0050056D01*
X0260800Y0051654D02*
X0266099Y0051654D01*
X0267697Y0053253D02*
X0260800Y0053253D01*
X0260658Y0054851D02*
X0269296Y0054851D01*
X0272420Y0050056D02*
X0345180Y0050056D01*
X0343582Y0051654D02*
X0283518Y0051654D01*
X0285117Y0053253D02*
X0341983Y0053253D01*
X0340640Y0054596D02*
X0360926Y0034310D01*
X0361714Y0033522D01*
X0362743Y0033096D01*
X0405819Y0033096D01*
X0405819Y0033087D01*
X0406990Y0031915D01*
X0412610Y0031915D01*
X0413781Y0033087D01*
X0413781Y0038706D01*
X0412610Y0039877D01*
X0406990Y0039877D01*
X0405819Y0038706D01*
X0405819Y0038696D01*
X0364460Y0038696D01*
X0343386Y0059770D01*
X0342357Y0060196D01*
X0329781Y0060196D01*
X0329781Y0060206D01*
X0328610Y0061377D01*
X0322990Y0061377D01*
X0321819Y0060206D01*
X0321819Y0054587D01*
X0322990Y0053415D01*
X0328610Y0053415D01*
X0329781Y0054587D01*
X0329781Y0054596D01*
X0340640Y0054596D01*
X0341800Y0057396D02*
X0363300Y0035896D01*
X0409800Y0035896D01*
X0413781Y0035669D02*
X0416000Y0035669D01*
X0416000Y0034071D02*
X0413781Y0034071D01*
X0413167Y0032472D02*
X0415416Y0032472D01*
X0413818Y0030874D02*
X0360282Y0030874D01*
X0358684Y0032472D02*
X0406433Y0032472D01*
X0411889Y0029275D02*
X0361881Y0029275D01*
X0361300Y0025896D02*
X0415300Y0025896D01*
X0419281Y0026078D02*
X0494890Y0026078D01*
X0494170Y0026798D02*
X0496702Y0024266D01*
X0500010Y0022896D01*
X0503590Y0022896D01*
X0506898Y0024266D01*
X0509430Y0026798D01*
X0510800Y0030106D01*
X0510800Y0033686D01*
X0509430Y0036994D01*
X0506898Y0039526D01*
X0503590Y0040896D01*
X0500010Y0040896D01*
X0496702Y0039526D01*
X0494170Y0036994D01*
X0492800Y0033686D01*
X0492800Y0030106D01*
X0494170Y0026798D01*
X0493806Y0027677D02*
X0419281Y0027677D01*
X0420139Y0029275D02*
X0493144Y0029275D01*
X0492800Y0030874D02*
X0421407Y0030874D01*
X0421600Y0032472D02*
X0492800Y0032472D01*
X0492959Y0034071D02*
X0421600Y0034071D01*
X0421600Y0035669D02*
X0493621Y0035669D01*
X0494444Y0037268D02*
X0421600Y0037268D01*
X0421600Y0038866D02*
X0496042Y0038866D01*
X0498969Y0040465D02*
X0421600Y0040465D01*
X0421600Y0042063D02*
X0533007Y0042063D01*
X0531409Y0040465D02*
X0504631Y0040465D01*
X0507558Y0038866D02*
X0529810Y0038866D01*
X0528212Y0037268D02*
X0509156Y0037268D01*
X0509979Y0035669D02*
X0526613Y0035669D01*
X0525015Y0034071D02*
X0510641Y0034071D01*
X0510800Y0032472D02*
X0523416Y0032472D01*
X0521818Y0030874D02*
X0510800Y0030874D01*
X0510456Y0029275D02*
X0520219Y0029275D01*
X0518621Y0027677D02*
X0509794Y0027677D01*
X0508710Y0026078D02*
X0517022Y0026078D01*
X0515424Y0024480D02*
X0507112Y0024480D01*
X0510628Y0019684D02*
X0330600Y0019684D01*
X0330600Y0021283D02*
X0512227Y0021283D01*
X0513825Y0022881D02*
X0419076Y0022881D01*
X0419281Y0024480D02*
X0496488Y0024480D01*
X0512154Y0013290D02*
X0644800Y0013290D01*
X0644800Y0011692D02*
X0479886Y0011692D01*
X0473714Y0011692D02*
X0008800Y0011692D01*
X0008800Y0013290D02*
X0225446Y0013290D01*
X0223848Y0014889D02*
X0008800Y0014889D01*
X0008800Y0016487D02*
X0222249Y0016487D01*
X0220651Y0018086D02*
X0008800Y0018086D01*
X0008800Y0019684D02*
X0219052Y0019684D01*
X0217454Y0021283D02*
X0008800Y0021283D01*
X0008800Y0022881D02*
X0186284Y0022881D01*
X0186569Y0022596D02*
X0189025Y0022596D01*
X0189025Y0029621D01*
X0190575Y0029621D01*
X0190575Y0022596D01*
X0193031Y0022596D01*
X0197600Y0027165D01*
X0197600Y0029621D01*
X0190575Y0029621D01*
X0190575Y0031171D01*
X0197600Y0031171D01*
X0197600Y0033627D01*
X0193031Y0038196D01*
X0190575Y0038196D01*
X0190575Y0031171D01*
X0189025Y0031171D01*
X0189025Y0029621D01*
X0182000Y0029621D01*
X0182000Y0027165D01*
X0186569Y0022596D01*
X0189025Y0022881D02*
X0190575Y0022881D01*
X0190575Y0024480D02*
X0189025Y0024480D01*
X0189025Y0026078D02*
X0190575Y0026078D01*
X0190575Y0027677D02*
X0189025Y0027677D01*
X0189025Y0029275D02*
X0190575Y0029275D01*
X0190575Y0030874D02*
X0214819Y0030874D01*
X0214819Y0032472D02*
X0197600Y0032472D01*
X0197156Y0034071D02*
X0214819Y0034071D01*
X0215283Y0035669D02*
X0195558Y0035669D01*
X0193959Y0037268D02*
X0216000Y0037268D01*
X0216000Y0038866D02*
X0157558Y0038866D01*
X0156898Y0039526D02*
X0153590Y0040896D01*
X0150010Y0040896D01*
X0146702Y0039526D01*
X0144170Y0036994D01*
X0142800Y0033686D01*
X0142800Y0030106D01*
X0144170Y0026798D01*
X0146702Y0024266D01*
X0150010Y0022896D01*
X0153590Y0022896D01*
X0156898Y0024266D01*
X0159430Y0026798D01*
X0160800Y0030106D01*
X0160800Y0033686D01*
X0159430Y0036994D01*
X0156898Y0039526D01*
X0154631Y0040465D02*
X0216000Y0040465D01*
X0216000Y0042063D02*
X0008800Y0042063D01*
X0008800Y0040465D02*
X0148969Y0040465D01*
X0146042Y0038866D02*
X0008800Y0038866D01*
X0008800Y0037268D02*
X0144444Y0037268D01*
X0143621Y0035669D02*
X0008800Y0035669D01*
X0008800Y0034071D02*
X0142959Y0034071D01*
X0142800Y0032472D02*
X0008800Y0032472D01*
X0008800Y0030874D02*
X0142800Y0030874D01*
X0143144Y0029275D02*
X0008800Y0029275D01*
X0008800Y0027677D02*
X0143806Y0027677D01*
X0144890Y0026078D02*
X0008800Y0026078D01*
X0008800Y0024480D02*
X0146488Y0024480D01*
X0157112Y0024480D02*
X0184686Y0024480D01*
X0183087Y0026078D02*
X0158710Y0026078D01*
X0159794Y0027677D02*
X0182000Y0027677D01*
X0182000Y0029275D02*
X0160456Y0029275D01*
X0160800Y0030874D02*
X0189025Y0030874D01*
X0189025Y0031171D02*
X0182000Y0031171D01*
X0182000Y0033627D01*
X0186569Y0038196D01*
X0189025Y0038196D01*
X0189025Y0031171D01*
X0189025Y0032472D02*
X0190575Y0032472D01*
X0190575Y0034071D02*
X0189025Y0034071D01*
X0189025Y0035669D02*
X0190575Y0035669D01*
X0190575Y0037268D02*
X0189025Y0037268D01*
X0185641Y0037268D02*
X0159156Y0037268D01*
X0159979Y0035669D02*
X0184042Y0035669D01*
X0182444Y0034071D02*
X0160641Y0034071D01*
X0160800Y0032472D02*
X0182000Y0032472D01*
X0193316Y0022881D02*
X0216190Y0022881D01*
X0216000Y0024480D02*
X0194914Y0024480D01*
X0196513Y0026078D02*
X0216000Y0026078D01*
X0216000Y0027677D02*
X0197600Y0027677D01*
X0197600Y0029275D02*
X0215130Y0029275D01*
X0222781Y0034071D02*
X0246319Y0034071D01*
X0247283Y0035669D02*
X0222317Y0035669D01*
X0221600Y0037268D02*
X0251712Y0037268D01*
X0253310Y0038866D02*
X0221600Y0038866D01*
X0221600Y0040465D02*
X0254909Y0040465D01*
X0259632Y0037268D02*
X0304712Y0037268D01*
X0306310Y0038866D02*
X0261230Y0038866D01*
X0262829Y0040465D02*
X0307909Y0040465D01*
X0309507Y0042063D02*
X0264427Y0042063D01*
X0266026Y0043662D02*
X0311106Y0043662D01*
X0312800Y0041396D02*
X0345800Y0041396D01*
X0361300Y0025896D01*
X0355560Y0027677D02*
X0331781Y0027677D01*
X0331211Y0029275D02*
X0353961Y0029275D01*
X0352363Y0030874D02*
X0306237Y0030874D01*
X0304639Y0029275D02*
X0324389Y0029275D01*
X0323819Y0027677D02*
X0303040Y0027677D01*
X0301442Y0026078D02*
X0323819Y0026078D01*
X0323819Y0024480D02*
X0299843Y0024480D01*
X0298045Y0022881D02*
X0324024Y0022881D01*
X0330300Y0015396D02*
X0227300Y0015396D01*
X0254281Y0029275D02*
X0272889Y0029275D01*
X0275800Y0025396D02*
X0296800Y0025396D01*
X0312800Y0041396D01*
X0312632Y0037268D02*
X0345968Y0037268D01*
X0347567Y0035669D02*
X0311033Y0035669D01*
X0309434Y0034071D02*
X0349166Y0034071D01*
X0350764Y0032472D02*
X0307836Y0032472D01*
X0303113Y0035669D02*
X0258033Y0035669D01*
X0256434Y0034071D02*
X0301515Y0034071D01*
X0299916Y0032472D02*
X0254836Y0032472D01*
X0254281Y0030874D02*
X0298318Y0030874D01*
X0296719Y0029275D02*
X0278711Y0029275D01*
X0267624Y0045260D02*
X0349976Y0045260D01*
X0351574Y0043662D02*
X0347494Y0043662D01*
X0349093Y0042063D02*
X0353173Y0042063D01*
X0354771Y0040465D02*
X0350691Y0040465D01*
X0352290Y0038866D02*
X0356370Y0038866D01*
X0357968Y0037268D02*
X0353888Y0037268D01*
X0355487Y0035669D02*
X0359567Y0035669D01*
X0361166Y0034071D02*
X0357085Y0034071D01*
X0362691Y0040465D02*
X0416000Y0040465D01*
X0416000Y0042063D02*
X0361093Y0042063D01*
X0359494Y0043662D02*
X0416000Y0043662D01*
X0416000Y0045260D02*
X0357896Y0045260D01*
X0356297Y0046859D02*
X0416000Y0046859D01*
X0416000Y0048457D02*
X0354698Y0048457D01*
X0353100Y0050056D02*
X0416000Y0050056D01*
X0416000Y0051654D02*
X0351501Y0051654D01*
X0349903Y0053253D02*
X0416000Y0053253D01*
X0416000Y0054851D02*
X0348304Y0054851D01*
X0346706Y0056450D02*
X0416000Y0056450D01*
X0416000Y0058048D02*
X0345107Y0058048D01*
X0343509Y0059647D02*
X0413758Y0059647D01*
X0412819Y0061245D02*
X0328741Y0061245D01*
X0325800Y0057396D02*
X0341800Y0057396D01*
X0346779Y0048457D02*
X0270821Y0048457D01*
X0269223Y0046859D02*
X0348377Y0046859D01*
X0364290Y0038866D02*
X0405980Y0038866D01*
X0413620Y0038866D02*
X0416000Y0038866D01*
X0416000Y0037268D02*
X0413781Y0037268D01*
X0421600Y0043662D02*
X0534606Y0043662D01*
X0536204Y0045260D02*
X0421600Y0045260D01*
X0421600Y0046859D02*
X0537803Y0046859D01*
X0539402Y0048457D02*
X0421600Y0048457D01*
X0421600Y0050056D02*
X0541000Y0050056D01*
X0542599Y0051654D02*
X0421600Y0051654D01*
X0421600Y0053253D02*
X0544197Y0053253D01*
X0545796Y0054851D02*
X0421600Y0054851D01*
X0421600Y0056450D02*
X0547394Y0056450D01*
X0548993Y0058048D02*
X0421600Y0058048D01*
X0421600Y0059647D02*
X0550591Y0059647D01*
X0552190Y0061245D02*
X0421600Y0061245D01*
X0421231Y0062844D02*
X0553788Y0062844D01*
X0555387Y0064442D02*
X0504637Y0064442D01*
X0504781Y0066041D02*
X0556985Y0066041D01*
X0558584Y0067639D02*
X0544107Y0067639D01*
X0543864Y0067396D02*
X0548550Y0072082D01*
X0548550Y0078710D01*
X0543864Y0083396D01*
X0537236Y0083396D01*
X0532550Y0078710D01*
X0532550Y0072082D01*
X0537236Y0067396D01*
X0543864Y0067396D01*
X0545706Y0069238D02*
X0560182Y0069238D01*
X0561781Y0070837D02*
X0547304Y0070837D01*
X0548550Y0072435D02*
X0563379Y0072435D01*
X0564978Y0074034D02*
X0548550Y0074034D01*
X0548550Y0075632D02*
X0566576Y0075632D01*
X0568175Y0077231D02*
X0548550Y0077231D01*
X0548431Y0078829D02*
X0569773Y0078829D01*
X0571372Y0080428D02*
X0546832Y0080428D01*
X0545234Y0082026D02*
X0572970Y0082026D01*
X0573300Y0083625D02*
X0472100Y0083625D01*
X0472100Y0085223D02*
X0573013Y0085223D01*
X0571415Y0086822D02*
X0472100Y0086822D01*
X0472100Y0088420D02*
X0569816Y0088420D01*
X0568218Y0090019D02*
X0472100Y0090019D01*
X0472100Y0091617D02*
X0566619Y0091617D01*
X0565021Y0093216D02*
X0472100Y0093216D01*
X0472100Y0094814D02*
X0477881Y0094814D01*
X0480719Y0094814D02*
X0487881Y0094814D01*
X0490719Y0094814D02*
X0497881Y0094814D01*
X0500719Y0094814D02*
X0507881Y0094814D01*
X0510719Y0094814D02*
X0563422Y0094814D01*
X0561824Y0096413D02*
X0513378Y0096413D01*
X0514482Y0098011D02*
X0560225Y0098011D01*
X0558627Y0099610D02*
X0515000Y0099610D01*
X0515000Y0101208D02*
X0557028Y0101208D01*
X0555430Y0102807D02*
X0514471Y0102807D01*
X0513352Y0104405D02*
X0553831Y0104405D01*
X0552232Y0106004D02*
X0510657Y0106004D01*
X0507943Y0106004D02*
X0500657Y0106004D01*
X0497943Y0106004D02*
X0490657Y0106004D01*
X0487943Y0106004D02*
X0480657Y0106004D01*
X0477943Y0106004D02*
X0470657Y0106004D01*
X0468054Y0107602D02*
X0550634Y0107602D01*
X0549035Y0109201D02*
X0466455Y0109201D01*
X0464857Y0110799D02*
X0547437Y0110799D01*
X0545838Y0112398D02*
X0463258Y0112398D01*
X0461660Y0113996D02*
X0544240Y0113996D01*
X0542641Y0115595D02*
X0460061Y0115595D01*
X0458462Y0117193D02*
X0541043Y0117193D01*
X0539444Y0118792D02*
X0456864Y0118792D01*
X0455265Y0120390D02*
X0537846Y0120390D01*
X0536247Y0121989D02*
X0453667Y0121989D01*
X0452068Y0123587D02*
X0534649Y0123587D01*
X0533050Y0125186D02*
X0450470Y0125186D01*
X0448871Y0126784D02*
X0531452Y0126784D01*
X0529853Y0128383D02*
X0447273Y0128383D01*
X0445674Y0129981D02*
X0528255Y0129981D01*
X0526656Y0131580D02*
X0342274Y0131580D01*
X0334325Y0131580D02*
X0313576Y0131580D01*
X0311977Y0133178D02*
X0334319Y0133178D01*
X0334319Y0134777D02*
X0310379Y0134777D01*
X0308780Y0136375D02*
X0334319Y0136375D01*
X0335087Y0137974D02*
X0307182Y0137974D01*
X0306781Y0139573D02*
X0466333Y0139573D01*
X0466490Y0139415D02*
X0472110Y0139415D01*
X0473281Y0140587D01*
X0473281Y0146206D01*
X0472110Y0147377D01*
X0472100Y0147377D01*
X0472100Y0212953D01*
X0471674Y0213982D01*
X0470886Y0214770D01*
X0449600Y0236056D01*
X0449600Y0295236D01*
X0458460Y0304096D01*
X0504357Y0304096D01*
X0505386Y0304522D01*
X0508886Y0308022D01*
X0509674Y0308810D01*
X0510100Y0309839D01*
X0510100Y0310415D01*
X0510110Y0310415D01*
X0511281Y0311587D01*
X0511281Y0317206D01*
X0510110Y0318377D01*
X0504490Y0318377D01*
X0503319Y0317206D01*
X0503319Y0311587D01*
X0503925Y0310981D01*
X0502640Y0309696D01*
X0456743Y0309696D01*
X0455714Y0309270D01*
X0454926Y0308482D01*
X0446800Y0300356D01*
X0446100Y0301056D01*
X0446100Y0303453D01*
X0445674Y0304482D01*
X0426281Y0323875D01*
X0426281Y0326706D01*
X0425110Y0327877D01*
X0419490Y0327877D01*
X0418319Y0326706D01*
X0418319Y0321087D01*
X0419490Y0319915D01*
X0422321Y0319915D01*
X0440500Y0301736D01*
X0440500Y0299339D01*
X0440926Y0298310D01*
X0441714Y0297522D01*
X0444000Y0295236D01*
X0444000Y0293757D01*
X0442529Y0295228D01*
X0440434Y0296096D01*
X0438166Y0296096D01*
X0436071Y0295228D01*
X0434468Y0293625D01*
X0434300Y0293220D01*
X0434132Y0293625D01*
X0432529Y0295228D01*
X0430434Y0296096D01*
X0428166Y0296096D01*
X0426071Y0295228D01*
X0424468Y0293625D01*
X0424300Y0293220D01*
X0424132Y0293625D01*
X0422529Y0295228D01*
X0420434Y0296096D01*
X0418166Y0296096D01*
X0416071Y0295228D01*
X0414468Y0293625D01*
X0414300Y0293220D01*
X0414132Y0293625D01*
X0412529Y0295228D01*
X0410434Y0296096D01*
X0408166Y0296096D01*
X0406071Y0295228D01*
X0404468Y0293625D01*
X0404300Y0293220D01*
X0404132Y0293625D01*
X0402529Y0295228D01*
X0400434Y0296096D01*
X0398166Y0296096D01*
X0396071Y0295228D01*
X0394468Y0293625D01*
X0394300Y0293220D01*
X0394132Y0293625D01*
X0392529Y0295228D01*
X0390434Y0296096D01*
X0388166Y0296096D01*
X0386071Y0295228D01*
X0384468Y0293625D01*
X0384300Y0293220D01*
X0384132Y0293625D01*
X0382529Y0295228D01*
X0380434Y0296096D01*
X0378166Y0296096D01*
X0376071Y0295228D01*
X0374468Y0293625D01*
X0374300Y0293220D01*
X0374132Y0293625D01*
X0372529Y0295228D01*
X0370434Y0296096D01*
X0368166Y0296096D01*
X0366071Y0295228D01*
X0364468Y0293625D01*
X0363600Y0291530D01*
X0363600Y0289262D01*
X0364468Y0287167D01*
X0366071Y0285564D01*
X0368166Y0284696D01*
X0370434Y0284696D01*
X0372529Y0285564D01*
X0374132Y0287167D01*
X0374300Y0287572D01*
X0374468Y0287167D01*
X0376071Y0285564D01*
X0378166Y0284696D01*
X0380434Y0284696D01*
X0382529Y0285564D01*
X0384132Y0287167D01*
X0384300Y0287572D01*
X0384468Y0287167D01*
X0386071Y0285564D01*
X0388166Y0284696D01*
X0390434Y0284696D01*
X0392529Y0285564D01*
X0394132Y0287167D01*
X0394300Y0287572D01*
X0394468Y0287167D01*
X0396071Y0285564D01*
X0398166Y0284696D01*
X0400434Y0284696D01*
X0402529Y0285564D01*
X0404132Y0287167D01*
X0404300Y0287572D01*
X0404468Y0287167D01*
X0406071Y0285564D01*
X0408166Y0284696D01*
X0410434Y0284696D01*
X0412529Y0285564D01*
X0414132Y0287167D01*
X0414300Y0287572D01*
X0414468Y0287167D01*
X0416071Y0285564D01*
X0418166Y0284696D01*
X0420434Y0284696D01*
X0422529Y0285564D01*
X0424132Y0287167D01*
X0424300Y0287572D01*
X0424468Y0287167D01*
X0426071Y0285564D01*
X0428166Y0284696D01*
X0430434Y0284696D01*
X0432529Y0285564D01*
X0434132Y0287167D01*
X0434300Y0287572D01*
X0434468Y0287167D01*
X0436071Y0285564D01*
X0438166Y0284696D01*
X0440434Y0284696D01*
X0442529Y0285564D01*
X0444000Y0287035D01*
X0444000Y0234339D01*
X0444426Y0233310D01*
X0466500Y0211236D01*
X0466500Y0147377D01*
X0466490Y0147377D01*
X0465319Y0146206D01*
X0465319Y0140587D01*
X0466490Y0139415D01*
X0465319Y0141171D02*
X0306781Y0141171D01*
X0302800Y0138396D02*
X0313300Y0127896D01*
X0443800Y0127896D01*
X0469300Y0102396D01*
X0469300Y0100396D01*
X0469300Y0078396D01*
X0467300Y0076396D01*
X0418800Y0076396D01*
X0408300Y0086896D01*
X0412334Y0086822D02*
X0420915Y0086822D01*
X0419316Y0088420D02*
X0412281Y0088420D01*
X0411968Y0090019D02*
X0417718Y0090019D01*
X0416592Y0091617D02*
X0337481Y0091617D01*
X0338549Y0093216D02*
X0416500Y0093216D01*
X0416500Y0094814D02*
X0410719Y0094814D01*
X0407881Y0094814D02*
X0400719Y0094814D01*
X0397881Y0094814D02*
X0390719Y0094814D01*
X0387881Y0094814D02*
X0380719Y0094814D01*
X0377881Y0094814D02*
X0370719Y0094814D01*
X0367881Y0094814D02*
X0360719Y0094814D01*
X0357881Y0094814D02*
X0350719Y0094814D01*
X0347881Y0094814D02*
X0338600Y0094814D01*
X0338600Y0096413D02*
X0345222Y0096413D01*
X0344118Y0098011D02*
X0338600Y0098011D01*
X0338600Y0099610D02*
X0343600Y0099610D01*
X0343600Y0101208D02*
X0338600Y0101208D01*
X0338600Y0102807D02*
X0344129Y0102807D01*
X0345248Y0104405D02*
X0338600Y0104405D01*
X0338600Y0106004D02*
X0347943Y0106004D01*
X0350657Y0106004D02*
X0357943Y0106004D01*
X0360657Y0106004D02*
X0367943Y0106004D01*
X0370657Y0106004D02*
X0377943Y0106004D01*
X0380657Y0106004D02*
X0384259Y0106004D01*
X0383352Y0104405D02*
X0385248Y0104405D01*
X0385800Y0108396D02*
X0376300Y0117896D01*
X0372319Y0117193D02*
X0339781Y0117193D01*
X0339781Y0118792D02*
X0372319Y0118792D01*
X0372319Y0120390D02*
X0339781Y0120390D01*
X0339781Y0121989D02*
X0445747Y0121989D01*
X0444149Y0123587D02*
X0268951Y0123587D01*
X0269779Y0124415D02*
X0273110Y0124415D01*
X0274281Y0125587D01*
X0274281Y0131206D01*
X0273110Y0132377D01*
X0267490Y0132377D01*
X0266319Y0131206D01*
X0266319Y0128875D01*
X0250140Y0112696D01*
X0236960Y0112696D01*
X0214174Y0135482D01*
X0213386Y0136270D01*
X0212357Y0136696D01*
X0206022Y0136696D01*
X0203633Y0139085D01*
X0206213Y0141665D01*
X0206213Y0143743D01*
X0200913Y0143743D01*
X0200913Y0144143D01*
X0200513Y0144143D01*
X0200513Y0143743D01*
X0195213Y0143743D01*
X0195213Y0141665D01*
X0197794Y0139085D01*
X0195013Y0136304D01*
X0195013Y0131582D01*
X0197652Y0128943D01*
X0195013Y0126304D01*
X0195013Y0121582D01*
X0197652Y0118943D01*
X0195013Y0116304D01*
X0195013Y0111582D01*
X0197652Y0108943D01*
X0195013Y0106304D01*
X0195013Y0101582D01*
X0197652Y0098943D01*
X0195013Y0096304D01*
X0195013Y0091582D01*
X0197652Y0088943D01*
X0195013Y0086304D01*
X0195013Y0081582D01*
X0197794Y0078802D01*
X0195213Y0076221D01*
X0195213Y0074143D01*
X0200513Y0074143D01*
X0200513Y0073743D01*
X0195213Y0073743D01*
X0195213Y0071665D01*
X0198435Y0068443D01*
X0200513Y0068443D01*
X0200513Y0073743D01*
X0200913Y0073743D01*
X0200913Y0068443D01*
X0202992Y0068443D01*
X0206213Y0071665D01*
X0206213Y0073743D01*
X0200913Y0073743D01*
X0200913Y0074143D01*
X0206213Y0074143D01*
X0206213Y0076221D01*
X0203633Y0078802D01*
X0206413Y0081582D01*
X0206413Y0086304D01*
X0203774Y0088943D01*
X0206413Y0091582D01*
X0206413Y0096304D01*
X0203774Y0098943D01*
X0206413Y0101582D01*
X0206413Y0106304D01*
X0203774Y0108943D01*
X0206413Y0111582D01*
X0206413Y0116304D01*
X0203774Y0118943D01*
X0206413Y0121582D01*
X0206413Y0126304D01*
X0203774Y0128943D01*
X0205927Y0131096D01*
X0210640Y0131096D01*
X0234214Y0107522D01*
X0235243Y0107096D01*
X0251857Y0107096D01*
X0252886Y0107522D01*
X0253674Y0108310D01*
X0269779Y0124415D01*
X0267353Y0121989D02*
X0331819Y0121989D01*
X0331819Y0120390D02*
X0265754Y0120390D01*
X0264156Y0118792D02*
X0331819Y0118792D01*
X0331819Y0117193D02*
X0262557Y0117193D01*
X0260959Y0115595D02*
X0332811Y0115595D01*
X0333000Y0113996D02*
X0259360Y0113996D01*
X0257762Y0112398D02*
X0333000Y0112398D01*
X0333000Y0110799D02*
X0256163Y0110799D01*
X0254565Y0109201D02*
X0333000Y0109201D01*
X0333000Y0107602D02*
X0252966Y0107602D01*
X0251300Y0109896D02*
X0235800Y0109896D01*
X0211800Y0133896D01*
X0200761Y0133896D01*
X0200713Y0133943D01*
X0196683Y0137974D02*
X0008800Y0137974D01*
X0008800Y0139573D02*
X0197306Y0139573D01*
X0195708Y0141171D02*
X0008800Y0141171D01*
X0008800Y0142770D02*
X0195213Y0142770D01*
X0195213Y0144143D02*
X0200513Y0144143D01*
X0200513Y0149443D01*
X0198435Y0149443D01*
X0195213Y0146221D01*
X0195213Y0144143D01*
X0195213Y0144368D02*
X0008800Y0144368D01*
X0008800Y0145967D02*
X0195213Y0145967D01*
X0196557Y0147565D02*
X0008800Y0147565D01*
X0008800Y0149164D02*
X0198155Y0149164D01*
X0200513Y0149164D02*
X0200913Y0149164D01*
X0200913Y0149443D02*
X0202992Y0149443D01*
X0206213Y0146221D01*
X0206213Y0144143D01*
X0200913Y0144143D01*
X0200913Y0149443D01*
X0200913Y0147565D02*
X0200513Y0147565D01*
X0200513Y0145967D02*
X0200913Y0145967D01*
X0200913Y0144368D02*
X0200513Y0144368D01*
X0204870Y0147565D02*
X0234070Y0147565D01*
X0233600Y0148035D02*
X0236239Y0145396D01*
X0233600Y0142757D01*
X0233600Y0138035D01*
X0236239Y0135396D01*
X0233600Y0132757D01*
X0233600Y0128035D01*
X0236308Y0125327D01*
X0236071Y0125228D01*
X0234468Y0123625D01*
X0233600Y0121530D01*
X0233600Y0119262D01*
X0234468Y0117167D01*
X0236071Y0115564D01*
X0238166Y0114696D01*
X0240434Y0114696D01*
X0242529Y0115564D01*
X0244132Y0117167D01*
X0244300Y0117572D01*
X0244468Y0117167D01*
X0246071Y0115564D01*
X0248166Y0114696D01*
X0250434Y0114696D01*
X0252529Y0115564D01*
X0254132Y0117167D01*
X0255000Y0119262D01*
X0255000Y0121530D01*
X0254132Y0123625D01*
X0252529Y0125228D01*
X0252291Y0125327D01*
X0255000Y0128035D01*
X0255000Y0132757D01*
X0252361Y0135396D01*
X0255000Y0138035D01*
X0255000Y0142757D01*
X0252361Y0145396D01*
X0255000Y0148035D01*
X0255000Y0152757D01*
X0252361Y0155396D01*
X0255000Y0158035D01*
X0255000Y0162757D01*
X0252361Y0165396D01*
X0255000Y0168035D01*
X0255000Y0172757D01*
X0252361Y0175396D01*
X0255000Y0178035D01*
X0255000Y0182757D01*
X0252361Y0185396D01*
X0255000Y0188035D01*
X0255000Y0192757D01*
X0252361Y0195396D01*
X0255000Y0198035D01*
X0255000Y0202757D01*
X0252361Y0205396D01*
X0255000Y0208035D01*
X0255000Y0212757D01*
X0252361Y0215396D01*
X0255000Y0218035D01*
X0255000Y0222757D01*
X0252361Y0225396D01*
X0255000Y0228035D01*
X0255000Y0232757D01*
X0252361Y0235396D01*
X0255000Y0238035D01*
X0255000Y0242757D01*
X0252361Y0245396D01*
X0255000Y0248035D01*
X0255000Y0252757D01*
X0252361Y0255396D01*
X0255000Y0258035D01*
X0255000Y0262757D01*
X0252361Y0265396D01*
X0255000Y0268035D01*
X0255000Y0272757D01*
X0252361Y0275396D01*
X0255000Y0278035D01*
X0255000Y0282757D01*
X0252291Y0285466D01*
X0252529Y0285564D01*
X0254132Y0287167D01*
X0255000Y0289262D01*
X0255000Y0291530D01*
X0254132Y0293625D01*
X0252529Y0295228D01*
X0250434Y0296096D01*
X0248166Y0296096D01*
X0246071Y0295228D01*
X0244468Y0293625D01*
X0244300Y0293220D01*
X0244132Y0293625D01*
X0242529Y0295228D01*
X0240434Y0296096D01*
X0238166Y0296096D01*
X0236071Y0295228D01*
X0234468Y0293625D01*
X0233600Y0291530D01*
X0233600Y0289262D01*
X0234468Y0287167D01*
X0236071Y0285564D01*
X0236308Y0285466D01*
X0233600Y0282757D01*
X0233600Y0278035D01*
X0236239Y0275396D01*
X0233600Y0272757D01*
X0233600Y0268035D01*
X0236239Y0265396D01*
X0233600Y0262757D01*
X0233600Y0258035D01*
X0236239Y0255396D01*
X0233600Y0252757D01*
X0233600Y0248035D01*
X0236239Y0245396D01*
X0233600Y0242757D01*
X0233600Y0238035D01*
X0236239Y0235396D01*
X0233600Y0232757D01*
X0233600Y0228035D01*
X0236239Y0225396D01*
X0233600Y0222757D01*
X0233600Y0218035D01*
X0236239Y0215396D01*
X0233600Y0212757D01*
X0233600Y0208035D01*
X0236239Y0205396D01*
X0233600Y0202757D01*
X0233600Y0198035D01*
X0236239Y0195396D01*
X0233600Y0192757D01*
X0233600Y0188035D01*
X0236239Y0185396D01*
X0233600Y0182757D01*
X0233600Y0178035D01*
X0236239Y0175396D01*
X0233600Y0172757D01*
X0233600Y0168035D01*
X0236239Y0165396D01*
X0233600Y0162757D01*
X0233600Y0158035D01*
X0236239Y0155396D01*
X0233600Y0152757D01*
X0233600Y0148035D01*
X0233600Y0149164D02*
X0203271Y0149164D01*
X0206213Y0145967D02*
X0235668Y0145967D01*
X0235211Y0144368D02*
X0206213Y0144368D01*
X0206213Y0142770D02*
X0233612Y0142770D01*
X0233600Y0141171D02*
X0205719Y0141171D01*
X0204121Y0139573D02*
X0233600Y0139573D01*
X0233661Y0137974D02*
X0204744Y0137974D01*
X0213131Y0136375D02*
X0235260Y0136375D01*
X0235620Y0134777D02*
X0214879Y0134777D01*
X0216477Y0133178D02*
X0234021Y0133178D01*
X0233600Y0131580D02*
X0218076Y0131580D01*
X0219674Y0129981D02*
X0233600Y0129981D01*
X0233600Y0128383D02*
X0221273Y0128383D01*
X0222871Y0126784D02*
X0234851Y0126784D01*
X0236029Y0125186D02*
X0224470Y0125186D01*
X0226068Y0123587D02*
X0234452Y0123587D01*
X0233790Y0121989D02*
X0227667Y0121989D01*
X0229265Y0120390D02*
X0233600Y0120390D01*
X0233795Y0118792D02*
X0230864Y0118792D01*
X0232462Y0117193D02*
X0234457Y0117193D01*
X0234061Y0115595D02*
X0236040Y0115595D01*
X0235660Y0113996D02*
X0251440Y0113996D01*
X0252560Y0115595D02*
X0253039Y0115595D01*
X0254143Y0117193D02*
X0254637Y0117193D01*
X0254805Y0118792D02*
X0256236Y0118792D01*
X0255000Y0120390D02*
X0257835Y0120390D01*
X0259433Y0121989D02*
X0254810Y0121989D01*
X0254148Y0123587D02*
X0261032Y0123587D01*
X0262630Y0125186D02*
X0252571Y0125186D01*
X0253749Y0126784D02*
X0264229Y0126784D01*
X0265827Y0128383D02*
X0255000Y0128383D01*
X0255000Y0129981D02*
X0266319Y0129981D01*
X0266693Y0131580D02*
X0255000Y0131580D01*
X0254579Y0133178D02*
X0304058Y0133178D01*
X0305656Y0131580D02*
X0273907Y0131580D01*
X0274281Y0129981D02*
X0307255Y0129981D01*
X0308853Y0128383D02*
X0274281Y0128383D01*
X0274281Y0126784D02*
X0310452Y0126784D01*
X0312526Y0125186D02*
X0273880Y0125186D01*
X0270300Y0128396D02*
X0269800Y0128396D01*
X0251300Y0109896D01*
X0255248Y0104405D02*
X0231751Y0104405D01*
X0230152Y0106004D02*
X0257943Y0106004D01*
X0260657Y0106004D02*
X0267943Y0106004D01*
X0270657Y0106004D02*
X0277943Y0106004D01*
X0280657Y0106004D02*
X0287943Y0106004D01*
X0290657Y0106004D02*
X0297943Y0106004D01*
X0300657Y0106004D02*
X0307943Y0106004D01*
X0310657Y0106004D02*
X0317943Y0106004D01*
X0320657Y0106004D02*
X0327943Y0106004D01*
X0330657Y0106004D02*
X0333000Y0106004D01*
X0338600Y0107602D02*
X0382634Y0107602D01*
X0381035Y0109201D02*
X0338600Y0109201D01*
X0338600Y0110799D02*
X0379437Y0110799D01*
X0377838Y0112398D02*
X0338600Y0112398D01*
X0338600Y0113996D02*
X0373409Y0113996D01*
X0372319Y0115595D02*
X0338789Y0115595D01*
X0335800Y0119396D02*
X0335800Y0093896D01*
X0333300Y0091396D01*
X0319300Y0091396D01*
X0317160Y0093216D02*
X0269579Y0093216D01*
X0267981Y0091617D02*
X0315561Y0091617D01*
X0313963Y0090019D02*
X0266382Y0090019D01*
X0264300Y0091896D02*
X0227800Y0091896D01*
X0216300Y0103396D01*
X0212319Y0102807D02*
X0206413Y0102807D01*
X0206413Y0104405D02*
X0212319Y0104405D01*
X0212319Y0106004D02*
X0206413Y0106004D01*
X0205115Y0107602D02*
X0221319Y0107602D01*
X0221319Y0106004D02*
X0220281Y0106004D01*
X0220281Y0104405D02*
X0221319Y0104405D01*
X0220849Y0102807D02*
X0225430Y0102807D01*
X0227028Y0101208D02*
X0222448Y0101208D01*
X0224046Y0099610D02*
X0228627Y0099610D01*
X0230241Y0098011D02*
X0225645Y0098011D01*
X0227243Y0096413D02*
X0255222Y0096413D01*
X0257881Y0094814D02*
X0228842Y0094814D01*
X0224119Y0091617D02*
X0206413Y0091617D01*
X0206413Y0093216D02*
X0222521Y0093216D01*
X0220922Y0094814D02*
X0206413Y0094814D01*
X0206305Y0096413D02*
X0219324Y0096413D01*
X0217725Y0098011D02*
X0204706Y0098011D01*
X0204441Y0099610D02*
X0213296Y0099610D01*
X0212319Y0101208D02*
X0206039Y0101208D01*
X0196986Y0099610D02*
X0008800Y0099610D01*
X0008800Y0101208D02*
X0195387Y0101208D01*
X0195013Y0102807D02*
X0008800Y0102807D01*
X0008800Y0104405D02*
X0195013Y0104405D01*
X0195013Y0106004D02*
X0008800Y0106004D01*
X0008800Y0107602D02*
X0196311Y0107602D01*
X0197395Y0109201D02*
X0008800Y0109201D01*
X0008800Y0110799D02*
X0195796Y0110799D01*
X0195013Y0112398D02*
X0008800Y0112398D01*
X0008800Y0113996D02*
X0195013Y0113996D01*
X0195013Y0115595D02*
X0008800Y0115595D01*
X0008800Y0117193D02*
X0195902Y0117193D01*
X0197501Y0118792D02*
X0008800Y0118792D01*
X0008800Y0120390D02*
X0196205Y0120390D01*
X0195013Y0121989D02*
X0008800Y0121989D01*
X0008800Y0123587D02*
X0195013Y0123587D01*
X0195013Y0125186D02*
X0008800Y0125186D01*
X0008800Y0126784D02*
X0195493Y0126784D01*
X0197092Y0128383D02*
X0008800Y0128383D01*
X0008800Y0129981D02*
X0196614Y0129981D01*
X0195016Y0131580D02*
X0008800Y0131580D01*
X0008800Y0133178D02*
X0195013Y0133178D01*
X0195013Y0134777D02*
X0008800Y0134777D01*
X0008800Y0136375D02*
X0195085Y0136375D01*
X0204813Y0129981D02*
X0211755Y0129981D01*
X0213353Y0128383D02*
X0204335Y0128383D01*
X0205933Y0126784D02*
X0214952Y0126784D01*
X0216550Y0125186D02*
X0206413Y0125186D01*
X0206413Y0123587D02*
X0218149Y0123587D01*
X0219747Y0121989D02*
X0206413Y0121989D01*
X0205221Y0120390D02*
X0221346Y0120390D01*
X0222944Y0118792D02*
X0203926Y0118792D01*
X0205524Y0117193D02*
X0224543Y0117193D01*
X0226141Y0115595D02*
X0206413Y0115595D01*
X0206413Y0113996D02*
X0227740Y0113996D01*
X0229338Y0112398D02*
X0206413Y0112398D01*
X0205630Y0110799D02*
X0222413Y0110799D01*
X0221319Y0109201D02*
X0204032Y0109201D01*
X0196720Y0098011D02*
X0008800Y0098011D01*
X0008800Y0096413D02*
X0195122Y0096413D01*
X0195013Y0094814D02*
X0008800Y0094814D01*
X0008800Y0093216D02*
X0195013Y0093216D01*
X0195013Y0091617D02*
X0008800Y0091617D01*
X0008800Y0090019D02*
X0196577Y0090019D01*
X0197129Y0088420D02*
X0008800Y0088420D01*
X0008800Y0086822D02*
X0195531Y0086822D01*
X0195013Y0085223D02*
X0008800Y0085223D01*
X0008800Y0083625D02*
X0195013Y0083625D01*
X0195013Y0082026D02*
X0008800Y0082026D01*
X0008800Y0080428D02*
X0196168Y0080428D01*
X0197767Y0078829D02*
X0008800Y0078829D01*
X0008800Y0077231D02*
X0196222Y0077231D01*
X0195213Y0075632D02*
X0008800Y0075632D01*
X0008800Y0074034D02*
X0200513Y0074034D01*
X0200913Y0074034D02*
X0224800Y0074034D01*
X0224800Y0075632D02*
X0206213Y0075632D01*
X0205204Y0077231D02*
X0225821Y0077231D01*
X0224800Y0076210D02*
X0224800Y0069582D01*
X0229486Y0064896D01*
X0236114Y0064896D01*
X0240800Y0069582D01*
X0240800Y0076210D01*
X0236114Y0080896D01*
X0229486Y0080896D01*
X0224800Y0076210D01*
X0227419Y0078829D02*
X0203660Y0078829D01*
X0205259Y0080428D02*
X0229018Y0080428D01*
X0236582Y0080428D02*
X0246518Y0080428D01*
X0246986Y0080896D02*
X0242300Y0076210D01*
X0242300Y0069582D01*
X0246986Y0064896D01*
X0253614Y0064896D01*
X0258300Y0069582D01*
X0258300Y0076210D01*
X0253614Y0080896D01*
X0246986Y0080896D01*
X0244919Y0078829D02*
X0238181Y0078829D01*
X0239779Y0077231D02*
X0243321Y0077231D01*
X0242300Y0075632D02*
X0240800Y0075632D01*
X0240800Y0074034D02*
X0242300Y0074034D01*
X0242300Y0072435D02*
X0240800Y0072435D01*
X0240800Y0070837D02*
X0242300Y0070837D01*
X0242644Y0069238D02*
X0240456Y0069238D01*
X0238857Y0067639D02*
X0244243Y0067639D01*
X0245841Y0066041D02*
X0237259Y0066041D01*
X0248139Y0058048D02*
X0222781Y0058048D01*
X0222781Y0056450D02*
X0246540Y0056450D01*
X0257461Y0058048D02*
X0281993Y0058048D01*
X0283591Y0059647D02*
X0206306Y0059647D01*
X0206650Y0060479D02*
X0205687Y0058153D01*
X0203906Y0056372D01*
X0201579Y0055408D01*
X0199060Y0055408D01*
X0196734Y0056372D01*
X0194953Y0058153D01*
X0193989Y0060479D01*
X0193989Y0062998D01*
X0194953Y0065325D01*
X0196734Y0067105D01*
X0199060Y0068069D01*
X0201579Y0068069D01*
X0203906Y0067105D01*
X0205687Y0065325D01*
X0206650Y0062998D01*
X0206650Y0060479D01*
X0206650Y0061245D02*
X0285190Y0061245D01*
X0286788Y0062844D02*
X0206650Y0062844D01*
X0206052Y0064442D02*
X0288387Y0064442D01*
X0289985Y0066041D02*
X0254759Y0066041D01*
X0256357Y0067639D02*
X0291584Y0067639D01*
X0293182Y0069238D02*
X0257956Y0069238D01*
X0258300Y0070837D02*
X0294781Y0070837D01*
X0296379Y0072435D02*
X0258300Y0072435D01*
X0258300Y0074034D02*
X0297978Y0074034D01*
X0299576Y0075632D02*
X0258300Y0075632D01*
X0257279Y0077231D02*
X0301175Y0077231D01*
X0302773Y0078829D02*
X0255681Y0078829D01*
X0254082Y0080428D02*
X0304372Y0080428D01*
X0305970Y0082026D02*
X0206413Y0082026D01*
X0206413Y0083625D02*
X0307569Y0083625D01*
X0309167Y0085223D02*
X0206413Y0085223D01*
X0205896Y0086822D02*
X0310766Y0086822D01*
X0312364Y0088420D02*
X0204298Y0088420D01*
X0204850Y0090019D02*
X0225718Y0090019D01*
X0231800Y0100396D02*
X0225300Y0106896D01*
X0229281Y0107602D02*
X0234134Y0107602D01*
X0232535Y0109201D02*
X0229281Y0109201D01*
X0228187Y0110799D02*
X0230937Y0110799D01*
X0231800Y0100396D02*
X0259300Y0100396D01*
X0263352Y0104405D02*
X0265248Y0104405D01*
X0269300Y0100396D02*
X0269300Y0096896D01*
X0264300Y0091896D01*
X0263258Y0094814D02*
X0260719Y0094814D01*
X0263378Y0096413D02*
X0264857Y0096413D01*
X0271178Y0094814D02*
X0277881Y0094814D01*
X0280719Y0094814D02*
X0287881Y0094814D01*
X0290719Y0094814D02*
X0297881Y0094814D01*
X0300719Y0094814D02*
X0307881Y0094814D01*
X0310719Y0094814D02*
X0317881Y0094814D01*
X0320719Y0094814D02*
X0327881Y0094814D01*
X0330719Y0094814D02*
X0332758Y0094814D01*
X0335882Y0090019D02*
X0404632Y0090019D01*
X0404319Y0085223D02*
X0351537Y0085223D01*
X0353135Y0083625D02*
X0404781Y0083625D01*
X0409210Y0082026D02*
X0354734Y0082026D01*
X0355550Y0080428D02*
X0410809Y0080428D01*
X0412407Y0078829D02*
X0355550Y0078829D01*
X0355550Y0077231D02*
X0414006Y0077231D01*
X0415604Y0075632D02*
X0355550Y0075632D01*
X0352650Y0069238D02*
X0301102Y0069238D01*
X0302700Y0070837D02*
X0343296Y0070837D01*
X0322859Y0061245D02*
X0293109Y0061245D01*
X0291511Y0059647D02*
X0321819Y0059647D01*
X0321819Y0058048D02*
X0289912Y0058048D01*
X0288314Y0056450D02*
X0321819Y0056450D01*
X0321819Y0054851D02*
X0286715Y0054851D01*
X0280394Y0056450D02*
X0259060Y0056450D01*
X0250300Y0072896D02*
X0249800Y0073396D01*
X0228341Y0066041D02*
X0204970Y0066041D01*
X0202617Y0067639D02*
X0226743Y0067639D01*
X0225144Y0069238D02*
X0203786Y0069238D01*
X0205385Y0070837D02*
X0224800Y0070837D01*
X0224800Y0072435D02*
X0206213Y0072435D01*
X0200913Y0072435D02*
X0200513Y0072435D01*
X0200513Y0070837D02*
X0200913Y0070837D01*
X0200913Y0069238D02*
X0200513Y0069238D01*
X0197641Y0069238D02*
X0008800Y0069238D01*
X0008800Y0067639D02*
X0198023Y0067639D01*
X0195669Y0066041D02*
X0008800Y0066041D01*
X0008800Y0064442D02*
X0194587Y0064442D01*
X0193989Y0062844D02*
X0008800Y0062844D01*
X0008800Y0061245D02*
X0193989Y0061245D01*
X0194334Y0059647D02*
X0008800Y0059647D01*
X0008800Y0058048D02*
X0195057Y0058048D01*
X0196655Y0056450D02*
X0008800Y0056450D01*
X0008800Y0054851D02*
X0214819Y0054851D01*
X0214819Y0053253D02*
X0008800Y0053253D01*
X0008800Y0051654D02*
X0215751Y0051654D01*
X0216000Y0050056D02*
X0008800Y0050056D01*
X0008800Y0048457D02*
X0216000Y0048457D01*
X0216000Y0046859D02*
X0008800Y0046859D01*
X0008800Y0045260D02*
X0216000Y0045260D01*
X0216000Y0043662D02*
X0008800Y0043662D01*
X0008800Y0070837D02*
X0196042Y0070837D01*
X0195213Y0072435D02*
X0008800Y0072435D01*
X0008800Y0010093D02*
X0644800Y0010093D01*
X0644800Y0014889D02*
X0513752Y0014889D01*
X0512674Y0013810D02*
X0512674Y0013810D01*
X0515351Y0016487D02*
X0644800Y0016487D01*
X0644800Y0018086D02*
X0516949Y0018086D01*
X0518548Y0019684D02*
X0644800Y0019684D01*
X0644800Y0021283D02*
X0520146Y0021283D01*
X0521745Y0022881D02*
X0644800Y0022881D01*
X0644800Y0024480D02*
X0523343Y0024480D01*
X0524942Y0026078D02*
X0611574Y0026078D01*
X0612108Y0025857D02*
X0614901Y0025857D01*
X0617481Y0026925D01*
X0619456Y0028900D01*
X0620524Y0031480D01*
X0620524Y0044312D01*
X0619456Y0046892D01*
X0617481Y0048867D01*
X0614901Y0049935D01*
X0612108Y0049935D01*
X0609528Y0048867D01*
X0607554Y0046892D01*
X0606485Y0044312D01*
X0606485Y0031480D01*
X0607554Y0028900D01*
X0609528Y0026925D01*
X0612108Y0025857D01*
X0615436Y0026078D02*
X0644800Y0026078D01*
X0644800Y0027677D02*
X0633521Y0027677D01*
X0633601Y0027738D02*
X0634234Y0028370D01*
X0634778Y0029079D01*
X0635225Y0029854D01*
X0635567Y0030680D01*
X0635798Y0031543D01*
X0635915Y0032429D01*
X0635915Y0037096D01*
X0629895Y0037096D01*
X0629895Y0026103D01*
X0630429Y0026173D01*
X0631292Y0026405D01*
X0632118Y0026747D01*
X0632892Y0027194D01*
X0633601Y0027738D01*
X0634891Y0029275D02*
X0644800Y0029275D01*
X0644800Y0030874D02*
X0635619Y0030874D01*
X0635915Y0032472D02*
X0644800Y0032472D01*
X0644800Y0034071D02*
X0635915Y0034071D01*
X0635915Y0035669D02*
X0644800Y0035669D01*
X0644800Y0037268D02*
X0629895Y0037268D01*
X0629895Y0037096D02*
X0629895Y0038696D01*
X0628295Y0038696D01*
X0628295Y0037096D01*
X0622276Y0037096D01*
X0622276Y0032429D01*
X0622392Y0031543D01*
X0622624Y0030680D01*
X0622966Y0029854D01*
X0623413Y0029079D01*
X0623957Y0028370D01*
X0624589Y0027738D01*
X0625298Y0027194D01*
X0626073Y0026747D01*
X0626898Y0026405D01*
X0627762Y0026173D01*
X0628295Y0026103D01*
X0628295Y0037096D01*
X0629895Y0037096D01*
X0629895Y0035669D02*
X0628295Y0035669D01*
X0628295Y0034071D02*
X0629895Y0034071D01*
X0629895Y0032472D02*
X0628295Y0032472D01*
X0628295Y0030874D02*
X0629895Y0030874D01*
X0629895Y0029275D02*
X0628295Y0029275D01*
X0628295Y0027677D02*
X0629895Y0027677D01*
X0624669Y0027677D02*
X0618232Y0027677D01*
X0619611Y0029275D02*
X0623300Y0029275D01*
X0622572Y0030874D02*
X0620273Y0030874D01*
X0620524Y0032472D02*
X0622276Y0032472D01*
X0622276Y0034071D02*
X0620524Y0034071D01*
X0620524Y0035669D02*
X0622276Y0035669D01*
X0620524Y0037268D02*
X0628295Y0037268D01*
X0628295Y0038696D02*
X0622276Y0038696D01*
X0622276Y0043363D01*
X0622392Y0044249D01*
X0622624Y0045113D01*
X0622966Y0045938D01*
X0623413Y0046713D01*
X0623957Y0047422D01*
X0624589Y0048054D01*
X0625298Y0048598D01*
X0626073Y0049045D01*
X0626898Y0049387D01*
X0627762Y0049619D01*
X0628295Y0049689D01*
X0628295Y0038696D01*
X0628295Y0038866D02*
X0629895Y0038866D01*
X0629895Y0038696D02*
X0629895Y0049689D01*
X0630429Y0049619D01*
X0631292Y0049387D01*
X0632118Y0049045D01*
X0632892Y0048598D01*
X0633601Y0048054D01*
X0634234Y0047422D01*
X0634778Y0046713D01*
X0635225Y0045938D01*
X0635567Y0045113D01*
X0635798Y0044249D01*
X0635915Y0043363D01*
X0635915Y0038696D01*
X0629895Y0038696D01*
X0629895Y0040465D02*
X0628295Y0040465D01*
X0628295Y0042063D02*
X0629895Y0042063D01*
X0629895Y0043662D02*
X0628295Y0043662D01*
X0628295Y0045260D02*
X0629895Y0045260D01*
X0629895Y0046859D02*
X0628295Y0046859D01*
X0628295Y0048457D02*
X0629895Y0048457D01*
X0633076Y0048457D02*
X0644800Y0048457D01*
X0644800Y0046859D02*
X0634666Y0046859D01*
X0635506Y0045260D02*
X0644800Y0045260D01*
X0644800Y0043662D02*
X0635876Y0043662D01*
X0635915Y0042063D02*
X0644800Y0042063D01*
X0644800Y0040465D02*
X0635915Y0040465D01*
X0635915Y0038866D02*
X0644800Y0038866D01*
X0644800Y0050056D02*
X0548920Y0050056D01*
X0550518Y0051654D02*
X0644800Y0051654D01*
X0644800Y0053253D02*
X0552117Y0053253D01*
X0553715Y0054851D02*
X0644800Y0054851D01*
X0644800Y0056450D02*
X0555314Y0056450D01*
X0556912Y0058048D02*
X0576834Y0058048D01*
X0575235Y0059647D02*
X0558511Y0059647D01*
X0560109Y0061245D02*
X0573637Y0061245D01*
X0573050Y0062844D02*
X0561708Y0062844D01*
X0563306Y0064442D02*
X0573050Y0064442D01*
X0573050Y0066041D02*
X0564905Y0066041D01*
X0566503Y0067639D02*
X0573050Y0067639D01*
X0573828Y0069238D02*
X0568102Y0069238D01*
X0569700Y0070837D02*
X0575427Y0070837D01*
X0577025Y0072435D02*
X0571299Y0072435D01*
X0572897Y0074034D02*
X0576849Y0074034D01*
X0577736Y0073146D02*
X0577736Y0073146D01*
X0575250Y0075632D02*
X0574496Y0075632D01*
X0584614Y0072896D02*
X0584614Y0072896D01*
X0585075Y0072435D02*
X0624025Y0072435D01*
X0622427Y0070837D02*
X0586673Y0070837D01*
X0588272Y0069238D02*
X0621800Y0069238D01*
X0621800Y0070210D02*
X0621800Y0063582D01*
X0626486Y0058896D01*
X0633114Y0058896D01*
X0637800Y0063582D01*
X0637800Y0070210D01*
X0633114Y0074896D01*
X0626486Y0074896D01*
X0621800Y0070210D01*
X0621800Y0067639D02*
X0589050Y0067639D01*
X0589050Y0066041D02*
X0621800Y0066041D01*
X0621800Y0064442D02*
X0589050Y0064442D01*
X0589050Y0062844D02*
X0622538Y0062844D01*
X0624137Y0061245D02*
X0588463Y0061245D01*
X0586865Y0059647D02*
X0625735Y0059647D01*
X0633865Y0059647D02*
X0644800Y0059647D01*
X0644800Y0061245D02*
X0635463Y0061245D01*
X0637062Y0062844D02*
X0644800Y0062844D01*
X0644800Y0064442D02*
X0637800Y0064442D01*
X0637800Y0066041D02*
X0644800Y0066041D01*
X0644800Y0067639D02*
X0637800Y0067639D01*
X0637800Y0069238D02*
X0644800Y0069238D01*
X0644800Y0070837D02*
X0637173Y0070837D01*
X0635575Y0072435D02*
X0644800Y0072435D01*
X0644800Y0074034D02*
X0633976Y0074034D01*
X0625624Y0074034D02*
X0585751Y0074034D01*
X0587350Y0075632D02*
X0644800Y0075632D01*
X0644800Y0077231D02*
X0588948Y0077231D01*
X0589300Y0078829D02*
X0644800Y0078829D01*
X0644800Y0080428D02*
X0589300Y0080428D01*
X0589300Y0082026D02*
X0644800Y0082026D01*
X0644800Y0083625D02*
X0589300Y0083625D01*
X0588287Y0085223D02*
X0644800Y0085223D01*
X0644800Y0086822D02*
X0586688Y0086822D01*
X0585090Y0088420D02*
X0644800Y0088420D01*
X0644800Y0090019D02*
X0576137Y0090019D01*
X0574539Y0091617D02*
X0644800Y0091617D01*
X0644800Y0093216D02*
X0572940Y0093216D01*
X0571342Y0094814D02*
X0644800Y0094814D01*
X0644800Y0096413D02*
X0569743Y0096413D01*
X0568145Y0098011D02*
X0644800Y0098011D01*
X0644800Y0099610D02*
X0566546Y0099610D01*
X0564948Y0101208D02*
X0644800Y0101208D01*
X0644800Y0102807D02*
X0563349Y0102807D01*
X0561751Y0104405D02*
X0644800Y0104405D01*
X0644800Y0106004D02*
X0560152Y0106004D01*
X0559600Y0107602D02*
X0644800Y0107602D01*
X0644800Y0109201D02*
X0559600Y0109201D01*
X0559600Y0110799D02*
X0644800Y0110799D01*
X0644800Y0112398D02*
X0559600Y0112398D01*
X0559600Y0113996D02*
X0644800Y0113996D01*
X0644800Y0115595D02*
X0559600Y0115595D01*
X0559600Y0117193D02*
X0644800Y0117193D01*
X0644800Y0118792D02*
X0559600Y0118792D01*
X0559600Y0120390D02*
X0644800Y0120390D01*
X0644800Y0121989D02*
X0559600Y0121989D01*
X0559600Y0123587D02*
X0644800Y0123587D01*
X0644800Y0125186D02*
X0559600Y0125186D01*
X0559600Y0126784D02*
X0644800Y0126784D01*
X0644800Y0128383D02*
X0559600Y0128383D01*
X0559600Y0129981D02*
X0644800Y0129981D01*
X0644800Y0131580D02*
X0559600Y0131580D01*
X0559600Y0133178D02*
X0644800Y0133178D01*
X0644800Y0134777D02*
X0559600Y0134777D01*
X0559600Y0136375D02*
X0644800Y0136375D01*
X0644800Y0137974D02*
X0559600Y0137974D01*
X0559600Y0139573D02*
X0644800Y0139573D01*
X0644800Y0141171D02*
X0559600Y0141171D01*
X0559600Y0142770D02*
X0644800Y0142770D01*
X0644800Y0144368D02*
X0635086Y0144368D01*
X0633614Y0142896D02*
X0638300Y0147582D01*
X0638300Y0154210D01*
X0633614Y0158896D01*
X0626986Y0158896D01*
X0622300Y0154210D01*
X0622300Y0147582D01*
X0626986Y0142896D01*
X0633614Y0142896D01*
X0636684Y0145967D02*
X0644800Y0145967D01*
X0644800Y0147565D02*
X0638283Y0147565D01*
X0638300Y0149164D02*
X0644800Y0149164D01*
X0644800Y0150762D02*
X0638300Y0150762D01*
X0638300Y0152361D02*
X0644800Y0152361D01*
X0644800Y0153959D02*
X0638300Y0153959D01*
X0636952Y0155558D02*
X0644800Y0155558D01*
X0644800Y0157156D02*
X0635354Y0157156D01*
X0633755Y0158755D02*
X0644800Y0158755D01*
X0644800Y0160353D02*
X0559600Y0160353D01*
X0559600Y0158755D02*
X0626845Y0158755D01*
X0625246Y0157156D02*
X0559600Y0157156D01*
X0559600Y0155558D02*
X0623648Y0155558D01*
X0622300Y0153959D02*
X0559600Y0153959D01*
X0559600Y0152361D02*
X0622300Y0152361D01*
X0622300Y0150762D02*
X0559600Y0150762D01*
X0559600Y0149164D02*
X0622300Y0149164D01*
X0622317Y0147565D02*
X0559600Y0147565D01*
X0559600Y0145967D02*
X0623916Y0145967D01*
X0625514Y0144368D02*
X0559600Y0144368D01*
X0554000Y0144368D02*
X0473281Y0144368D01*
X0473281Y0142770D02*
X0554000Y0142770D01*
X0554000Y0141171D02*
X0473281Y0141171D01*
X0472267Y0139573D02*
X0554000Y0139573D01*
X0554000Y0137974D02*
X0341513Y0137974D01*
X0380281Y0120390D02*
X0447346Y0120390D01*
X0448944Y0118792D02*
X0380281Y0118792D01*
X0380962Y0117193D02*
X0450543Y0117193D01*
X0452141Y0115595D02*
X0382561Y0115595D01*
X0384160Y0113996D02*
X0453740Y0113996D01*
X0455338Y0112398D02*
X0385758Y0112398D01*
X0385800Y0108396D02*
X0421300Y0108396D01*
X0426800Y0102896D01*
X0426800Y0091896D01*
X0429300Y0089396D01*
X0447300Y0089396D01*
X0451281Y0090019D02*
X0466500Y0090019D01*
X0466500Y0091617D02*
X0451281Y0091617D01*
X0450271Y0093216D02*
X0466500Y0093216D01*
X0466500Y0094814D02*
X0440719Y0094814D01*
X0440434Y0094696D02*
X0442529Y0095564D01*
X0444132Y0097167D01*
X0444419Y0097860D01*
X0444596Y0097513D01*
X0445105Y0096813D01*
X0445717Y0096201D01*
X0446417Y0095692D01*
X0447189Y0095299D01*
X0448012Y0095031D01*
X0448867Y0094896D01*
X0449100Y0094896D01*
X0449100Y0100196D01*
X0449500Y0100196D01*
X0449500Y0094896D01*
X0449733Y0094896D01*
X0450588Y0095031D01*
X0451411Y0095299D01*
X0452183Y0095692D01*
X0452883Y0096201D01*
X0453495Y0096813D01*
X0454004Y0097513D01*
X0454300Y0098094D01*
X0454596Y0097513D01*
X0455105Y0096813D01*
X0455717Y0096201D01*
X0456417Y0095692D01*
X0457189Y0095299D01*
X0458012Y0095031D01*
X0458867Y0094896D01*
X0459100Y0094896D01*
X0459100Y0100196D01*
X0449500Y0100196D01*
X0449500Y0100596D01*
X0454800Y0100596D01*
X0459100Y0100596D01*
X0459100Y0105896D01*
X0458867Y0105896D01*
X0458012Y0105761D01*
X0457189Y0105493D01*
X0456417Y0105100D01*
X0455717Y0104591D01*
X0455105Y0103979D01*
X0454596Y0103279D01*
X0454300Y0102698D01*
X0454004Y0103279D01*
X0453495Y0103979D01*
X0452883Y0104591D01*
X0452183Y0105100D01*
X0451411Y0105493D01*
X0450588Y0105761D01*
X0449733Y0105896D01*
X0449500Y0105896D01*
X0449500Y0100596D01*
X0449100Y0100596D01*
X0449100Y0105896D01*
X0448867Y0105896D01*
X0448012Y0105761D01*
X0447189Y0105493D01*
X0446417Y0105100D01*
X0445717Y0104591D01*
X0445105Y0103979D01*
X0444596Y0103279D01*
X0444419Y0102932D01*
X0444132Y0103625D01*
X0442529Y0105228D01*
X0440434Y0106096D01*
X0438166Y0106096D01*
X0436071Y0105228D01*
X0434468Y0103625D01*
X0433600Y0101530D01*
X0433600Y0099262D01*
X0434468Y0097167D01*
X0436071Y0095564D01*
X0438166Y0094696D01*
X0440434Y0094696D01*
X0437881Y0094814D02*
X0429600Y0094814D01*
X0429600Y0093216D02*
X0444329Y0093216D01*
X0443378Y0096413D02*
X0445505Y0096413D01*
X0449100Y0096413D02*
X0449500Y0096413D01*
X0449500Y0098011D02*
X0449100Y0098011D01*
X0449100Y0099610D02*
X0449500Y0099610D01*
X0449500Y0101208D02*
X0449100Y0101208D01*
X0449100Y0102807D02*
X0449500Y0102807D01*
X0449500Y0104405D02*
X0449100Y0104405D01*
X0445531Y0104405D02*
X0443352Y0104405D01*
X0440657Y0106004D02*
X0461732Y0106004D01*
X0463069Y0104405D02*
X0463331Y0104405D01*
X0459500Y0104405D02*
X0459100Y0104405D01*
X0459100Y0102807D02*
X0459500Y0102807D01*
X0459500Y0101208D02*
X0459100Y0101208D01*
X0459100Y0099610D02*
X0459500Y0099610D01*
X0459500Y0098011D02*
X0459100Y0098011D01*
X0459100Y0096413D02*
X0459500Y0096413D01*
X0463095Y0096413D02*
X0465222Y0096413D01*
X0473378Y0096413D02*
X0475222Y0096413D01*
X0483378Y0096413D02*
X0485222Y0096413D01*
X0493378Y0096413D02*
X0495222Y0096413D01*
X0495248Y0104405D02*
X0493352Y0104405D01*
X0485248Y0104405D02*
X0483352Y0104405D01*
X0475248Y0104405D02*
X0473352Y0104405D01*
X0460134Y0107602D02*
X0426054Y0107602D01*
X0427652Y0106004D02*
X0437943Y0106004D01*
X0435248Y0104405D02*
X0429206Y0104405D01*
X0429600Y0102807D02*
X0434129Y0102807D01*
X0433600Y0101208D02*
X0429600Y0101208D01*
X0429600Y0099610D02*
X0433600Y0099610D01*
X0434118Y0098011D02*
X0429600Y0098011D01*
X0429600Y0096413D02*
X0435222Y0096413D01*
X0428800Y0082896D02*
X0419300Y0092396D01*
X0419300Y0100396D01*
X0415222Y0096413D02*
X0413378Y0096413D01*
X0405222Y0096413D02*
X0403378Y0096413D01*
X0395222Y0096413D02*
X0393378Y0096413D01*
X0385222Y0096413D02*
X0383378Y0096413D01*
X0375222Y0096413D02*
X0373378Y0096413D01*
X0373352Y0104405D02*
X0375248Y0104405D01*
X0365248Y0104405D02*
X0363352Y0104405D01*
X0355248Y0104405D02*
X0353352Y0104405D01*
X0353378Y0096413D02*
X0355222Y0096413D01*
X0363378Y0096413D02*
X0365222Y0096413D01*
X0335674Y0089810D02*
X0335674Y0089810D01*
X0325222Y0096413D02*
X0323378Y0096413D01*
X0315222Y0096413D02*
X0313378Y0096413D01*
X0305222Y0096413D02*
X0303378Y0096413D01*
X0295222Y0096413D02*
X0293378Y0096413D01*
X0285222Y0096413D02*
X0283378Y0096413D01*
X0275222Y0096413D02*
X0273378Y0096413D01*
X0273352Y0104405D02*
X0275248Y0104405D01*
X0283352Y0104405D02*
X0285248Y0104405D01*
X0293352Y0104405D02*
X0295248Y0104405D01*
X0303352Y0104405D02*
X0305248Y0104405D01*
X0313352Y0104405D02*
X0315248Y0104405D01*
X0323352Y0104405D02*
X0325248Y0104405D01*
X0299628Y0134777D02*
X0252980Y0134777D01*
X0253340Y0136375D02*
X0298819Y0136375D01*
X0298819Y0137974D02*
X0254939Y0137974D01*
X0255000Y0139573D02*
X0298819Y0139573D01*
X0298819Y0141171D02*
X0255000Y0141171D01*
X0254988Y0142770D02*
X0406636Y0142770D01*
X0406990Y0142415D02*
X0412610Y0142415D01*
X0413781Y0143587D01*
X0413781Y0149206D01*
X0412610Y0150377D01*
X0412600Y0150377D01*
X0412600Y0183953D01*
X0412174Y0184982D01*
X0385174Y0211982D01*
X0384386Y0212770D01*
X0383357Y0213196D01*
X0374561Y0213196D01*
X0371661Y0216096D01*
X0366939Y0216096D01*
X0364300Y0213457D01*
X0361661Y0216096D01*
X0356939Y0216096D01*
X0353600Y0212757D01*
X0353600Y0208035D01*
X0356239Y0205396D01*
X0353600Y0202757D01*
X0353600Y0198035D01*
X0356239Y0195396D01*
X0353600Y0192757D01*
X0353600Y0188035D01*
X0356939Y0184696D01*
X0361661Y0184696D01*
X0364300Y0187335D01*
X0366939Y0184696D01*
X0371661Y0184696D01*
X0375000Y0188035D01*
X0375000Y0192757D01*
X0372361Y0195396D01*
X0374561Y0197596D01*
X0376640Y0197596D01*
X0386000Y0188236D01*
X0386000Y0165387D01*
X0385319Y0164706D01*
X0385319Y0159087D01*
X0386490Y0157915D01*
X0392110Y0157915D01*
X0393281Y0159087D01*
X0393281Y0164706D01*
X0392110Y0165877D01*
X0391600Y0165877D01*
X0391600Y0189953D01*
X0391174Y0190982D01*
X0390386Y0191770D01*
X0379386Y0202770D01*
X0378357Y0203196D01*
X0374561Y0203196D01*
X0372361Y0205396D01*
X0374561Y0207596D01*
X0381640Y0207596D01*
X0407000Y0182236D01*
X0407000Y0150377D01*
X0406990Y0150377D01*
X0405819Y0149206D01*
X0405819Y0143587D01*
X0406990Y0142415D01*
X0405819Y0144368D02*
X0253389Y0144368D01*
X0252931Y0145967D02*
X0405819Y0145967D01*
X0405819Y0147565D02*
X0254530Y0147565D01*
X0255000Y0149164D02*
X0405819Y0149164D01*
X0407000Y0150762D02*
X0255000Y0150762D01*
X0255000Y0152361D02*
X0407000Y0152361D01*
X0407000Y0153959D02*
X0253798Y0153959D01*
X0252523Y0155558D02*
X0407000Y0155558D01*
X0407000Y0157156D02*
X0254121Y0157156D01*
X0255000Y0158755D02*
X0385651Y0158755D01*
X0385319Y0160353D02*
X0255000Y0160353D01*
X0255000Y0161952D02*
X0385319Y0161952D01*
X0385319Y0163550D02*
X0254207Y0163550D01*
X0252608Y0165149D02*
X0385762Y0165149D01*
X0386000Y0166747D02*
X0253712Y0166747D01*
X0255000Y0168346D02*
X0386000Y0168346D01*
X0386000Y0169944D02*
X0255000Y0169944D01*
X0255000Y0171543D02*
X0386000Y0171543D01*
X0386000Y0173141D02*
X0254616Y0173141D01*
X0253017Y0174740D02*
X0386000Y0174740D01*
X0386000Y0176338D02*
X0253303Y0176338D01*
X0254902Y0177937D02*
X0386000Y0177937D01*
X0386000Y0179535D02*
X0255000Y0179535D01*
X0255000Y0181134D02*
X0386000Y0181134D01*
X0386000Y0182732D02*
X0255000Y0182732D01*
X0253426Y0184331D02*
X0386000Y0184331D01*
X0386000Y0185929D02*
X0372894Y0185929D01*
X0374493Y0187528D02*
X0386000Y0187528D01*
X0385110Y0189126D02*
X0375000Y0189126D01*
X0375000Y0190725D02*
X0383511Y0190725D01*
X0381913Y0192323D02*
X0375000Y0192323D01*
X0373835Y0193922D02*
X0380314Y0193922D01*
X0378716Y0195520D02*
X0372485Y0195520D01*
X0374084Y0197119D02*
X0377117Y0197119D01*
X0377800Y0200396D02*
X0369300Y0200396D01*
X0372646Y0205111D02*
X0384125Y0205111D01*
X0385723Y0203513D02*
X0374244Y0203513D01*
X0373675Y0206710D02*
X0382526Y0206710D01*
X0382800Y0210396D02*
X0369300Y0210396D01*
X0373055Y0214703D02*
X0463034Y0214703D01*
X0461435Y0216301D02*
X0253266Y0216301D01*
X0253055Y0214703D02*
X0355545Y0214703D01*
X0353947Y0213104D02*
X0254653Y0213104D01*
X0255000Y0211506D02*
X0353600Y0211506D01*
X0353600Y0209907D02*
X0255000Y0209907D01*
X0255000Y0208308D02*
X0353600Y0208308D01*
X0354925Y0206710D02*
X0253675Y0206710D01*
X0252646Y0205111D02*
X0355954Y0205111D01*
X0354356Y0203513D02*
X0254244Y0203513D01*
X0255000Y0201914D02*
X0353600Y0201914D01*
X0353600Y0200316D02*
X0255000Y0200316D01*
X0255000Y0198717D02*
X0353600Y0198717D01*
X0354516Y0197119D02*
X0254084Y0197119D01*
X0252485Y0195520D02*
X0356115Y0195520D01*
X0354765Y0193922D02*
X0253835Y0193922D01*
X0255000Y0192323D02*
X0353600Y0192323D01*
X0353600Y0190725D02*
X0255000Y0190725D01*
X0255000Y0189126D02*
X0353600Y0189126D01*
X0354107Y0187528D02*
X0254493Y0187528D01*
X0252894Y0185929D02*
X0355706Y0185929D01*
X0362894Y0185929D02*
X0365706Y0185929D01*
X0385037Y0197119D02*
X0392117Y0197119D01*
X0390519Y0198717D02*
X0383438Y0198717D01*
X0381840Y0200316D02*
X0388920Y0200316D01*
X0387322Y0201914D02*
X0380241Y0201914D01*
X0377800Y0200396D02*
X0388800Y0189396D01*
X0388800Y0162396D01*
X0389300Y0161896D01*
X0393281Y0161952D02*
X0407000Y0161952D01*
X0407000Y0163550D02*
X0393281Y0163550D01*
X0392838Y0165149D02*
X0407000Y0165149D01*
X0407000Y0166747D02*
X0391600Y0166747D01*
X0391600Y0168346D02*
X0407000Y0168346D01*
X0407000Y0169944D02*
X0391600Y0169944D01*
X0391600Y0171543D02*
X0407000Y0171543D01*
X0407000Y0173141D02*
X0391600Y0173141D01*
X0391600Y0174740D02*
X0407000Y0174740D01*
X0407000Y0176338D02*
X0391600Y0176338D01*
X0391600Y0177937D02*
X0407000Y0177937D01*
X0407000Y0179535D02*
X0391600Y0179535D01*
X0391600Y0181134D02*
X0407000Y0181134D01*
X0406504Y0182732D02*
X0391600Y0182732D01*
X0391600Y0184331D02*
X0404905Y0184331D01*
X0403307Y0185929D02*
X0391600Y0185929D01*
X0391600Y0187528D02*
X0401708Y0187528D01*
X0400110Y0189126D02*
X0391600Y0189126D01*
X0391280Y0190725D02*
X0398511Y0190725D01*
X0396913Y0192323D02*
X0389832Y0192323D01*
X0388234Y0193922D02*
X0395314Y0193922D01*
X0393716Y0195520D02*
X0386635Y0195520D01*
X0395241Y0201914D02*
X0466500Y0201914D01*
X0466500Y0200316D02*
X0396840Y0200316D01*
X0398438Y0198717D02*
X0466500Y0198717D01*
X0466500Y0197119D02*
X0400037Y0197119D01*
X0401635Y0195520D02*
X0466500Y0195520D01*
X0466500Y0193922D02*
X0403234Y0193922D01*
X0404832Y0192323D02*
X0466500Y0192323D01*
X0466500Y0190725D02*
X0406431Y0190725D01*
X0408029Y0189126D02*
X0466500Y0189126D01*
X0466500Y0187528D02*
X0409628Y0187528D01*
X0411227Y0185929D02*
X0466500Y0185929D01*
X0466500Y0184331D02*
X0412444Y0184331D01*
X0412600Y0182732D02*
X0466500Y0182732D01*
X0466500Y0181134D02*
X0412600Y0181134D01*
X0412600Y0179535D02*
X0466500Y0179535D01*
X0466500Y0177937D02*
X0412600Y0177937D01*
X0412600Y0176338D02*
X0466500Y0176338D01*
X0466500Y0174740D02*
X0412600Y0174740D01*
X0412600Y0173141D02*
X0466500Y0173141D01*
X0466500Y0171543D02*
X0412600Y0171543D01*
X0412600Y0169944D02*
X0466500Y0169944D01*
X0466500Y0168346D02*
X0412600Y0168346D01*
X0412600Y0166747D02*
X0466500Y0166747D01*
X0466500Y0165149D02*
X0412600Y0165149D01*
X0412600Y0163550D02*
X0466500Y0163550D01*
X0466500Y0161952D02*
X0412600Y0161952D01*
X0412600Y0160353D02*
X0466500Y0160353D01*
X0466500Y0158755D02*
X0412600Y0158755D01*
X0412600Y0157156D02*
X0466500Y0157156D01*
X0466500Y0155558D02*
X0412600Y0155558D01*
X0412600Y0153959D02*
X0466500Y0153959D01*
X0466500Y0152361D02*
X0412600Y0152361D01*
X0412600Y0150762D02*
X0466500Y0150762D01*
X0466500Y0149164D02*
X0413781Y0149164D01*
X0413781Y0147565D02*
X0466500Y0147565D01*
X0465319Y0145967D02*
X0413781Y0145967D01*
X0413781Y0144368D02*
X0465319Y0144368D01*
X0465319Y0142770D02*
X0412964Y0142770D01*
X0409800Y0146396D02*
X0409800Y0183396D01*
X0382800Y0210396D01*
X0383579Y0213104D02*
X0464632Y0213104D01*
X0466231Y0211506D02*
X0385650Y0211506D01*
X0387249Y0209907D02*
X0466500Y0209907D01*
X0466500Y0208308D02*
X0388847Y0208308D01*
X0390446Y0206710D02*
X0466500Y0206710D01*
X0466500Y0205111D02*
X0392044Y0205111D01*
X0393643Y0203513D02*
X0466500Y0203513D01*
X0472100Y0203513D02*
X0554000Y0203513D01*
X0554000Y0205111D02*
X0472100Y0205111D01*
X0472100Y0206710D02*
X0554000Y0206710D01*
X0554000Y0208308D02*
X0472100Y0208308D01*
X0472100Y0209907D02*
X0554000Y0209907D01*
X0554000Y0211506D02*
X0472100Y0211506D01*
X0472037Y0213104D02*
X0554000Y0213104D01*
X0554000Y0214703D02*
X0470953Y0214703D01*
X0469355Y0216301D02*
X0554000Y0216301D01*
X0554000Y0217900D02*
X0467756Y0217900D01*
X0466158Y0219498D02*
X0554000Y0219498D01*
X0554000Y0221097D02*
X0464559Y0221097D01*
X0462961Y0222695D02*
X0554000Y0222695D01*
X0554000Y0224294D02*
X0461362Y0224294D01*
X0459764Y0225892D02*
X0554000Y0225892D01*
X0554000Y0227491D02*
X0458165Y0227491D01*
X0456567Y0229089D02*
X0554000Y0229089D01*
X0554000Y0230688D02*
X0454968Y0230688D01*
X0453370Y0232286D02*
X0554000Y0232286D01*
X0554000Y0233885D02*
X0451771Y0233885D01*
X0450173Y0235483D02*
X0554000Y0235483D01*
X0554000Y0237082D02*
X0449600Y0237082D01*
X0449600Y0238680D02*
X0554000Y0238680D01*
X0554000Y0240279D02*
X0449600Y0240279D01*
X0449600Y0241877D02*
X0554000Y0241877D01*
X0554000Y0243476D02*
X0449600Y0243476D01*
X0449600Y0245074D02*
X0554000Y0245074D01*
X0554000Y0246673D02*
X0449600Y0246673D01*
X0449600Y0248271D02*
X0554000Y0248271D01*
X0554000Y0249870D02*
X0449600Y0249870D01*
X0449600Y0251468D02*
X0552937Y0251468D01*
X0552819Y0253067D02*
X0449600Y0253067D01*
X0449600Y0254665D02*
X0552819Y0254665D01*
X0552819Y0256264D02*
X0449600Y0256264D01*
X0449600Y0257862D02*
X0553476Y0257862D01*
X0554000Y0259461D02*
X0449600Y0259461D01*
X0449600Y0261059D02*
X0554000Y0261059D01*
X0554000Y0262658D02*
X0449600Y0262658D01*
X0449600Y0264256D02*
X0554000Y0264256D01*
X0554000Y0265855D02*
X0449600Y0265855D01*
X0449600Y0267453D02*
X0554000Y0267453D01*
X0554000Y0269052D02*
X0449600Y0269052D01*
X0449600Y0270650D02*
X0554000Y0270650D01*
X0554000Y0272249D02*
X0449600Y0272249D01*
X0449600Y0273847D02*
X0554000Y0273847D01*
X0554000Y0275446D02*
X0449600Y0275446D01*
X0449600Y0277044D02*
X0554000Y0277044D01*
X0554000Y0278643D02*
X0449600Y0278643D01*
X0449600Y0280241D02*
X0554000Y0280241D01*
X0554000Y0281840D02*
X0449600Y0281840D01*
X0449600Y0283439D02*
X0554000Y0283439D01*
X0554000Y0285037D02*
X0547257Y0285037D01*
X0546434Y0284696D02*
X0548529Y0285564D01*
X0550132Y0287167D01*
X0551000Y0289262D01*
X0551000Y0291530D01*
X0550132Y0293625D01*
X0548529Y0295228D01*
X0546434Y0296096D01*
X0544166Y0296096D01*
X0542071Y0295228D01*
X0540468Y0293625D01*
X0540300Y0293220D01*
X0540132Y0293625D01*
X0538529Y0295228D01*
X0536434Y0296096D01*
X0534166Y0296096D01*
X0532071Y0295228D01*
X0530468Y0293625D01*
X0530300Y0293220D01*
X0530132Y0293625D01*
X0528529Y0295228D01*
X0526434Y0296096D01*
X0524166Y0296096D01*
X0522071Y0295228D01*
X0520468Y0293625D01*
X0520300Y0293220D01*
X0520132Y0293625D01*
X0518529Y0295228D01*
X0516434Y0296096D01*
X0514166Y0296096D01*
X0512071Y0295228D01*
X0510468Y0293625D01*
X0510300Y0293220D01*
X0510132Y0293625D01*
X0508529Y0295228D01*
X0506434Y0296096D01*
X0504166Y0296096D01*
X0502071Y0295228D01*
X0500468Y0293625D01*
X0500300Y0293220D01*
X0500132Y0293625D01*
X0498529Y0295228D01*
X0496434Y0296096D01*
X0494166Y0296096D01*
X0492071Y0295228D01*
X0490468Y0293625D01*
X0490300Y0293220D01*
X0490132Y0293625D01*
X0488529Y0295228D01*
X0486434Y0296096D01*
X0484166Y0296096D01*
X0482071Y0295228D01*
X0480468Y0293625D01*
X0480300Y0293220D01*
X0480132Y0293625D01*
X0478529Y0295228D01*
X0476434Y0296096D01*
X0474166Y0296096D01*
X0472071Y0295228D01*
X0470468Y0293625D01*
X0470300Y0293220D01*
X0470132Y0293625D01*
X0468529Y0295228D01*
X0466434Y0296096D01*
X0464166Y0296096D01*
X0462071Y0295228D01*
X0460468Y0293625D01*
X0460300Y0293220D01*
X0460132Y0293625D01*
X0458529Y0295228D01*
X0456434Y0296096D01*
X0454166Y0296096D01*
X0452071Y0295228D01*
X0450468Y0293625D01*
X0449600Y0291530D01*
X0449600Y0289262D01*
X0450468Y0287167D01*
X0452071Y0285564D01*
X0454166Y0284696D01*
X0456434Y0284696D01*
X0458529Y0285564D01*
X0460132Y0287167D01*
X0460300Y0287572D01*
X0460468Y0287167D01*
X0462071Y0285564D01*
X0464166Y0284696D01*
X0466434Y0284696D01*
X0468529Y0285564D01*
X0470132Y0287167D01*
X0470300Y0287572D01*
X0470468Y0287167D01*
X0472071Y0285564D01*
X0474166Y0284696D01*
X0476434Y0284696D01*
X0478529Y0285564D01*
X0480132Y0287167D01*
X0480300Y0287572D01*
X0480468Y0287167D01*
X0482071Y0285564D01*
X0484166Y0284696D01*
X0486434Y0284696D01*
X0488529Y0285564D01*
X0490132Y0287167D01*
X0490300Y0287572D01*
X0490468Y0287167D01*
X0492071Y0285564D01*
X0494166Y0284696D01*
X0496434Y0284696D01*
X0498529Y0285564D01*
X0500132Y0287167D01*
X0500300Y0287572D01*
X0500468Y0287167D01*
X0502071Y0285564D01*
X0504166Y0284696D01*
X0506434Y0284696D01*
X0508529Y0285564D01*
X0510132Y0287167D01*
X0510300Y0287572D01*
X0510468Y0287167D01*
X0512071Y0285564D01*
X0514166Y0284696D01*
X0516434Y0284696D01*
X0518529Y0285564D01*
X0520132Y0287167D01*
X0520300Y0287572D01*
X0520468Y0287167D01*
X0522071Y0285564D01*
X0524166Y0284696D01*
X0526434Y0284696D01*
X0528529Y0285564D01*
X0530132Y0287167D01*
X0530300Y0287572D01*
X0530468Y0287167D01*
X0532071Y0285564D01*
X0534166Y0284696D01*
X0536434Y0284696D01*
X0538529Y0285564D01*
X0540132Y0287167D01*
X0540300Y0287572D01*
X0540468Y0287167D01*
X0542071Y0285564D01*
X0544166Y0284696D01*
X0546434Y0284696D01*
X0543343Y0285037D02*
X0537257Y0285037D01*
X0539601Y0286636D02*
X0540999Y0286636D01*
X0533343Y0285037D02*
X0527257Y0285037D01*
X0529601Y0286636D02*
X0530999Y0286636D01*
X0523343Y0285037D02*
X0517257Y0285037D01*
X0519601Y0286636D02*
X0520999Y0286636D01*
X0513343Y0285037D02*
X0507257Y0285037D01*
X0509601Y0286636D02*
X0510999Y0286636D01*
X0503343Y0285037D02*
X0497257Y0285037D01*
X0499601Y0286636D02*
X0500999Y0286636D01*
X0493343Y0285037D02*
X0487257Y0285037D01*
X0489601Y0286636D02*
X0490999Y0286636D01*
X0483343Y0285037D02*
X0477257Y0285037D01*
X0479601Y0286636D02*
X0480999Y0286636D01*
X0473343Y0285037D02*
X0467257Y0285037D01*
X0469601Y0286636D02*
X0470999Y0286636D01*
X0463343Y0285037D02*
X0457257Y0285037D01*
X0459601Y0286636D02*
X0460999Y0286636D01*
X0453343Y0285037D02*
X0449600Y0285037D01*
X0449600Y0286636D02*
X0450999Y0286636D01*
X0450026Y0288234D02*
X0449600Y0288234D01*
X0449600Y0289833D02*
X0449600Y0289833D01*
X0449600Y0291431D02*
X0449600Y0291431D01*
X0449600Y0293030D02*
X0450221Y0293030D01*
X0449600Y0294628D02*
X0451471Y0294628D01*
X0450590Y0296227D02*
X0548510Y0296227D01*
X0549129Y0294628D02*
X0550108Y0294628D01*
X0550379Y0293030D02*
X0551707Y0293030D01*
X0551000Y0291431D02*
X0553305Y0291431D01*
X0554000Y0289833D02*
X0551000Y0289833D01*
X0550574Y0288234D02*
X0554000Y0288234D01*
X0554000Y0286636D02*
X0549601Y0286636D01*
X0559600Y0286636D02*
X0644800Y0286636D01*
X0644800Y0288234D02*
X0559600Y0288234D01*
X0559600Y0289833D02*
X0644800Y0289833D01*
X0644800Y0291431D02*
X0559600Y0291431D01*
X0559361Y0293030D02*
X0644800Y0293030D01*
X0644800Y0294628D02*
X0558028Y0294628D01*
X0556429Y0296227D02*
X0644800Y0296227D01*
X0644800Y0297825D02*
X0554831Y0297825D01*
X0553232Y0299424D02*
X0644800Y0299424D01*
X0644800Y0301022D02*
X0551634Y0301022D01*
X0550035Y0302621D02*
X0644800Y0302621D01*
X0644800Y0304219D02*
X0548437Y0304219D01*
X0546838Y0305818D02*
X0558065Y0305818D01*
X0558986Y0304896D02*
X0565614Y0304896D01*
X0570300Y0309582D01*
X0570300Y0316210D01*
X0565614Y0320896D01*
X0558986Y0320896D01*
X0554300Y0316210D01*
X0554300Y0309582D01*
X0558986Y0304896D01*
X0556466Y0307416D02*
X0545240Y0307416D01*
X0543641Y0309015D02*
X0554868Y0309015D01*
X0554300Y0310613D02*
X0542043Y0310613D01*
X0540444Y0312212D02*
X0554300Y0312212D01*
X0554300Y0313810D02*
X0538846Y0313810D01*
X0537247Y0315409D02*
X0554300Y0315409D01*
X0555098Y0317007D02*
X0535649Y0317007D01*
X0534050Y0318606D02*
X0556696Y0318606D01*
X0558295Y0320204D02*
X0532452Y0320204D01*
X0531997Y0321803D02*
X0644800Y0321803D01*
X0644800Y0323401D02*
X0532781Y0323401D01*
X0532781Y0325000D02*
X0644800Y0325000D01*
X0644800Y0326598D02*
X0532781Y0326598D01*
X0532781Y0328197D02*
X0595932Y0328197D01*
X0596500Y0328197D02*
X0598100Y0328197D01*
X0598668Y0328197D02*
X0615932Y0328197D01*
X0615966Y0328188D02*
X0616500Y0328117D01*
X0616500Y0334096D01*
X0610521Y0334096D01*
X0610592Y0333562D01*
X0610823Y0332698D01*
X0611166Y0331871D01*
X0611613Y0331096D01*
X0612158Y0330386D01*
X0612790Y0329754D01*
X0613500Y0329209D01*
X0614275Y0328762D01*
X0615101Y0328419D01*
X0615966Y0328188D01*
X0616500Y0328197D02*
X0618100Y0328197D01*
X0618668Y0328197D02*
X0644800Y0328197D01*
X0644800Y0329795D02*
X0621851Y0329795D01*
X0623159Y0331394D02*
X0644800Y0331394D01*
X0644800Y0332992D02*
X0623856Y0332992D01*
X0624014Y0336189D02*
X0644800Y0336189D01*
X0644800Y0334591D02*
X0618100Y0334591D01*
X0618100Y0332992D02*
X0616500Y0332992D01*
X0616500Y0331394D02*
X0618100Y0331394D01*
X0618100Y0329795D02*
X0616500Y0329795D01*
X0612749Y0329795D02*
X0601851Y0329795D01*
X0603159Y0331394D02*
X0611441Y0331394D01*
X0610744Y0332992D02*
X0603856Y0332992D01*
X0604014Y0336189D02*
X0610586Y0336189D01*
X0611111Y0337788D02*
X0603489Y0337788D01*
X0603812Y0339386D02*
X0602457Y0339386D01*
X0602125Y0340985D02*
X0600404Y0340985D01*
X0598100Y0340985D02*
X0596500Y0340985D01*
X0596500Y0339386D02*
X0598100Y0339386D01*
X0598100Y0337788D02*
X0596500Y0337788D01*
X0596500Y0336189D02*
X0598100Y0336189D01*
X0598100Y0331394D02*
X0596500Y0331394D01*
X0596500Y0329795D02*
X0598100Y0329795D01*
X0592749Y0329795D02*
X0500360Y0329795D01*
X0498762Y0331394D02*
X0591441Y0331394D01*
X0590744Y0332992D02*
X0497163Y0332992D01*
X0492441Y0329795D02*
X0325600Y0329795D01*
X0325600Y0331394D02*
X0490842Y0331394D01*
X0489244Y0332992D02*
X0324992Y0332992D01*
X0323393Y0334591D02*
X0487645Y0334591D01*
X0486047Y0336189D02*
X0323382Y0336189D01*
X0322788Y0335596D02*
X0325600Y0338408D01*
X0325600Y0342384D01*
X0322788Y0345196D01*
X0318812Y0345196D01*
X0316000Y0342384D01*
X0316000Y0338408D01*
X0318812Y0335596D01*
X0322788Y0335596D01*
X0324980Y0337788D02*
X0484448Y0337788D01*
X0482850Y0339386D02*
X0325600Y0339386D01*
X0325600Y0340985D02*
X0478420Y0340985D01*
X0477319Y0342583D02*
X0325401Y0342583D01*
X0323802Y0344182D02*
X0477319Y0344182D01*
X0477319Y0345780D02*
X0293998Y0345780D01*
X0292400Y0344182D02*
X0317798Y0344182D01*
X0316199Y0342583D02*
X0286572Y0342583D01*
X0285200Y0344182D02*
X0284974Y0344182D01*
X0283602Y0345780D02*
X0282706Y0345780D01*
X0282003Y0347379D02*
X0278597Y0347379D01*
X0279800Y0348977D02*
X0280800Y0348977D01*
X0280800Y0350576D02*
X0279800Y0350576D01*
X0279800Y0341896D02*
X0277800Y0341896D01*
X0250300Y0341896D01*
X0252980Y0337788D02*
X0283448Y0337788D01*
X0285047Y0336189D02*
X0251382Y0336189D01*
X0250393Y0334591D02*
X0286645Y0334591D01*
X0288000Y0332992D02*
X0251992Y0332992D01*
X0253100Y0331394D02*
X0288000Y0331394D01*
X0288018Y0329795D02*
X0253100Y0329795D01*
X0253100Y0328197D02*
X0289039Y0328197D01*
X0290800Y0330396D02*
X0290800Y0334396D01*
X0283300Y0341896D01*
X0279800Y0341896D01*
X0288171Y0340985D02*
X0316000Y0340985D01*
X0316000Y0339386D02*
X0289769Y0339386D01*
X0291368Y0337788D02*
X0316620Y0337788D01*
X0318218Y0336189D02*
X0292966Y0336189D01*
X0292386Y0336770D02*
X0292386Y0336770D01*
X0293600Y0334591D02*
X0318207Y0334591D01*
X0320800Y0330396D02*
X0290800Y0330396D01*
X0288986Y0319396D02*
X0284300Y0314710D01*
X0284300Y0308082D01*
X0288986Y0303396D01*
X0295614Y0303396D01*
X0300300Y0308082D01*
X0300300Y0314710D01*
X0295614Y0319396D01*
X0288986Y0319396D01*
X0288196Y0318606D02*
X0279904Y0318606D01*
X0279114Y0319396D02*
X0272486Y0319396D01*
X0267800Y0314710D01*
X0267800Y0308082D01*
X0272486Y0303396D01*
X0279114Y0303396D01*
X0283800Y0308082D01*
X0283800Y0314710D01*
X0279114Y0319396D01*
X0281502Y0317007D02*
X0286598Y0317007D01*
X0284999Y0315409D02*
X0283101Y0315409D01*
X0283800Y0313810D02*
X0284300Y0313810D01*
X0284300Y0312212D02*
X0283800Y0312212D01*
X0283800Y0310613D02*
X0284300Y0310613D01*
X0284300Y0309015D02*
X0283800Y0309015D01*
X0283134Y0307416D02*
X0284966Y0307416D01*
X0286565Y0305818D02*
X0281535Y0305818D01*
X0279937Y0304219D02*
X0288163Y0304219D01*
X0296437Y0304219D02*
X0316163Y0304219D01*
X0316676Y0304732D02*
X0314640Y0302696D01*
X0257960Y0302696D01*
X0253100Y0307556D01*
X0253100Y0310384D01*
X0250288Y0313196D01*
X0246312Y0313196D01*
X0243500Y0310384D01*
X0243500Y0306408D01*
X0246312Y0303596D01*
X0249140Y0303596D01*
X0255214Y0297522D01*
X0256243Y0297096D01*
X0316357Y0297096D01*
X0317386Y0297522D01*
X0318174Y0298310D01*
X0322050Y0302186D01*
X0323426Y0300810D01*
X0324214Y0300022D01*
X0325243Y0299596D01*
X0365819Y0299596D01*
X0365819Y0299587D01*
X0366990Y0298415D01*
X0372610Y0298415D01*
X0373781Y0299587D01*
X0373781Y0299596D01*
X0407857Y0299596D01*
X0408886Y0300022D01*
X0409674Y0300810D01*
X0414279Y0305415D01*
X0417110Y0305415D01*
X0418281Y0306587D01*
X0418281Y0312206D01*
X0417110Y0313377D01*
X0411490Y0313377D01*
X0410319Y0312206D01*
X0410319Y0309375D01*
X0406140Y0305196D01*
X0373781Y0305196D01*
X0373781Y0305206D01*
X0372610Y0306377D01*
X0366990Y0306377D01*
X0365819Y0305206D01*
X0365819Y0305196D01*
X0326960Y0305196D01*
X0324600Y0307556D01*
X0324600Y0310384D01*
X0321788Y0313196D01*
X0317812Y0313196D01*
X0315000Y0310384D01*
X0315000Y0306408D01*
X0316676Y0304732D01*
X0315590Y0305818D02*
X0298035Y0305818D01*
X0299634Y0307416D02*
X0315000Y0307416D01*
X0315000Y0309015D02*
X0300300Y0309015D01*
X0300300Y0310613D02*
X0315229Y0310613D01*
X0316827Y0312212D02*
X0300300Y0312212D01*
X0300300Y0313810D02*
X0317598Y0313810D01*
X0317812Y0313596D02*
X0321788Y0313596D01*
X0324600Y0316408D01*
X0324600Y0320384D01*
X0321788Y0323196D01*
X0317812Y0323196D01*
X0315000Y0320384D01*
X0315000Y0316408D01*
X0317812Y0313596D01*
X0315999Y0315409D02*
X0299601Y0315409D01*
X0298002Y0317007D02*
X0315000Y0317007D01*
X0315000Y0318606D02*
X0296404Y0318606D01*
X0315000Y0320204D02*
X0253100Y0320204D01*
X0253100Y0320384D02*
X0250288Y0323196D01*
X0246312Y0323196D01*
X0243500Y0320384D01*
X0243500Y0316408D01*
X0246312Y0313596D01*
X0250288Y0313596D01*
X0253100Y0316408D01*
X0253100Y0320384D01*
X0253100Y0318606D02*
X0271696Y0318606D01*
X0270098Y0317007D02*
X0253100Y0317007D01*
X0252101Y0315409D02*
X0268499Y0315409D01*
X0267800Y0313810D02*
X0250502Y0313810D01*
X0251273Y0312212D02*
X0267800Y0312212D01*
X0267800Y0310613D02*
X0252871Y0310613D01*
X0253100Y0309015D02*
X0267800Y0309015D01*
X0268466Y0307416D02*
X0253240Y0307416D01*
X0254838Y0305818D02*
X0270065Y0305818D01*
X0271663Y0304219D02*
X0256437Y0304219D01*
X0256800Y0299896D02*
X0248300Y0308396D01*
X0245327Y0312212D02*
X0231147Y0312212D01*
X0232745Y0313810D02*
X0246098Y0313810D01*
X0244499Y0315409D02*
X0233600Y0315409D01*
X0233600Y0314665D02*
X0233600Y0317121D01*
X0226575Y0317121D01*
X0226575Y0310096D01*
X0229031Y0310096D01*
X0233600Y0314665D01*
X0233600Y0317007D02*
X0243500Y0317007D01*
X0243500Y0318606D02*
X0226575Y0318606D01*
X0226575Y0318671D02*
X0233600Y0318671D01*
X0233600Y0321127D01*
X0229031Y0325696D01*
X0226575Y0325696D01*
X0226575Y0318671D01*
X0226575Y0317121D01*
X0225025Y0317121D01*
X0225025Y0310096D01*
X0222569Y0310096D01*
X0218000Y0314665D01*
X0218000Y0317121D01*
X0225025Y0317121D01*
X0225025Y0318671D01*
X0218000Y0318671D01*
X0218000Y0321127D01*
X0222569Y0325696D01*
X0225025Y0325696D01*
X0225025Y0318671D01*
X0226575Y0318671D01*
X0226575Y0320204D02*
X0225025Y0320204D01*
X0225025Y0318606D02*
X0008800Y0318606D01*
X0008800Y0320204D02*
X0218000Y0320204D01*
X0218676Y0321803D02*
X0008800Y0321803D01*
X0008800Y0323401D02*
X0220274Y0323401D01*
X0221873Y0325000D02*
X0008800Y0325000D01*
X0008800Y0326598D02*
X0244810Y0326598D01*
X0243500Y0328197D02*
X0008800Y0328197D01*
X0008800Y0329795D02*
X0243500Y0329795D01*
X0251790Y0326598D02*
X0317810Y0326598D01*
X0323790Y0326598D02*
X0418319Y0326598D01*
X0418319Y0325000D02*
X0229727Y0325000D01*
X0231326Y0323401D02*
X0418319Y0323401D01*
X0418319Y0321803D02*
X0323181Y0321803D01*
X0324600Y0320204D02*
X0419201Y0320204D01*
X0423630Y0318606D02*
X0324600Y0318606D01*
X0324600Y0317007D02*
X0425229Y0317007D01*
X0426828Y0315409D02*
X0323601Y0315409D01*
X0322002Y0313810D02*
X0428426Y0313810D01*
X0430025Y0312212D02*
X0418275Y0312212D01*
X0418281Y0310613D02*
X0431623Y0310613D01*
X0433222Y0309015D02*
X0418281Y0309015D01*
X0418281Y0307416D02*
X0434820Y0307416D01*
X0436419Y0305818D02*
X0417512Y0305818D01*
X0413083Y0304219D02*
X0438017Y0304219D01*
X0439616Y0302621D02*
X0411484Y0302621D01*
X0409886Y0301022D02*
X0440500Y0301022D01*
X0440500Y0299424D02*
X0373618Y0299424D01*
X0373129Y0294628D02*
X0375471Y0294628D01*
X0383129Y0294628D02*
X0385471Y0294628D01*
X0393129Y0294628D02*
X0395471Y0294628D01*
X0403129Y0294628D02*
X0405471Y0294628D01*
X0413129Y0294628D02*
X0415471Y0294628D01*
X0423129Y0294628D02*
X0425471Y0294628D01*
X0433129Y0294628D02*
X0435471Y0294628D01*
X0441411Y0297825D02*
X0317689Y0297825D01*
X0318166Y0296096D02*
X0316071Y0295228D01*
X0314468Y0293625D01*
X0314300Y0293220D01*
X0314132Y0293625D01*
X0312529Y0295228D01*
X0310434Y0296096D01*
X0308166Y0296096D01*
X0306071Y0295228D01*
X0304468Y0293625D01*
X0304300Y0293220D01*
X0304132Y0293625D01*
X0302529Y0295228D01*
X0300434Y0296096D01*
X0298166Y0296096D01*
X0296071Y0295228D01*
X0294468Y0293625D01*
X0294300Y0293220D01*
X0294132Y0293625D01*
X0292529Y0295228D01*
X0290434Y0296096D01*
X0288166Y0296096D01*
X0286071Y0295228D01*
X0284468Y0293625D01*
X0284300Y0293220D01*
X0284132Y0293625D01*
X0282529Y0295228D01*
X0280434Y0296096D01*
X0278166Y0296096D01*
X0276071Y0295228D01*
X0274468Y0293625D01*
X0273600Y0291530D01*
X0273600Y0289262D01*
X0274468Y0287167D01*
X0276071Y0285564D01*
X0278166Y0284696D01*
X0280434Y0284696D01*
X0282529Y0285564D01*
X0284132Y0287167D01*
X0284300Y0287572D01*
X0284468Y0287167D01*
X0286071Y0285564D01*
X0288166Y0284696D01*
X0290434Y0284696D01*
X0292529Y0285564D01*
X0294132Y0287167D01*
X0294300Y0287572D01*
X0294468Y0287167D01*
X0296071Y0285564D01*
X0298166Y0284696D01*
X0300434Y0284696D01*
X0302529Y0285564D01*
X0304132Y0287167D01*
X0304300Y0287572D01*
X0304468Y0287167D01*
X0306071Y0285564D01*
X0308166Y0284696D01*
X0310434Y0284696D01*
X0312529Y0285564D01*
X0314132Y0287167D01*
X0314300Y0287572D01*
X0314468Y0287167D01*
X0316071Y0285564D01*
X0318166Y0284696D01*
X0320434Y0284696D01*
X0322529Y0285564D01*
X0324132Y0287167D01*
X0324300Y0287572D01*
X0324468Y0287167D01*
X0326071Y0285564D01*
X0328166Y0284696D01*
X0330434Y0284696D01*
X0332529Y0285564D01*
X0334132Y0287167D01*
X0334300Y0287572D01*
X0334468Y0287167D01*
X0336071Y0285564D01*
X0338166Y0284696D01*
X0340434Y0284696D01*
X0342529Y0285564D01*
X0344132Y0287167D01*
X0344300Y0287572D01*
X0344468Y0287167D01*
X0346071Y0285564D01*
X0348166Y0284696D01*
X0350434Y0284696D01*
X0352529Y0285564D01*
X0354132Y0287167D01*
X0355000Y0289262D01*
X0355000Y0291530D01*
X0354132Y0293625D01*
X0352529Y0295228D01*
X0350434Y0296096D01*
X0348166Y0296096D01*
X0346071Y0295228D01*
X0344468Y0293625D01*
X0344300Y0293220D01*
X0344132Y0293625D01*
X0342529Y0295228D01*
X0340434Y0296096D01*
X0338166Y0296096D01*
X0336071Y0295228D01*
X0334468Y0293625D01*
X0334300Y0293220D01*
X0334132Y0293625D01*
X0332529Y0295228D01*
X0330434Y0296096D01*
X0328166Y0296096D01*
X0326071Y0295228D01*
X0324468Y0293625D01*
X0324300Y0293220D01*
X0324132Y0293625D01*
X0322529Y0295228D01*
X0320434Y0296096D01*
X0318166Y0296096D01*
X0315471Y0294628D02*
X0313129Y0294628D01*
X0315800Y0299896D02*
X0256800Y0299896D01*
X0254911Y0297825D02*
X0008800Y0297825D01*
X0008800Y0296227D02*
X0443010Y0296227D01*
X0443129Y0294628D02*
X0444000Y0294628D01*
X0446800Y0296396D02*
X0443300Y0299896D01*
X0443300Y0302896D01*
X0422300Y0323896D01*
X0426281Y0325000D02*
X0497236Y0325000D01*
X0495638Y0326598D02*
X0426281Y0326598D01*
X0426755Y0323401D02*
X0498835Y0323401D01*
X0501959Y0328197D02*
X0524819Y0328197D01*
X0525603Y0321803D02*
X0428353Y0321803D01*
X0429952Y0320204D02*
X0526000Y0320204D01*
X0526304Y0318606D02*
X0431550Y0318606D01*
X0433149Y0317007D02*
X0503319Y0317007D01*
X0503319Y0315409D02*
X0434747Y0315409D01*
X0436346Y0313810D02*
X0503319Y0313810D01*
X0503319Y0312212D02*
X0437944Y0312212D01*
X0439543Y0310613D02*
X0503557Y0310613D01*
X0503800Y0306896D02*
X0507300Y0310396D01*
X0507300Y0314396D01*
X0511281Y0313810D02*
X0530926Y0313810D01*
X0532525Y0312212D02*
X0511281Y0312212D01*
X0510308Y0310613D02*
X0534123Y0310613D01*
X0535722Y0309015D02*
X0509759Y0309015D01*
X0508280Y0307416D02*
X0537320Y0307416D01*
X0538919Y0305818D02*
X0506681Y0305818D01*
X0504654Y0304219D02*
X0540517Y0304219D01*
X0542116Y0302621D02*
X0456984Y0302621D01*
X0455386Y0301022D02*
X0543714Y0301022D01*
X0545313Y0299424D02*
X0453787Y0299424D01*
X0452189Y0297825D02*
X0546911Y0297825D01*
X0541471Y0294628D02*
X0539129Y0294628D01*
X0531471Y0294628D02*
X0529129Y0294628D01*
X0521471Y0294628D02*
X0519129Y0294628D01*
X0511471Y0294628D02*
X0509129Y0294628D01*
X0501471Y0294628D02*
X0499129Y0294628D01*
X0491471Y0294628D02*
X0489129Y0294628D01*
X0481471Y0294628D02*
X0479129Y0294628D01*
X0471471Y0294628D02*
X0469129Y0294628D01*
X0461471Y0294628D02*
X0459129Y0294628D01*
X0457300Y0306896D02*
X0446800Y0296396D01*
X0446800Y0234896D01*
X0469300Y0212396D01*
X0469300Y0143396D01*
X0473281Y0145967D02*
X0554000Y0145967D01*
X0554000Y0147565D02*
X0472100Y0147565D01*
X0472100Y0149164D02*
X0554000Y0149164D01*
X0554000Y0150762D02*
X0472100Y0150762D01*
X0472100Y0152361D02*
X0554000Y0152361D01*
X0554000Y0153959D02*
X0472100Y0153959D01*
X0472100Y0155558D02*
X0554000Y0155558D01*
X0554000Y0157156D02*
X0472100Y0157156D01*
X0472100Y0158755D02*
X0554000Y0158755D01*
X0554000Y0160353D02*
X0472100Y0160353D01*
X0472100Y0161952D02*
X0554000Y0161952D01*
X0554000Y0163550D02*
X0472100Y0163550D01*
X0472100Y0165149D02*
X0554000Y0165149D01*
X0554000Y0166747D02*
X0472100Y0166747D01*
X0472100Y0168346D02*
X0554000Y0168346D01*
X0554000Y0169944D02*
X0472100Y0169944D01*
X0472100Y0171543D02*
X0554000Y0171543D01*
X0554000Y0173141D02*
X0472100Y0173141D01*
X0472100Y0174740D02*
X0554000Y0174740D01*
X0554000Y0176338D02*
X0472100Y0176338D01*
X0472100Y0177937D02*
X0554000Y0177937D01*
X0554000Y0179535D02*
X0472100Y0179535D01*
X0472100Y0181134D02*
X0554000Y0181134D01*
X0554000Y0182732D02*
X0472100Y0182732D01*
X0472100Y0184331D02*
X0554000Y0184331D01*
X0554000Y0185929D02*
X0472100Y0185929D01*
X0472100Y0187528D02*
X0554000Y0187528D01*
X0554000Y0189126D02*
X0472100Y0189126D01*
X0472100Y0190725D02*
X0554000Y0190725D01*
X0554000Y0192323D02*
X0472100Y0192323D01*
X0472100Y0193922D02*
X0554000Y0193922D01*
X0554000Y0195520D02*
X0472100Y0195520D01*
X0472100Y0197119D02*
X0554000Y0197119D01*
X0554000Y0198717D02*
X0472100Y0198717D01*
X0472100Y0200316D02*
X0554000Y0200316D01*
X0554000Y0201914D02*
X0472100Y0201914D01*
X0459837Y0217900D02*
X0254865Y0217900D01*
X0255000Y0219498D02*
X0458238Y0219498D01*
X0456640Y0221097D02*
X0255000Y0221097D01*
X0255000Y0222695D02*
X0455041Y0222695D01*
X0453443Y0224294D02*
X0253463Y0224294D01*
X0252857Y0225892D02*
X0451844Y0225892D01*
X0450246Y0227491D02*
X0254456Y0227491D01*
X0255000Y0229089D02*
X0448647Y0229089D01*
X0447049Y0230688D02*
X0255000Y0230688D01*
X0255000Y0232286D02*
X0445450Y0232286D01*
X0444188Y0233885D02*
X0253872Y0233885D01*
X0252448Y0235483D02*
X0444000Y0235483D01*
X0444000Y0237082D02*
X0254047Y0237082D01*
X0255000Y0238680D02*
X0444000Y0238680D01*
X0444000Y0240279D02*
X0255000Y0240279D01*
X0255000Y0241877D02*
X0444000Y0241877D01*
X0444000Y0243476D02*
X0254281Y0243476D01*
X0252683Y0245074D02*
X0444000Y0245074D01*
X0444000Y0246673D02*
X0253638Y0246673D01*
X0255000Y0248271D02*
X0444000Y0248271D01*
X0444000Y0249870D02*
X0255000Y0249870D01*
X0255000Y0251468D02*
X0444000Y0251468D01*
X0444000Y0253067D02*
X0254690Y0253067D01*
X0253092Y0254665D02*
X0444000Y0254665D01*
X0444000Y0256264D02*
X0253229Y0256264D01*
X0254827Y0257862D02*
X0444000Y0257862D01*
X0444000Y0259461D02*
X0255000Y0259461D01*
X0255000Y0261059D02*
X0444000Y0261059D01*
X0444000Y0262658D02*
X0255000Y0262658D01*
X0253501Y0264256D02*
X0444000Y0264256D01*
X0444000Y0265855D02*
X0252820Y0265855D01*
X0254418Y0267453D02*
X0444000Y0267453D01*
X0444000Y0269052D02*
X0255000Y0269052D01*
X0255000Y0270650D02*
X0444000Y0270650D01*
X0444000Y0272249D02*
X0255000Y0272249D01*
X0253910Y0273847D02*
X0444000Y0273847D01*
X0444000Y0275446D02*
X0252411Y0275446D01*
X0254009Y0277044D02*
X0444000Y0277044D01*
X0444000Y0278643D02*
X0255000Y0278643D01*
X0255000Y0280241D02*
X0444000Y0280241D01*
X0444000Y0281840D02*
X0255000Y0281840D01*
X0254319Y0283439D02*
X0444000Y0283439D01*
X0444000Y0285037D02*
X0441257Y0285037D01*
X0443600Y0286636D02*
X0444000Y0286636D01*
X0437343Y0285037D02*
X0431257Y0285037D01*
X0433601Y0286636D02*
X0434999Y0286636D01*
X0427343Y0285037D02*
X0421257Y0285037D01*
X0423601Y0286636D02*
X0424999Y0286636D01*
X0417343Y0285037D02*
X0411257Y0285037D01*
X0413601Y0286636D02*
X0414999Y0286636D01*
X0407343Y0285037D02*
X0401257Y0285037D01*
X0403601Y0286636D02*
X0404999Y0286636D01*
X0397343Y0285037D02*
X0391257Y0285037D01*
X0393601Y0286636D02*
X0394999Y0286636D01*
X0387343Y0285037D02*
X0381257Y0285037D01*
X0383601Y0286636D02*
X0384999Y0286636D01*
X0377343Y0285037D02*
X0371257Y0285037D01*
X0373601Y0286636D02*
X0374999Y0286636D01*
X0367343Y0285037D02*
X0351257Y0285037D01*
X0353601Y0286636D02*
X0364999Y0286636D01*
X0364026Y0288234D02*
X0354574Y0288234D01*
X0355000Y0289833D02*
X0363600Y0289833D01*
X0363600Y0291431D02*
X0355000Y0291431D01*
X0354379Y0293030D02*
X0364221Y0293030D01*
X0365471Y0294628D02*
X0353129Y0294628D01*
X0365982Y0299424D02*
X0319287Y0299424D01*
X0320886Y0301022D02*
X0323214Y0301022D01*
X0325800Y0302396D02*
X0369800Y0302396D01*
X0407300Y0302396D01*
X0414300Y0309396D01*
X0410319Y0310613D02*
X0324371Y0310613D01*
X0324600Y0309015D02*
X0409959Y0309015D01*
X0408360Y0307416D02*
X0324740Y0307416D01*
X0326338Y0305818D02*
X0366431Y0305818D01*
X0373169Y0305818D02*
X0406762Y0305818D01*
X0410325Y0312212D02*
X0322773Y0312212D01*
X0319800Y0308396D02*
X0325800Y0302396D01*
X0319800Y0303896D02*
X0315800Y0299896D01*
X0319800Y0303896D02*
X0319800Y0308396D01*
X0316419Y0321803D02*
X0251681Y0321803D01*
X0244919Y0321803D02*
X0232924Y0321803D01*
X0233600Y0320204D02*
X0243500Y0320204D01*
X0243729Y0310613D02*
X0229548Y0310613D01*
X0226575Y0310613D02*
X0225025Y0310613D01*
X0225025Y0312212D02*
X0226575Y0312212D01*
X0226575Y0313810D02*
X0225025Y0313810D01*
X0225025Y0315409D02*
X0226575Y0315409D01*
X0226575Y0317007D02*
X0225025Y0317007D01*
X0225025Y0321803D02*
X0226575Y0321803D01*
X0226575Y0323401D02*
X0225025Y0323401D01*
X0225025Y0325000D02*
X0226575Y0325000D01*
X0218000Y0317007D02*
X0008800Y0317007D01*
X0008800Y0315409D02*
X0218000Y0315409D01*
X0218855Y0313810D02*
X0008800Y0313810D01*
X0008800Y0312212D02*
X0220453Y0312212D01*
X0222052Y0310613D02*
X0008800Y0310613D01*
X0008800Y0309015D02*
X0243500Y0309015D01*
X0243500Y0307416D02*
X0008800Y0307416D01*
X0008800Y0305818D02*
X0244090Y0305818D01*
X0245689Y0304219D02*
X0008800Y0304219D01*
X0008800Y0302621D02*
X0250116Y0302621D01*
X0251714Y0301022D02*
X0008800Y0301022D01*
X0008800Y0299424D02*
X0253313Y0299424D01*
X0253129Y0294628D02*
X0275471Y0294628D01*
X0274221Y0293030D02*
X0254379Y0293030D01*
X0255000Y0291431D02*
X0273600Y0291431D01*
X0273600Y0289833D02*
X0255000Y0289833D01*
X0254574Y0288234D02*
X0274026Y0288234D01*
X0274999Y0286636D02*
X0253601Y0286636D01*
X0252720Y0285037D02*
X0277343Y0285037D01*
X0281257Y0285037D02*
X0287343Y0285037D01*
X0284999Y0286636D02*
X0283601Y0286636D01*
X0291257Y0285037D02*
X0297343Y0285037D01*
X0294999Y0286636D02*
X0293601Y0286636D01*
X0301257Y0285037D02*
X0307343Y0285037D01*
X0304999Y0286636D02*
X0303601Y0286636D01*
X0311257Y0285037D02*
X0317343Y0285037D01*
X0314999Y0286636D02*
X0313601Y0286636D01*
X0321257Y0285037D02*
X0327343Y0285037D01*
X0324999Y0286636D02*
X0323601Y0286636D01*
X0331257Y0285037D02*
X0337343Y0285037D01*
X0334999Y0286636D02*
X0333601Y0286636D01*
X0341257Y0285037D02*
X0347343Y0285037D01*
X0344999Y0286636D02*
X0343601Y0286636D01*
X0343129Y0294628D02*
X0345471Y0294628D01*
X0335471Y0294628D02*
X0333129Y0294628D01*
X0325471Y0294628D02*
X0323129Y0294628D01*
X0305471Y0294628D02*
X0303129Y0294628D01*
X0295471Y0294628D02*
X0293129Y0294628D01*
X0285471Y0294628D02*
X0283129Y0294628D01*
X0245471Y0294628D02*
X0243129Y0294628D01*
X0235471Y0294628D02*
X0008800Y0294628D01*
X0008800Y0293030D02*
X0234221Y0293030D01*
X0233600Y0291431D02*
X0008800Y0291431D01*
X0008800Y0289833D02*
X0233600Y0289833D01*
X0234026Y0288234D02*
X0008800Y0288234D01*
X0008800Y0286636D02*
X0234999Y0286636D01*
X0235880Y0285037D02*
X0008800Y0285037D01*
X0008800Y0283439D02*
X0234281Y0283439D01*
X0233600Y0281840D02*
X0008800Y0281840D01*
X0008800Y0280241D02*
X0233600Y0280241D01*
X0233600Y0278643D02*
X0008800Y0278643D01*
X0008800Y0277044D02*
X0234591Y0277044D01*
X0236189Y0275446D02*
X0008800Y0275446D01*
X0008800Y0273847D02*
X0234690Y0273847D01*
X0233600Y0272249D02*
X0008800Y0272249D01*
X0008800Y0270650D02*
X0233600Y0270650D01*
X0233600Y0269052D02*
X0008800Y0269052D01*
X0008800Y0267453D02*
X0234182Y0267453D01*
X0235780Y0265855D02*
X0008800Y0265855D01*
X0008800Y0264256D02*
X0235099Y0264256D01*
X0233600Y0262658D02*
X0008800Y0262658D01*
X0008800Y0261059D02*
X0233600Y0261059D01*
X0233600Y0259461D02*
X0008800Y0259461D01*
X0008800Y0257862D02*
X0233773Y0257862D01*
X0235371Y0256264D02*
X0008800Y0256264D01*
X0008800Y0254665D02*
X0235508Y0254665D01*
X0233910Y0253067D02*
X0008800Y0253067D01*
X0008800Y0251468D02*
X0233600Y0251468D01*
X0233600Y0249870D02*
X0008800Y0249870D01*
X0008800Y0248271D02*
X0233600Y0248271D01*
X0234962Y0246673D02*
X0008800Y0246673D01*
X0008800Y0245074D02*
X0235917Y0245074D01*
X0234319Y0243476D02*
X0008800Y0243476D01*
X0008800Y0241877D02*
X0233600Y0241877D01*
X0233600Y0240279D02*
X0008800Y0240279D01*
X0008800Y0238680D02*
X0233600Y0238680D01*
X0234553Y0237082D02*
X0008800Y0237082D01*
X0008800Y0235483D02*
X0236152Y0235483D01*
X0234728Y0233885D02*
X0008800Y0233885D01*
X0008800Y0232286D02*
X0233600Y0232286D01*
X0233600Y0230688D02*
X0008800Y0230688D01*
X0008800Y0229089D02*
X0233600Y0229089D01*
X0234144Y0227491D02*
X0008800Y0227491D01*
X0008800Y0225892D02*
X0235743Y0225892D01*
X0235137Y0224294D02*
X0008800Y0224294D01*
X0008800Y0222695D02*
X0233600Y0222695D01*
X0233600Y0221097D02*
X0008800Y0221097D01*
X0008800Y0219498D02*
X0233600Y0219498D01*
X0233735Y0217900D02*
X0008800Y0217900D01*
X0008800Y0216301D02*
X0235334Y0216301D01*
X0235545Y0214703D02*
X0204432Y0214703D01*
X0203074Y0216061D02*
X0206413Y0212722D01*
X0206413Y0208000D01*
X0203774Y0205361D01*
X0206413Y0202722D01*
X0206413Y0198000D01*
X0203774Y0195361D01*
X0206413Y0192722D01*
X0206413Y0188000D01*
X0203774Y0185361D01*
X0206413Y0182722D01*
X0206413Y0178000D01*
X0203774Y0175361D01*
X0206413Y0172722D01*
X0206413Y0168000D01*
X0203633Y0165219D01*
X0206213Y0162639D01*
X0206213Y0160561D01*
X0200913Y0160561D01*
X0200913Y0160161D01*
X0206213Y0160161D01*
X0206213Y0158082D01*
X0202992Y0154861D01*
X0200913Y0154861D01*
X0200913Y0160161D01*
X0200513Y0160161D01*
X0195213Y0160161D01*
X0195213Y0158082D01*
X0198435Y0154861D01*
X0200513Y0154861D01*
X0200513Y0160161D01*
X0200513Y0160561D01*
X0195213Y0160561D01*
X0195213Y0162639D01*
X0197794Y0165219D01*
X0195013Y0168000D01*
X0195013Y0172722D01*
X0197652Y0175361D01*
X0195013Y0178000D01*
X0195013Y0182722D01*
X0197652Y0185361D01*
X0195013Y0188000D01*
X0195013Y0192722D01*
X0197652Y0195361D01*
X0195013Y0198000D01*
X0195013Y0202722D01*
X0197652Y0205361D01*
X0195013Y0208000D01*
X0195013Y0212722D01*
X0198352Y0216061D01*
X0203074Y0216061D01*
X0206031Y0213104D02*
X0233947Y0213104D01*
X0233600Y0211506D02*
X0206413Y0211506D01*
X0206413Y0209907D02*
X0233600Y0209907D01*
X0233600Y0208308D02*
X0206413Y0208308D01*
X0205124Y0206710D02*
X0234925Y0206710D01*
X0235954Y0205111D02*
X0204024Y0205111D01*
X0205622Y0203513D02*
X0234356Y0203513D01*
X0233600Y0201914D02*
X0206413Y0201914D01*
X0206413Y0200316D02*
X0233600Y0200316D01*
X0233600Y0198717D02*
X0206413Y0198717D01*
X0205533Y0197119D02*
X0234516Y0197119D01*
X0236115Y0195520D02*
X0203934Y0195520D01*
X0205213Y0193922D02*
X0234765Y0193922D01*
X0233600Y0192323D02*
X0206413Y0192323D01*
X0206413Y0190725D02*
X0233600Y0190725D01*
X0233600Y0189126D02*
X0206413Y0189126D01*
X0205942Y0187528D02*
X0234107Y0187528D01*
X0235706Y0185929D02*
X0204343Y0185929D01*
X0204804Y0184331D02*
X0235174Y0184331D01*
X0233600Y0182732D02*
X0206403Y0182732D01*
X0206413Y0181134D02*
X0233600Y0181134D01*
X0233600Y0179535D02*
X0206413Y0179535D01*
X0206351Y0177937D02*
X0233698Y0177937D01*
X0235297Y0176338D02*
X0204752Y0176338D01*
X0204395Y0174740D02*
X0235583Y0174740D01*
X0233984Y0173141D02*
X0205994Y0173141D01*
X0206413Y0171543D02*
X0233600Y0171543D01*
X0233600Y0169944D02*
X0206413Y0169944D01*
X0206413Y0168346D02*
X0233600Y0168346D01*
X0234888Y0166747D02*
X0205161Y0166747D01*
X0203703Y0165149D02*
X0235992Y0165149D01*
X0234393Y0163550D02*
X0205302Y0163550D01*
X0206213Y0161952D02*
X0233600Y0161952D01*
X0233600Y0160353D02*
X0200913Y0160353D01*
X0200513Y0160353D02*
X0008800Y0160353D01*
X0008800Y0158755D02*
X0195213Y0158755D01*
X0196140Y0157156D02*
X0008800Y0157156D01*
X0008800Y0155558D02*
X0197738Y0155558D01*
X0200513Y0155558D02*
X0200913Y0155558D01*
X0200913Y0157156D02*
X0200513Y0157156D01*
X0200513Y0158755D02*
X0200913Y0158755D01*
X0203689Y0155558D02*
X0236077Y0155558D01*
X0234802Y0153959D02*
X0008800Y0153959D01*
X0008800Y0152361D02*
X0233600Y0152361D01*
X0233600Y0150762D02*
X0008800Y0150762D01*
X0008800Y0161952D02*
X0195213Y0161952D01*
X0196125Y0163550D02*
X0008800Y0163550D01*
X0008800Y0165149D02*
X0197723Y0165149D01*
X0196266Y0166747D02*
X0008800Y0166747D01*
X0008800Y0168346D02*
X0195013Y0168346D01*
X0195013Y0169944D02*
X0008800Y0169944D01*
X0008800Y0171543D02*
X0195013Y0171543D01*
X0195433Y0173141D02*
X0008800Y0173141D01*
X0008800Y0174740D02*
X0197031Y0174740D01*
X0196675Y0176338D02*
X0008800Y0176338D01*
X0008800Y0177937D02*
X0195076Y0177937D01*
X0195013Y0179535D02*
X0008800Y0179535D01*
X0008800Y0181134D02*
X0195013Y0181134D01*
X0195024Y0182732D02*
X0008800Y0182732D01*
X0008800Y0184331D02*
X0196623Y0184331D01*
X0197084Y0185929D02*
X0008800Y0185929D01*
X0008800Y0187528D02*
X0195485Y0187528D01*
X0195013Y0189126D02*
X0008800Y0189126D01*
X0008800Y0190725D02*
X0195013Y0190725D01*
X0195013Y0192323D02*
X0008800Y0192323D01*
X0008800Y0193922D02*
X0196214Y0193922D01*
X0197493Y0195520D02*
X0008800Y0195520D01*
X0008800Y0197119D02*
X0195894Y0197119D01*
X0195013Y0198717D02*
X0008800Y0198717D01*
X0008800Y0200316D02*
X0195013Y0200316D01*
X0195013Y0201914D02*
X0008800Y0201914D01*
X0008800Y0203513D02*
X0195805Y0203513D01*
X0197403Y0205111D02*
X0008800Y0205111D01*
X0008800Y0206710D02*
X0196303Y0206710D01*
X0195013Y0208308D02*
X0008800Y0208308D01*
X0008800Y0209907D02*
X0195013Y0209907D01*
X0195013Y0211506D02*
X0008800Y0211506D01*
X0008800Y0213104D02*
X0195396Y0213104D01*
X0196994Y0214703D02*
X0008800Y0214703D01*
X0205287Y0157156D02*
X0234479Y0157156D01*
X0233600Y0158755D02*
X0206213Y0158755D01*
X0244143Y0117193D02*
X0244457Y0117193D01*
X0246040Y0115595D02*
X0242560Y0115595D01*
X0214819Y0058048D02*
X0205582Y0058048D01*
X0203984Y0056450D02*
X0214819Y0056450D01*
X0392949Y0158755D02*
X0407000Y0158755D01*
X0407000Y0160353D02*
X0393281Y0160353D01*
X0422815Y0110799D02*
X0456937Y0110799D01*
X0458535Y0109201D02*
X0424455Y0109201D01*
X0453069Y0104405D02*
X0455531Y0104405D01*
X0454356Y0102807D02*
X0454244Y0102807D01*
X0454258Y0098011D02*
X0454342Y0098011D01*
X0455505Y0096413D02*
X0453095Y0096413D01*
X0451281Y0088420D02*
X0466500Y0088420D01*
X0466500Y0086822D02*
X0465665Y0086822D01*
X0462800Y0082896D02*
X0428800Y0082896D01*
X0427443Y0080428D02*
X0418728Y0080428D01*
X0417130Y0082026D02*
X0425710Y0082026D01*
X0424112Y0083625D02*
X0415531Y0083625D01*
X0413933Y0085223D02*
X0422513Y0085223D01*
X0451281Y0086822D02*
X0459935Y0086822D01*
X0472100Y0082026D02*
X0535866Y0082026D01*
X0534268Y0080428D02*
X0472100Y0080428D01*
X0472100Y0078829D02*
X0532669Y0078829D01*
X0532550Y0077231D02*
X0471848Y0077231D01*
X0470496Y0075632D02*
X0532550Y0075632D01*
X0532550Y0074034D02*
X0500122Y0074034D01*
X0501721Y0072435D02*
X0532550Y0072435D01*
X0533796Y0070837D02*
X0504150Y0070837D01*
X0504781Y0069238D02*
X0535394Y0069238D01*
X0536993Y0067639D02*
X0504781Y0067639D01*
X0540927Y0042063D02*
X0606485Y0042063D01*
X0606485Y0040465D02*
X0539329Y0040465D01*
X0537730Y0038866D02*
X0606485Y0038866D01*
X0606485Y0037268D02*
X0536131Y0037268D01*
X0534533Y0035669D02*
X0606485Y0035669D01*
X0606485Y0034071D02*
X0532934Y0034071D01*
X0531336Y0032472D02*
X0606485Y0032472D01*
X0606736Y0030874D02*
X0529737Y0030874D01*
X0528139Y0029275D02*
X0607398Y0029275D01*
X0608777Y0027677D02*
X0526540Y0027677D01*
X0542526Y0043662D02*
X0606485Y0043662D01*
X0606878Y0045260D02*
X0544124Y0045260D01*
X0545723Y0046859D02*
X0607540Y0046859D01*
X0609119Y0048457D02*
X0547321Y0048457D01*
X0585266Y0058048D02*
X0644800Y0058048D01*
X0625115Y0048457D02*
X0617890Y0048457D01*
X0619469Y0046859D02*
X0623525Y0046859D01*
X0622685Y0045260D02*
X0620132Y0045260D01*
X0620524Y0043662D02*
X0622315Y0043662D01*
X0622276Y0042063D02*
X0620524Y0042063D01*
X0620524Y0040465D02*
X0622276Y0040465D01*
X0622276Y0038866D02*
X0620524Y0038866D01*
X0505222Y0096413D02*
X0503378Y0096413D01*
X0503352Y0104405D02*
X0505248Y0104405D01*
X0539871Y0126784D02*
X0554000Y0126784D01*
X0554000Y0125186D02*
X0541470Y0125186D01*
X0543068Y0123587D02*
X0554000Y0123587D01*
X0554000Y0121989D02*
X0544667Y0121989D01*
X0546265Y0120390D02*
X0554000Y0120390D01*
X0554000Y0118792D02*
X0547864Y0118792D01*
X0549463Y0117193D02*
X0554000Y0117193D01*
X0554000Y0115595D02*
X0551061Y0115595D01*
X0552660Y0113996D02*
X0554000Y0113996D01*
X0554000Y0128383D02*
X0538273Y0128383D01*
X0536674Y0129981D02*
X0554000Y0129981D01*
X0554000Y0131580D02*
X0535076Y0131580D01*
X0533477Y0133178D02*
X0554000Y0133178D01*
X0554000Y0134777D02*
X0531879Y0134777D01*
X0530280Y0136375D02*
X0554000Y0136375D01*
X0559600Y0161952D02*
X0644800Y0161952D01*
X0644800Y0163550D02*
X0559600Y0163550D01*
X0559600Y0165149D02*
X0644800Y0165149D01*
X0644800Y0166747D02*
X0633965Y0166747D01*
X0633114Y0165896D02*
X0637800Y0170582D01*
X0637800Y0177210D01*
X0633114Y0181896D01*
X0626486Y0181896D01*
X0621800Y0177210D01*
X0621800Y0170582D01*
X0626486Y0165896D01*
X0633114Y0165896D01*
X0635563Y0168346D02*
X0644800Y0168346D01*
X0644800Y0169944D02*
X0637162Y0169944D01*
X0637800Y0171543D02*
X0644800Y0171543D01*
X0644800Y0173141D02*
X0637800Y0173141D01*
X0637800Y0174740D02*
X0644800Y0174740D01*
X0644800Y0176338D02*
X0637800Y0176338D01*
X0637073Y0177937D02*
X0644800Y0177937D01*
X0644800Y0179535D02*
X0635474Y0179535D01*
X0633876Y0181134D02*
X0644800Y0181134D01*
X0644800Y0182732D02*
X0559600Y0182732D01*
X0559600Y0181134D02*
X0625724Y0181134D01*
X0624126Y0179535D02*
X0559600Y0179535D01*
X0559600Y0177937D02*
X0622527Y0177937D01*
X0621800Y0176338D02*
X0559600Y0176338D01*
X0559600Y0174740D02*
X0621800Y0174740D01*
X0621800Y0173141D02*
X0559600Y0173141D01*
X0559600Y0171543D02*
X0621800Y0171543D01*
X0622438Y0169944D02*
X0559600Y0169944D01*
X0559600Y0168346D02*
X0624037Y0168346D01*
X0625635Y0166747D02*
X0559600Y0166747D01*
X0559600Y0184331D02*
X0644800Y0184331D01*
X0644800Y0185929D02*
X0559600Y0185929D01*
X0559600Y0187528D02*
X0644800Y0187528D01*
X0644800Y0189126D02*
X0559600Y0189126D01*
X0559600Y0190725D02*
X0644800Y0190725D01*
X0644800Y0192323D02*
X0559600Y0192323D01*
X0559600Y0193922D02*
X0625460Y0193922D01*
X0626486Y0192896D02*
X0633114Y0192896D01*
X0637800Y0197582D01*
X0637800Y0204210D01*
X0633114Y0208896D01*
X0626486Y0208896D01*
X0621800Y0204210D01*
X0621800Y0197582D01*
X0626486Y0192896D01*
X0623862Y0195520D02*
X0559600Y0195520D01*
X0559600Y0197119D02*
X0622263Y0197119D01*
X0621800Y0198717D02*
X0559600Y0198717D01*
X0559600Y0200316D02*
X0621800Y0200316D01*
X0621800Y0201914D02*
X0559600Y0201914D01*
X0559600Y0203513D02*
X0621800Y0203513D01*
X0622702Y0205111D02*
X0559600Y0205111D01*
X0559600Y0206710D02*
X0624300Y0206710D01*
X0625899Y0208308D02*
X0559600Y0208308D01*
X0559600Y0209907D02*
X0644800Y0209907D01*
X0644800Y0208308D02*
X0633701Y0208308D01*
X0635300Y0206710D02*
X0644800Y0206710D01*
X0644800Y0205111D02*
X0636898Y0205111D01*
X0637800Y0203513D02*
X0644800Y0203513D01*
X0644800Y0201914D02*
X0637800Y0201914D01*
X0637800Y0200316D02*
X0644800Y0200316D01*
X0644800Y0198717D02*
X0637800Y0198717D01*
X0637337Y0197119D02*
X0644800Y0197119D01*
X0644800Y0195520D02*
X0635738Y0195520D01*
X0634140Y0193922D02*
X0644800Y0193922D01*
X0644800Y0211506D02*
X0559600Y0211506D01*
X0559600Y0213104D02*
X0644800Y0213104D01*
X0644800Y0214703D02*
X0559600Y0214703D01*
X0559600Y0216301D02*
X0644800Y0216301D01*
X0644800Y0217900D02*
X0559600Y0217900D01*
X0559600Y0219498D02*
X0644800Y0219498D01*
X0644800Y0221097D02*
X0559600Y0221097D01*
X0559600Y0222695D02*
X0644800Y0222695D01*
X0644800Y0224294D02*
X0559600Y0224294D01*
X0559600Y0225892D02*
X0644800Y0225892D01*
X0644800Y0227491D02*
X0559600Y0227491D01*
X0559600Y0229089D02*
X0644800Y0229089D01*
X0644800Y0230688D02*
X0559600Y0230688D01*
X0559600Y0232286D02*
X0644800Y0232286D01*
X0644800Y0233885D02*
X0559600Y0233885D01*
X0559600Y0235483D02*
X0644800Y0235483D01*
X0644800Y0237082D02*
X0559600Y0237082D01*
X0559600Y0238680D02*
X0644800Y0238680D01*
X0644800Y0240279D02*
X0559600Y0240279D01*
X0559600Y0241877D02*
X0644800Y0241877D01*
X0644800Y0243476D02*
X0559600Y0243476D01*
X0559600Y0245074D02*
X0644800Y0245074D01*
X0644800Y0246673D02*
X0559600Y0246673D01*
X0559600Y0248271D02*
X0644800Y0248271D01*
X0644800Y0249870D02*
X0559600Y0249870D01*
X0560663Y0251468D02*
X0644800Y0251468D01*
X0644800Y0253067D02*
X0560781Y0253067D01*
X0560781Y0254665D02*
X0644800Y0254665D01*
X0644800Y0256264D02*
X0560781Y0256264D01*
X0560124Y0257862D02*
X0644800Y0257862D01*
X0644800Y0259461D02*
X0559600Y0259461D01*
X0559600Y0261059D02*
X0644800Y0261059D01*
X0644800Y0262658D02*
X0559600Y0262658D01*
X0559600Y0264256D02*
X0644800Y0264256D01*
X0644800Y0265855D02*
X0559600Y0265855D01*
X0559600Y0267453D02*
X0644800Y0267453D01*
X0644800Y0269052D02*
X0559600Y0269052D01*
X0559600Y0270650D02*
X0644800Y0270650D01*
X0644800Y0272249D02*
X0559600Y0272249D01*
X0559600Y0273847D02*
X0644800Y0273847D01*
X0644800Y0275446D02*
X0559600Y0275446D01*
X0559600Y0277044D02*
X0644800Y0277044D01*
X0644800Y0278643D02*
X0559600Y0278643D01*
X0559600Y0280241D02*
X0644800Y0280241D01*
X0644800Y0281840D02*
X0559600Y0281840D01*
X0559600Y0283439D02*
X0644800Y0283439D01*
X0644800Y0285037D02*
X0559600Y0285037D01*
X0579986Y0304896D02*
X0586614Y0304896D01*
X0591300Y0309582D01*
X0591300Y0316210D01*
X0586614Y0320896D01*
X0579986Y0320896D01*
X0575300Y0316210D01*
X0575300Y0309582D01*
X0579986Y0304896D01*
X0579065Y0305818D02*
X0566535Y0305818D01*
X0568134Y0307416D02*
X0577466Y0307416D01*
X0575868Y0309015D02*
X0569732Y0309015D01*
X0570300Y0310613D02*
X0575300Y0310613D01*
X0575300Y0312212D02*
X0570300Y0312212D01*
X0570300Y0313810D02*
X0575300Y0313810D01*
X0575300Y0315409D02*
X0570300Y0315409D01*
X0569502Y0317007D02*
X0576098Y0317007D01*
X0577696Y0318606D02*
X0567904Y0318606D01*
X0566305Y0320204D02*
X0579295Y0320204D01*
X0587305Y0320204D02*
X0598795Y0320204D01*
X0599486Y0320896D02*
X0594800Y0316210D01*
X0594800Y0309582D01*
X0599486Y0304896D01*
X0606114Y0304896D01*
X0610800Y0309582D01*
X0610800Y0316210D01*
X0606114Y0320896D01*
X0599486Y0320896D01*
X0597196Y0318606D02*
X0588904Y0318606D01*
X0590502Y0317007D02*
X0595598Y0317007D01*
X0594800Y0315409D02*
X0591300Y0315409D01*
X0591300Y0313810D02*
X0594800Y0313810D01*
X0594800Y0312212D02*
X0591300Y0312212D01*
X0591300Y0310613D02*
X0594800Y0310613D01*
X0595368Y0309015D02*
X0590732Y0309015D01*
X0589134Y0307416D02*
X0596966Y0307416D01*
X0598565Y0305818D02*
X0587535Y0305818D01*
X0607035Y0305818D02*
X0617065Y0305818D01*
X0618486Y0304396D02*
X0625114Y0304396D01*
X0629800Y0309082D01*
X0629800Y0315710D01*
X0625114Y0320396D01*
X0618486Y0320396D01*
X0613800Y0315710D01*
X0613800Y0309082D01*
X0618486Y0304396D01*
X0615466Y0307416D02*
X0608634Y0307416D01*
X0610232Y0309015D02*
X0613868Y0309015D01*
X0613800Y0310613D02*
X0610800Y0310613D01*
X0610800Y0312212D02*
X0613800Y0312212D01*
X0613800Y0313810D02*
X0610800Y0313810D01*
X0610800Y0315409D02*
X0613800Y0315409D01*
X0615098Y0317007D02*
X0610002Y0317007D01*
X0608404Y0318606D02*
X0616696Y0318606D01*
X0618295Y0320204D02*
X0606805Y0320204D01*
X0625305Y0320204D02*
X0644800Y0320204D01*
X0644800Y0318606D02*
X0626904Y0318606D01*
X0628502Y0317007D02*
X0644800Y0317007D01*
X0644800Y0315409D02*
X0629800Y0315409D01*
X0629800Y0313810D02*
X0644800Y0313810D01*
X0644800Y0312212D02*
X0629800Y0312212D01*
X0629800Y0310613D02*
X0644800Y0310613D01*
X0644800Y0309015D02*
X0629732Y0309015D01*
X0628134Y0307416D02*
X0644800Y0307416D01*
X0644800Y0305818D02*
X0626535Y0305818D01*
X0623489Y0337788D02*
X0644800Y0337788D01*
X0644800Y0339386D02*
X0622457Y0339386D01*
X0620404Y0340985D02*
X0644800Y0340985D01*
X0644800Y0361766D02*
X0511129Y0361766D01*
X0512728Y0363364D02*
X0644800Y0363364D01*
X0644800Y0364963D02*
X0514326Y0364963D01*
X0504808Y0363364D02*
X0346146Y0363364D01*
X0347744Y0361766D02*
X0503210Y0361766D01*
X0490819Y0360167D02*
X0348800Y0360167D01*
X0348800Y0358569D02*
X0490819Y0358569D01*
X0497968Y0353773D02*
X0590564Y0353773D01*
X0600699Y0348977D02*
X0602295Y0348977D01*
X0602588Y0350576D02*
X0604223Y0350576D01*
X0603560Y0352175D02*
X0611040Y0352175D01*
X0610564Y0353773D02*
X0604036Y0353773D01*
X0603810Y0356970D02*
X0610790Y0356970D01*
X0611539Y0358569D02*
X0603061Y0358569D01*
X0601642Y0360167D02*
X0612958Y0360167D01*
X0612012Y0350576D02*
X0610377Y0350576D01*
X0610788Y0339386D02*
X0612143Y0339386D01*
X0529328Y0315409D02*
X0511281Y0315409D01*
X0511281Y0317007D02*
X0527729Y0317007D01*
X0503800Y0306896D02*
X0457300Y0306896D01*
X0455459Y0309015D02*
X0441141Y0309015D01*
X0442740Y0307416D02*
X0453860Y0307416D01*
X0452262Y0305818D02*
X0444338Y0305818D01*
X0445783Y0304219D02*
X0450663Y0304219D01*
X0449065Y0302621D02*
X0446100Y0302621D01*
X0446134Y0301022D02*
X0447466Y0301022D01*
X0441714Y0297522D02*
X0441714Y0297522D01*
X0494039Y0328197D02*
X0325389Y0328197D01*
X0295597Y0347379D02*
X0477319Y0347379D01*
X0293919Y0398531D02*
X0289681Y0398531D01*
X0291253Y0396933D02*
X0292347Y0396933D01*
X0283919Y0398531D02*
X0279681Y0398531D01*
X0281253Y0396933D02*
X0282347Y0396933D01*
X0271980Y0385743D02*
X0271417Y0385743D01*
X0270320Y0384145D02*
X0272997Y0384145D01*
X0274000Y0382546D02*
X0259600Y0382546D01*
X0259600Y0380948D02*
X0265552Y0380948D01*
X0266600Y0380948D02*
X0267000Y0380948D01*
X0268048Y0380948D02*
X0274000Y0380948D01*
X0272699Y0379349D02*
X0270617Y0379349D01*
X0271520Y0377751D02*
X0271857Y0377751D01*
X0267000Y0377751D02*
X0266600Y0377751D01*
X0266600Y0379349D02*
X0267000Y0379349D01*
X0267000Y0376152D02*
X0266600Y0376152D01*
X0266600Y0374554D02*
X0267000Y0374554D01*
X0267000Y0372696D02*
X0267000Y0364696D01*
X0267194Y0364696D01*
X0267971Y0364819D01*
X0268719Y0365062D01*
X0269421Y0365420D01*
X0270057Y0365882D01*
X0270614Y0366439D01*
X0271076Y0367075D01*
X0271434Y0367777D01*
X0271668Y0368498D01*
X0272392Y0366750D01*
X0273854Y0365288D01*
X0274000Y0365227D01*
X0274000Y0359896D01*
X0268486Y0359896D01*
X0263800Y0355210D01*
X0263800Y0348582D01*
X0267686Y0344696D01*
X0257060Y0344696D01*
X0258386Y0346022D01*
X0259174Y0346810D01*
X0259600Y0347839D01*
X0259600Y0365227D01*
X0259746Y0365288D01*
X0261208Y0366750D01*
X0261932Y0368498D01*
X0262166Y0367777D01*
X0262524Y0367075D01*
X0262986Y0366439D01*
X0263543Y0365882D01*
X0264179Y0365420D01*
X0264881Y0365062D01*
X0265629Y0364819D01*
X0266406Y0364696D01*
X0266600Y0364696D01*
X0266600Y0372696D01*
X0267000Y0372696D01*
X0267000Y0371357D02*
X0266600Y0371357D01*
X0266600Y0369758D02*
X0267000Y0369758D01*
X0267000Y0368160D02*
X0266600Y0368160D01*
X0266600Y0366561D02*
X0267000Y0366561D01*
X0267000Y0364963D02*
X0266600Y0364963D01*
X0265188Y0364963D02*
X0259600Y0364963D01*
X0259600Y0363364D02*
X0274000Y0363364D01*
X0274000Y0361766D02*
X0259600Y0361766D01*
X0259600Y0360167D02*
X0274000Y0360167D01*
X0274000Y0364963D02*
X0268412Y0364963D01*
X0270703Y0366561D02*
X0272581Y0366561D01*
X0271808Y0368160D02*
X0271558Y0368160D01*
X0262897Y0366561D02*
X0261019Y0366561D01*
X0261792Y0368160D02*
X0262042Y0368160D01*
X0254000Y0364963D02*
X0150300Y0364963D01*
X0150300Y0363364D02*
X0254000Y0363364D01*
X0254000Y0361766D02*
X0150300Y0361766D01*
X0150300Y0360167D02*
X0254000Y0360167D01*
X0254000Y0358569D02*
X0150286Y0358569D01*
X0148688Y0356970D02*
X0254000Y0356970D01*
X0254000Y0355372D02*
X0147089Y0355372D01*
X0148949Y0366561D02*
X0252581Y0366561D01*
X0251808Y0368160D02*
X0147350Y0368160D01*
X0145752Y0369758D02*
X0179319Y0369758D01*
X0183300Y0372396D02*
X0183300Y0386896D01*
X0186100Y0382546D02*
X0190319Y0382546D01*
X0190958Y0380948D02*
X0186100Y0380948D01*
X0186100Y0379349D02*
X0222556Y0379349D01*
X0229044Y0379349D02*
X0252699Y0379349D01*
X0251857Y0377751D02*
X0186100Y0377751D01*
X0186334Y0376152D02*
X0251600Y0376152D01*
X0251600Y0374554D02*
X0187281Y0374554D01*
X0187281Y0372955D02*
X0251600Y0372955D01*
X0251600Y0371357D02*
X0187281Y0371357D01*
X0187281Y0369758D02*
X0251600Y0369758D01*
X0261743Y0377751D02*
X0262080Y0377751D01*
X0262983Y0379349D02*
X0260901Y0379349D01*
X0254000Y0380948D02*
X0229781Y0380948D01*
X0229781Y0382546D02*
X0254000Y0382546D01*
X0252997Y0384145D02*
X0229781Y0384145D01*
X0229743Y0385743D02*
X0251980Y0385743D01*
X0259600Y0358569D02*
X0267159Y0358569D01*
X0265560Y0356970D02*
X0259600Y0356970D01*
X0259600Y0355372D02*
X0263962Y0355372D01*
X0263800Y0353773D02*
X0259600Y0353773D01*
X0259600Y0352175D02*
X0263800Y0352175D01*
X0263800Y0350576D02*
X0259600Y0350576D01*
X0259600Y0348977D02*
X0263800Y0348977D01*
X0265003Y0347379D02*
X0259409Y0347379D01*
X0258144Y0345780D02*
X0266602Y0345780D01*
X0363055Y0214703D02*
X0365545Y0214703D01*
D21*
X0389300Y0161896D03*
X0409800Y0146396D03*
X0376300Y0117896D03*
X0335800Y0119396D03*
X0338300Y0134396D03*
X0302800Y0138396D03*
X0270300Y0128396D03*
X0225300Y0106896D03*
X0216300Y0103396D03*
X0257300Y0084896D03*
X0258300Y0063396D03*
X0218800Y0055396D03*
X0218800Y0032396D03*
X0240300Y0024896D03*
X0250300Y0031896D03*
X0275800Y0025396D03*
X0325800Y0057396D03*
X0327800Y0025896D03*
X0341300Y0026396D03*
X0409800Y0035896D03*
X0415300Y0025896D03*
X0416800Y0063396D03*
X0408300Y0086896D03*
X0374300Y0083396D03*
X0447300Y0089396D03*
X0462800Y0082896D03*
X0500800Y0067396D03*
X0510300Y0069396D03*
X0563300Y0081896D03*
X0469300Y0143396D03*
X0556800Y0254396D03*
X0507300Y0314396D03*
X0528800Y0325396D03*
X0481300Y0344896D03*
X0494800Y0357396D03*
X0459300Y0340396D03*
X0422300Y0323896D03*
X0414300Y0309396D03*
X0369800Y0302396D03*
X0411300Y0339896D03*
X0370800Y0374396D03*
X0399300Y0376896D03*
X0417300Y0389396D03*
X0336800Y0395896D03*
X0279800Y0341896D03*
X0217300Y0347396D03*
X0183300Y0372396D03*
X0194300Y0384396D03*
X0225800Y0382896D03*
X0513800Y0387896D03*
X0581800Y0328896D03*
X0476800Y0015396D03*
D22*
X0396800Y0374396D02*
X0370800Y0374396D01*
X0373370Y0377344D02*
X0382168Y0377344D01*
X0382524Y0377196D02*
X0384076Y0377196D01*
X0385509Y0377790D01*
X0386606Y0378887D01*
X0387200Y0380320D01*
X0387200Y0387472D01*
X0386606Y0388905D01*
X0385509Y0390002D01*
X0384076Y0390596D01*
X0382524Y0390596D01*
X0381091Y0390002D01*
X0379994Y0388905D01*
X0379400Y0387472D01*
X0379400Y0380320D01*
X0379994Y0378887D01*
X0381091Y0377790D01*
X0382524Y0377196D01*
X0384432Y0377344D02*
X0392168Y0377344D01*
X0392524Y0377196D02*
X0394076Y0377196D01*
X0395509Y0377790D01*
X0396219Y0378500D01*
X0396219Y0376896D01*
X0373818Y0376896D01*
X0373300Y0377414D01*
X0373300Y0403696D01*
X0404800Y0403696D01*
X0404800Y0376896D01*
X0402381Y0376896D01*
X0402381Y0379333D01*
X0401737Y0379977D01*
X0397058Y0379977D01*
X0397200Y0380320D01*
X0397200Y0387472D01*
X0396606Y0388905D01*
X0395509Y0390002D01*
X0394076Y0390596D01*
X0392524Y0390596D01*
X0391091Y0390002D01*
X0389994Y0388905D01*
X0389400Y0387472D01*
X0389400Y0380320D01*
X0389994Y0378887D01*
X0391091Y0377790D01*
X0392524Y0377196D01*
X0394432Y0377344D02*
X0396219Y0377344D01*
X0396219Y0378342D02*
X0396062Y0378342D01*
X0397200Y0380339D02*
X0404800Y0380339D01*
X0404800Y0379341D02*
X0402373Y0379341D01*
X0402381Y0378342D02*
X0404800Y0378342D01*
X0404800Y0377344D02*
X0402381Y0377344D01*
X0399300Y0376896D02*
X0396800Y0374396D01*
X0390538Y0378342D02*
X0386062Y0378342D01*
X0386794Y0379341D02*
X0389806Y0379341D01*
X0389400Y0380339D02*
X0387200Y0380339D01*
X0387200Y0381338D02*
X0389400Y0381338D01*
X0389400Y0382336D02*
X0387200Y0382336D01*
X0387200Y0383335D02*
X0389400Y0383335D01*
X0389400Y0384333D02*
X0387200Y0384333D01*
X0387200Y0385332D02*
X0389400Y0385332D01*
X0389400Y0386330D02*
X0387200Y0386330D01*
X0387200Y0387329D02*
X0389400Y0387329D01*
X0389754Y0388327D02*
X0386846Y0388327D01*
X0386186Y0389326D02*
X0390414Y0389326D01*
X0391868Y0390324D02*
X0384732Y0390324D01*
X0381868Y0390324D02*
X0373300Y0390324D01*
X0373300Y0389326D02*
X0380414Y0389326D01*
X0379754Y0388327D02*
X0373300Y0388327D01*
X0373300Y0387329D02*
X0379400Y0387329D01*
X0379400Y0386330D02*
X0373300Y0386330D01*
X0373300Y0385332D02*
X0379400Y0385332D01*
X0379400Y0384333D02*
X0373300Y0384333D01*
X0373300Y0383335D02*
X0379400Y0383335D01*
X0379400Y0382336D02*
X0373300Y0382336D01*
X0373300Y0381338D02*
X0379400Y0381338D01*
X0379400Y0380339D02*
X0373300Y0380339D01*
X0373300Y0379341D02*
X0379806Y0379341D01*
X0380538Y0378342D02*
X0373300Y0378342D01*
X0373300Y0391323D02*
X0404800Y0391323D01*
X0404800Y0392321D02*
X0373300Y0392321D01*
X0373300Y0393320D02*
X0404800Y0393320D01*
X0404800Y0394318D02*
X0373300Y0394318D01*
X0373300Y0395317D02*
X0404800Y0395317D01*
X0404800Y0396315D02*
X0373300Y0396315D01*
X0373300Y0397314D02*
X0404800Y0397314D01*
X0404800Y0398312D02*
X0373300Y0398312D01*
X0373300Y0399311D02*
X0404800Y0399311D01*
X0404800Y0400310D02*
X0373300Y0400310D01*
X0373300Y0401308D02*
X0404800Y0401308D01*
X0404800Y0402307D02*
X0373300Y0402307D01*
X0373300Y0403305D02*
X0404800Y0403305D01*
X0404800Y0390324D02*
X0394732Y0390324D01*
X0396186Y0389326D02*
X0404800Y0389326D01*
X0404800Y0388327D02*
X0396846Y0388327D01*
X0397200Y0387329D02*
X0404800Y0387329D01*
X0404800Y0386330D02*
X0397200Y0386330D01*
X0397200Y0385332D02*
X0404800Y0385332D01*
X0404800Y0384333D02*
X0397200Y0384333D01*
X0397200Y0383335D02*
X0404800Y0383335D01*
X0404800Y0382336D02*
X0397200Y0382336D01*
X0397200Y0381338D02*
X0404800Y0381338D01*
M02*
