G75*
%MOIN*%
%OFA0B0*%
%FSLAX25Y25*%
%IPPOS*%
%LPD*%
%AMOC8*
5,1,8,0,0,1.08239X$1,22.5*
%
%ADD10C,0.00000*%
%ADD11C,0.00800*%
%ADD12C,0.00600*%
%ADD13C,0.00500*%
%ADD14C,0.01200*%
%ADD15C,0.00700*%
%ADD16C,0.00400*%
D10*
X0006800Y0006896D02*
X0006800Y0405396D01*
X0448300Y0405396D01*
X0448300Y0006896D01*
X0006800Y0006896D01*
X0012800Y0089396D02*
X0012802Y0089568D01*
X0012808Y0089739D01*
X0012819Y0089911D01*
X0012834Y0090082D01*
X0012853Y0090253D01*
X0012876Y0090423D01*
X0012903Y0090593D01*
X0012935Y0090762D01*
X0012970Y0090930D01*
X0013010Y0091097D01*
X0013054Y0091263D01*
X0013101Y0091428D01*
X0013153Y0091592D01*
X0013209Y0091754D01*
X0013269Y0091915D01*
X0013333Y0092075D01*
X0013401Y0092233D01*
X0013472Y0092389D01*
X0013547Y0092543D01*
X0013627Y0092696D01*
X0013709Y0092846D01*
X0013796Y0092995D01*
X0013886Y0093141D01*
X0013980Y0093285D01*
X0014077Y0093427D01*
X0014178Y0093566D01*
X0014282Y0093703D01*
X0014389Y0093837D01*
X0014500Y0093968D01*
X0014613Y0094097D01*
X0014730Y0094223D01*
X0014850Y0094346D01*
X0014973Y0094466D01*
X0015099Y0094583D01*
X0015228Y0094696D01*
X0015359Y0094807D01*
X0015493Y0094914D01*
X0015630Y0095018D01*
X0015769Y0095119D01*
X0015911Y0095216D01*
X0016055Y0095310D01*
X0016201Y0095400D01*
X0016350Y0095487D01*
X0016500Y0095569D01*
X0016653Y0095649D01*
X0016807Y0095724D01*
X0016963Y0095795D01*
X0017121Y0095863D01*
X0017281Y0095927D01*
X0017442Y0095987D01*
X0017604Y0096043D01*
X0017768Y0096095D01*
X0017933Y0096142D01*
X0018099Y0096186D01*
X0018266Y0096226D01*
X0018434Y0096261D01*
X0018603Y0096293D01*
X0018773Y0096320D01*
X0018943Y0096343D01*
X0019114Y0096362D01*
X0019285Y0096377D01*
X0019457Y0096388D01*
X0019628Y0096394D01*
X0019800Y0096396D01*
X0019972Y0096394D01*
X0020143Y0096388D01*
X0020315Y0096377D01*
X0020486Y0096362D01*
X0020657Y0096343D01*
X0020827Y0096320D01*
X0020997Y0096293D01*
X0021166Y0096261D01*
X0021334Y0096226D01*
X0021501Y0096186D01*
X0021667Y0096142D01*
X0021832Y0096095D01*
X0021996Y0096043D01*
X0022158Y0095987D01*
X0022319Y0095927D01*
X0022479Y0095863D01*
X0022637Y0095795D01*
X0022793Y0095724D01*
X0022947Y0095649D01*
X0023100Y0095569D01*
X0023250Y0095487D01*
X0023399Y0095400D01*
X0023545Y0095310D01*
X0023689Y0095216D01*
X0023831Y0095119D01*
X0023970Y0095018D01*
X0024107Y0094914D01*
X0024241Y0094807D01*
X0024372Y0094696D01*
X0024501Y0094583D01*
X0024627Y0094466D01*
X0024750Y0094346D01*
X0024870Y0094223D01*
X0024987Y0094097D01*
X0025100Y0093968D01*
X0025211Y0093837D01*
X0025318Y0093703D01*
X0025422Y0093566D01*
X0025523Y0093427D01*
X0025620Y0093285D01*
X0025714Y0093141D01*
X0025804Y0092995D01*
X0025891Y0092846D01*
X0025973Y0092696D01*
X0026053Y0092543D01*
X0026128Y0092389D01*
X0026199Y0092233D01*
X0026267Y0092075D01*
X0026331Y0091915D01*
X0026391Y0091754D01*
X0026447Y0091592D01*
X0026499Y0091428D01*
X0026546Y0091263D01*
X0026590Y0091097D01*
X0026630Y0090930D01*
X0026665Y0090762D01*
X0026697Y0090593D01*
X0026724Y0090423D01*
X0026747Y0090253D01*
X0026766Y0090082D01*
X0026781Y0089911D01*
X0026792Y0089739D01*
X0026798Y0089568D01*
X0026800Y0089396D01*
X0026798Y0089224D01*
X0026792Y0089053D01*
X0026781Y0088881D01*
X0026766Y0088710D01*
X0026747Y0088539D01*
X0026724Y0088369D01*
X0026697Y0088199D01*
X0026665Y0088030D01*
X0026630Y0087862D01*
X0026590Y0087695D01*
X0026546Y0087529D01*
X0026499Y0087364D01*
X0026447Y0087200D01*
X0026391Y0087038D01*
X0026331Y0086877D01*
X0026267Y0086717D01*
X0026199Y0086559D01*
X0026128Y0086403D01*
X0026053Y0086249D01*
X0025973Y0086096D01*
X0025891Y0085946D01*
X0025804Y0085797D01*
X0025714Y0085651D01*
X0025620Y0085507D01*
X0025523Y0085365D01*
X0025422Y0085226D01*
X0025318Y0085089D01*
X0025211Y0084955D01*
X0025100Y0084824D01*
X0024987Y0084695D01*
X0024870Y0084569D01*
X0024750Y0084446D01*
X0024627Y0084326D01*
X0024501Y0084209D01*
X0024372Y0084096D01*
X0024241Y0083985D01*
X0024107Y0083878D01*
X0023970Y0083774D01*
X0023831Y0083673D01*
X0023689Y0083576D01*
X0023545Y0083482D01*
X0023399Y0083392D01*
X0023250Y0083305D01*
X0023100Y0083223D01*
X0022947Y0083143D01*
X0022793Y0083068D01*
X0022637Y0082997D01*
X0022479Y0082929D01*
X0022319Y0082865D01*
X0022158Y0082805D01*
X0021996Y0082749D01*
X0021832Y0082697D01*
X0021667Y0082650D01*
X0021501Y0082606D01*
X0021334Y0082566D01*
X0021166Y0082531D01*
X0020997Y0082499D01*
X0020827Y0082472D01*
X0020657Y0082449D01*
X0020486Y0082430D01*
X0020315Y0082415D01*
X0020143Y0082404D01*
X0019972Y0082398D01*
X0019800Y0082396D01*
X0019628Y0082398D01*
X0019457Y0082404D01*
X0019285Y0082415D01*
X0019114Y0082430D01*
X0018943Y0082449D01*
X0018773Y0082472D01*
X0018603Y0082499D01*
X0018434Y0082531D01*
X0018266Y0082566D01*
X0018099Y0082606D01*
X0017933Y0082650D01*
X0017768Y0082697D01*
X0017604Y0082749D01*
X0017442Y0082805D01*
X0017281Y0082865D01*
X0017121Y0082929D01*
X0016963Y0082997D01*
X0016807Y0083068D01*
X0016653Y0083143D01*
X0016500Y0083223D01*
X0016350Y0083305D01*
X0016201Y0083392D01*
X0016055Y0083482D01*
X0015911Y0083576D01*
X0015769Y0083673D01*
X0015630Y0083774D01*
X0015493Y0083878D01*
X0015359Y0083985D01*
X0015228Y0084096D01*
X0015099Y0084209D01*
X0014973Y0084326D01*
X0014850Y0084446D01*
X0014730Y0084569D01*
X0014613Y0084695D01*
X0014500Y0084824D01*
X0014389Y0084955D01*
X0014282Y0085089D01*
X0014178Y0085226D01*
X0014077Y0085365D01*
X0013980Y0085507D01*
X0013886Y0085651D01*
X0013796Y0085797D01*
X0013709Y0085946D01*
X0013627Y0086096D01*
X0013547Y0086249D01*
X0013472Y0086403D01*
X0013401Y0086559D01*
X0013333Y0086717D01*
X0013269Y0086877D01*
X0013209Y0087038D01*
X0013153Y0087200D01*
X0013101Y0087364D01*
X0013054Y0087529D01*
X0013010Y0087695D01*
X0012970Y0087862D01*
X0012935Y0088030D01*
X0012903Y0088199D01*
X0012876Y0088369D01*
X0012853Y0088539D01*
X0012834Y0088710D01*
X0012819Y0088881D01*
X0012808Y0089053D01*
X0012802Y0089224D01*
X0012800Y0089396D01*
X0086312Y0247916D02*
X0086314Y0248047D01*
X0086320Y0248179D01*
X0086330Y0248310D01*
X0086344Y0248441D01*
X0086362Y0248571D01*
X0086384Y0248700D01*
X0086409Y0248829D01*
X0086439Y0248957D01*
X0086473Y0249084D01*
X0086510Y0249211D01*
X0086551Y0249335D01*
X0086596Y0249459D01*
X0086645Y0249581D01*
X0086697Y0249702D01*
X0086753Y0249820D01*
X0086813Y0249938D01*
X0086876Y0250053D01*
X0086943Y0250166D01*
X0087013Y0250278D01*
X0087086Y0250387D01*
X0087162Y0250493D01*
X0087242Y0250598D01*
X0087325Y0250700D01*
X0087411Y0250799D01*
X0087500Y0250896D01*
X0087592Y0250990D01*
X0087687Y0251081D01*
X0087784Y0251170D01*
X0087884Y0251255D01*
X0087987Y0251337D01*
X0088092Y0251416D01*
X0088199Y0251492D01*
X0088309Y0251564D01*
X0088421Y0251633D01*
X0088535Y0251699D01*
X0088650Y0251761D01*
X0088768Y0251820D01*
X0088887Y0251875D01*
X0089008Y0251927D01*
X0089131Y0251974D01*
X0089255Y0252018D01*
X0089380Y0252059D01*
X0089506Y0252095D01*
X0089634Y0252128D01*
X0089762Y0252156D01*
X0089891Y0252181D01*
X0090021Y0252202D01*
X0090151Y0252219D01*
X0090282Y0252232D01*
X0090413Y0252241D01*
X0090544Y0252246D01*
X0090676Y0252247D01*
X0090807Y0252244D01*
X0090939Y0252237D01*
X0091070Y0252226D01*
X0091200Y0252211D01*
X0091330Y0252192D01*
X0091460Y0252169D01*
X0091588Y0252143D01*
X0091716Y0252112D01*
X0091843Y0252077D01*
X0091969Y0252039D01*
X0092093Y0251997D01*
X0092217Y0251951D01*
X0092338Y0251901D01*
X0092458Y0251848D01*
X0092577Y0251791D01*
X0092694Y0251731D01*
X0092808Y0251667D01*
X0092921Y0251599D01*
X0093032Y0251528D01*
X0093141Y0251454D01*
X0093247Y0251377D01*
X0093351Y0251296D01*
X0093452Y0251213D01*
X0093551Y0251126D01*
X0093647Y0251036D01*
X0093740Y0250943D01*
X0093831Y0250848D01*
X0093918Y0250750D01*
X0094003Y0250649D01*
X0094084Y0250546D01*
X0094162Y0250440D01*
X0094237Y0250332D01*
X0094309Y0250222D01*
X0094377Y0250110D01*
X0094442Y0249996D01*
X0094503Y0249879D01*
X0094561Y0249761D01*
X0094615Y0249641D01*
X0094666Y0249520D01*
X0094713Y0249397D01*
X0094756Y0249273D01*
X0094795Y0249148D01*
X0094831Y0249021D01*
X0094862Y0248893D01*
X0094890Y0248765D01*
X0094914Y0248636D01*
X0094934Y0248506D01*
X0094950Y0248375D01*
X0094962Y0248244D01*
X0094970Y0248113D01*
X0094974Y0247982D01*
X0094974Y0247850D01*
X0094970Y0247719D01*
X0094962Y0247588D01*
X0094950Y0247457D01*
X0094934Y0247326D01*
X0094914Y0247196D01*
X0094890Y0247067D01*
X0094862Y0246939D01*
X0094831Y0246811D01*
X0094795Y0246684D01*
X0094756Y0246559D01*
X0094713Y0246435D01*
X0094666Y0246312D01*
X0094615Y0246191D01*
X0094561Y0246071D01*
X0094503Y0245953D01*
X0094442Y0245836D01*
X0094377Y0245722D01*
X0094309Y0245610D01*
X0094237Y0245500D01*
X0094162Y0245392D01*
X0094084Y0245286D01*
X0094003Y0245183D01*
X0093918Y0245082D01*
X0093831Y0244984D01*
X0093740Y0244889D01*
X0093647Y0244796D01*
X0093551Y0244706D01*
X0093452Y0244619D01*
X0093351Y0244536D01*
X0093247Y0244455D01*
X0093141Y0244378D01*
X0093032Y0244304D01*
X0092921Y0244233D01*
X0092809Y0244165D01*
X0092694Y0244101D01*
X0092577Y0244041D01*
X0092458Y0243984D01*
X0092338Y0243931D01*
X0092217Y0243881D01*
X0092093Y0243835D01*
X0091969Y0243793D01*
X0091843Y0243755D01*
X0091716Y0243720D01*
X0091588Y0243689D01*
X0091460Y0243663D01*
X0091330Y0243640D01*
X0091200Y0243621D01*
X0091070Y0243606D01*
X0090939Y0243595D01*
X0090807Y0243588D01*
X0090676Y0243585D01*
X0090544Y0243586D01*
X0090413Y0243591D01*
X0090282Y0243600D01*
X0090151Y0243613D01*
X0090021Y0243630D01*
X0089891Y0243651D01*
X0089762Y0243676D01*
X0089634Y0243704D01*
X0089506Y0243737D01*
X0089380Y0243773D01*
X0089255Y0243814D01*
X0089131Y0243858D01*
X0089008Y0243905D01*
X0088887Y0243957D01*
X0088768Y0244012D01*
X0088650Y0244071D01*
X0088535Y0244133D01*
X0088421Y0244199D01*
X0088309Y0244268D01*
X0088199Y0244340D01*
X0088092Y0244416D01*
X0087987Y0244495D01*
X0087884Y0244577D01*
X0087784Y0244662D01*
X0087687Y0244751D01*
X0087592Y0244842D01*
X0087500Y0244936D01*
X0087411Y0245033D01*
X0087325Y0245132D01*
X0087242Y0245234D01*
X0087162Y0245339D01*
X0087086Y0245445D01*
X0087013Y0245554D01*
X0086943Y0245666D01*
X0086876Y0245779D01*
X0086813Y0245894D01*
X0086753Y0246012D01*
X0086697Y0246130D01*
X0086645Y0246251D01*
X0086596Y0246373D01*
X0086551Y0246497D01*
X0086510Y0246621D01*
X0086473Y0246748D01*
X0086439Y0246875D01*
X0086409Y0247003D01*
X0086384Y0247132D01*
X0086362Y0247261D01*
X0086344Y0247391D01*
X0086330Y0247522D01*
X0086320Y0247653D01*
X0086314Y0247785D01*
X0086312Y0247916D01*
X0012800Y0282396D02*
X0012802Y0282568D01*
X0012808Y0282739D01*
X0012819Y0282911D01*
X0012834Y0283082D01*
X0012853Y0283253D01*
X0012876Y0283423D01*
X0012903Y0283593D01*
X0012935Y0283762D01*
X0012970Y0283930D01*
X0013010Y0284097D01*
X0013054Y0284263D01*
X0013101Y0284428D01*
X0013153Y0284592D01*
X0013209Y0284754D01*
X0013269Y0284915D01*
X0013333Y0285075D01*
X0013401Y0285233D01*
X0013472Y0285389D01*
X0013547Y0285543D01*
X0013627Y0285696D01*
X0013709Y0285846D01*
X0013796Y0285995D01*
X0013886Y0286141D01*
X0013980Y0286285D01*
X0014077Y0286427D01*
X0014178Y0286566D01*
X0014282Y0286703D01*
X0014389Y0286837D01*
X0014500Y0286968D01*
X0014613Y0287097D01*
X0014730Y0287223D01*
X0014850Y0287346D01*
X0014973Y0287466D01*
X0015099Y0287583D01*
X0015228Y0287696D01*
X0015359Y0287807D01*
X0015493Y0287914D01*
X0015630Y0288018D01*
X0015769Y0288119D01*
X0015911Y0288216D01*
X0016055Y0288310D01*
X0016201Y0288400D01*
X0016350Y0288487D01*
X0016500Y0288569D01*
X0016653Y0288649D01*
X0016807Y0288724D01*
X0016963Y0288795D01*
X0017121Y0288863D01*
X0017281Y0288927D01*
X0017442Y0288987D01*
X0017604Y0289043D01*
X0017768Y0289095D01*
X0017933Y0289142D01*
X0018099Y0289186D01*
X0018266Y0289226D01*
X0018434Y0289261D01*
X0018603Y0289293D01*
X0018773Y0289320D01*
X0018943Y0289343D01*
X0019114Y0289362D01*
X0019285Y0289377D01*
X0019457Y0289388D01*
X0019628Y0289394D01*
X0019800Y0289396D01*
X0019972Y0289394D01*
X0020143Y0289388D01*
X0020315Y0289377D01*
X0020486Y0289362D01*
X0020657Y0289343D01*
X0020827Y0289320D01*
X0020997Y0289293D01*
X0021166Y0289261D01*
X0021334Y0289226D01*
X0021501Y0289186D01*
X0021667Y0289142D01*
X0021832Y0289095D01*
X0021996Y0289043D01*
X0022158Y0288987D01*
X0022319Y0288927D01*
X0022479Y0288863D01*
X0022637Y0288795D01*
X0022793Y0288724D01*
X0022947Y0288649D01*
X0023100Y0288569D01*
X0023250Y0288487D01*
X0023399Y0288400D01*
X0023545Y0288310D01*
X0023689Y0288216D01*
X0023831Y0288119D01*
X0023970Y0288018D01*
X0024107Y0287914D01*
X0024241Y0287807D01*
X0024372Y0287696D01*
X0024501Y0287583D01*
X0024627Y0287466D01*
X0024750Y0287346D01*
X0024870Y0287223D01*
X0024987Y0287097D01*
X0025100Y0286968D01*
X0025211Y0286837D01*
X0025318Y0286703D01*
X0025422Y0286566D01*
X0025523Y0286427D01*
X0025620Y0286285D01*
X0025714Y0286141D01*
X0025804Y0285995D01*
X0025891Y0285846D01*
X0025973Y0285696D01*
X0026053Y0285543D01*
X0026128Y0285389D01*
X0026199Y0285233D01*
X0026267Y0285075D01*
X0026331Y0284915D01*
X0026391Y0284754D01*
X0026447Y0284592D01*
X0026499Y0284428D01*
X0026546Y0284263D01*
X0026590Y0284097D01*
X0026630Y0283930D01*
X0026665Y0283762D01*
X0026697Y0283593D01*
X0026724Y0283423D01*
X0026747Y0283253D01*
X0026766Y0283082D01*
X0026781Y0282911D01*
X0026792Y0282739D01*
X0026798Y0282568D01*
X0026800Y0282396D01*
X0026798Y0282224D01*
X0026792Y0282053D01*
X0026781Y0281881D01*
X0026766Y0281710D01*
X0026747Y0281539D01*
X0026724Y0281369D01*
X0026697Y0281199D01*
X0026665Y0281030D01*
X0026630Y0280862D01*
X0026590Y0280695D01*
X0026546Y0280529D01*
X0026499Y0280364D01*
X0026447Y0280200D01*
X0026391Y0280038D01*
X0026331Y0279877D01*
X0026267Y0279717D01*
X0026199Y0279559D01*
X0026128Y0279403D01*
X0026053Y0279249D01*
X0025973Y0279096D01*
X0025891Y0278946D01*
X0025804Y0278797D01*
X0025714Y0278651D01*
X0025620Y0278507D01*
X0025523Y0278365D01*
X0025422Y0278226D01*
X0025318Y0278089D01*
X0025211Y0277955D01*
X0025100Y0277824D01*
X0024987Y0277695D01*
X0024870Y0277569D01*
X0024750Y0277446D01*
X0024627Y0277326D01*
X0024501Y0277209D01*
X0024372Y0277096D01*
X0024241Y0276985D01*
X0024107Y0276878D01*
X0023970Y0276774D01*
X0023831Y0276673D01*
X0023689Y0276576D01*
X0023545Y0276482D01*
X0023399Y0276392D01*
X0023250Y0276305D01*
X0023100Y0276223D01*
X0022947Y0276143D01*
X0022793Y0276068D01*
X0022637Y0275997D01*
X0022479Y0275929D01*
X0022319Y0275865D01*
X0022158Y0275805D01*
X0021996Y0275749D01*
X0021832Y0275697D01*
X0021667Y0275650D01*
X0021501Y0275606D01*
X0021334Y0275566D01*
X0021166Y0275531D01*
X0020997Y0275499D01*
X0020827Y0275472D01*
X0020657Y0275449D01*
X0020486Y0275430D01*
X0020315Y0275415D01*
X0020143Y0275404D01*
X0019972Y0275398D01*
X0019800Y0275396D01*
X0019628Y0275398D01*
X0019457Y0275404D01*
X0019285Y0275415D01*
X0019114Y0275430D01*
X0018943Y0275449D01*
X0018773Y0275472D01*
X0018603Y0275499D01*
X0018434Y0275531D01*
X0018266Y0275566D01*
X0018099Y0275606D01*
X0017933Y0275650D01*
X0017768Y0275697D01*
X0017604Y0275749D01*
X0017442Y0275805D01*
X0017281Y0275865D01*
X0017121Y0275929D01*
X0016963Y0275997D01*
X0016807Y0276068D01*
X0016653Y0276143D01*
X0016500Y0276223D01*
X0016350Y0276305D01*
X0016201Y0276392D01*
X0016055Y0276482D01*
X0015911Y0276576D01*
X0015769Y0276673D01*
X0015630Y0276774D01*
X0015493Y0276878D01*
X0015359Y0276985D01*
X0015228Y0277096D01*
X0015099Y0277209D01*
X0014973Y0277326D01*
X0014850Y0277446D01*
X0014730Y0277569D01*
X0014613Y0277695D01*
X0014500Y0277824D01*
X0014389Y0277955D01*
X0014282Y0278089D01*
X0014178Y0278226D01*
X0014077Y0278365D01*
X0013980Y0278507D01*
X0013886Y0278651D01*
X0013796Y0278797D01*
X0013709Y0278946D01*
X0013627Y0279096D01*
X0013547Y0279249D01*
X0013472Y0279403D01*
X0013401Y0279559D01*
X0013333Y0279717D01*
X0013269Y0279877D01*
X0013209Y0280038D01*
X0013153Y0280200D01*
X0013101Y0280364D01*
X0013054Y0280529D01*
X0013010Y0280695D01*
X0012970Y0280862D01*
X0012935Y0281030D01*
X0012903Y0281199D01*
X0012876Y0281369D01*
X0012853Y0281539D01*
X0012834Y0281710D01*
X0012819Y0281881D01*
X0012808Y0282053D01*
X0012802Y0282224D01*
X0012800Y0282396D01*
X0350863Y0373243D02*
X0350865Y0373396D01*
X0350871Y0373550D01*
X0350881Y0373703D01*
X0350895Y0373855D01*
X0350913Y0374008D01*
X0350935Y0374159D01*
X0350960Y0374310D01*
X0350990Y0374461D01*
X0351024Y0374611D01*
X0351061Y0374759D01*
X0351102Y0374907D01*
X0351147Y0375053D01*
X0351196Y0375199D01*
X0351249Y0375343D01*
X0351305Y0375485D01*
X0351365Y0375626D01*
X0351429Y0375766D01*
X0351496Y0375904D01*
X0351567Y0376040D01*
X0351642Y0376174D01*
X0351719Y0376306D01*
X0351801Y0376436D01*
X0351885Y0376564D01*
X0351973Y0376690D01*
X0352064Y0376813D01*
X0352158Y0376934D01*
X0352256Y0377052D01*
X0352356Y0377168D01*
X0352460Y0377281D01*
X0352566Y0377392D01*
X0352675Y0377500D01*
X0352787Y0377605D01*
X0352901Y0377706D01*
X0353019Y0377805D01*
X0353138Y0377901D01*
X0353260Y0377994D01*
X0353385Y0378083D01*
X0353512Y0378170D01*
X0353641Y0378252D01*
X0353772Y0378332D01*
X0353905Y0378408D01*
X0354040Y0378481D01*
X0354177Y0378550D01*
X0354316Y0378615D01*
X0354456Y0378677D01*
X0354598Y0378735D01*
X0354741Y0378790D01*
X0354886Y0378841D01*
X0355032Y0378888D01*
X0355179Y0378931D01*
X0355327Y0378970D01*
X0355476Y0379006D01*
X0355626Y0379037D01*
X0355777Y0379065D01*
X0355928Y0379089D01*
X0356081Y0379109D01*
X0356233Y0379125D01*
X0356386Y0379137D01*
X0356539Y0379145D01*
X0356692Y0379149D01*
X0356846Y0379149D01*
X0356999Y0379145D01*
X0357152Y0379137D01*
X0357305Y0379125D01*
X0357457Y0379109D01*
X0357610Y0379089D01*
X0357761Y0379065D01*
X0357912Y0379037D01*
X0358062Y0379006D01*
X0358211Y0378970D01*
X0358359Y0378931D01*
X0358506Y0378888D01*
X0358652Y0378841D01*
X0358797Y0378790D01*
X0358940Y0378735D01*
X0359082Y0378677D01*
X0359222Y0378615D01*
X0359361Y0378550D01*
X0359498Y0378481D01*
X0359633Y0378408D01*
X0359766Y0378332D01*
X0359897Y0378252D01*
X0360026Y0378170D01*
X0360153Y0378083D01*
X0360278Y0377994D01*
X0360400Y0377901D01*
X0360519Y0377805D01*
X0360637Y0377706D01*
X0360751Y0377605D01*
X0360863Y0377500D01*
X0360972Y0377392D01*
X0361078Y0377281D01*
X0361182Y0377168D01*
X0361282Y0377052D01*
X0361380Y0376934D01*
X0361474Y0376813D01*
X0361565Y0376690D01*
X0361653Y0376564D01*
X0361737Y0376436D01*
X0361819Y0376306D01*
X0361896Y0376174D01*
X0361971Y0376040D01*
X0362042Y0375904D01*
X0362109Y0375766D01*
X0362173Y0375626D01*
X0362233Y0375485D01*
X0362289Y0375343D01*
X0362342Y0375199D01*
X0362391Y0375053D01*
X0362436Y0374907D01*
X0362477Y0374759D01*
X0362514Y0374611D01*
X0362548Y0374461D01*
X0362578Y0374310D01*
X0362603Y0374159D01*
X0362625Y0374008D01*
X0362643Y0373855D01*
X0362657Y0373703D01*
X0362667Y0373550D01*
X0362673Y0373396D01*
X0362675Y0373243D01*
X0362673Y0373090D01*
X0362667Y0372936D01*
X0362657Y0372783D01*
X0362643Y0372631D01*
X0362625Y0372478D01*
X0362603Y0372327D01*
X0362578Y0372176D01*
X0362548Y0372025D01*
X0362514Y0371875D01*
X0362477Y0371727D01*
X0362436Y0371579D01*
X0362391Y0371433D01*
X0362342Y0371287D01*
X0362289Y0371143D01*
X0362233Y0371001D01*
X0362173Y0370860D01*
X0362109Y0370720D01*
X0362042Y0370582D01*
X0361971Y0370446D01*
X0361896Y0370312D01*
X0361819Y0370180D01*
X0361737Y0370050D01*
X0361653Y0369922D01*
X0361565Y0369796D01*
X0361474Y0369673D01*
X0361380Y0369552D01*
X0361282Y0369434D01*
X0361182Y0369318D01*
X0361078Y0369205D01*
X0360972Y0369094D01*
X0360863Y0368986D01*
X0360751Y0368881D01*
X0360637Y0368780D01*
X0360519Y0368681D01*
X0360400Y0368585D01*
X0360278Y0368492D01*
X0360153Y0368403D01*
X0360026Y0368316D01*
X0359897Y0368234D01*
X0359766Y0368154D01*
X0359633Y0368078D01*
X0359498Y0368005D01*
X0359361Y0367936D01*
X0359222Y0367871D01*
X0359082Y0367809D01*
X0358940Y0367751D01*
X0358797Y0367696D01*
X0358652Y0367645D01*
X0358506Y0367598D01*
X0358359Y0367555D01*
X0358211Y0367516D01*
X0358062Y0367480D01*
X0357912Y0367449D01*
X0357761Y0367421D01*
X0357610Y0367397D01*
X0357457Y0367377D01*
X0357305Y0367361D01*
X0357152Y0367349D01*
X0356999Y0367341D01*
X0356846Y0367337D01*
X0356692Y0367337D01*
X0356539Y0367341D01*
X0356386Y0367349D01*
X0356233Y0367361D01*
X0356081Y0367377D01*
X0355928Y0367397D01*
X0355777Y0367421D01*
X0355626Y0367449D01*
X0355476Y0367480D01*
X0355327Y0367516D01*
X0355179Y0367555D01*
X0355032Y0367598D01*
X0354886Y0367645D01*
X0354741Y0367696D01*
X0354598Y0367751D01*
X0354456Y0367809D01*
X0354316Y0367871D01*
X0354177Y0367936D01*
X0354040Y0368005D01*
X0353905Y0368078D01*
X0353772Y0368154D01*
X0353641Y0368234D01*
X0353512Y0368316D01*
X0353385Y0368403D01*
X0353260Y0368492D01*
X0353138Y0368585D01*
X0353019Y0368681D01*
X0352901Y0368780D01*
X0352787Y0368881D01*
X0352675Y0368986D01*
X0352566Y0369094D01*
X0352460Y0369205D01*
X0352356Y0369318D01*
X0352256Y0369434D01*
X0352158Y0369552D01*
X0352064Y0369673D01*
X0351973Y0369796D01*
X0351885Y0369922D01*
X0351801Y0370050D01*
X0351719Y0370180D01*
X0351642Y0370312D01*
X0351567Y0370446D01*
X0351496Y0370582D01*
X0351429Y0370720D01*
X0351365Y0370860D01*
X0351305Y0371001D01*
X0351249Y0371143D01*
X0351196Y0371287D01*
X0351147Y0371433D01*
X0351102Y0371579D01*
X0351061Y0371727D01*
X0351024Y0371875D01*
X0350990Y0372025D01*
X0350960Y0372176D01*
X0350935Y0372327D01*
X0350913Y0372478D01*
X0350895Y0372631D01*
X0350881Y0372783D01*
X0350871Y0372936D01*
X0350865Y0373090D01*
X0350863Y0373243D01*
X0428300Y0284396D02*
X0428302Y0284568D01*
X0428308Y0284739D01*
X0428319Y0284911D01*
X0428334Y0285082D01*
X0428353Y0285253D01*
X0428376Y0285423D01*
X0428403Y0285593D01*
X0428435Y0285762D01*
X0428470Y0285930D01*
X0428510Y0286097D01*
X0428554Y0286263D01*
X0428601Y0286428D01*
X0428653Y0286592D01*
X0428709Y0286754D01*
X0428769Y0286915D01*
X0428833Y0287075D01*
X0428901Y0287233D01*
X0428972Y0287389D01*
X0429047Y0287543D01*
X0429127Y0287696D01*
X0429209Y0287846D01*
X0429296Y0287995D01*
X0429386Y0288141D01*
X0429480Y0288285D01*
X0429577Y0288427D01*
X0429678Y0288566D01*
X0429782Y0288703D01*
X0429889Y0288837D01*
X0430000Y0288968D01*
X0430113Y0289097D01*
X0430230Y0289223D01*
X0430350Y0289346D01*
X0430473Y0289466D01*
X0430599Y0289583D01*
X0430728Y0289696D01*
X0430859Y0289807D01*
X0430993Y0289914D01*
X0431130Y0290018D01*
X0431269Y0290119D01*
X0431411Y0290216D01*
X0431555Y0290310D01*
X0431701Y0290400D01*
X0431850Y0290487D01*
X0432000Y0290569D01*
X0432153Y0290649D01*
X0432307Y0290724D01*
X0432463Y0290795D01*
X0432621Y0290863D01*
X0432781Y0290927D01*
X0432942Y0290987D01*
X0433104Y0291043D01*
X0433268Y0291095D01*
X0433433Y0291142D01*
X0433599Y0291186D01*
X0433766Y0291226D01*
X0433934Y0291261D01*
X0434103Y0291293D01*
X0434273Y0291320D01*
X0434443Y0291343D01*
X0434614Y0291362D01*
X0434785Y0291377D01*
X0434957Y0291388D01*
X0435128Y0291394D01*
X0435300Y0291396D01*
X0435472Y0291394D01*
X0435643Y0291388D01*
X0435815Y0291377D01*
X0435986Y0291362D01*
X0436157Y0291343D01*
X0436327Y0291320D01*
X0436497Y0291293D01*
X0436666Y0291261D01*
X0436834Y0291226D01*
X0437001Y0291186D01*
X0437167Y0291142D01*
X0437332Y0291095D01*
X0437496Y0291043D01*
X0437658Y0290987D01*
X0437819Y0290927D01*
X0437979Y0290863D01*
X0438137Y0290795D01*
X0438293Y0290724D01*
X0438447Y0290649D01*
X0438600Y0290569D01*
X0438750Y0290487D01*
X0438899Y0290400D01*
X0439045Y0290310D01*
X0439189Y0290216D01*
X0439331Y0290119D01*
X0439470Y0290018D01*
X0439607Y0289914D01*
X0439741Y0289807D01*
X0439872Y0289696D01*
X0440001Y0289583D01*
X0440127Y0289466D01*
X0440250Y0289346D01*
X0440370Y0289223D01*
X0440487Y0289097D01*
X0440600Y0288968D01*
X0440711Y0288837D01*
X0440818Y0288703D01*
X0440922Y0288566D01*
X0441023Y0288427D01*
X0441120Y0288285D01*
X0441214Y0288141D01*
X0441304Y0287995D01*
X0441391Y0287846D01*
X0441473Y0287696D01*
X0441553Y0287543D01*
X0441628Y0287389D01*
X0441699Y0287233D01*
X0441767Y0287075D01*
X0441831Y0286915D01*
X0441891Y0286754D01*
X0441947Y0286592D01*
X0441999Y0286428D01*
X0442046Y0286263D01*
X0442090Y0286097D01*
X0442130Y0285930D01*
X0442165Y0285762D01*
X0442197Y0285593D01*
X0442224Y0285423D01*
X0442247Y0285253D01*
X0442266Y0285082D01*
X0442281Y0284911D01*
X0442292Y0284739D01*
X0442298Y0284568D01*
X0442300Y0284396D01*
X0442298Y0284224D01*
X0442292Y0284053D01*
X0442281Y0283881D01*
X0442266Y0283710D01*
X0442247Y0283539D01*
X0442224Y0283369D01*
X0442197Y0283199D01*
X0442165Y0283030D01*
X0442130Y0282862D01*
X0442090Y0282695D01*
X0442046Y0282529D01*
X0441999Y0282364D01*
X0441947Y0282200D01*
X0441891Y0282038D01*
X0441831Y0281877D01*
X0441767Y0281717D01*
X0441699Y0281559D01*
X0441628Y0281403D01*
X0441553Y0281249D01*
X0441473Y0281096D01*
X0441391Y0280946D01*
X0441304Y0280797D01*
X0441214Y0280651D01*
X0441120Y0280507D01*
X0441023Y0280365D01*
X0440922Y0280226D01*
X0440818Y0280089D01*
X0440711Y0279955D01*
X0440600Y0279824D01*
X0440487Y0279695D01*
X0440370Y0279569D01*
X0440250Y0279446D01*
X0440127Y0279326D01*
X0440001Y0279209D01*
X0439872Y0279096D01*
X0439741Y0278985D01*
X0439607Y0278878D01*
X0439470Y0278774D01*
X0439331Y0278673D01*
X0439189Y0278576D01*
X0439045Y0278482D01*
X0438899Y0278392D01*
X0438750Y0278305D01*
X0438600Y0278223D01*
X0438447Y0278143D01*
X0438293Y0278068D01*
X0438137Y0277997D01*
X0437979Y0277929D01*
X0437819Y0277865D01*
X0437658Y0277805D01*
X0437496Y0277749D01*
X0437332Y0277697D01*
X0437167Y0277650D01*
X0437001Y0277606D01*
X0436834Y0277566D01*
X0436666Y0277531D01*
X0436497Y0277499D01*
X0436327Y0277472D01*
X0436157Y0277449D01*
X0435986Y0277430D01*
X0435815Y0277415D01*
X0435643Y0277404D01*
X0435472Y0277398D01*
X0435300Y0277396D01*
X0435128Y0277398D01*
X0434957Y0277404D01*
X0434785Y0277415D01*
X0434614Y0277430D01*
X0434443Y0277449D01*
X0434273Y0277472D01*
X0434103Y0277499D01*
X0433934Y0277531D01*
X0433766Y0277566D01*
X0433599Y0277606D01*
X0433433Y0277650D01*
X0433268Y0277697D01*
X0433104Y0277749D01*
X0432942Y0277805D01*
X0432781Y0277865D01*
X0432621Y0277929D01*
X0432463Y0277997D01*
X0432307Y0278068D01*
X0432153Y0278143D01*
X0432000Y0278223D01*
X0431850Y0278305D01*
X0431701Y0278392D01*
X0431555Y0278482D01*
X0431411Y0278576D01*
X0431269Y0278673D01*
X0431130Y0278774D01*
X0430993Y0278878D01*
X0430859Y0278985D01*
X0430728Y0279096D01*
X0430599Y0279209D01*
X0430473Y0279326D01*
X0430350Y0279446D01*
X0430230Y0279569D01*
X0430113Y0279695D01*
X0430000Y0279824D01*
X0429889Y0279955D01*
X0429782Y0280089D01*
X0429678Y0280226D01*
X0429577Y0280365D01*
X0429480Y0280507D01*
X0429386Y0280651D01*
X0429296Y0280797D01*
X0429209Y0280946D01*
X0429127Y0281096D01*
X0429047Y0281249D01*
X0428972Y0281403D01*
X0428901Y0281559D01*
X0428833Y0281717D01*
X0428769Y0281877D01*
X0428709Y0282038D01*
X0428653Y0282200D01*
X0428601Y0282364D01*
X0428554Y0282529D01*
X0428510Y0282695D01*
X0428470Y0282862D01*
X0428435Y0283030D01*
X0428403Y0283199D01*
X0428376Y0283369D01*
X0428353Y0283539D01*
X0428334Y0283710D01*
X0428319Y0283881D01*
X0428308Y0284053D01*
X0428302Y0284224D01*
X0428300Y0284396D01*
X0428300Y0089396D02*
X0428302Y0089568D01*
X0428308Y0089739D01*
X0428319Y0089911D01*
X0428334Y0090082D01*
X0428353Y0090253D01*
X0428376Y0090423D01*
X0428403Y0090593D01*
X0428435Y0090762D01*
X0428470Y0090930D01*
X0428510Y0091097D01*
X0428554Y0091263D01*
X0428601Y0091428D01*
X0428653Y0091592D01*
X0428709Y0091754D01*
X0428769Y0091915D01*
X0428833Y0092075D01*
X0428901Y0092233D01*
X0428972Y0092389D01*
X0429047Y0092543D01*
X0429127Y0092696D01*
X0429209Y0092846D01*
X0429296Y0092995D01*
X0429386Y0093141D01*
X0429480Y0093285D01*
X0429577Y0093427D01*
X0429678Y0093566D01*
X0429782Y0093703D01*
X0429889Y0093837D01*
X0430000Y0093968D01*
X0430113Y0094097D01*
X0430230Y0094223D01*
X0430350Y0094346D01*
X0430473Y0094466D01*
X0430599Y0094583D01*
X0430728Y0094696D01*
X0430859Y0094807D01*
X0430993Y0094914D01*
X0431130Y0095018D01*
X0431269Y0095119D01*
X0431411Y0095216D01*
X0431555Y0095310D01*
X0431701Y0095400D01*
X0431850Y0095487D01*
X0432000Y0095569D01*
X0432153Y0095649D01*
X0432307Y0095724D01*
X0432463Y0095795D01*
X0432621Y0095863D01*
X0432781Y0095927D01*
X0432942Y0095987D01*
X0433104Y0096043D01*
X0433268Y0096095D01*
X0433433Y0096142D01*
X0433599Y0096186D01*
X0433766Y0096226D01*
X0433934Y0096261D01*
X0434103Y0096293D01*
X0434273Y0096320D01*
X0434443Y0096343D01*
X0434614Y0096362D01*
X0434785Y0096377D01*
X0434957Y0096388D01*
X0435128Y0096394D01*
X0435300Y0096396D01*
X0435472Y0096394D01*
X0435643Y0096388D01*
X0435815Y0096377D01*
X0435986Y0096362D01*
X0436157Y0096343D01*
X0436327Y0096320D01*
X0436497Y0096293D01*
X0436666Y0096261D01*
X0436834Y0096226D01*
X0437001Y0096186D01*
X0437167Y0096142D01*
X0437332Y0096095D01*
X0437496Y0096043D01*
X0437658Y0095987D01*
X0437819Y0095927D01*
X0437979Y0095863D01*
X0438137Y0095795D01*
X0438293Y0095724D01*
X0438447Y0095649D01*
X0438600Y0095569D01*
X0438750Y0095487D01*
X0438899Y0095400D01*
X0439045Y0095310D01*
X0439189Y0095216D01*
X0439331Y0095119D01*
X0439470Y0095018D01*
X0439607Y0094914D01*
X0439741Y0094807D01*
X0439872Y0094696D01*
X0440001Y0094583D01*
X0440127Y0094466D01*
X0440250Y0094346D01*
X0440370Y0094223D01*
X0440487Y0094097D01*
X0440600Y0093968D01*
X0440711Y0093837D01*
X0440818Y0093703D01*
X0440922Y0093566D01*
X0441023Y0093427D01*
X0441120Y0093285D01*
X0441214Y0093141D01*
X0441304Y0092995D01*
X0441391Y0092846D01*
X0441473Y0092696D01*
X0441553Y0092543D01*
X0441628Y0092389D01*
X0441699Y0092233D01*
X0441767Y0092075D01*
X0441831Y0091915D01*
X0441891Y0091754D01*
X0441947Y0091592D01*
X0441999Y0091428D01*
X0442046Y0091263D01*
X0442090Y0091097D01*
X0442130Y0090930D01*
X0442165Y0090762D01*
X0442197Y0090593D01*
X0442224Y0090423D01*
X0442247Y0090253D01*
X0442266Y0090082D01*
X0442281Y0089911D01*
X0442292Y0089739D01*
X0442298Y0089568D01*
X0442300Y0089396D01*
X0442298Y0089224D01*
X0442292Y0089053D01*
X0442281Y0088881D01*
X0442266Y0088710D01*
X0442247Y0088539D01*
X0442224Y0088369D01*
X0442197Y0088199D01*
X0442165Y0088030D01*
X0442130Y0087862D01*
X0442090Y0087695D01*
X0442046Y0087529D01*
X0441999Y0087364D01*
X0441947Y0087200D01*
X0441891Y0087038D01*
X0441831Y0086877D01*
X0441767Y0086717D01*
X0441699Y0086559D01*
X0441628Y0086403D01*
X0441553Y0086249D01*
X0441473Y0086096D01*
X0441391Y0085946D01*
X0441304Y0085797D01*
X0441214Y0085651D01*
X0441120Y0085507D01*
X0441023Y0085365D01*
X0440922Y0085226D01*
X0440818Y0085089D01*
X0440711Y0084955D01*
X0440600Y0084824D01*
X0440487Y0084695D01*
X0440370Y0084569D01*
X0440250Y0084446D01*
X0440127Y0084326D01*
X0440001Y0084209D01*
X0439872Y0084096D01*
X0439741Y0083985D01*
X0439607Y0083878D01*
X0439470Y0083774D01*
X0439331Y0083673D01*
X0439189Y0083576D01*
X0439045Y0083482D01*
X0438899Y0083392D01*
X0438750Y0083305D01*
X0438600Y0083223D01*
X0438447Y0083143D01*
X0438293Y0083068D01*
X0438137Y0082997D01*
X0437979Y0082929D01*
X0437819Y0082865D01*
X0437658Y0082805D01*
X0437496Y0082749D01*
X0437332Y0082697D01*
X0437167Y0082650D01*
X0437001Y0082606D01*
X0436834Y0082566D01*
X0436666Y0082531D01*
X0436497Y0082499D01*
X0436327Y0082472D01*
X0436157Y0082449D01*
X0435986Y0082430D01*
X0435815Y0082415D01*
X0435643Y0082404D01*
X0435472Y0082398D01*
X0435300Y0082396D01*
X0435128Y0082398D01*
X0434957Y0082404D01*
X0434785Y0082415D01*
X0434614Y0082430D01*
X0434443Y0082449D01*
X0434273Y0082472D01*
X0434103Y0082499D01*
X0433934Y0082531D01*
X0433766Y0082566D01*
X0433599Y0082606D01*
X0433433Y0082650D01*
X0433268Y0082697D01*
X0433104Y0082749D01*
X0432942Y0082805D01*
X0432781Y0082865D01*
X0432621Y0082929D01*
X0432463Y0082997D01*
X0432307Y0083068D01*
X0432153Y0083143D01*
X0432000Y0083223D01*
X0431850Y0083305D01*
X0431701Y0083392D01*
X0431555Y0083482D01*
X0431411Y0083576D01*
X0431269Y0083673D01*
X0431130Y0083774D01*
X0430993Y0083878D01*
X0430859Y0083985D01*
X0430728Y0084096D01*
X0430599Y0084209D01*
X0430473Y0084326D01*
X0430350Y0084446D01*
X0430230Y0084569D01*
X0430113Y0084695D01*
X0430000Y0084824D01*
X0429889Y0084955D01*
X0429782Y0085089D01*
X0429678Y0085226D01*
X0429577Y0085365D01*
X0429480Y0085507D01*
X0429386Y0085651D01*
X0429296Y0085797D01*
X0429209Y0085946D01*
X0429127Y0086096D01*
X0429047Y0086249D01*
X0428972Y0086403D01*
X0428901Y0086559D01*
X0428833Y0086717D01*
X0428769Y0086877D01*
X0428709Y0087038D01*
X0428653Y0087200D01*
X0428601Y0087364D01*
X0428554Y0087529D01*
X0428510Y0087695D01*
X0428470Y0087862D01*
X0428435Y0088030D01*
X0428403Y0088199D01*
X0428376Y0088369D01*
X0428353Y0088539D01*
X0428334Y0088710D01*
X0428319Y0088881D01*
X0428308Y0089053D01*
X0428302Y0089224D01*
X0428300Y0089396D01*
X0360721Y0082955D02*
X0360723Y0083086D01*
X0360729Y0083218D01*
X0360739Y0083349D01*
X0360753Y0083480D01*
X0360771Y0083610D01*
X0360793Y0083739D01*
X0360818Y0083868D01*
X0360848Y0083996D01*
X0360882Y0084123D01*
X0360919Y0084250D01*
X0360960Y0084374D01*
X0361005Y0084498D01*
X0361054Y0084620D01*
X0361106Y0084741D01*
X0361162Y0084859D01*
X0361222Y0084977D01*
X0361285Y0085092D01*
X0361352Y0085205D01*
X0361422Y0085317D01*
X0361495Y0085426D01*
X0361571Y0085532D01*
X0361651Y0085637D01*
X0361734Y0085739D01*
X0361820Y0085838D01*
X0361909Y0085935D01*
X0362001Y0086029D01*
X0362096Y0086120D01*
X0362193Y0086209D01*
X0362293Y0086294D01*
X0362396Y0086376D01*
X0362501Y0086455D01*
X0362608Y0086531D01*
X0362718Y0086603D01*
X0362830Y0086672D01*
X0362944Y0086738D01*
X0363059Y0086800D01*
X0363177Y0086859D01*
X0363296Y0086914D01*
X0363417Y0086966D01*
X0363540Y0087013D01*
X0363664Y0087057D01*
X0363789Y0087098D01*
X0363915Y0087134D01*
X0364043Y0087167D01*
X0364171Y0087195D01*
X0364300Y0087220D01*
X0364430Y0087241D01*
X0364560Y0087258D01*
X0364691Y0087271D01*
X0364822Y0087280D01*
X0364953Y0087285D01*
X0365085Y0087286D01*
X0365216Y0087283D01*
X0365348Y0087276D01*
X0365479Y0087265D01*
X0365609Y0087250D01*
X0365739Y0087231D01*
X0365869Y0087208D01*
X0365997Y0087182D01*
X0366125Y0087151D01*
X0366252Y0087116D01*
X0366378Y0087078D01*
X0366502Y0087036D01*
X0366626Y0086990D01*
X0366747Y0086940D01*
X0366867Y0086887D01*
X0366986Y0086830D01*
X0367103Y0086770D01*
X0367217Y0086706D01*
X0367330Y0086638D01*
X0367441Y0086567D01*
X0367550Y0086493D01*
X0367656Y0086416D01*
X0367760Y0086335D01*
X0367861Y0086252D01*
X0367960Y0086165D01*
X0368056Y0086075D01*
X0368149Y0085982D01*
X0368240Y0085887D01*
X0368327Y0085789D01*
X0368412Y0085688D01*
X0368493Y0085585D01*
X0368571Y0085479D01*
X0368646Y0085371D01*
X0368718Y0085261D01*
X0368786Y0085149D01*
X0368851Y0085035D01*
X0368912Y0084918D01*
X0368970Y0084800D01*
X0369024Y0084680D01*
X0369075Y0084559D01*
X0369122Y0084436D01*
X0369165Y0084312D01*
X0369204Y0084187D01*
X0369240Y0084060D01*
X0369271Y0083932D01*
X0369299Y0083804D01*
X0369323Y0083675D01*
X0369343Y0083545D01*
X0369359Y0083414D01*
X0369371Y0083283D01*
X0369379Y0083152D01*
X0369383Y0083021D01*
X0369383Y0082889D01*
X0369379Y0082758D01*
X0369371Y0082627D01*
X0369359Y0082496D01*
X0369343Y0082365D01*
X0369323Y0082235D01*
X0369299Y0082106D01*
X0369271Y0081978D01*
X0369240Y0081850D01*
X0369204Y0081723D01*
X0369165Y0081598D01*
X0369122Y0081474D01*
X0369075Y0081351D01*
X0369024Y0081230D01*
X0368970Y0081110D01*
X0368912Y0080992D01*
X0368851Y0080875D01*
X0368786Y0080761D01*
X0368718Y0080649D01*
X0368646Y0080539D01*
X0368571Y0080431D01*
X0368493Y0080325D01*
X0368412Y0080222D01*
X0368327Y0080121D01*
X0368240Y0080023D01*
X0368149Y0079928D01*
X0368056Y0079835D01*
X0367960Y0079745D01*
X0367861Y0079658D01*
X0367760Y0079575D01*
X0367656Y0079494D01*
X0367550Y0079417D01*
X0367441Y0079343D01*
X0367330Y0079272D01*
X0367218Y0079204D01*
X0367103Y0079140D01*
X0366986Y0079080D01*
X0366867Y0079023D01*
X0366747Y0078970D01*
X0366626Y0078920D01*
X0366502Y0078874D01*
X0366378Y0078832D01*
X0366252Y0078794D01*
X0366125Y0078759D01*
X0365997Y0078728D01*
X0365869Y0078702D01*
X0365739Y0078679D01*
X0365609Y0078660D01*
X0365479Y0078645D01*
X0365348Y0078634D01*
X0365216Y0078627D01*
X0365085Y0078624D01*
X0364953Y0078625D01*
X0364822Y0078630D01*
X0364691Y0078639D01*
X0364560Y0078652D01*
X0364430Y0078669D01*
X0364300Y0078690D01*
X0364171Y0078715D01*
X0364043Y0078743D01*
X0363915Y0078776D01*
X0363789Y0078812D01*
X0363664Y0078853D01*
X0363540Y0078897D01*
X0363417Y0078944D01*
X0363296Y0078996D01*
X0363177Y0079051D01*
X0363059Y0079110D01*
X0362944Y0079172D01*
X0362830Y0079238D01*
X0362718Y0079307D01*
X0362608Y0079379D01*
X0362501Y0079455D01*
X0362396Y0079534D01*
X0362293Y0079616D01*
X0362193Y0079701D01*
X0362096Y0079790D01*
X0362001Y0079881D01*
X0361909Y0079975D01*
X0361820Y0080072D01*
X0361734Y0080171D01*
X0361651Y0080273D01*
X0361571Y0080378D01*
X0361495Y0080484D01*
X0361422Y0080593D01*
X0361352Y0080705D01*
X0361285Y0080818D01*
X0361222Y0080933D01*
X0361162Y0081051D01*
X0361106Y0081169D01*
X0361054Y0081290D01*
X0361005Y0081412D01*
X0360960Y0081536D01*
X0360919Y0081660D01*
X0360882Y0081787D01*
X0360848Y0081914D01*
X0360818Y0082042D01*
X0360793Y0082171D01*
X0360771Y0082300D01*
X0360753Y0082430D01*
X0360739Y0082561D01*
X0360729Y0082692D01*
X0360723Y0082824D01*
X0360721Y0082955D01*
D11*
X0315800Y0097896D02*
X0313300Y0095396D01*
X0308300Y0095396D01*
X0305800Y0097896D01*
X0303300Y0095396D01*
X0298300Y0095396D01*
X0295800Y0097896D01*
X0293300Y0095396D01*
X0288300Y0095396D01*
X0285800Y0097896D01*
X0283300Y0095396D01*
X0278300Y0095396D01*
X0275800Y0097896D01*
X0273300Y0095396D01*
X0268300Y0095396D01*
X0265800Y0097896D01*
X0263300Y0095396D01*
X0258300Y0095396D01*
X0255800Y0097896D01*
X0253300Y0095396D01*
X0248300Y0095396D01*
X0245800Y0097896D01*
X0243300Y0095396D01*
X0238300Y0095396D01*
X0235800Y0097896D01*
X0235800Y0102896D01*
X0238300Y0105396D01*
X0243300Y0105396D01*
X0245800Y0102896D01*
X0248300Y0105396D01*
X0253300Y0105396D01*
X0255800Y0102896D01*
X0258300Y0105396D01*
X0263300Y0105396D01*
X0265800Y0102896D01*
X0268300Y0105396D01*
X0273300Y0105396D01*
X0275800Y0102896D01*
X0278300Y0105396D01*
X0283300Y0105396D01*
X0285800Y0102896D01*
X0288300Y0105396D01*
X0293300Y0105396D01*
X0295800Y0102896D01*
X0298300Y0105396D01*
X0303300Y0105396D01*
X0305800Y0102896D01*
X0308300Y0105396D01*
X0313300Y0105396D01*
X0315800Y0102896D01*
X0315800Y0097896D01*
X0225800Y0097896D02*
X0223300Y0095396D01*
X0218300Y0095396D01*
X0215800Y0097896D01*
X0213300Y0095396D01*
X0208300Y0095396D01*
X0205800Y0097896D01*
X0203300Y0095396D01*
X0198300Y0095396D01*
X0195800Y0097896D01*
X0193300Y0095396D01*
X0188300Y0095396D01*
X0185800Y0097896D01*
X0183300Y0095396D01*
X0178300Y0095396D01*
X0175800Y0097896D01*
X0173300Y0095396D01*
X0168300Y0095396D01*
X0165800Y0097896D01*
X0163300Y0095396D01*
X0158300Y0095396D01*
X0155800Y0097896D01*
X0153300Y0095396D01*
X0148300Y0095396D01*
X0145800Y0097896D01*
X0145800Y0102896D01*
X0148300Y0105396D01*
X0153300Y0105396D01*
X0155800Y0102896D01*
X0158300Y0105396D01*
X0163300Y0105396D01*
X0165800Y0102896D01*
X0168300Y0105396D01*
X0173300Y0105396D01*
X0175800Y0102896D01*
X0178300Y0105396D01*
X0183300Y0105396D01*
X0185800Y0102896D01*
X0188300Y0105396D01*
X0193300Y0105396D01*
X0195800Y0102896D01*
X0198300Y0105396D01*
X0203300Y0105396D01*
X0205800Y0102896D01*
X0208300Y0105396D01*
X0213300Y0105396D01*
X0215800Y0102896D01*
X0218300Y0105396D01*
X0223300Y0105396D01*
X0225800Y0102896D01*
X0225800Y0097896D01*
X0135800Y0097896D02*
X0133300Y0095396D01*
X0128300Y0095396D01*
X0125800Y0097896D01*
X0123300Y0095396D01*
X0118300Y0095396D01*
X0115800Y0097896D01*
X0113300Y0095396D01*
X0108300Y0095396D01*
X0105800Y0097896D01*
X0103300Y0095396D01*
X0098300Y0095396D01*
X0095800Y0097896D01*
X0093300Y0095396D01*
X0088300Y0095396D01*
X0085800Y0097896D01*
X0083300Y0095396D01*
X0078300Y0095396D01*
X0075800Y0097896D01*
X0073300Y0095396D01*
X0068300Y0095396D01*
X0065800Y0097896D01*
X0063300Y0095396D01*
X0058300Y0095396D01*
X0055800Y0097896D01*
X0055800Y0102896D01*
X0058300Y0105396D01*
X0063300Y0105396D01*
X0065800Y0102896D01*
X0068300Y0105396D01*
X0073300Y0105396D01*
X0075800Y0102896D01*
X0078300Y0105396D01*
X0083300Y0105396D01*
X0085800Y0102896D01*
X0088300Y0105396D01*
X0093300Y0105396D01*
X0095800Y0102896D01*
X0098300Y0105396D01*
X0103300Y0105396D01*
X0105800Y0102896D01*
X0108300Y0105396D01*
X0113300Y0105396D01*
X0115800Y0102896D01*
X0118300Y0105396D01*
X0123300Y0105396D01*
X0125800Y0102896D01*
X0128300Y0105396D01*
X0133300Y0105396D01*
X0135800Y0102896D01*
X0135800Y0097896D01*
X0055800Y0122896D02*
X0053300Y0125396D01*
X0038300Y0125396D01*
X0035800Y0122896D01*
X0035800Y0117896D01*
X0038300Y0115396D01*
X0053300Y0115396D01*
X0053300Y0285396D02*
X0038300Y0285396D01*
X0035800Y0287896D01*
X0035800Y0292896D01*
X0038300Y0295396D01*
X0053300Y0295396D01*
X0055800Y0292896D01*
X0055800Y0287896D01*
X0053300Y0285396D01*
X0075800Y0287896D02*
X0078300Y0285396D01*
X0083300Y0285396D01*
X0085800Y0287896D01*
X0088300Y0285396D01*
X0093300Y0285396D01*
X0095800Y0287896D01*
X0098300Y0285396D01*
X0103300Y0285396D01*
X0105800Y0287896D01*
X0108300Y0285396D01*
X0113300Y0285396D01*
X0115800Y0287896D01*
X0118300Y0285396D01*
X0123300Y0285396D01*
X0125800Y0287896D01*
X0128300Y0285396D01*
X0133300Y0285396D01*
X0135800Y0287896D01*
X0138300Y0285396D01*
X0143300Y0285396D01*
X0145800Y0287896D01*
X0148300Y0285396D01*
X0153300Y0285396D01*
X0155800Y0287896D01*
X0155800Y0292896D01*
X0153300Y0295396D01*
X0148300Y0295396D01*
X0145800Y0292896D01*
X0143300Y0295396D01*
X0138300Y0295396D01*
X0135800Y0292896D01*
X0133300Y0295396D01*
X0128300Y0295396D01*
X0125800Y0292896D01*
X0123300Y0295396D01*
X0118300Y0295396D01*
X0115800Y0292896D01*
X0113300Y0295396D01*
X0108300Y0295396D01*
X0105800Y0292896D01*
X0103300Y0295396D01*
X0098300Y0295396D01*
X0095800Y0292896D01*
X0093300Y0295396D01*
X0088300Y0295396D01*
X0085800Y0292896D01*
X0083300Y0295396D01*
X0078300Y0295396D01*
X0075800Y0292896D01*
X0075800Y0287896D01*
X0165800Y0287896D02*
X0168300Y0285396D01*
X0173300Y0285396D01*
X0175800Y0287896D01*
X0178300Y0285396D01*
X0183300Y0285396D01*
X0185800Y0287896D01*
X0188300Y0285396D01*
X0193300Y0285396D01*
X0195800Y0287896D01*
X0198300Y0285396D01*
X0203300Y0285396D01*
X0205800Y0287896D01*
X0208300Y0285396D01*
X0213300Y0285396D01*
X0215800Y0287896D01*
X0218300Y0285396D01*
X0223300Y0285396D01*
X0225800Y0287896D01*
X0228300Y0285396D01*
X0233300Y0285396D01*
X0235800Y0287896D01*
X0238300Y0285396D01*
X0243300Y0285396D01*
X0245800Y0287896D01*
X0245800Y0292896D01*
X0243300Y0295396D01*
X0238300Y0295396D01*
X0235800Y0292896D01*
X0233300Y0295396D01*
X0228300Y0295396D01*
X0225800Y0292896D01*
X0223300Y0295396D01*
X0218300Y0295396D01*
X0215800Y0292896D01*
X0213300Y0295396D01*
X0208300Y0295396D01*
X0205800Y0292896D01*
X0203300Y0295396D01*
X0198300Y0295396D01*
X0195800Y0292896D01*
X0193300Y0295396D01*
X0188300Y0295396D01*
X0185800Y0292896D01*
X0183300Y0295396D01*
X0178300Y0295396D01*
X0175800Y0292896D01*
X0173300Y0295396D01*
X0168300Y0295396D01*
X0165800Y0292896D01*
X0165800Y0287896D01*
X0251800Y0287896D02*
X0254300Y0285396D01*
X0259300Y0285396D01*
X0261800Y0287896D01*
X0264300Y0285396D01*
X0269300Y0285396D01*
X0271800Y0287896D01*
X0274300Y0285396D01*
X0279300Y0285396D01*
X0281800Y0287896D01*
X0284300Y0285396D01*
X0289300Y0285396D01*
X0291800Y0287896D01*
X0294300Y0285396D01*
X0299300Y0285396D01*
X0301800Y0287896D01*
X0304300Y0285396D01*
X0309300Y0285396D01*
X0311800Y0287896D01*
X0314300Y0285396D01*
X0319300Y0285396D01*
X0321800Y0287896D01*
X0324300Y0285396D01*
X0329300Y0285396D01*
X0331800Y0287896D01*
X0334300Y0285396D01*
X0339300Y0285396D01*
X0341800Y0287896D01*
X0344300Y0285396D01*
X0349300Y0285396D01*
X0351800Y0287896D01*
X0351800Y0292896D01*
X0349300Y0295396D01*
X0344300Y0295396D01*
X0341800Y0292896D01*
X0339300Y0295396D01*
X0334300Y0295396D01*
X0331800Y0292896D01*
X0329300Y0295396D01*
X0324300Y0295396D01*
X0321800Y0292896D01*
X0319300Y0295396D01*
X0314300Y0295396D01*
X0311800Y0292896D01*
X0309300Y0295396D01*
X0304300Y0295396D01*
X0301800Y0292896D01*
X0299300Y0295396D01*
X0294300Y0295396D01*
X0291800Y0292896D01*
X0289300Y0295396D01*
X0284300Y0295396D01*
X0281800Y0292896D01*
X0279300Y0295396D01*
X0274300Y0295396D01*
X0271800Y0292896D01*
X0269300Y0295396D01*
X0264300Y0295396D01*
X0261800Y0292896D01*
X0259300Y0295396D01*
X0254300Y0295396D01*
X0251800Y0292896D01*
X0251800Y0287896D01*
D12*
X0175800Y0212896D02*
X0173300Y0215396D01*
X0158300Y0215396D01*
X0155800Y0212896D01*
X0155800Y0207896D01*
X0158300Y0205396D01*
X0173300Y0205396D01*
X0175800Y0207896D01*
X0175800Y0212896D01*
X0173300Y0205396D02*
X0175800Y0202896D01*
X0175800Y0197896D01*
X0173300Y0195396D01*
X0158300Y0195396D01*
X0155800Y0197896D01*
X0155800Y0202896D01*
X0158300Y0205396D01*
X0158300Y0195396D02*
X0155800Y0192896D01*
X0155800Y0187896D01*
X0158300Y0185396D01*
X0173300Y0185396D01*
X0175800Y0187896D01*
X0175800Y0192896D01*
X0173300Y0195396D01*
X0055800Y0192896D02*
X0055800Y0187896D01*
X0053300Y0185396D01*
X0038300Y0185396D01*
X0035800Y0187896D01*
X0035800Y0192896D01*
X0038300Y0195396D01*
X0053300Y0195396D01*
X0055800Y0197896D01*
X0055800Y0202896D01*
X0053300Y0205396D01*
X0038300Y0205396D01*
X0035800Y0202896D01*
X0035800Y0197896D01*
X0038300Y0195396D01*
X0038300Y0205396D02*
X0035800Y0207896D01*
X0035800Y0212896D01*
X0038300Y0215396D01*
X0053300Y0215396D01*
X0055800Y0217896D01*
X0055800Y0222896D01*
X0053300Y0225396D01*
X0038300Y0225396D01*
X0035800Y0227896D01*
X0035800Y0232896D01*
X0038300Y0235396D01*
X0053300Y0235396D01*
X0055800Y0237896D01*
X0055800Y0242896D01*
X0053300Y0245396D01*
X0038300Y0245396D01*
X0035800Y0247896D01*
X0035800Y0252896D01*
X0038300Y0255396D01*
X0053300Y0255396D01*
X0055800Y0257896D01*
X0055800Y0262896D01*
X0053300Y0265396D01*
X0038300Y0265396D01*
X0035800Y0267896D01*
X0035800Y0272896D01*
X0038300Y0275396D01*
X0053300Y0275396D01*
X0055800Y0277896D01*
X0055800Y0282896D01*
X0053300Y0285396D01*
X0053300Y0275396D02*
X0055800Y0272896D01*
X0055800Y0267896D01*
X0053300Y0265396D01*
X0053300Y0255396D02*
X0055800Y0252896D01*
X0055800Y0247896D01*
X0053300Y0245396D01*
X0053300Y0235396D02*
X0055800Y0232896D01*
X0055800Y0227896D01*
X0053300Y0225396D01*
X0053300Y0215396D02*
X0055800Y0212896D01*
X0055800Y0207896D01*
X0053300Y0205396D01*
X0053300Y0195396D02*
X0055800Y0192896D01*
X0053300Y0185396D02*
X0055800Y0182896D01*
X0055800Y0177896D01*
X0053300Y0175396D01*
X0038300Y0175396D01*
X0035800Y0177896D01*
X0035800Y0182896D01*
X0038300Y0185396D01*
X0038300Y0175396D02*
X0035800Y0172896D01*
X0035800Y0167896D01*
X0038300Y0165396D01*
X0053300Y0165396D01*
X0055800Y0167896D01*
X0055800Y0172896D01*
X0053300Y0175396D01*
X0053300Y0165396D02*
X0055800Y0162896D01*
X0055800Y0157896D01*
X0053300Y0155396D01*
X0038300Y0155396D01*
X0035800Y0157896D01*
X0035800Y0162896D01*
X0038300Y0165396D01*
X0038300Y0155396D02*
X0035800Y0152896D01*
X0035800Y0147896D01*
X0038300Y0145396D01*
X0053300Y0145396D01*
X0055800Y0147896D01*
X0055800Y0152896D01*
X0053300Y0155396D01*
X0053300Y0145396D02*
X0055800Y0142896D01*
X0055800Y0137896D01*
X0053300Y0135396D01*
X0038300Y0135396D01*
X0035800Y0137896D01*
X0035800Y0142896D01*
X0038300Y0145396D01*
X0038300Y0135396D02*
X0035800Y0132896D01*
X0035800Y0127896D01*
X0038300Y0125396D01*
X0053300Y0125396D02*
X0055800Y0127896D01*
X0055800Y0132896D01*
X0053300Y0135396D01*
X0055800Y0122896D02*
X0055800Y0117896D01*
X0053300Y0115396D01*
X0038300Y0215396D02*
X0035800Y0217896D01*
X0035800Y0222896D01*
X0038300Y0225396D01*
X0038300Y0235396D02*
X0035800Y0237896D01*
X0035800Y0242896D01*
X0038300Y0245396D01*
X0038300Y0255396D02*
X0035800Y0257896D01*
X0035800Y0262896D01*
X0038300Y0265396D01*
X0038300Y0275396D02*
X0035800Y0277896D01*
X0035800Y0282896D01*
X0038300Y0285396D01*
D13*
X0080800Y0257758D02*
X0380013Y0257758D01*
X0380013Y0055396D01*
X0309146Y0055396D01*
X0309146Y0079018D01*
X0313083Y0079018D01*
X0313083Y0082955D01*
X0317020Y0082955D01*
X0317020Y0130199D01*
X0309146Y0130199D01*
X0309146Y0134136D01*
X0313083Y0134136D01*
X0313083Y0149884D01*
X0293398Y0149884D01*
X0293398Y0134136D01*
X0297335Y0134136D01*
X0297335Y0130199D01*
X0289461Y0130199D01*
X0289461Y0082955D01*
X0293398Y0082955D01*
X0293398Y0079018D01*
X0297335Y0079018D01*
X0297335Y0055396D01*
X0080800Y0055396D01*
X0080800Y0257758D01*
X0096548Y0256183D02*
X0096548Y0240435D01*
X0179225Y0240435D01*
X0179225Y0256183D01*
X0096548Y0256183D01*
X0084737Y0236498D02*
X0246154Y0236498D01*
X0246154Y0059333D01*
X0084737Y0059333D01*
X0084737Y0236498D01*
X0175800Y0216396D02*
X0175802Y0216440D01*
X0175808Y0216484D01*
X0175818Y0216527D01*
X0175831Y0216569D01*
X0175848Y0216610D01*
X0175869Y0216649D01*
X0175893Y0216686D01*
X0175920Y0216721D01*
X0175950Y0216753D01*
X0175983Y0216783D01*
X0176019Y0216809D01*
X0176056Y0216833D01*
X0176096Y0216852D01*
X0176137Y0216869D01*
X0176180Y0216881D01*
X0176223Y0216890D01*
X0176267Y0216895D01*
X0176311Y0216896D01*
X0176355Y0216893D01*
X0176399Y0216886D01*
X0176442Y0216875D01*
X0176484Y0216861D01*
X0176524Y0216843D01*
X0176563Y0216821D01*
X0176599Y0216797D01*
X0176633Y0216769D01*
X0176665Y0216738D01*
X0176694Y0216704D01*
X0176720Y0216668D01*
X0176742Y0216630D01*
X0176761Y0216590D01*
X0176776Y0216548D01*
X0176788Y0216506D01*
X0176796Y0216462D01*
X0176800Y0216418D01*
X0176800Y0216374D01*
X0176796Y0216330D01*
X0176788Y0216286D01*
X0176776Y0216244D01*
X0176761Y0216202D01*
X0176742Y0216162D01*
X0176720Y0216124D01*
X0176694Y0216088D01*
X0176665Y0216054D01*
X0176633Y0216023D01*
X0176599Y0215995D01*
X0176563Y0215971D01*
X0176524Y0215949D01*
X0176484Y0215931D01*
X0176442Y0215917D01*
X0176399Y0215906D01*
X0176355Y0215899D01*
X0176311Y0215896D01*
X0176267Y0215897D01*
X0176223Y0215902D01*
X0176180Y0215911D01*
X0176137Y0215923D01*
X0176096Y0215940D01*
X0176056Y0215959D01*
X0176019Y0215983D01*
X0175983Y0216009D01*
X0175950Y0216039D01*
X0175920Y0216071D01*
X0175893Y0216106D01*
X0175869Y0216143D01*
X0175848Y0216182D01*
X0175831Y0216223D01*
X0175818Y0216265D01*
X0175808Y0216308D01*
X0175802Y0216352D01*
X0175800Y0216396D01*
X0183162Y0240435D02*
X0246154Y0240435D01*
X0246154Y0256183D01*
X0183162Y0256183D01*
X0183162Y0240435D01*
X0297335Y0055396D02*
X0309146Y0055396D01*
D14*
X0170015Y0082904D02*
X0167713Y0080602D01*
X0165411Y0080602D01*
X0163109Y0082904D01*
X0163109Y0089810D01*
X0158505Y0089810D02*
X0167713Y0089810D01*
X0170015Y0087508D01*
X0170015Y0082904D01*
X0163109Y0094414D02*
X0163109Y0101320D01*
X0160807Y0103622D01*
X0158505Y0103622D01*
X0156203Y0101320D01*
X0156203Y0096716D01*
X0158505Y0094414D01*
X0163109Y0094414D01*
X0167713Y0099018D01*
X0170015Y0103622D01*
X0167713Y0108226D02*
X0170015Y0110528D01*
X0170015Y0115132D01*
X0167713Y0117434D01*
X0158505Y0108226D01*
X0156203Y0110528D01*
X0156203Y0115132D01*
X0158505Y0117434D01*
X0167713Y0117434D01*
X0167713Y0122038D02*
X0170015Y0124340D01*
X0170015Y0128944D01*
X0167713Y0131246D01*
X0165411Y0131246D01*
X0156203Y0122038D01*
X0156203Y0131246D01*
X0156203Y0149661D02*
X0170015Y0149661D01*
X0165411Y0154265D01*
X0170015Y0158869D01*
X0156203Y0158869D01*
X0158505Y0163473D02*
X0156203Y0165775D01*
X0156203Y0170379D01*
X0158505Y0172681D01*
X0163109Y0172681D01*
X0165411Y0170379D01*
X0165411Y0165775D01*
X0163109Y0163473D01*
X0158505Y0163473D01*
X0158505Y0177285D02*
X0163109Y0177285D01*
X0165411Y0179587D01*
X0165411Y0186493D01*
X0165411Y0191097D02*
X0158505Y0191097D01*
X0156203Y0193399D01*
X0156203Y0200305D01*
X0165411Y0200305D01*
X0170015Y0204909D02*
X0170015Y0207211D01*
X0156203Y0207211D01*
X0156203Y0209512D02*
X0156203Y0204909D01*
X0158505Y0214116D02*
X0163109Y0214116D01*
X0165411Y0216418D01*
X0165411Y0221022D01*
X0163109Y0223324D01*
X0160807Y0223324D01*
X0160807Y0214116D01*
X0158505Y0214116D02*
X0156203Y0216418D01*
X0156203Y0221022D01*
X0156203Y0186493D02*
X0156203Y0179587D01*
X0158505Y0177285D01*
X0156203Y0186493D02*
X0170015Y0186493D01*
X0167713Y0108226D02*
X0158505Y0108226D01*
X0158505Y0089810D02*
X0156203Y0087508D01*
X0156203Y0082904D01*
X0158505Y0080602D01*
D15*
X0299654Y0086612D02*
X0304925Y0086612D01*
X0307561Y0089248D01*
X0304925Y0091883D01*
X0299654Y0091883D01*
X0299654Y0094531D02*
X0304925Y0094531D01*
X0304925Y0098484D01*
X0303607Y0099802D01*
X0299654Y0099802D01*
X0300972Y0103768D02*
X0299654Y0105085D01*
X0300972Y0103768D02*
X0306243Y0103768D01*
X0304925Y0102450D02*
X0304925Y0105085D01*
X0303607Y0107729D02*
X0304925Y0109047D01*
X0304925Y0111682D01*
X0303607Y0113000D01*
X0302290Y0113000D01*
X0302290Y0107729D01*
X0303607Y0107729D02*
X0300972Y0107729D01*
X0299654Y0109047D01*
X0299654Y0111682D01*
X0299654Y0115648D02*
X0304925Y0115648D01*
X0304925Y0119601D01*
X0303607Y0120919D01*
X0299654Y0120919D01*
X0299654Y0123566D02*
X0304925Y0123566D01*
X0304925Y0127520D01*
X0303607Y0128838D01*
X0299654Y0128838D01*
X0300972Y0131485D02*
X0299654Y0132803D01*
X0299654Y0136756D01*
X0303607Y0136756D01*
X0304925Y0135439D01*
X0304925Y0132803D01*
X0302290Y0132803D02*
X0300972Y0131485D01*
X0302290Y0132803D02*
X0302290Y0136756D01*
X0303607Y0091883D02*
X0303607Y0086612D01*
D16*
X0165604Y0214111D02*
X0163302Y0214111D01*
X0164069Y0215646D01*
X0164069Y0216413D01*
X0163302Y0217180D01*
X0161767Y0217180D01*
X0161000Y0216413D01*
X0161000Y0214878D01*
X0161767Y0214111D01*
X0165604Y0214111D02*
X0165604Y0217180D01*
X0165604Y0218715D02*
X0162535Y0218715D01*
X0161000Y0220250D01*
X0162535Y0221784D01*
X0165604Y0221784D01*
X0171000Y0222552D02*
X0171000Y0224086D01*
X0171767Y0224854D01*
X0173302Y0224854D01*
X0173302Y0223319D01*
X0174837Y0224854D02*
X0175604Y0224086D01*
X0175604Y0222552D01*
X0174837Y0221784D01*
X0171767Y0221784D01*
X0171000Y0222552D01*
X0171000Y0226388D02*
X0175604Y0226388D01*
X0171000Y0229457D01*
X0175604Y0229457D01*
X0175604Y0230992D02*
X0175604Y0233294D01*
X0174837Y0234061D01*
X0171767Y0234061D01*
X0171000Y0233294D01*
X0171000Y0230992D01*
X0175604Y0230992D01*
X0165604Y0229457D02*
X0165604Y0227923D01*
X0165604Y0228690D02*
X0161000Y0228690D01*
X0161000Y0227923D02*
X0161000Y0229457D01*
X0161000Y0230992D02*
X0164069Y0230992D01*
X0164069Y0233294D01*
X0163302Y0234061D01*
X0161000Y0234061D01*
X0154837Y0233294D02*
X0151767Y0233294D01*
X0151000Y0234061D01*
X0151000Y0230992D02*
X0154069Y0230992D01*
X0154069Y0232527D02*
X0154069Y0234061D01*
X0151000Y0230992D02*
X0151000Y0228690D01*
X0151767Y0227923D01*
X0154069Y0227923D01*
X0154837Y0226388D02*
X0151767Y0226388D01*
X0151000Y0225621D01*
X0151000Y0224086D01*
X0151767Y0223319D01*
X0154837Y0223319D01*
X0155604Y0224086D01*
X0155604Y0225621D01*
X0154837Y0226388D01*
X0155604Y0217180D02*
X0152535Y0217180D01*
X0151000Y0215646D01*
X0152535Y0214111D01*
X0155604Y0214111D01*
X0155604Y0212576D02*
X0155604Y0209507D01*
X0153302Y0209507D01*
X0154069Y0211042D01*
X0154069Y0211809D01*
X0153302Y0212576D01*
X0151767Y0212576D01*
X0151000Y0211809D01*
X0151000Y0210274D01*
X0151767Y0209507D01*
X0135604Y0207972D02*
X0131000Y0211042D01*
X0135604Y0211042D01*
X0135604Y0212576D02*
X0131000Y0212576D01*
X0131000Y0215646D01*
X0133302Y0214111D02*
X0133302Y0212576D01*
X0135604Y0212576D02*
X0135604Y0215646D01*
X0135604Y0217180D02*
X0135604Y0220250D01*
X0135604Y0218715D02*
X0131000Y0218715D01*
X0125604Y0215646D02*
X0121000Y0215646D01*
X0125604Y0212576D01*
X0121000Y0212576D01*
X0121767Y0211042D02*
X0124837Y0211042D01*
X0125604Y0210274D01*
X0125604Y0208740D01*
X0124837Y0207972D01*
X0121767Y0207972D01*
X0121000Y0208740D01*
X0121000Y0210274D01*
X0121767Y0211042D01*
X0115604Y0211042D02*
X0111000Y0211042D01*
X0111000Y0214111D01*
X0111000Y0215646D02*
X0111000Y0217180D01*
X0111000Y0216413D02*
X0115604Y0216413D01*
X0115604Y0215646D02*
X0115604Y0217180D01*
X0113302Y0218715D02*
X0113302Y0221784D01*
X0115604Y0223319D02*
X0115604Y0224854D01*
X0115604Y0224086D02*
X0111000Y0224086D01*
X0111000Y0223319D02*
X0111000Y0224854D01*
X0111767Y0226388D02*
X0111000Y0227155D01*
X0111000Y0228690D01*
X0111767Y0229457D01*
X0114837Y0229457D01*
X0115604Y0228690D01*
X0115604Y0227155D01*
X0114837Y0226388D01*
X0111767Y0226388D01*
X0111000Y0230992D02*
X0115604Y0230992D01*
X0111000Y0234061D01*
X0115604Y0234061D01*
X0121000Y0230992D02*
X0125604Y0230992D01*
X0125604Y0234061D01*
X0123302Y0232527D02*
X0123302Y0230992D01*
X0125604Y0229457D02*
X0125604Y0226388D01*
X0121000Y0226388D01*
X0121767Y0224854D02*
X0124837Y0224854D01*
X0125604Y0224086D01*
X0125604Y0222552D01*
X0124837Y0221784D01*
X0121767Y0221784D01*
X0121000Y0222552D01*
X0121000Y0224086D01*
X0121767Y0224854D01*
X0123302Y0226388D02*
X0123302Y0227923D01*
X0131000Y0229457D02*
X0134069Y0229457D01*
X0135604Y0227923D01*
X0134069Y0226388D01*
X0131000Y0226388D01*
X0133302Y0226388D02*
X0133302Y0229457D01*
X0132535Y0230992D02*
X0131000Y0232527D01*
X0132535Y0234061D01*
X0135604Y0234061D01*
X0135604Y0230992D02*
X0132535Y0230992D01*
X0141000Y0230992D02*
X0142535Y0229457D01*
X0142535Y0230225D02*
X0142535Y0227923D01*
X0141000Y0227923D02*
X0145604Y0227923D01*
X0145604Y0230225D01*
X0144837Y0230992D01*
X0143302Y0230992D01*
X0142535Y0230225D01*
X0141000Y0232527D02*
X0141000Y0234061D01*
X0141000Y0233294D02*
X0145604Y0233294D01*
X0145604Y0232527D02*
X0145604Y0234061D01*
X0123302Y0220250D02*
X0123302Y0217180D01*
X0131000Y0207972D02*
X0135604Y0207972D01*
X0105604Y0222552D02*
X0104837Y0221784D01*
X0101767Y0221784D01*
X0101000Y0222552D01*
X0101000Y0224086D01*
X0101767Y0224854D01*
X0103302Y0224854D01*
X0103302Y0223319D01*
X0104837Y0224854D02*
X0105604Y0224086D01*
X0105604Y0222552D01*
X0105604Y0226388D02*
X0101000Y0226388D01*
X0101000Y0229457D02*
X0105604Y0229457D01*
X0105604Y0230992D02*
X0105604Y0233294D01*
X0104837Y0234061D01*
X0101767Y0234061D01*
X0101000Y0233294D01*
X0101000Y0230992D01*
X0105604Y0230992D01*
X0105604Y0226388D02*
X0101000Y0229457D01*
X0186000Y0229457D02*
X0190604Y0229457D01*
X0190604Y0230992D02*
X0190604Y0233294D01*
X0189837Y0234061D01*
X0186767Y0234061D01*
X0186000Y0233294D01*
X0186000Y0230992D01*
X0190604Y0230992D01*
X0190604Y0226388D02*
X0186000Y0226388D01*
X0186767Y0224854D02*
X0186000Y0224086D01*
X0186000Y0222552D01*
X0186767Y0221784D01*
X0189837Y0221784D01*
X0190604Y0222552D01*
X0190604Y0224086D01*
X0189837Y0224854D01*
X0188302Y0224854D02*
X0188302Y0223319D01*
X0188302Y0224854D02*
X0186767Y0224854D01*
X0190604Y0226388D02*
X0186000Y0229457D01*
X0196000Y0227923D02*
X0200604Y0227923D01*
X0200604Y0229457D02*
X0200604Y0226388D01*
X0199837Y0224854D02*
X0200604Y0224086D01*
X0200604Y0222552D01*
X0199837Y0221784D01*
X0196767Y0221784D01*
X0196000Y0222552D01*
X0196000Y0224086D01*
X0196767Y0224854D01*
X0196767Y0230992D02*
X0196000Y0231759D01*
X0196000Y0233294D01*
X0196767Y0234061D01*
X0197535Y0234061D01*
X0198302Y0233294D01*
X0198302Y0231759D01*
X0199069Y0230992D01*
X0199837Y0230992D01*
X0200604Y0231759D01*
X0200604Y0233294D01*
X0199837Y0234061D01*
X0206000Y0233294D02*
X0206767Y0234061D01*
X0206000Y0233294D02*
X0206000Y0231759D01*
X0206767Y0230992D01*
X0209837Y0230992D01*
X0210604Y0231759D01*
X0210604Y0233294D01*
X0209837Y0234061D01*
X0209837Y0229457D02*
X0210604Y0228690D01*
X0210604Y0227155D01*
X0209837Y0226388D01*
X0206767Y0226388D01*
X0206000Y0227155D01*
X0206000Y0228690D01*
X0206767Y0229457D01*
X0207535Y0224854D02*
X0210604Y0224854D01*
X0207535Y0224854D02*
X0206000Y0223319D01*
X0207535Y0221784D01*
X0210604Y0221784D01*
X0216000Y0223319D02*
X0220604Y0223319D01*
X0220604Y0221784D02*
X0220604Y0224854D01*
X0220604Y0226388D02*
X0216000Y0229457D01*
X0216000Y0230992D02*
X0216000Y0233294D01*
X0216767Y0234061D01*
X0219837Y0234061D01*
X0220604Y0233294D01*
X0220604Y0230992D01*
X0216000Y0230992D01*
X0216000Y0226388D02*
X0220604Y0229457D01*
X0226000Y0229457D02*
X0230604Y0226388D01*
X0229837Y0224854D02*
X0228302Y0224854D01*
X0227535Y0224086D01*
X0227535Y0221784D01*
X0227535Y0223319D02*
X0226000Y0224854D01*
X0226000Y0226388D02*
X0230604Y0229457D01*
X0230604Y0230992D02*
X0230604Y0233294D01*
X0229837Y0234061D01*
X0226767Y0234061D01*
X0226000Y0233294D01*
X0226000Y0230992D01*
X0230604Y0230992D01*
X0236000Y0231759D02*
X0236767Y0230992D01*
X0236000Y0231759D02*
X0236000Y0233294D01*
X0236767Y0234061D01*
X0237535Y0234061D01*
X0238302Y0233294D01*
X0238302Y0231759D01*
X0239069Y0230992D01*
X0239837Y0230992D01*
X0240604Y0231759D01*
X0240604Y0233294D01*
X0239837Y0234061D01*
X0240604Y0229457D02*
X0240604Y0226388D01*
X0240604Y0227923D02*
X0236000Y0227923D01*
X0236000Y0224854D02*
X0237535Y0223319D01*
X0237535Y0224086D02*
X0237535Y0221784D01*
X0236000Y0221784D02*
X0240604Y0221784D01*
X0240604Y0224086D01*
X0239837Y0224854D01*
X0238302Y0224854D01*
X0237535Y0224086D01*
X0230604Y0224086D02*
X0230604Y0221784D01*
X0226000Y0221784D01*
X0229837Y0224854D02*
X0230604Y0224086D01*
M02*
