%
M48
M72
T01C0.02362
T02C0.04000
T03C0.05900
T04C0.06700
T05C0.08661
T06C0.11811
T07C0.14000
%
T01
X57300Y390896
X72800Y357396
X38300Y342396
X48300Y326896
X13800Y321896
X128300Y264896
X166800Y298396
X158800Y306896
X183300Y311896
X219800Y315396
X242300Y329896
X240300Y343896
X266800Y336896
X290300Y322396
X308800Y314396
X318300Y333896
X330300Y325396
X311300Y359896
X315300Y387896
X383300Y328896
X275800Y251396
X190800Y161896
X211300Y146396
X177800Y117896
X209800Y86896
X218300Y63396
X211300Y35896
X216800Y25896
X278300Y15396
X302300Y67396
X314300Y66396
X333800Y84896
X350300Y92396
X270800Y143396
X248800Y89396
X264300Y82896
X175800Y83396
X137300Y121396
X139800Y134396
X127300Y84396
X127300Y57396
X129300Y25896
X142800Y26396
X77300Y25396
X51800Y31896
X41800Y24896
X52300Y41896
X45800Y61396
X59800Y72896
X20300Y55396
X21800Y44396
X20300Y32396
X107300Y314396
X107300Y324896
X130969Y325227
X173800Y379396
X175300Y392396
X164800Y397896
X134800Y390396
X224800Y399396
T02
X15300Y396896
X37800Y369896
X19800Y366396
X25300Y347896
X25300Y337896
X40800Y290396
X40800Y280396
X40800Y270396
X40800Y260396
X40800Y250396
X40800Y240396
X40800Y230396
X40800Y220396
X40800Y210396
X40800Y200396
X40800Y190396
X40800Y180396
X40800Y170396
X40800Y160396
X40800Y150396
X40800Y140396
X40800Y130396
X40800Y120396
X50800Y120396
X50800Y130396
X50800Y140396
X50800Y150396
X50800Y160396
X50800Y170396
X50800Y180396
X50800Y190396
X50800Y200396
X50800Y210396
X50800Y220396
X50800Y230396
X50800Y240396
X50800Y250396
X50800Y260396
X50800Y270396
X50800Y280396
X50800Y290396
X80800Y290396
X90800Y290396
X100800Y290396
X110800Y290396
X120800Y290396
X130800Y290396
X140800Y290396
X150800Y290396
X170800Y290396
X180800Y290396
X190800Y290396
X200800Y290396
X210800Y290396
X220800Y290396
X230800Y290396
X240800Y290396
X256800Y290396
X266800Y290396
X276800Y290396
X286800Y290396
X296800Y290396
X306800Y290396
X316800Y290396
X326800Y290396
X336800Y290396
X346800Y290396
X363800Y312896
X384800Y312896
X404300Y312896
X423300Y312396
X431300Y200896
X431300Y173896
X431800Y150896
X435800Y51396
X419800Y51396
X419800Y26896
X429800Y26896
X382550Y65146
X382800Y80896
X342050Y75396
X310800Y100396
X300800Y100396
X290800Y100396
X280800Y100396
X270800Y100396
X260800Y100396
X250800Y100396
X240800Y100396
X220800Y100396
X210800Y100396
X200800Y100396
X190800Y100396
X180800Y100396
X170800Y100396
X160800Y100396
X150800Y100396
X130800Y100396
X120800Y100396
X110800Y100396
X100800Y100396
X90800Y100396
X80800Y100396
X70800Y100396
X60800Y100396
X35300Y76396
X15800Y71396
X54300Y51396
X149050Y77896
X160800Y190396
X170800Y190396
X170800Y200396
X160800Y200396
X160800Y210396
X170800Y210396
X172847Y248309
X162847Y248309
X152847Y248309
X142847Y248309
X132847Y248309
X122847Y248309
X112847Y248309
X102847Y248309
X82300Y307396
X79800Y336396
X93300Y361396
X103300Y361396
X113300Y361396
X123300Y361396
X116800Y337396
X132300Y307396
X150300Y336396
X208300Y367396
X208300Y377396
X123300Y390396
X113300Y390396
X103300Y390396
X93300Y390396
X189265Y248309
X199265Y248309
X209265Y248309
X219265Y248309
X229265Y248309
X239265Y248309
X433800Y375396
T03
X408800Y344896
T04
X398800Y354896
X398800Y334896
X418800Y334896
X418800Y354896
T05
X90643Y247916
X365052Y82955
T06
X356769Y373243
T07
X19800Y89396
X19800Y282396
X435300Y284396
X435300Y89396
M30
