G75*
%MOIN*%
%OFA0B0*%
%FSLAX25Y25*%
%IPPOS*%
%LPD*%
%AMOC8*
5,1,8,0,0,1.08239X$1,22.5*
%
%ADD10C,0.00000*%
%ADD11C,0.14800*%
%ADD12R,0.05800X0.03000*%
%ADD13R,0.04737X0.03950*%
%ADD14R,0.04737X0.05131*%
%ADD15OC8,0.09300*%
%ADD16R,0.38595X0.34265*%
%ADD17R,0.14186X0.04737*%
%ADD18R,0.05131X0.04737*%
%ADD19R,0.08595X0.02887*%
%ADD20R,0.16154X0.16154*%
%ADD21R,0.13398X0.13398*%
%ADD22R,0.07099X0.07887*%
%ADD23R,0.07887X0.06312*%
%ADD24R,0.06312X0.08280*%
%ADD25R,0.03950X0.06706*%
%ADD26C,0.08200*%
%ADD27OC8,0.08200*%
%ADD28C,0.00560*%
%ADD29C,0.09461*%
%ADD30R,0.02965X0.05524*%
%ADD31R,0.05328X0.02965*%
%ADD32R,0.02965X0.05328*%
%ADD33R,0.02800X0.08600*%
%ADD34R,0.02200X0.04800*%
%ADD35R,0.08674X0.04737*%
%ADD36C,0.12611*%
%ADD37C,0.09650*%
%ADD38C,0.10850*%
%ADD39R,0.04737X0.06312*%
%ADD40R,0.03000X0.05800*%
%ADD41R,0.02900X0.08600*%
%ADD42R,0.01784X0.04737*%
%ADD43R,0.07099X0.07898*%
%ADD44R,0.04800X0.02200*%
%ADD45R,0.06312X0.04737*%
%ADD46C,0.07200*%
%ADD47R,0.02200X0.05400*%
%ADD48R,0.03950X0.07099*%
%ADD49R,0.03800X0.05300*%
%ADD50R,0.04762X0.04762*%
D10*
X0006800Y0006896D02*
X0006800Y0405396D01*
X0448300Y0405396D01*
X0448300Y0006896D01*
X0006800Y0006896D01*
X0012800Y0089396D02*
X0012802Y0089568D01*
X0012808Y0089739D01*
X0012819Y0089911D01*
X0012834Y0090082D01*
X0012853Y0090253D01*
X0012876Y0090423D01*
X0012903Y0090593D01*
X0012935Y0090762D01*
X0012970Y0090930D01*
X0013010Y0091097D01*
X0013054Y0091263D01*
X0013101Y0091428D01*
X0013153Y0091592D01*
X0013209Y0091754D01*
X0013269Y0091915D01*
X0013333Y0092075D01*
X0013401Y0092233D01*
X0013472Y0092389D01*
X0013547Y0092543D01*
X0013627Y0092696D01*
X0013709Y0092846D01*
X0013796Y0092995D01*
X0013886Y0093141D01*
X0013980Y0093285D01*
X0014077Y0093427D01*
X0014178Y0093566D01*
X0014282Y0093703D01*
X0014389Y0093837D01*
X0014500Y0093968D01*
X0014613Y0094097D01*
X0014730Y0094223D01*
X0014850Y0094346D01*
X0014973Y0094466D01*
X0015099Y0094583D01*
X0015228Y0094696D01*
X0015359Y0094807D01*
X0015493Y0094914D01*
X0015630Y0095018D01*
X0015769Y0095119D01*
X0015911Y0095216D01*
X0016055Y0095310D01*
X0016201Y0095400D01*
X0016350Y0095487D01*
X0016500Y0095569D01*
X0016653Y0095649D01*
X0016807Y0095724D01*
X0016963Y0095795D01*
X0017121Y0095863D01*
X0017281Y0095927D01*
X0017442Y0095987D01*
X0017604Y0096043D01*
X0017768Y0096095D01*
X0017933Y0096142D01*
X0018099Y0096186D01*
X0018266Y0096226D01*
X0018434Y0096261D01*
X0018603Y0096293D01*
X0018773Y0096320D01*
X0018943Y0096343D01*
X0019114Y0096362D01*
X0019285Y0096377D01*
X0019457Y0096388D01*
X0019628Y0096394D01*
X0019800Y0096396D01*
X0019972Y0096394D01*
X0020143Y0096388D01*
X0020315Y0096377D01*
X0020486Y0096362D01*
X0020657Y0096343D01*
X0020827Y0096320D01*
X0020997Y0096293D01*
X0021166Y0096261D01*
X0021334Y0096226D01*
X0021501Y0096186D01*
X0021667Y0096142D01*
X0021832Y0096095D01*
X0021996Y0096043D01*
X0022158Y0095987D01*
X0022319Y0095927D01*
X0022479Y0095863D01*
X0022637Y0095795D01*
X0022793Y0095724D01*
X0022947Y0095649D01*
X0023100Y0095569D01*
X0023250Y0095487D01*
X0023399Y0095400D01*
X0023545Y0095310D01*
X0023689Y0095216D01*
X0023831Y0095119D01*
X0023970Y0095018D01*
X0024107Y0094914D01*
X0024241Y0094807D01*
X0024372Y0094696D01*
X0024501Y0094583D01*
X0024627Y0094466D01*
X0024750Y0094346D01*
X0024870Y0094223D01*
X0024987Y0094097D01*
X0025100Y0093968D01*
X0025211Y0093837D01*
X0025318Y0093703D01*
X0025422Y0093566D01*
X0025523Y0093427D01*
X0025620Y0093285D01*
X0025714Y0093141D01*
X0025804Y0092995D01*
X0025891Y0092846D01*
X0025973Y0092696D01*
X0026053Y0092543D01*
X0026128Y0092389D01*
X0026199Y0092233D01*
X0026267Y0092075D01*
X0026331Y0091915D01*
X0026391Y0091754D01*
X0026447Y0091592D01*
X0026499Y0091428D01*
X0026546Y0091263D01*
X0026590Y0091097D01*
X0026630Y0090930D01*
X0026665Y0090762D01*
X0026697Y0090593D01*
X0026724Y0090423D01*
X0026747Y0090253D01*
X0026766Y0090082D01*
X0026781Y0089911D01*
X0026792Y0089739D01*
X0026798Y0089568D01*
X0026800Y0089396D01*
X0026798Y0089224D01*
X0026792Y0089053D01*
X0026781Y0088881D01*
X0026766Y0088710D01*
X0026747Y0088539D01*
X0026724Y0088369D01*
X0026697Y0088199D01*
X0026665Y0088030D01*
X0026630Y0087862D01*
X0026590Y0087695D01*
X0026546Y0087529D01*
X0026499Y0087364D01*
X0026447Y0087200D01*
X0026391Y0087038D01*
X0026331Y0086877D01*
X0026267Y0086717D01*
X0026199Y0086559D01*
X0026128Y0086403D01*
X0026053Y0086249D01*
X0025973Y0086096D01*
X0025891Y0085946D01*
X0025804Y0085797D01*
X0025714Y0085651D01*
X0025620Y0085507D01*
X0025523Y0085365D01*
X0025422Y0085226D01*
X0025318Y0085089D01*
X0025211Y0084955D01*
X0025100Y0084824D01*
X0024987Y0084695D01*
X0024870Y0084569D01*
X0024750Y0084446D01*
X0024627Y0084326D01*
X0024501Y0084209D01*
X0024372Y0084096D01*
X0024241Y0083985D01*
X0024107Y0083878D01*
X0023970Y0083774D01*
X0023831Y0083673D01*
X0023689Y0083576D01*
X0023545Y0083482D01*
X0023399Y0083392D01*
X0023250Y0083305D01*
X0023100Y0083223D01*
X0022947Y0083143D01*
X0022793Y0083068D01*
X0022637Y0082997D01*
X0022479Y0082929D01*
X0022319Y0082865D01*
X0022158Y0082805D01*
X0021996Y0082749D01*
X0021832Y0082697D01*
X0021667Y0082650D01*
X0021501Y0082606D01*
X0021334Y0082566D01*
X0021166Y0082531D01*
X0020997Y0082499D01*
X0020827Y0082472D01*
X0020657Y0082449D01*
X0020486Y0082430D01*
X0020315Y0082415D01*
X0020143Y0082404D01*
X0019972Y0082398D01*
X0019800Y0082396D01*
X0019628Y0082398D01*
X0019457Y0082404D01*
X0019285Y0082415D01*
X0019114Y0082430D01*
X0018943Y0082449D01*
X0018773Y0082472D01*
X0018603Y0082499D01*
X0018434Y0082531D01*
X0018266Y0082566D01*
X0018099Y0082606D01*
X0017933Y0082650D01*
X0017768Y0082697D01*
X0017604Y0082749D01*
X0017442Y0082805D01*
X0017281Y0082865D01*
X0017121Y0082929D01*
X0016963Y0082997D01*
X0016807Y0083068D01*
X0016653Y0083143D01*
X0016500Y0083223D01*
X0016350Y0083305D01*
X0016201Y0083392D01*
X0016055Y0083482D01*
X0015911Y0083576D01*
X0015769Y0083673D01*
X0015630Y0083774D01*
X0015493Y0083878D01*
X0015359Y0083985D01*
X0015228Y0084096D01*
X0015099Y0084209D01*
X0014973Y0084326D01*
X0014850Y0084446D01*
X0014730Y0084569D01*
X0014613Y0084695D01*
X0014500Y0084824D01*
X0014389Y0084955D01*
X0014282Y0085089D01*
X0014178Y0085226D01*
X0014077Y0085365D01*
X0013980Y0085507D01*
X0013886Y0085651D01*
X0013796Y0085797D01*
X0013709Y0085946D01*
X0013627Y0086096D01*
X0013547Y0086249D01*
X0013472Y0086403D01*
X0013401Y0086559D01*
X0013333Y0086717D01*
X0013269Y0086877D01*
X0013209Y0087038D01*
X0013153Y0087200D01*
X0013101Y0087364D01*
X0013054Y0087529D01*
X0013010Y0087695D01*
X0012970Y0087862D01*
X0012935Y0088030D01*
X0012903Y0088199D01*
X0012876Y0088369D01*
X0012853Y0088539D01*
X0012834Y0088710D01*
X0012819Y0088881D01*
X0012808Y0089053D01*
X0012802Y0089224D01*
X0012800Y0089396D01*
X0086312Y0247916D02*
X0086314Y0248047D01*
X0086320Y0248179D01*
X0086330Y0248310D01*
X0086344Y0248441D01*
X0086362Y0248571D01*
X0086384Y0248700D01*
X0086409Y0248829D01*
X0086439Y0248957D01*
X0086473Y0249084D01*
X0086510Y0249211D01*
X0086551Y0249335D01*
X0086596Y0249459D01*
X0086645Y0249581D01*
X0086697Y0249702D01*
X0086753Y0249820D01*
X0086813Y0249938D01*
X0086876Y0250053D01*
X0086943Y0250166D01*
X0087013Y0250278D01*
X0087086Y0250387D01*
X0087162Y0250493D01*
X0087242Y0250598D01*
X0087325Y0250700D01*
X0087411Y0250799D01*
X0087500Y0250896D01*
X0087592Y0250990D01*
X0087687Y0251081D01*
X0087784Y0251170D01*
X0087884Y0251255D01*
X0087987Y0251337D01*
X0088092Y0251416D01*
X0088199Y0251492D01*
X0088309Y0251564D01*
X0088421Y0251633D01*
X0088535Y0251699D01*
X0088650Y0251761D01*
X0088768Y0251820D01*
X0088887Y0251875D01*
X0089008Y0251927D01*
X0089131Y0251974D01*
X0089255Y0252018D01*
X0089380Y0252059D01*
X0089506Y0252095D01*
X0089634Y0252128D01*
X0089762Y0252156D01*
X0089891Y0252181D01*
X0090021Y0252202D01*
X0090151Y0252219D01*
X0090282Y0252232D01*
X0090413Y0252241D01*
X0090544Y0252246D01*
X0090676Y0252247D01*
X0090807Y0252244D01*
X0090939Y0252237D01*
X0091070Y0252226D01*
X0091200Y0252211D01*
X0091330Y0252192D01*
X0091460Y0252169D01*
X0091588Y0252143D01*
X0091716Y0252112D01*
X0091843Y0252077D01*
X0091969Y0252039D01*
X0092093Y0251997D01*
X0092217Y0251951D01*
X0092338Y0251901D01*
X0092458Y0251848D01*
X0092577Y0251791D01*
X0092694Y0251731D01*
X0092808Y0251667D01*
X0092921Y0251599D01*
X0093032Y0251528D01*
X0093141Y0251454D01*
X0093247Y0251377D01*
X0093351Y0251296D01*
X0093452Y0251213D01*
X0093551Y0251126D01*
X0093647Y0251036D01*
X0093740Y0250943D01*
X0093831Y0250848D01*
X0093918Y0250750D01*
X0094003Y0250649D01*
X0094084Y0250546D01*
X0094162Y0250440D01*
X0094237Y0250332D01*
X0094309Y0250222D01*
X0094377Y0250110D01*
X0094442Y0249996D01*
X0094503Y0249879D01*
X0094561Y0249761D01*
X0094615Y0249641D01*
X0094666Y0249520D01*
X0094713Y0249397D01*
X0094756Y0249273D01*
X0094795Y0249148D01*
X0094831Y0249021D01*
X0094862Y0248893D01*
X0094890Y0248765D01*
X0094914Y0248636D01*
X0094934Y0248506D01*
X0094950Y0248375D01*
X0094962Y0248244D01*
X0094970Y0248113D01*
X0094974Y0247982D01*
X0094974Y0247850D01*
X0094970Y0247719D01*
X0094962Y0247588D01*
X0094950Y0247457D01*
X0094934Y0247326D01*
X0094914Y0247196D01*
X0094890Y0247067D01*
X0094862Y0246939D01*
X0094831Y0246811D01*
X0094795Y0246684D01*
X0094756Y0246559D01*
X0094713Y0246435D01*
X0094666Y0246312D01*
X0094615Y0246191D01*
X0094561Y0246071D01*
X0094503Y0245953D01*
X0094442Y0245836D01*
X0094377Y0245722D01*
X0094309Y0245610D01*
X0094237Y0245500D01*
X0094162Y0245392D01*
X0094084Y0245286D01*
X0094003Y0245183D01*
X0093918Y0245082D01*
X0093831Y0244984D01*
X0093740Y0244889D01*
X0093647Y0244796D01*
X0093551Y0244706D01*
X0093452Y0244619D01*
X0093351Y0244536D01*
X0093247Y0244455D01*
X0093141Y0244378D01*
X0093032Y0244304D01*
X0092921Y0244233D01*
X0092809Y0244165D01*
X0092694Y0244101D01*
X0092577Y0244041D01*
X0092458Y0243984D01*
X0092338Y0243931D01*
X0092217Y0243881D01*
X0092093Y0243835D01*
X0091969Y0243793D01*
X0091843Y0243755D01*
X0091716Y0243720D01*
X0091588Y0243689D01*
X0091460Y0243663D01*
X0091330Y0243640D01*
X0091200Y0243621D01*
X0091070Y0243606D01*
X0090939Y0243595D01*
X0090807Y0243588D01*
X0090676Y0243585D01*
X0090544Y0243586D01*
X0090413Y0243591D01*
X0090282Y0243600D01*
X0090151Y0243613D01*
X0090021Y0243630D01*
X0089891Y0243651D01*
X0089762Y0243676D01*
X0089634Y0243704D01*
X0089506Y0243737D01*
X0089380Y0243773D01*
X0089255Y0243814D01*
X0089131Y0243858D01*
X0089008Y0243905D01*
X0088887Y0243957D01*
X0088768Y0244012D01*
X0088650Y0244071D01*
X0088535Y0244133D01*
X0088421Y0244199D01*
X0088309Y0244268D01*
X0088199Y0244340D01*
X0088092Y0244416D01*
X0087987Y0244495D01*
X0087884Y0244577D01*
X0087784Y0244662D01*
X0087687Y0244751D01*
X0087592Y0244842D01*
X0087500Y0244936D01*
X0087411Y0245033D01*
X0087325Y0245132D01*
X0087242Y0245234D01*
X0087162Y0245339D01*
X0087086Y0245445D01*
X0087013Y0245554D01*
X0086943Y0245666D01*
X0086876Y0245779D01*
X0086813Y0245894D01*
X0086753Y0246012D01*
X0086697Y0246130D01*
X0086645Y0246251D01*
X0086596Y0246373D01*
X0086551Y0246497D01*
X0086510Y0246621D01*
X0086473Y0246748D01*
X0086439Y0246875D01*
X0086409Y0247003D01*
X0086384Y0247132D01*
X0086362Y0247261D01*
X0086344Y0247391D01*
X0086330Y0247522D01*
X0086320Y0247653D01*
X0086314Y0247785D01*
X0086312Y0247916D01*
X0012800Y0282396D02*
X0012802Y0282568D01*
X0012808Y0282739D01*
X0012819Y0282911D01*
X0012834Y0283082D01*
X0012853Y0283253D01*
X0012876Y0283423D01*
X0012903Y0283593D01*
X0012935Y0283762D01*
X0012970Y0283930D01*
X0013010Y0284097D01*
X0013054Y0284263D01*
X0013101Y0284428D01*
X0013153Y0284592D01*
X0013209Y0284754D01*
X0013269Y0284915D01*
X0013333Y0285075D01*
X0013401Y0285233D01*
X0013472Y0285389D01*
X0013547Y0285543D01*
X0013627Y0285696D01*
X0013709Y0285846D01*
X0013796Y0285995D01*
X0013886Y0286141D01*
X0013980Y0286285D01*
X0014077Y0286427D01*
X0014178Y0286566D01*
X0014282Y0286703D01*
X0014389Y0286837D01*
X0014500Y0286968D01*
X0014613Y0287097D01*
X0014730Y0287223D01*
X0014850Y0287346D01*
X0014973Y0287466D01*
X0015099Y0287583D01*
X0015228Y0287696D01*
X0015359Y0287807D01*
X0015493Y0287914D01*
X0015630Y0288018D01*
X0015769Y0288119D01*
X0015911Y0288216D01*
X0016055Y0288310D01*
X0016201Y0288400D01*
X0016350Y0288487D01*
X0016500Y0288569D01*
X0016653Y0288649D01*
X0016807Y0288724D01*
X0016963Y0288795D01*
X0017121Y0288863D01*
X0017281Y0288927D01*
X0017442Y0288987D01*
X0017604Y0289043D01*
X0017768Y0289095D01*
X0017933Y0289142D01*
X0018099Y0289186D01*
X0018266Y0289226D01*
X0018434Y0289261D01*
X0018603Y0289293D01*
X0018773Y0289320D01*
X0018943Y0289343D01*
X0019114Y0289362D01*
X0019285Y0289377D01*
X0019457Y0289388D01*
X0019628Y0289394D01*
X0019800Y0289396D01*
X0019972Y0289394D01*
X0020143Y0289388D01*
X0020315Y0289377D01*
X0020486Y0289362D01*
X0020657Y0289343D01*
X0020827Y0289320D01*
X0020997Y0289293D01*
X0021166Y0289261D01*
X0021334Y0289226D01*
X0021501Y0289186D01*
X0021667Y0289142D01*
X0021832Y0289095D01*
X0021996Y0289043D01*
X0022158Y0288987D01*
X0022319Y0288927D01*
X0022479Y0288863D01*
X0022637Y0288795D01*
X0022793Y0288724D01*
X0022947Y0288649D01*
X0023100Y0288569D01*
X0023250Y0288487D01*
X0023399Y0288400D01*
X0023545Y0288310D01*
X0023689Y0288216D01*
X0023831Y0288119D01*
X0023970Y0288018D01*
X0024107Y0287914D01*
X0024241Y0287807D01*
X0024372Y0287696D01*
X0024501Y0287583D01*
X0024627Y0287466D01*
X0024750Y0287346D01*
X0024870Y0287223D01*
X0024987Y0287097D01*
X0025100Y0286968D01*
X0025211Y0286837D01*
X0025318Y0286703D01*
X0025422Y0286566D01*
X0025523Y0286427D01*
X0025620Y0286285D01*
X0025714Y0286141D01*
X0025804Y0285995D01*
X0025891Y0285846D01*
X0025973Y0285696D01*
X0026053Y0285543D01*
X0026128Y0285389D01*
X0026199Y0285233D01*
X0026267Y0285075D01*
X0026331Y0284915D01*
X0026391Y0284754D01*
X0026447Y0284592D01*
X0026499Y0284428D01*
X0026546Y0284263D01*
X0026590Y0284097D01*
X0026630Y0283930D01*
X0026665Y0283762D01*
X0026697Y0283593D01*
X0026724Y0283423D01*
X0026747Y0283253D01*
X0026766Y0283082D01*
X0026781Y0282911D01*
X0026792Y0282739D01*
X0026798Y0282568D01*
X0026800Y0282396D01*
X0026798Y0282224D01*
X0026792Y0282053D01*
X0026781Y0281881D01*
X0026766Y0281710D01*
X0026747Y0281539D01*
X0026724Y0281369D01*
X0026697Y0281199D01*
X0026665Y0281030D01*
X0026630Y0280862D01*
X0026590Y0280695D01*
X0026546Y0280529D01*
X0026499Y0280364D01*
X0026447Y0280200D01*
X0026391Y0280038D01*
X0026331Y0279877D01*
X0026267Y0279717D01*
X0026199Y0279559D01*
X0026128Y0279403D01*
X0026053Y0279249D01*
X0025973Y0279096D01*
X0025891Y0278946D01*
X0025804Y0278797D01*
X0025714Y0278651D01*
X0025620Y0278507D01*
X0025523Y0278365D01*
X0025422Y0278226D01*
X0025318Y0278089D01*
X0025211Y0277955D01*
X0025100Y0277824D01*
X0024987Y0277695D01*
X0024870Y0277569D01*
X0024750Y0277446D01*
X0024627Y0277326D01*
X0024501Y0277209D01*
X0024372Y0277096D01*
X0024241Y0276985D01*
X0024107Y0276878D01*
X0023970Y0276774D01*
X0023831Y0276673D01*
X0023689Y0276576D01*
X0023545Y0276482D01*
X0023399Y0276392D01*
X0023250Y0276305D01*
X0023100Y0276223D01*
X0022947Y0276143D01*
X0022793Y0276068D01*
X0022637Y0275997D01*
X0022479Y0275929D01*
X0022319Y0275865D01*
X0022158Y0275805D01*
X0021996Y0275749D01*
X0021832Y0275697D01*
X0021667Y0275650D01*
X0021501Y0275606D01*
X0021334Y0275566D01*
X0021166Y0275531D01*
X0020997Y0275499D01*
X0020827Y0275472D01*
X0020657Y0275449D01*
X0020486Y0275430D01*
X0020315Y0275415D01*
X0020143Y0275404D01*
X0019972Y0275398D01*
X0019800Y0275396D01*
X0019628Y0275398D01*
X0019457Y0275404D01*
X0019285Y0275415D01*
X0019114Y0275430D01*
X0018943Y0275449D01*
X0018773Y0275472D01*
X0018603Y0275499D01*
X0018434Y0275531D01*
X0018266Y0275566D01*
X0018099Y0275606D01*
X0017933Y0275650D01*
X0017768Y0275697D01*
X0017604Y0275749D01*
X0017442Y0275805D01*
X0017281Y0275865D01*
X0017121Y0275929D01*
X0016963Y0275997D01*
X0016807Y0276068D01*
X0016653Y0276143D01*
X0016500Y0276223D01*
X0016350Y0276305D01*
X0016201Y0276392D01*
X0016055Y0276482D01*
X0015911Y0276576D01*
X0015769Y0276673D01*
X0015630Y0276774D01*
X0015493Y0276878D01*
X0015359Y0276985D01*
X0015228Y0277096D01*
X0015099Y0277209D01*
X0014973Y0277326D01*
X0014850Y0277446D01*
X0014730Y0277569D01*
X0014613Y0277695D01*
X0014500Y0277824D01*
X0014389Y0277955D01*
X0014282Y0278089D01*
X0014178Y0278226D01*
X0014077Y0278365D01*
X0013980Y0278507D01*
X0013886Y0278651D01*
X0013796Y0278797D01*
X0013709Y0278946D01*
X0013627Y0279096D01*
X0013547Y0279249D01*
X0013472Y0279403D01*
X0013401Y0279559D01*
X0013333Y0279717D01*
X0013269Y0279877D01*
X0013209Y0280038D01*
X0013153Y0280200D01*
X0013101Y0280364D01*
X0013054Y0280529D01*
X0013010Y0280695D01*
X0012970Y0280862D01*
X0012935Y0281030D01*
X0012903Y0281199D01*
X0012876Y0281369D01*
X0012853Y0281539D01*
X0012834Y0281710D01*
X0012819Y0281881D01*
X0012808Y0282053D01*
X0012802Y0282224D01*
X0012800Y0282396D01*
X0350863Y0373243D02*
X0350865Y0373396D01*
X0350871Y0373550D01*
X0350881Y0373703D01*
X0350895Y0373855D01*
X0350913Y0374008D01*
X0350935Y0374159D01*
X0350960Y0374310D01*
X0350990Y0374461D01*
X0351024Y0374611D01*
X0351061Y0374759D01*
X0351102Y0374907D01*
X0351147Y0375053D01*
X0351196Y0375199D01*
X0351249Y0375343D01*
X0351305Y0375485D01*
X0351365Y0375626D01*
X0351429Y0375766D01*
X0351496Y0375904D01*
X0351567Y0376040D01*
X0351642Y0376174D01*
X0351719Y0376306D01*
X0351801Y0376436D01*
X0351885Y0376564D01*
X0351973Y0376690D01*
X0352064Y0376813D01*
X0352158Y0376934D01*
X0352256Y0377052D01*
X0352356Y0377168D01*
X0352460Y0377281D01*
X0352566Y0377392D01*
X0352675Y0377500D01*
X0352787Y0377605D01*
X0352901Y0377706D01*
X0353019Y0377805D01*
X0353138Y0377901D01*
X0353260Y0377994D01*
X0353385Y0378083D01*
X0353512Y0378170D01*
X0353641Y0378252D01*
X0353772Y0378332D01*
X0353905Y0378408D01*
X0354040Y0378481D01*
X0354177Y0378550D01*
X0354316Y0378615D01*
X0354456Y0378677D01*
X0354598Y0378735D01*
X0354741Y0378790D01*
X0354886Y0378841D01*
X0355032Y0378888D01*
X0355179Y0378931D01*
X0355327Y0378970D01*
X0355476Y0379006D01*
X0355626Y0379037D01*
X0355777Y0379065D01*
X0355928Y0379089D01*
X0356081Y0379109D01*
X0356233Y0379125D01*
X0356386Y0379137D01*
X0356539Y0379145D01*
X0356692Y0379149D01*
X0356846Y0379149D01*
X0356999Y0379145D01*
X0357152Y0379137D01*
X0357305Y0379125D01*
X0357457Y0379109D01*
X0357610Y0379089D01*
X0357761Y0379065D01*
X0357912Y0379037D01*
X0358062Y0379006D01*
X0358211Y0378970D01*
X0358359Y0378931D01*
X0358506Y0378888D01*
X0358652Y0378841D01*
X0358797Y0378790D01*
X0358940Y0378735D01*
X0359082Y0378677D01*
X0359222Y0378615D01*
X0359361Y0378550D01*
X0359498Y0378481D01*
X0359633Y0378408D01*
X0359766Y0378332D01*
X0359897Y0378252D01*
X0360026Y0378170D01*
X0360153Y0378083D01*
X0360278Y0377994D01*
X0360400Y0377901D01*
X0360519Y0377805D01*
X0360637Y0377706D01*
X0360751Y0377605D01*
X0360863Y0377500D01*
X0360972Y0377392D01*
X0361078Y0377281D01*
X0361182Y0377168D01*
X0361282Y0377052D01*
X0361380Y0376934D01*
X0361474Y0376813D01*
X0361565Y0376690D01*
X0361653Y0376564D01*
X0361737Y0376436D01*
X0361819Y0376306D01*
X0361896Y0376174D01*
X0361971Y0376040D01*
X0362042Y0375904D01*
X0362109Y0375766D01*
X0362173Y0375626D01*
X0362233Y0375485D01*
X0362289Y0375343D01*
X0362342Y0375199D01*
X0362391Y0375053D01*
X0362436Y0374907D01*
X0362477Y0374759D01*
X0362514Y0374611D01*
X0362548Y0374461D01*
X0362578Y0374310D01*
X0362603Y0374159D01*
X0362625Y0374008D01*
X0362643Y0373855D01*
X0362657Y0373703D01*
X0362667Y0373550D01*
X0362673Y0373396D01*
X0362675Y0373243D01*
X0362673Y0373090D01*
X0362667Y0372936D01*
X0362657Y0372783D01*
X0362643Y0372631D01*
X0362625Y0372478D01*
X0362603Y0372327D01*
X0362578Y0372176D01*
X0362548Y0372025D01*
X0362514Y0371875D01*
X0362477Y0371727D01*
X0362436Y0371579D01*
X0362391Y0371433D01*
X0362342Y0371287D01*
X0362289Y0371143D01*
X0362233Y0371001D01*
X0362173Y0370860D01*
X0362109Y0370720D01*
X0362042Y0370582D01*
X0361971Y0370446D01*
X0361896Y0370312D01*
X0361819Y0370180D01*
X0361737Y0370050D01*
X0361653Y0369922D01*
X0361565Y0369796D01*
X0361474Y0369673D01*
X0361380Y0369552D01*
X0361282Y0369434D01*
X0361182Y0369318D01*
X0361078Y0369205D01*
X0360972Y0369094D01*
X0360863Y0368986D01*
X0360751Y0368881D01*
X0360637Y0368780D01*
X0360519Y0368681D01*
X0360400Y0368585D01*
X0360278Y0368492D01*
X0360153Y0368403D01*
X0360026Y0368316D01*
X0359897Y0368234D01*
X0359766Y0368154D01*
X0359633Y0368078D01*
X0359498Y0368005D01*
X0359361Y0367936D01*
X0359222Y0367871D01*
X0359082Y0367809D01*
X0358940Y0367751D01*
X0358797Y0367696D01*
X0358652Y0367645D01*
X0358506Y0367598D01*
X0358359Y0367555D01*
X0358211Y0367516D01*
X0358062Y0367480D01*
X0357912Y0367449D01*
X0357761Y0367421D01*
X0357610Y0367397D01*
X0357457Y0367377D01*
X0357305Y0367361D01*
X0357152Y0367349D01*
X0356999Y0367341D01*
X0356846Y0367337D01*
X0356692Y0367337D01*
X0356539Y0367341D01*
X0356386Y0367349D01*
X0356233Y0367361D01*
X0356081Y0367377D01*
X0355928Y0367397D01*
X0355777Y0367421D01*
X0355626Y0367449D01*
X0355476Y0367480D01*
X0355327Y0367516D01*
X0355179Y0367555D01*
X0355032Y0367598D01*
X0354886Y0367645D01*
X0354741Y0367696D01*
X0354598Y0367751D01*
X0354456Y0367809D01*
X0354316Y0367871D01*
X0354177Y0367936D01*
X0354040Y0368005D01*
X0353905Y0368078D01*
X0353772Y0368154D01*
X0353641Y0368234D01*
X0353512Y0368316D01*
X0353385Y0368403D01*
X0353260Y0368492D01*
X0353138Y0368585D01*
X0353019Y0368681D01*
X0352901Y0368780D01*
X0352787Y0368881D01*
X0352675Y0368986D01*
X0352566Y0369094D01*
X0352460Y0369205D01*
X0352356Y0369318D01*
X0352256Y0369434D01*
X0352158Y0369552D01*
X0352064Y0369673D01*
X0351973Y0369796D01*
X0351885Y0369922D01*
X0351801Y0370050D01*
X0351719Y0370180D01*
X0351642Y0370312D01*
X0351567Y0370446D01*
X0351496Y0370582D01*
X0351429Y0370720D01*
X0351365Y0370860D01*
X0351305Y0371001D01*
X0351249Y0371143D01*
X0351196Y0371287D01*
X0351147Y0371433D01*
X0351102Y0371579D01*
X0351061Y0371727D01*
X0351024Y0371875D01*
X0350990Y0372025D01*
X0350960Y0372176D01*
X0350935Y0372327D01*
X0350913Y0372478D01*
X0350895Y0372631D01*
X0350881Y0372783D01*
X0350871Y0372936D01*
X0350865Y0373090D01*
X0350863Y0373243D01*
X0428300Y0284396D02*
X0428302Y0284568D01*
X0428308Y0284739D01*
X0428319Y0284911D01*
X0428334Y0285082D01*
X0428353Y0285253D01*
X0428376Y0285423D01*
X0428403Y0285593D01*
X0428435Y0285762D01*
X0428470Y0285930D01*
X0428510Y0286097D01*
X0428554Y0286263D01*
X0428601Y0286428D01*
X0428653Y0286592D01*
X0428709Y0286754D01*
X0428769Y0286915D01*
X0428833Y0287075D01*
X0428901Y0287233D01*
X0428972Y0287389D01*
X0429047Y0287543D01*
X0429127Y0287696D01*
X0429209Y0287846D01*
X0429296Y0287995D01*
X0429386Y0288141D01*
X0429480Y0288285D01*
X0429577Y0288427D01*
X0429678Y0288566D01*
X0429782Y0288703D01*
X0429889Y0288837D01*
X0430000Y0288968D01*
X0430113Y0289097D01*
X0430230Y0289223D01*
X0430350Y0289346D01*
X0430473Y0289466D01*
X0430599Y0289583D01*
X0430728Y0289696D01*
X0430859Y0289807D01*
X0430993Y0289914D01*
X0431130Y0290018D01*
X0431269Y0290119D01*
X0431411Y0290216D01*
X0431555Y0290310D01*
X0431701Y0290400D01*
X0431850Y0290487D01*
X0432000Y0290569D01*
X0432153Y0290649D01*
X0432307Y0290724D01*
X0432463Y0290795D01*
X0432621Y0290863D01*
X0432781Y0290927D01*
X0432942Y0290987D01*
X0433104Y0291043D01*
X0433268Y0291095D01*
X0433433Y0291142D01*
X0433599Y0291186D01*
X0433766Y0291226D01*
X0433934Y0291261D01*
X0434103Y0291293D01*
X0434273Y0291320D01*
X0434443Y0291343D01*
X0434614Y0291362D01*
X0434785Y0291377D01*
X0434957Y0291388D01*
X0435128Y0291394D01*
X0435300Y0291396D01*
X0435472Y0291394D01*
X0435643Y0291388D01*
X0435815Y0291377D01*
X0435986Y0291362D01*
X0436157Y0291343D01*
X0436327Y0291320D01*
X0436497Y0291293D01*
X0436666Y0291261D01*
X0436834Y0291226D01*
X0437001Y0291186D01*
X0437167Y0291142D01*
X0437332Y0291095D01*
X0437496Y0291043D01*
X0437658Y0290987D01*
X0437819Y0290927D01*
X0437979Y0290863D01*
X0438137Y0290795D01*
X0438293Y0290724D01*
X0438447Y0290649D01*
X0438600Y0290569D01*
X0438750Y0290487D01*
X0438899Y0290400D01*
X0439045Y0290310D01*
X0439189Y0290216D01*
X0439331Y0290119D01*
X0439470Y0290018D01*
X0439607Y0289914D01*
X0439741Y0289807D01*
X0439872Y0289696D01*
X0440001Y0289583D01*
X0440127Y0289466D01*
X0440250Y0289346D01*
X0440370Y0289223D01*
X0440487Y0289097D01*
X0440600Y0288968D01*
X0440711Y0288837D01*
X0440818Y0288703D01*
X0440922Y0288566D01*
X0441023Y0288427D01*
X0441120Y0288285D01*
X0441214Y0288141D01*
X0441304Y0287995D01*
X0441391Y0287846D01*
X0441473Y0287696D01*
X0441553Y0287543D01*
X0441628Y0287389D01*
X0441699Y0287233D01*
X0441767Y0287075D01*
X0441831Y0286915D01*
X0441891Y0286754D01*
X0441947Y0286592D01*
X0441999Y0286428D01*
X0442046Y0286263D01*
X0442090Y0286097D01*
X0442130Y0285930D01*
X0442165Y0285762D01*
X0442197Y0285593D01*
X0442224Y0285423D01*
X0442247Y0285253D01*
X0442266Y0285082D01*
X0442281Y0284911D01*
X0442292Y0284739D01*
X0442298Y0284568D01*
X0442300Y0284396D01*
X0442298Y0284224D01*
X0442292Y0284053D01*
X0442281Y0283881D01*
X0442266Y0283710D01*
X0442247Y0283539D01*
X0442224Y0283369D01*
X0442197Y0283199D01*
X0442165Y0283030D01*
X0442130Y0282862D01*
X0442090Y0282695D01*
X0442046Y0282529D01*
X0441999Y0282364D01*
X0441947Y0282200D01*
X0441891Y0282038D01*
X0441831Y0281877D01*
X0441767Y0281717D01*
X0441699Y0281559D01*
X0441628Y0281403D01*
X0441553Y0281249D01*
X0441473Y0281096D01*
X0441391Y0280946D01*
X0441304Y0280797D01*
X0441214Y0280651D01*
X0441120Y0280507D01*
X0441023Y0280365D01*
X0440922Y0280226D01*
X0440818Y0280089D01*
X0440711Y0279955D01*
X0440600Y0279824D01*
X0440487Y0279695D01*
X0440370Y0279569D01*
X0440250Y0279446D01*
X0440127Y0279326D01*
X0440001Y0279209D01*
X0439872Y0279096D01*
X0439741Y0278985D01*
X0439607Y0278878D01*
X0439470Y0278774D01*
X0439331Y0278673D01*
X0439189Y0278576D01*
X0439045Y0278482D01*
X0438899Y0278392D01*
X0438750Y0278305D01*
X0438600Y0278223D01*
X0438447Y0278143D01*
X0438293Y0278068D01*
X0438137Y0277997D01*
X0437979Y0277929D01*
X0437819Y0277865D01*
X0437658Y0277805D01*
X0437496Y0277749D01*
X0437332Y0277697D01*
X0437167Y0277650D01*
X0437001Y0277606D01*
X0436834Y0277566D01*
X0436666Y0277531D01*
X0436497Y0277499D01*
X0436327Y0277472D01*
X0436157Y0277449D01*
X0435986Y0277430D01*
X0435815Y0277415D01*
X0435643Y0277404D01*
X0435472Y0277398D01*
X0435300Y0277396D01*
X0435128Y0277398D01*
X0434957Y0277404D01*
X0434785Y0277415D01*
X0434614Y0277430D01*
X0434443Y0277449D01*
X0434273Y0277472D01*
X0434103Y0277499D01*
X0433934Y0277531D01*
X0433766Y0277566D01*
X0433599Y0277606D01*
X0433433Y0277650D01*
X0433268Y0277697D01*
X0433104Y0277749D01*
X0432942Y0277805D01*
X0432781Y0277865D01*
X0432621Y0277929D01*
X0432463Y0277997D01*
X0432307Y0278068D01*
X0432153Y0278143D01*
X0432000Y0278223D01*
X0431850Y0278305D01*
X0431701Y0278392D01*
X0431555Y0278482D01*
X0431411Y0278576D01*
X0431269Y0278673D01*
X0431130Y0278774D01*
X0430993Y0278878D01*
X0430859Y0278985D01*
X0430728Y0279096D01*
X0430599Y0279209D01*
X0430473Y0279326D01*
X0430350Y0279446D01*
X0430230Y0279569D01*
X0430113Y0279695D01*
X0430000Y0279824D01*
X0429889Y0279955D01*
X0429782Y0280089D01*
X0429678Y0280226D01*
X0429577Y0280365D01*
X0429480Y0280507D01*
X0429386Y0280651D01*
X0429296Y0280797D01*
X0429209Y0280946D01*
X0429127Y0281096D01*
X0429047Y0281249D01*
X0428972Y0281403D01*
X0428901Y0281559D01*
X0428833Y0281717D01*
X0428769Y0281877D01*
X0428709Y0282038D01*
X0428653Y0282200D01*
X0428601Y0282364D01*
X0428554Y0282529D01*
X0428510Y0282695D01*
X0428470Y0282862D01*
X0428435Y0283030D01*
X0428403Y0283199D01*
X0428376Y0283369D01*
X0428353Y0283539D01*
X0428334Y0283710D01*
X0428319Y0283881D01*
X0428308Y0284053D01*
X0428302Y0284224D01*
X0428300Y0284396D01*
X0428300Y0089396D02*
X0428302Y0089568D01*
X0428308Y0089739D01*
X0428319Y0089911D01*
X0428334Y0090082D01*
X0428353Y0090253D01*
X0428376Y0090423D01*
X0428403Y0090593D01*
X0428435Y0090762D01*
X0428470Y0090930D01*
X0428510Y0091097D01*
X0428554Y0091263D01*
X0428601Y0091428D01*
X0428653Y0091592D01*
X0428709Y0091754D01*
X0428769Y0091915D01*
X0428833Y0092075D01*
X0428901Y0092233D01*
X0428972Y0092389D01*
X0429047Y0092543D01*
X0429127Y0092696D01*
X0429209Y0092846D01*
X0429296Y0092995D01*
X0429386Y0093141D01*
X0429480Y0093285D01*
X0429577Y0093427D01*
X0429678Y0093566D01*
X0429782Y0093703D01*
X0429889Y0093837D01*
X0430000Y0093968D01*
X0430113Y0094097D01*
X0430230Y0094223D01*
X0430350Y0094346D01*
X0430473Y0094466D01*
X0430599Y0094583D01*
X0430728Y0094696D01*
X0430859Y0094807D01*
X0430993Y0094914D01*
X0431130Y0095018D01*
X0431269Y0095119D01*
X0431411Y0095216D01*
X0431555Y0095310D01*
X0431701Y0095400D01*
X0431850Y0095487D01*
X0432000Y0095569D01*
X0432153Y0095649D01*
X0432307Y0095724D01*
X0432463Y0095795D01*
X0432621Y0095863D01*
X0432781Y0095927D01*
X0432942Y0095987D01*
X0433104Y0096043D01*
X0433268Y0096095D01*
X0433433Y0096142D01*
X0433599Y0096186D01*
X0433766Y0096226D01*
X0433934Y0096261D01*
X0434103Y0096293D01*
X0434273Y0096320D01*
X0434443Y0096343D01*
X0434614Y0096362D01*
X0434785Y0096377D01*
X0434957Y0096388D01*
X0435128Y0096394D01*
X0435300Y0096396D01*
X0435472Y0096394D01*
X0435643Y0096388D01*
X0435815Y0096377D01*
X0435986Y0096362D01*
X0436157Y0096343D01*
X0436327Y0096320D01*
X0436497Y0096293D01*
X0436666Y0096261D01*
X0436834Y0096226D01*
X0437001Y0096186D01*
X0437167Y0096142D01*
X0437332Y0096095D01*
X0437496Y0096043D01*
X0437658Y0095987D01*
X0437819Y0095927D01*
X0437979Y0095863D01*
X0438137Y0095795D01*
X0438293Y0095724D01*
X0438447Y0095649D01*
X0438600Y0095569D01*
X0438750Y0095487D01*
X0438899Y0095400D01*
X0439045Y0095310D01*
X0439189Y0095216D01*
X0439331Y0095119D01*
X0439470Y0095018D01*
X0439607Y0094914D01*
X0439741Y0094807D01*
X0439872Y0094696D01*
X0440001Y0094583D01*
X0440127Y0094466D01*
X0440250Y0094346D01*
X0440370Y0094223D01*
X0440487Y0094097D01*
X0440600Y0093968D01*
X0440711Y0093837D01*
X0440818Y0093703D01*
X0440922Y0093566D01*
X0441023Y0093427D01*
X0441120Y0093285D01*
X0441214Y0093141D01*
X0441304Y0092995D01*
X0441391Y0092846D01*
X0441473Y0092696D01*
X0441553Y0092543D01*
X0441628Y0092389D01*
X0441699Y0092233D01*
X0441767Y0092075D01*
X0441831Y0091915D01*
X0441891Y0091754D01*
X0441947Y0091592D01*
X0441999Y0091428D01*
X0442046Y0091263D01*
X0442090Y0091097D01*
X0442130Y0090930D01*
X0442165Y0090762D01*
X0442197Y0090593D01*
X0442224Y0090423D01*
X0442247Y0090253D01*
X0442266Y0090082D01*
X0442281Y0089911D01*
X0442292Y0089739D01*
X0442298Y0089568D01*
X0442300Y0089396D01*
X0442298Y0089224D01*
X0442292Y0089053D01*
X0442281Y0088881D01*
X0442266Y0088710D01*
X0442247Y0088539D01*
X0442224Y0088369D01*
X0442197Y0088199D01*
X0442165Y0088030D01*
X0442130Y0087862D01*
X0442090Y0087695D01*
X0442046Y0087529D01*
X0441999Y0087364D01*
X0441947Y0087200D01*
X0441891Y0087038D01*
X0441831Y0086877D01*
X0441767Y0086717D01*
X0441699Y0086559D01*
X0441628Y0086403D01*
X0441553Y0086249D01*
X0441473Y0086096D01*
X0441391Y0085946D01*
X0441304Y0085797D01*
X0441214Y0085651D01*
X0441120Y0085507D01*
X0441023Y0085365D01*
X0440922Y0085226D01*
X0440818Y0085089D01*
X0440711Y0084955D01*
X0440600Y0084824D01*
X0440487Y0084695D01*
X0440370Y0084569D01*
X0440250Y0084446D01*
X0440127Y0084326D01*
X0440001Y0084209D01*
X0439872Y0084096D01*
X0439741Y0083985D01*
X0439607Y0083878D01*
X0439470Y0083774D01*
X0439331Y0083673D01*
X0439189Y0083576D01*
X0439045Y0083482D01*
X0438899Y0083392D01*
X0438750Y0083305D01*
X0438600Y0083223D01*
X0438447Y0083143D01*
X0438293Y0083068D01*
X0438137Y0082997D01*
X0437979Y0082929D01*
X0437819Y0082865D01*
X0437658Y0082805D01*
X0437496Y0082749D01*
X0437332Y0082697D01*
X0437167Y0082650D01*
X0437001Y0082606D01*
X0436834Y0082566D01*
X0436666Y0082531D01*
X0436497Y0082499D01*
X0436327Y0082472D01*
X0436157Y0082449D01*
X0435986Y0082430D01*
X0435815Y0082415D01*
X0435643Y0082404D01*
X0435472Y0082398D01*
X0435300Y0082396D01*
X0435128Y0082398D01*
X0434957Y0082404D01*
X0434785Y0082415D01*
X0434614Y0082430D01*
X0434443Y0082449D01*
X0434273Y0082472D01*
X0434103Y0082499D01*
X0433934Y0082531D01*
X0433766Y0082566D01*
X0433599Y0082606D01*
X0433433Y0082650D01*
X0433268Y0082697D01*
X0433104Y0082749D01*
X0432942Y0082805D01*
X0432781Y0082865D01*
X0432621Y0082929D01*
X0432463Y0082997D01*
X0432307Y0083068D01*
X0432153Y0083143D01*
X0432000Y0083223D01*
X0431850Y0083305D01*
X0431701Y0083392D01*
X0431555Y0083482D01*
X0431411Y0083576D01*
X0431269Y0083673D01*
X0431130Y0083774D01*
X0430993Y0083878D01*
X0430859Y0083985D01*
X0430728Y0084096D01*
X0430599Y0084209D01*
X0430473Y0084326D01*
X0430350Y0084446D01*
X0430230Y0084569D01*
X0430113Y0084695D01*
X0430000Y0084824D01*
X0429889Y0084955D01*
X0429782Y0085089D01*
X0429678Y0085226D01*
X0429577Y0085365D01*
X0429480Y0085507D01*
X0429386Y0085651D01*
X0429296Y0085797D01*
X0429209Y0085946D01*
X0429127Y0086096D01*
X0429047Y0086249D01*
X0428972Y0086403D01*
X0428901Y0086559D01*
X0428833Y0086717D01*
X0428769Y0086877D01*
X0428709Y0087038D01*
X0428653Y0087200D01*
X0428601Y0087364D01*
X0428554Y0087529D01*
X0428510Y0087695D01*
X0428470Y0087862D01*
X0428435Y0088030D01*
X0428403Y0088199D01*
X0428376Y0088369D01*
X0428353Y0088539D01*
X0428334Y0088710D01*
X0428319Y0088881D01*
X0428308Y0089053D01*
X0428302Y0089224D01*
X0428300Y0089396D01*
X0360721Y0082955D02*
X0360723Y0083086D01*
X0360729Y0083218D01*
X0360739Y0083349D01*
X0360753Y0083480D01*
X0360771Y0083610D01*
X0360793Y0083739D01*
X0360818Y0083868D01*
X0360848Y0083996D01*
X0360882Y0084123D01*
X0360919Y0084250D01*
X0360960Y0084374D01*
X0361005Y0084498D01*
X0361054Y0084620D01*
X0361106Y0084741D01*
X0361162Y0084859D01*
X0361222Y0084977D01*
X0361285Y0085092D01*
X0361352Y0085205D01*
X0361422Y0085317D01*
X0361495Y0085426D01*
X0361571Y0085532D01*
X0361651Y0085637D01*
X0361734Y0085739D01*
X0361820Y0085838D01*
X0361909Y0085935D01*
X0362001Y0086029D01*
X0362096Y0086120D01*
X0362193Y0086209D01*
X0362293Y0086294D01*
X0362396Y0086376D01*
X0362501Y0086455D01*
X0362608Y0086531D01*
X0362718Y0086603D01*
X0362830Y0086672D01*
X0362944Y0086738D01*
X0363059Y0086800D01*
X0363177Y0086859D01*
X0363296Y0086914D01*
X0363417Y0086966D01*
X0363540Y0087013D01*
X0363664Y0087057D01*
X0363789Y0087098D01*
X0363915Y0087134D01*
X0364043Y0087167D01*
X0364171Y0087195D01*
X0364300Y0087220D01*
X0364430Y0087241D01*
X0364560Y0087258D01*
X0364691Y0087271D01*
X0364822Y0087280D01*
X0364953Y0087285D01*
X0365085Y0087286D01*
X0365216Y0087283D01*
X0365348Y0087276D01*
X0365479Y0087265D01*
X0365609Y0087250D01*
X0365739Y0087231D01*
X0365869Y0087208D01*
X0365997Y0087182D01*
X0366125Y0087151D01*
X0366252Y0087116D01*
X0366378Y0087078D01*
X0366502Y0087036D01*
X0366626Y0086990D01*
X0366747Y0086940D01*
X0366867Y0086887D01*
X0366986Y0086830D01*
X0367103Y0086770D01*
X0367217Y0086706D01*
X0367330Y0086638D01*
X0367441Y0086567D01*
X0367550Y0086493D01*
X0367656Y0086416D01*
X0367760Y0086335D01*
X0367861Y0086252D01*
X0367960Y0086165D01*
X0368056Y0086075D01*
X0368149Y0085982D01*
X0368240Y0085887D01*
X0368327Y0085789D01*
X0368412Y0085688D01*
X0368493Y0085585D01*
X0368571Y0085479D01*
X0368646Y0085371D01*
X0368718Y0085261D01*
X0368786Y0085149D01*
X0368851Y0085035D01*
X0368912Y0084918D01*
X0368970Y0084800D01*
X0369024Y0084680D01*
X0369075Y0084559D01*
X0369122Y0084436D01*
X0369165Y0084312D01*
X0369204Y0084187D01*
X0369240Y0084060D01*
X0369271Y0083932D01*
X0369299Y0083804D01*
X0369323Y0083675D01*
X0369343Y0083545D01*
X0369359Y0083414D01*
X0369371Y0083283D01*
X0369379Y0083152D01*
X0369383Y0083021D01*
X0369383Y0082889D01*
X0369379Y0082758D01*
X0369371Y0082627D01*
X0369359Y0082496D01*
X0369343Y0082365D01*
X0369323Y0082235D01*
X0369299Y0082106D01*
X0369271Y0081978D01*
X0369240Y0081850D01*
X0369204Y0081723D01*
X0369165Y0081598D01*
X0369122Y0081474D01*
X0369075Y0081351D01*
X0369024Y0081230D01*
X0368970Y0081110D01*
X0368912Y0080992D01*
X0368851Y0080875D01*
X0368786Y0080761D01*
X0368718Y0080649D01*
X0368646Y0080539D01*
X0368571Y0080431D01*
X0368493Y0080325D01*
X0368412Y0080222D01*
X0368327Y0080121D01*
X0368240Y0080023D01*
X0368149Y0079928D01*
X0368056Y0079835D01*
X0367960Y0079745D01*
X0367861Y0079658D01*
X0367760Y0079575D01*
X0367656Y0079494D01*
X0367550Y0079417D01*
X0367441Y0079343D01*
X0367330Y0079272D01*
X0367218Y0079204D01*
X0367103Y0079140D01*
X0366986Y0079080D01*
X0366867Y0079023D01*
X0366747Y0078970D01*
X0366626Y0078920D01*
X0366502Y0078874D01*
X0366378Y0078832D01*
X0366252Y0078794D01*
X0366125Y0078759D01*
X0365997Y0078728D01*
X0365869Y0078702D01*
X0365739Y0078679D01*
X0365609Y0078660D01*
X0365479Y0078645D01*
X0365348Y0078634D01*
X0365216Y0078627D01*
X0365085Y0078624D01*
X0364953Y0078625D01*
X0364822Y0078630D01*
X0364691Y0078639D01*
X0364560Y0078652D01*
X0364430Y0078669D01*
X0364300Y0078690D01*
X0364171Y0078715D01*
X0364043Y0078743D01*
X0363915Y0078776D01*
X0363789Y0078812D01*
X0363664Y0078853D01*
X0363540Y0078897D01*
X0363417Y0078944D01*
X0363296Y0078996D01*
X0363177Y0079051D01*
X0363059Y0079110D01*
X0362944Y0079172D01*
X0362830Y0079238D01*
X0362718Y0079307D01*
X0362608Y0079379D01*
X0362501Y0079455D01*
X0362396Y0079534D01*
X0362293Y0079616D01*
X0362193Y0079701D01*
X0362096Y0079790D01*
X0362001Y0079881D01*
X0361909Y0079975D01*
X0361820Y0080072D01*
X0361734Y0080171D01*
X0361651Y0080273D01*
X0361571Y0080378D01*
X0361495Y0080484D01*
X0361422Y0080593D01*
X0361352Y0080705D01*
X0361285Y0080818D01*
X0361222Y0080933D01*
X0361162Y0081051D01*
X0361106Y0081169D01*
X0361054Y0081290D01*
X0361005Y0081412D01*
X0360960Y0081536D01*
X0360919Y0081660D01*
X0360882Y0081787D01*
X0360848Y0081914D01*
X0360818Y0082042D01*
X0360793Y0082171D01*
X0360771Y0082300D01*
X0360753Y0082430D01*
X0360739Y0082561D01*
X0360729Y0082692D01*
X0360723Y0082824D01*
X0360721Y0082955D01*
D11*
X0435300Y0089396D03*
X0435300Y0284396D03*
X0019800Y0282396D03*
X0019800Y0089396D03*
D12*
X0284700Y0058596D03*
X0284700Y0054896D03*
X0284700Y0051196D03*
X0294900Y0051196D03*
X0294900Y0058596D03*
X0037900Y0385696D03*
X0037900Y0389396D03*
X0037900Y0393096D03*
X0027700Y0393096D03*
X0027700Y0389396D03*
X0027700Y0385696D03*
D13*
X0327363Y0059896D03*
X0335237Y0059896D03*
X0311737Y0051396D03*
X0303863Y0051396D03*
D14*
X0293646Y0067896D03*
X0286954Y0067896D03*
X0328954Y0043146D03*
X0335646Y0043146D03*
X0396800Y0077550D03*
X0396800Y0084243D03*
X0280800Y0121550D03*
X0280800Y0128243D03*
X0204800Y0081743D03*
X0204800Y0075050D03*
X0139800Y0142550D03*
X0139800Y0149243D03*
X0118646Y0271396D03*
X0111954Y0271396D03*
X0113454Y0306896D03*
X0120146Y0306896D03*
X0100646Y0306896D03*
X0093954Y0306896D03*
X0064146Y0321896D03*
X0057454Y0321896D03*
X0029800Y0317243D03*
X0029800Y0310550D03*
X0091454Y0336396D03*
X0098146Y0336396D03*
X0125954Y0336396D03*
X0132646Y0336396D03*
X0150300Y0322743D03*
X0150300Y0316050D03*
X0182954Y0320396D03*
X0189646Y0320396D03*
X0196454Y0320396D03*
X0203146Y0320396D03*
X0214300Y0341550D03*
X0214300Y0348243D03*
X0182300Y0391550D03*
X0182300Y0398243D03*
X0070800Y0382743D03*
X0070800Y0376050D03*
X0256954Y0274396D03*
X0263646Y0274396D03*
X0330300Y0310050D03*
X0330300Y0316743D03*
X0029800Y0032743D03*
X0029800Y0026050D03*
D15*
X0054300Y0051396D03*
X0035300Y0076396D03*
X0015800Y0071396D03*
X0149050Y0077896D03*
X0342050Y0075396D03*
X0382800Y0080896D03*
X0382550Y0065146D03*
X0419800Y0051396D03*
X0435800Y0051396D03*
X0431800Y0150896D03*
X0431300Y0173896D03*
X0431300Y0200896D03*
X0423300Y0312396D03*
X0404300Y0312896D03*
X0384800Y0312896D03*
X0363800Y0312896D03*
X0433800Y0375396D03*
X0150300Y0336396D03*
X0132300Y0307396D03*
X0116800Y0337396D03*
X0082300Y0307396D03*
X0079800Y0336396D03*
X0037800Y0369896D03*
X0019800Y0366396D03*
X0015300Y0396896D03*
D16*
X0383830Y0036396D03*
D17*
X0351546Y0036396D03*
X0351546Y0029703D03*
X0351546Y0023010D03*
X0351546Y0043089D03*
X0351546Y0049782D03*
D18*
X0335646Y0032646D03*
X0328954Y0032646D03*
X0327300Y0070550D03*
X0327300Y0077243D03*
X0284896Y0035646D03*
X0278204Y0035646D03*
X0406954Y0064896D03*
X0413646Y0064896D03*
X0263800Y0258550D03*
X0263800Y0265243D03*
X0266800Y0306550D03*
X0266800Y0313243D03*
X0266800Y0322050D03*
X0266800Y0328743D03*
X0242300Y0318743D03*
X0242300Y0312050D03*
X0230800Y0312243D03*
X0230800Y0305550D03*
X0203146Y0311396D03*
X0196454Y0311396D03*
X0170146Y0345396D03*
X0163454Y0345396D03*
X0158146Y0399896D03*
X0151454Y0399896D03*
X0064146Y0350396D03*
X0057454Y0350396D03*
X0057300Y0340243D03*
X0057300Y0333550D03*
X0057454Y0307396D03*
X0064146Y0307396D03*
X0102300Y0270243D03*
X0102300Y0263550D03*
X0140800Y0265050D03*
X0140800Y0271743D03*
X0021300Y0310550D03*
X0021300Y0317243D03*
X0019954Y0378396D03*
X0026646Y0378396D03*
X0307454Y0396396D03*
X0314146Y0396396D03*
X0314646Y0325896D03*
X0307954Y0325896D03*
X0060146Y0065396D03*
X0053454Y0065396D03*
X0129204Y0034646D03*
X0135896Y0034646D03*
D19*
X0231105Y0035896D03*
X0231105Y0030896D03*
X0231105Y0025896D03*
X0231105Y0020896D03*
X0231105Y0040896D03*
X0231105Y0045896D03*
X0231105Y0050896D03*
X0231105Y0055896D03*
X0231105Y0060896D03*
X0231105Y0065896D03*
X0267995Y0065896D03*
X0267995Y0060896D03*
X0267995Y0055896D03*
X0267995Y0050896D03*
X0267995Y0045896D03*
X0267995Y0040896D03*
X0267995Y0035896D03*
X0267995Y0030896D03*
X0267995Y0025896D03*
X0267995Y0020896D03*
D20*
X0177050Y0047896D03*
X0275800Y0375396D03*
D21*
X0243517Y0375396D03*
X0308083Y0375396D03*
X0209333Y0047896D03*
X0144767Y0047896D03*
D22*
X0325788Y0021896D03*
X0336812Y0021896D03*
X0346788Y0061396D03*
X0357812Y0061396D03*
X0172312Y0355896D03*
X0161288Y0355896D03*
D23*
X0096812Y0081321D03*
X0074371Y0081321D03*
D24*
X0068072Y0029550D03*
X0119843Y0025613D03*
D25*
X0101497Y0040770D03*
X0097166Y0042345D03*
X0092835Y0040770D03*
X0088505Y0039983D03*
X0084174Y0040770D03*
X0079843Y0039983D03*
X0075513Y0040770D03*
X0071182Y0040770D03*
D26*
X0070800Y0100396D03*
X0060800Y0100396D03*
X0080800Y0100396D03*
X0090800Y0100396D03*
X0100800Y0100396D03*
X0110800Y0100396D03*
X0120800Y0100396D03*
X0130800Y0100396D03*
X0150800Y0100396D03*
X0160800Y0100396D03*
X0170800Y0100396D03*
X0180800Y0100396D03*
X0190800Y0100396D03*
X0200800Y0100396D03*
X0210800Y0100396D03*
X0220800Y0100396D03*
X0240800Y0100396D03*
X0250800Y0100396D03*
X0260800Y0100396D03*
X0270800Y0100396D03*
X0280800Y0100396D03*
X0290800Y0100396D03*
X0300800Y0100396D03*
X0310800Y0100396D03*
X0306800Y0290396D03*
X0296800Y0290396D03*
X0286800Y0290396D03*
X0276800Y0290396D03*
X0266800Y0290396D03*
X0256800Y0290396D03*
X0240800Y0290396D03*
X0230800Y0290396D03*
X0220800Y0290396D03*
X0210800Y0290396D03*
X0200800Y0290396D03*
X0190800Y0290396D03*
X0180800Y0290396D03*
X0170800Y0290396D03*
X0150800Y0290396D03*
X0140800Y0290396D03*
X0130800Y0290396D03*
X0120800Y0290396D03*
X0110800Y0290396D03*
X0100800Y0290396D03*
X0090800Y0290396D03*
X0080800Y0290396D03*
X0050800Y0290396D03*
X0040800Y0290396D03*
X0040800Y0120396D03*
X0050800Y0120396D03*
X0316800Y0290396D03*
X0326800Y0290396D03*
X0336800Y0290396D03*
X0346800Y0290396D03*
D27*
X0239265Y0248309D03*
X0229265Y0248309D03*
X0219265Y0248309D03*
X0209265Y0248309D03*
X0199265Y0248309D03*
X0189265Y0248309D03*
X0172847Y0248309D03*
X0162847Y0248309D03*
X0152847Y0248309D03*
X0142847Y0248309D03*
X0132847Y0248309D03*
X0122847Y0248309D03*
X0112847Y0248309D03*
X0102847Y0248309D03*
X0050800Y0250396D03*
X0050800Y0240396D03*
X0050800Y0230396D03*
X0050800Y0220396D03*
X0050800Y0210396D03*
X0050800Y0200396D03*
X0050800Y0190396D03*
X0050800Y0180396D03*
X0050800Y0170396D03*
X0050800Y0160396D03*
X0050800Y0150396D03*
X0050800Y0140396D03*
X0050800Y0130396D03*
X0040800Y0130396D03*
X0040800Y0140396D03*
X0040800Y0150396D03*
X0040800Y0160396D03*
X0040800Y0170396D03*
X0040800Y0180396D03*
X0040800Y0190396D03*
X0040800Y0200396D03*
X0040800Y0210396D03*
X0040800Y0220396D03*
X0040800Y0230396D03*
X0040800Y0240396D03*
X0040800Y0250396D03*
X0040800Y0260396D03*
X0040800Y0270396D03*
X0040800Y0280396D03*
X0050800Y0280396D03*
X0050800Y0270396D03*
X0050800Y0260396D03*
X0160800Y0210396D03*
X0160800Y0200396D03*
X0160800Y0190396D03*
X0170800Y0190396D03*
X0170800Y0200396D03*
X0170800Y0210396D03*
D28*
X0403680Y0124276D02*
X0407920Y0124276D01*
X0403680Y0124276D02*
X0403680Y0126516D01*
X0407920Y0126516D01*
X0407920Y0124276D01*
X0407920Y0124835D02*
X0403680Y0124835D01*
X0403680Y0125394D02*
X0407920Y0125394D01*
X0407920Y0125953D02*
X0403680Y0125953D01*
X0403680Y0126512D02*
X0407920Y0126512D01*
X0407920Y0114276D02*
X0403680Y0114276D01*
X0403680Y0116516D01*
X0407920Y0116516D01*
X0407920Y0114276D01*
X0407920Y0114835D02*
X0403680Y0114835D01*
X0403680Y0115394D02*
X0407920Y0115394D01*
X0407920Y0115953D02*
X0403680Y0115953D01*
X0403680Y0116512D02*
X0407920Y0116512D01*
X0408680Y0229276D02*
X0412920Y0229276D01*
X0408680Y0229276D02*
X0408680Y0231516D01*
X0412920Y0231516D01*
X0412920Y0229276D01*
X0412920Y0229835D02*
X0408680Y0229835D01*
X0408680Y0230394D02*
X0412920Y0230394D01*
X0412920Y0230953D02*
X0408680Y0230953D01*
X0408680Y0231512D02*
X0412920Y0231512D01*
X0412920Y0234276D02*
X0408680Y0234276D01*
X0408680Y0236516D01*
X0412920Y0236516D01*
X0412920Y0234276D01*
X0412920Y0234835D02*
X0408680Y0234835D01*
X0408680Y0235394D02*
X0412920Y0235394D01*
X0412920Y0235953D02*
X0408680Y0235953D01*
X0408680Y0236512D02*
X0412920Y0236512D01*
X0412920Y0244276D02*
X0408680Y0244276D01*
X0408680Y0246516D01*
X0412920Y0246516D01*
X0412920Y0244276D01*
X0412920Y0244835D02*
X0408680Y0244835D01*
X0408680Y0245394D02*
X0412920Y0245394D01*
X0412920Y0245953D02*
X0408680Y0245953D01*
X0408680Y0246512D02*
X0412920Y0246512D01*
X0412920Y0249276D02*
X0408680Y0249276D01*
X0408680Y0251516D01*
X0412920Y0251516D01*
X0412920Y0249276D01*
X0412920Y0249835D02*
X0408680Y0249835D01*
X0408680Y0250394D02*
X0412920Y0250394D01*
X0412920Y0250953D02*
X0408680Y0250953D01*
X0408680Y0251512D02*
X0412920Y0251512D01*
D29*
X0365052Y0082955D03*
X0090643Y0247916D03*
D30*
X0407060Y0084514D03*
X0414540Y0084514D03*
X0414540Y0074278D03*
X0410800Y0074278D03*
X0407060Y0074278D03*
D31*
X0038631Y0055270D03*
X0038631Y0052120D03*
X0038631Y0048971D03*
X0038631Y0045821D03*
X0038631Y0042672D03*
X0038631Y0039522D03*
X0029969Y0039522D03*
X0029969Y0042672D03*
X0029969Y0045821D03*
X0029969Y0048971D03*
X0029969Y0052120D03*
X0029969Y0055270D03*
D32*
X0034300Y0055664D03*
X0034300Y0039128D03*
D33*
X0147800Y0142696D03*
X0152800Y0142696D03*
X0157800Y0142696D03*
X0162800Y0142696D03*
X0167800Y0142696D03*
X0172800Y0142696D03*
X0177800Y0142696D03*
X0182800Y0142696D03*
X0182800Y0162096D03*
X0177800Y0162096D03*
X0172800Y0162096D03*
X0167800Y0162096D03*
X0162800Y0162096D03*
X0157800Y0162096D03*
X0152800Y0162096D03*
X0147800Y0162096D03*
D34*
X0215700Y0081396D03*
X0220900Y0081396D03*
X0220900Y0073396D03*
X0218300Y0073396D03*
X0215700Y0073396D03*
X0340700Y0308396D03*
X0343300Y0308396D03*
X0345900Y0308396D03*
X0345900Y0316396D03*
X0340700Y0316396D03*
X0307900Y0333896D03*
X0302700Y0333896D03*
X0302700Y0341896D03*
X0305300Y0341896D03*
X0307900Y0341896D03*
D35*
X0325272Y0343321D03*
X0325272Y0349227D03*
X0325272Y0355132D03*
X0325272Y0361038D03*
X0325272Y0366943D03*
X0325272Y0372849D03*
X0325272Y0378754D03*
X0325272Y0384660D03*
X0325272Y0390565D03*
X0325272Y0396471D03*
X0384328Y0396471D03*
X0384328Y0390565D03*
X0384328Y0384660D03*
X0384328Y0378754D03*
X0384328Y0372849D03*
X0384328Y0366943D03*
X0384328Y0361038D03*
X0384328Y0355132D03*
X0384328Y0349227D03*
X0384328Y0343321D03*
D36*
X0356769Y0373243D03*
D37*
X0408800Y0344896D03*
D38*
X0398800Y0334896D03*
X0398800Y0354896D03*
X0418800Y0354896D03*
X0418800Y0334896D03*
D39*
X0284040Y0322065D03*
X0276560Y0322065D03*
X0280300Y0330727D03*
X0124040Y0325227D03*
X0116560Y0325227D03*
X0120300Y0316565D03*
X0098040Y0324727D03*
X0090560Y0324727D03*
X0094300Y0316065D03*
D40*
X0048500Y0318996D03*
X0041100Y0318996D03*
X0041100Y0308796D03*
X0044800Y0308796D03*
X0048500Y0308796D03*
X0145600Y0350796D03*
X0149300Y0350796D03*
X0153000Y0350796D03*
X0153000Y0360996D03*
X0149300Y0360996D03*
X0145600Y0360996D03*
D41*
X0153300Y0370696D03*
X0158300Y0370696D03*
X0163300Y0370696D03*
X0168300Y0370696D03*
X0168300Y0390096D03*
X0163300Y0390096D03*
X0158300Y0390096D03*
X0153300Y0390096D03*
X0160300Y0335096D03*
X0165300Y0335096D03*
X0170300Y0335096D03*
X0175300Y0335096D03*
X0175300Y0315696D03*
X0170300Y0315696D03*
X0165300Y0315696D03*
X0160300Y0315696D03*
X0062300Y0363196D03*
X0057300Y0363196D03*
X0052300Y0363196D03*
X0047300Y0363196D03*
X0047300Y0382596D03*
X0052300Y0382596D03*
X0057300Y0382596D03*
X0062300Y0382596D03*
D42*
X0178363Y0385715D03*
X0180331Y0385715D03*
X0182300Y0385715D03*
X0184269Y0385715D03*
X0186237Y0385715D03*
X0186237Y0369077D03*
X0184269Y0369077D03*
X0182300Y0369077D03*
X0180331Y0369077D03*
X0178363Y0369077D03*
D43*
X0197702Y0396896D03*
X0208898Y0396896D03*
D44*
X0221300Y0346996D03*
X0221300Y0341796D03*
X0229300Y0341796D03*
X0229300Y0344396D03*
X0229300Y0346996D03*
D45*
X0230631Y0329636D03*
X0230631Y0322156D03*
X0221969Y0325896D03*
X0274469Y0265636D03*
X0274469Y0258156D03*
X0283131Y0261896D03*
X0162131Y0267896D03*
X0153469Y0264156D03*
X0153469Y0271636D03*
D46*
X0123300Y0358196D02*
X0123300Y0364596D01*
X0113300Y0364596D02*
X0113300Y0358196D01*
X0103300Y0358196D02*
X0103300Y0364596D01*
X0093300Y0364596D02*
X0093300Y0358196D01*
X0093300Y0387196D02*
X0093300Y0393596D01*
X0103300Y0393596D02*
X0103300Y0387196D01*
X0113300Y0387196D02*
X0113300Y0393596D01*
X0123300Y0393596D02*
X0123300Y0387196D01*
X0205100Y0377396D02*
X0211500Y0377396D01*
X0211500Y0367396D02*
X0205100Y0367396D01*
X0028500Y0347896D02*
X0022100Y0347896D01*
X0022100Y0337896D02*
X0028500Y0337896D01*
X0419800Y0030096D02*
X0419800Y0023696D01*
X0429800Y0023696D02*
X0429800Y0030096D01*
D47*
X0052900Y0073296D03*
X0047700Y0073296D03*
X0047700Y0081496D03*
X0050300Y0081496D03*
X0052900Y0081496D03*
D48*
X0270800Y0121703D03*
X0270800Y0135089D03*
D49*
X0200300Y0329660D03*
X0195300Y0329660D03*
X0190300Y0329660D03*
X0185300Y0329660D03*
X0185300Y0350132D03*
X0190300Y0350132D03*
X0195300Y0350132D03*
X0200300Y0350132D03*
D50*
X0173800Y0379396D03*
X0175300Y0392396D03*
X0164800Y0397896D03*
X0134800Y0390396D03*
X0072800Y0357396D03*
X0038300Y0342396D03*
X0048300Y0326896D03*
X0013800Y0321896D03*
X0057300Y0390896D03*
X0107300Y0324896D03*
X0107300Y0314396D03*
X0130969Y0325227D03*
X0158800Y0306896D03*
X0166800Y0298396D03*
X0183300Y0311896D03*
X0219800Y0315396D03*
X0242300Y0329896D03*
X0240300Y0343896D03*
X0266800Y0336896D03*
X0290300Y0322396D03*
X0308800Y0314396D03*
X0318300Y0333896D03*
X0330300Y0325396D03*
X0311300Y0359896D03*
X0315300Y0387896D03*
X0383300Y0328896D03*
X0275800Y0251396D03*
X0190800Y0161896D03*
X0211300Y0146396D03*
X0177800Y0117896D03*
X0209800Y0086896D03*
X0218300Y0063396D03*
X0211300Y0035896D03*
X0216800Y0025896D03*
X0278300Y0015396D03*
X0302300Y0067396D03*
X0314300Y0066396D03*
X0333800Y0084896D03*
X0350300Y0092396D03*
X0270800Y0143396D03*
X0248800Y0089396D03*
X0264300Y0082896D03*
X0175800Y0083396D03*
X0137300Y0121396D03*
X0139800Y0134396D03*
X0127300Y0084396D03*
X0127300Y0057396D03*
X0129300Y0025896D03*
X0142800Y0026396D03*
X0077300Y0025396D03*
X0051800Y0031896D03*
X0041800Y0024896D03*
X0052300Y0041896D03*
X0045800Y0061396D03*
X0059800Y0072896D03*
X0020300Y0055396D03*
X0021800Y0044396D03*
X0020300Y0032396D03*
X0128300Y0264896D03*
X0224800Y0399396D03*
M02*
